<?xml version="1.0" encoding="utf-8"?>
<!-- Generator: Adobe Illustrator 19.0.0, SVG Export Plug-In . SVG Version: 6.00 Build 0)  -->
<svg version="1.1" id="Layer_1" xmlns="http://www.w3.org/2000/svg" xmlns:xlink="http://www.w3.org/1999/xlink" x="0px" y="0px"
	 width="512px" height="512px" viewBox="-49 141 512 512" style="enable-background:new -49 141 512 512;" xml:space="preserve">
<style type="text/css">
	.st0{fill:none;stroke:#4F5456;stroke-width:14;stroke-linecap:round;stroke-linejoin:round;stroke-miterlimit:10;}
</style>
<g>
	<path class="st0" d="M313.7947998,397.1088257c-0.0002747-27.3574829-10.4369507-54.7151489-31.3101196-75.5882874
		c-0.1403809-0.1403809-0.2842102-0.275177-0.4252014-0.4145813c-41.7797852-41.3266907-109.147049-41.1918335-150.753479,0.4146423
		c-41.7469177,41.7467957-41.7469177,109.4318237,0,151.1785889c41.7467957,41.7469177,109.431839,41.7469788,151.1787415,0.0000305
		c20.8734436-20.8733521,31.3100586-48.2313538,31.3101196-75.589325
		C313.7948608,397.1094971,313.7947998,397.1092224,313.7947998,397.1088257"/>
	<line class="st0" x1="206.8955688" y1="197.9300537" x2="206.8955688" y2="159.2223358"/>
	<line class="st0" x1="206.8955688" y1="197.9300537" x2="206.8955688" y2="239.7194977"/>
	<line class="st0" x1="206.8950653" y1="596.2923584" x2="206.8950653" y2="554.5028076"/>
	<line class="st0" x1="206.8950653" y1="596.2923584" x2="206.8951263" y2="635"/>
	<path class="st0" d="M206.8955688,197.9300537c-0.0009003,0-0.0016785-0.000061-0.0026245-0.000061
		c-50.9749451-0.000061-101.9497757,19.4461823-140.8423615,58.3387756
		c-0.2615738,0.2616272-0.5127563,0.5296936-0.7725449,0.7923889
		c-38.3703232,38.7910461-57.552803,89.4202881-57.5560455,140.0497742"/>
	<path class="st0" d="M206.8950653,596.2923584c-50.9756165,0.0006104-101.9513931-19.4456787-140.8445435-58.3388062
		c-38.8933678-38.8934021-58.3317795-89.868103-58.328537-140.8426208"/>
	<path class="st0" d="M406.0741272,397.1114502c-0.000061,50.974884-19.4463501,101.949585-58.3388367,140.8421021
		c-38.8919678,38.8919678-89.8659973,58.3382568-140.8402252,58.3388062"/>
	<line class="st0" x1="406.0741272" y1="397.1114502" x2="406.0741272" y2="397.1087646"/>
	<path class="st0" d="M206.8955688,197.9300537c50.973877,0.0006104,101.9478149,19.4467926,140.8397217,58.3387146
		s58.3382263,89.8658447,58.3388367,140.8399963"/>
	<line class="st0" x1="7.7219934" y1="397.1109314" x2="49.5036812" y2="397.1109314"/>
	<line class="st0" x1="364.2924194" y1="397.1109314" x2="406.0741272" y2="397.1109314"/>
	<line class="st0" x1="7.7219934" y1="397.1109314" x2="-30.9934311" y2="397.1109314"/>
	<line class="st0" x1="444.7895508" y1="397.1109314" x2="406.0741272" y2="397.1109314"/>
	<polyline class="st0" points="395.2572937,209.1028137 362.32901,242.7709808 411.3674316,245.7409058 444.9934387,212.1149902 
		395.2572937,209.1028137 	"/>
	<polyline class="st0" points="394.9115295,209.0818329 391.8784485,159 358.252533,192.6259918 361.2224426,241.664444 	"/>
	<path class="st0" d="M416.8945007,187.1363373c-70.1611938,70.1254425-140.0722961,140.0365448-209.9989319,209.9989166"/>
</g>
</svg>
