<svg width="445" height="453" viewBox="0 0 445 453" fill="none" xmlns="http://www.w3.org/2000/svg">
<path d="M271.216 300.202L289.416 321.221L281.606 327.823L259.884 310.121L271.216 300.202Z" fill="#FFBA94"/>
<path d="M338.191 187.505C339.799 219.673 239.27 254.736 239.27 254.736L270.653 300.508L258.748 308.991C258.748 308.991 192.54 263.616 192.537 246.798C192.533 222.632 275.321 176.33 275.321 176.33L338.191 187.505Z" fill="#F75F4B"/>
<path d="M281.606 326.541C282.548 326.33 284.441 325.255 285.483 323.83C287.979 320.415 287.975 318.576 288.389 318.439C288.803 318.303 293.413 320.956 294.448 324.153C295.483 327.35 284.911 332.369 284.911 332.369L281.606 326.541Z" fill="#FF826A"/>
<path d="M262.755 348.438C262.496 348.055 262.635 346.526 264.337 344.865C273.553 335.87 274.763 323.678 274.763 323.678C274.763 323.678 281.777 323.976 283.311 333.71L274.089 341.389L262.755 348.438Z" fill="#FF826A"/>
<path d="M275.792 339.548C274.916 339.546 269.337 339.037 269.961 336.767C272.055 332.29 272.916 326.645 275.439 326.305C277.962 325.964 283.565 327.079 285.721 325.42C287.877 323.761 289.605 318.961 289.605 318.961C289.605 318.961 290.971 319.755 291.709 320.476C291.709 320.476 286.719 329.974 286.179 331.291C285.638 332.61 275.792 339.548 275.792 339.548Z" fill="#F75F4B"/>
<path d="M262.755 348.438C262.067 349.453 264.309 352.38 264.309 352.38C264.309 352.38 272.942 348.409 279.02 343.185C289.495 334.182 297.28 328.281 296.881 327.535C296.481 326.79 294.448 324.153 294.448 324.153C294.448 324.153 283.884 333.414 279.824 336.535C271.561 342.887 262.755 348.438 262.755 348.438Z" fill="#F5F6F8"/>
<path d="M273.307 333.436C273.183 333.436 273.058 333.414 272.935 333.366L271.526 332.823C270.992 332.618 270.727 332.019 270.933 331.486C271.137 330.951 271.738 330.687 272.27 330.893L273.68 331.436C274.214 331.641 274.479 332.24 274.273 332.773C274.115 333.184 273.723 333.436 273.307 333.436Z" fill="white"/>
<path d="M271.774 337.462C271.624 337.462 271.473 337.429 271.328 337.36L269.954 336.703C269.438 336.457 269.22 335.839 269.466 335.322C269.712 334.807 270.328 334.588 270.847 334.835L272.221 335.492C272.737 335.738 272.955 336.356 272.709 336.873C272.531 337.244 272.16 337.462 271.774 337.462Z" fill="white"/>
<path d="M270.518 294.561C273.431 296.822 275.321 300.242 275.321 300.242C275.321 300.242 270.425 311.707 262.064 314.282C258.416 315.51 253.758 310.689 253.758 310.689C251.969 305.352 268.278 292.914 270.518 294.561Z" fill="#F75F4B"/>
<path d="M273.757 348.96C273.451 348.96 273.149 348.825 272.945 348.566C272.59 348.117 272.665 347.467 273.114 347.113L291.224 332.8C291.674 332.444 292.323 332.522 292.677 332.97C293.032 333.419 292.956 334.069 292.507 334.423L274.398 348.736C274.208 348.886 273.982 348.96 273.757 348.96Z" fill="#796D25"/>
<path d="M235.307 352.989C234.835 352.989 234.409 352.663 234.299 352.184C234.172 351.627 234.521 351.072 235.078 350.946L281.831 340.298C282.384 340.164 282.941 340.521 283.068 341.078C283.196 341.635 282.847 342.189 282.289 342.316L235.537 352.963C235.46 352.982 235.383 352.989 235.307 352.989Z" fill="#796D25"/>
<path d="M361.472 357.236C364.45 354.257 364.45 349.428 361.472 346.449C358.493 343.47 353.664 343.47 350.685 346.449C347.706 349.428 347.706 354.257 350.685 357.236C353.664 360.214 358.493 360.214 361.472 357.236Z" fill="#453433"/>
<path d="M235.307 366.492C243.336 366.492 249.844 359.983 249.844 351.955C249.844 343.927 243.336 337.418 235.307 337.418C227.279 337.418 220.771 343.927 220.771 351.955C220.771 359.983 227.279 366.492 235.307 366.492Z" fill="#453433"/>
<path d="M227.306 448.863C157.572 442.973 76.8774 457.914 39.3276 434.308C39.3276 434.308 52.2825 433.935 72.9068 433.374C156.181 411.284 338.998 428.927 350.063 428.927C390.961 440.14 422.254 426.238 422.254 426.238L414.422 434.211C393.344 453.28 306.249 455.531 227.306 448.863Z" fill="url(#paint0_linear)" fill-opacity="0.45"/>
<path d="M356.083 267.826C309.621 267.826 271.954 305.492 271.954 351.955C271.954 398.418 309.62 436.084 356.083 436.084C402.547 436.084 440.212 398.419 440.212 351.955C440.212 305.492 402.546 267.826 356.083 267.826ZM356.083 426.882C314.701 426.882 281.156 393.336 281.156 351.955C281.156 310.574 314.702 277.028 356.083 277.028C397.465 277.028 431.011 310.574 431.011 351.955C431.011 393.336 397.465 426.882 356.083 426.882Z" fill="#453433"/>
<path d="M356.083 427.918C314.197 427.918 280.121 393.84 280.121 351.955C280.121 310.069 314.198 275.993 356.083 275.993C397.969 275.993 432.046 310.071 432.046 351.955C432.046 393.84 397.969 427.918 356.083 427.918ZM356.083 278.062C315.339 278.062 282.191 311.21 282.191 351.954C282.191 392.699 315.339 425.847 356.083 425.847C396.828 425.847 429.976 392.699 429.976 351.954C429.976 311.21 396.828 278.062 356.083 278.062Z" fill="#FCC9D2"/>
<path d="M421.028 352.989C420.455 352.989 419.993 352.527 419.993 351.954C419.993 316.715 391.323 288.045 356.083 288.045C344.13 288.045 332.474 291.365 322.375 297.647C321.891 297.946 321.253 297.8 320.949 297.315C320.648 296.83 320.796 296.191 321.282 295.889C331.708 289.403 343.743 285.975 356.083 285.975C392.464 285.975 422.063 315.573 422.063 351.954C422.063 352.527 421.6 352.989 421.028 352.989Z" fill="white"/>
<path d="M409.382 337.63C408.932 337.63 408.518 337.335 408.388 336.88C401.725 313.714 380.216 297.535 356.083 297.535C355.511 297.535 355.048 297.073 355.048 296.5C355.048 295.928 355.511 295.465 356.083 295.465C381.134 295.465 403.46 312.26 410.377 336.308C410.534 336.857 410.219 337.431 409.668 337.588C409.573 337.616 409.477 337.63 409.382 337.63Z" fill="white"/>
<path d="M356.083 408.443C331.261 408.443 308.991 391.842 301.926 368.071C301.764 367.524 302.076 366.947 302.624 366.784C303.179 366.626 303.748 366.934 303.911 367.481C310.716 390.38 332.171 406.373 356.083 406.373C356.656 406.373 357.118 406.836 357.118 407.408C357.118 407.98 356.656 408.443 356.083 408.443Z" fill="white"/>
<path d="M345.804 397.8C345.728 397.8 345.651 397.792 345.573 397.774C329.899 394.193 316.901 382.517 311.647 367.301C311.46 366.761 311.748 366.172 312.288 365.985C312.825 365.8 313.418 366.085 313.604 366.626C318.626 381.171 331.052 392.333 346.034 395.756C346.591 395.883 346.94 396.438 346.812 396.995C346.704 397.476 346.276 397.8 345.804 397.8Z" fill="white"/>
<path d="M356.083 417.935C326.154 417.935 299.919 397.749 292.287 368.847C292.141 368.296 292.471 367.729 293.024 367.583C293.57 367.438 294.142 367.766 294.288 368.32C301.682 396.313 327.092 415.865 356.083 415.865C360.277 415.865 364.47 415.456 368.546 414.65C369.105 414.541 369.65 414.904 369.763 415.464C369.873 416.025 369.508 416.569 368.949 416.681C364.739 417.513 360.411 417.935 356.083 417.935Z" fill="white"/>
<path d="M356.083 364.409C355.511 364.409 355.048 363.946 355.048 363.374C355.048 362.801 355.511 362.339 356.083 362.339C361.809 362.339 366.467 357.681 366.467 351.955C366.467 346.23 361.809 341.573 356.083 341.573C355.511 341.573 355.048 341.11 355.048 340.538C355.048 339.966 355.511 339.503 356.083 339.503C362.95 339.503 368.537 345.09 368.537 351.955C368.537 358.821 362.95 364.409 356.083 364.409Z" fill="#685E1F"/>
<path d="M443.317 352.989C442.745 352.989 442.282 352.526 442.282 351.954C442.282 304.425 403.614 265.756 356.083 265.756C336.216 265.756 316.825 272.679 301.486 285.248C301.044 285.611 300.39 285.545 300.03 285.103C299.668 284.662 299.733 284.009 300.175 283.647C315.883 270.775 335.738 263.687 356.084 263.687C404.755 263.687 444.353 303.283 444.353 351.954C444.352 352.526 443.889 352.989 443.317 352.989Z" fill="#685E1F"/>
<path d="M84.1289 267.826C37.6655 267.826 0 305.492 0 351.955C0 398.418 37.6655 436.084 84.1289 436.084C130.592 436.084 168.257 398.419 168.257 351.955C168.257 305.492 130.591 267.826 84.1289 267.826ZM84.1289 426.882C42.747 426.882 9.20162 393.336 9.20162 351.955C9.20162 310.574 42.748 277.028 84.1289 277.028C125.51 277.028 159.056 310.574 159.056 351.955C159.056 393.336 125.51 426.882 84.1289 426.882Z" fill="#453433"/>
<path d="M84.1279 427.918C42.242 427.918 8.16565 393.84 8.16565 351.955C8.16565 310.069 42.243 275.993 84.1279 275.993C126.013 275.993 160.091 310.071 160.091 351.955C160.091 393.84 126.014 427.918 84.1279 427.918ZM84.1279 278.062C43.3835 278.062 10.2355 311.21 10.2355 351.954C10.2355 392.699 43.3835 425.847 84.1279 425.847C124.872 425.847 158.021 392.699 158.021 351.954C158.021 311.21 124.873 278.062 84.1279 278.062Z" fill="#FCC9D2"/>
<path d="M149.072 352.989C148.5 352.989 148.037 352.527 148.037 351.954C148.037 316.715 119.368 288.045 84.1279 288.045C72.1744 288.045 60.519 291.365 50.42 297.647C49.9357 297.946 49.2951 297.8 48.9939 297.315C48.6927 296.83 48.8407 296.191 49.3261 295.889C59.7531 289.403 71.7873 285.975 84.1279 285.975C120.509 285.975 150.107 315.573 150.107 351.954C150.107 352.527 149.645 352.989 149.072 352.989Z" fill="white"/>
<path d="M137.427 337.63C136.977 337.63 136.563 337.335 136.433 336.88C129.77 313.714 108.261 297.535 84.128 297.535C83.5556 297.535 83.093 297.073 83.093 296.5C83.093 295.928 83.5556 295.465 84.128 295.465C109.179 295.465 131.504 312.26 138.422 336.308C138.579 336.857 138.263 337.431 137.713 337.588C137.619 337.616 137.521 337.63 137.427 337.63Z" fill="white"/>
<path d="M84.1279 408.443C59.306 408.443 37.0352 391.842 29.9707 368.071C29.8082 367.524 30.1208 366.947 30.6683 366.784C31.223 366.626 31.7922 366.934 31.9557 367.481C38.7604 390.38 60.2157 406.373 84.1279 406.373C84.7002 406.373 85.1628 406.836 85.1628 407.408C85.1628 407.98 84.7002 408.443 84.1279 408.443Z" fill="white"/>
<path d="M73.8499 397.8C73.7733 397.8 73.6967 397.792 73.6181 397.774C57.946 394.193 44.9462 382.517 39.6929 367.301C39.5055 366.761 39.7932 366.172 40.3335 365.985C40.8696 365.8 41.4626 366.085 41.6489 366.626C46.6714 381.171 59.0969 392.333 74.0786 395.756C74.6354 395.883 74.9842 396.438 74.8569 396.995C74.7482 397.476 74.3218 397.8 73.8499 397.8Z" fill="white"/>
<path d="M84.1279 417.935C54.1986 417.935 27.964 397.749 20.3313 368.847C20.1854 368.296 20.5156 367.729 21.0682 367.583C21.6147 367.438 22.187 367.766 22.3329 368.32C29.7265 396.313 55.1362 415.865 84.1279 415.865C88.3204 415.865 92.514 415.456 96.5906 414.65C97.1484 414.541 97.6949 414.904 97.8077 415.464C97.9174 416.025 97.5531 416.569 96.9932 416.681C92.7841 417.513 88.455 417.935 84.1279 417.935Z" fill="white"/>
<path d="M171.363 352.989C170.79 352.989 170.328 352.526 170.328 351.954C170.328 304.425 131.659 265.756 84.1289 265.756C64.2602 265.756 44.8696 272.679 29.5319 285.248C29.09 285.611 28.4359 285.545 28.0757 285.103C27.7135 284.662 27.7787 284.009 28.2206 283.647C43.9279 270.775 63.7831 263.687 84.1289 263.687C132.8 263.687 172.398 303.283 172.398 351.954C172.398 352.526 171.934 352.989 171.363 352.989Z" fill="#685E1F"/>
<path d="M89.5192 357.234C92.4979 354.255 92.4979 349.426 89.5192 346.447C86.5405 343.468 81.7111 343.468 78.7324 346.447C75.7538 349.426 75.7538 354.255 78.7324 357.234C81.7111 360.212 86.5405 360.212 89.5192 357.234Z" fill="#453433"/>
<path d="M355.487 341.571C355.465 341.571 355.443 341.57 355.422 341.569L235.491 334.006C234.92 333.97 234.487 333.478 234.523 332.908C234.558 332.336 235.058 331.913 235.621 331.939L355.551 339.503C356.123 339.539 356.556 340.03 356.519 340.6C356.485 341.15 356.028 341.571 355.487 341.571Z" fill="#685E1F"/>
<path d="M235.556 371.969C234.983 371.969 234.521 371.507 234.521 370.935C234.521 370.362 234.983 369.9 235.556 369.9H237.598L355.42 362.339C356.014 362.304 356.482 362.736 356.519 363.306C356.555 363.877 356.123 364.369 355.552 364.405L237.664 371.967L235.556 371.969Z" fill="#685E1F"/>
<path d="M356.125 354.623C355.232 354.623 354.359 354.175 353.854 353.361L291.631 253.126C290.853 251.873 291.238 250.227 292.491 249.45C293.746 248.671 295.389 249.06 296.167 250.31L358.39 350.545C359.167 351.798 358.782 353.444 357.53 354.221C357.091 354.494 356.605 354.623 356.125 354.623Z" fill="#685E1F"/>
<path d="M235.556 371.97C224.519 371.97 215.54 362.99 215.54 351.954C215.54 340.917 224.519 331.938 235.556 331.938C236.128 331.938 236.591 332.401 236.591 332.973C236.591 333.545 236.128 334.008 235.556 334.008C225.66 334.008 217.61 342.058 217.61 351.954C217.61 361.849 225.66 369.9 235.556 369.9C236.128 369.9 236.591 370.362 236.591 370.935C236.591 371.507 236.128 371.97 235.556 371.97Z" fill="#685E1F"/>
<path d="M245.678 335.537C245.49 335.537 245.301 335.516 245.109 335.475C223.432 330.771 208.774 303.924 194.596 277.96C181.626 254.205 169.376 231.769 153.359 227.831C151.927 227.478 151.052 226.033 151.403 224.602C151.756 223.168 153.207 222.295 154.632 222.646C172.934 227.146 185.731 250.585 199.281 275.401C212.883 300.312 226.947 326.071 246.24 330.257C247.681 330.57 248.595 331.992 248.283 333.432C248.013 334.683 246.907 335.537 245.678 335.537Z" fill="#685E1F"/>
<path d="M235.311 354.624C235.123 354.624 234.934 354.603 234.742 354.563C213.065 349.859 198.407 323.013 184.229 297.048C171.259 273.295 159.008 250.857 142.991 246.919C141.559 246.566 140.684 245.122 141.035 243.69C141.388 242.258 142.838 241.383 144.264 241.734C162.566 246.234 175.364 269.673 188.913 294.49C202.515 319.401 216.58 345.159 235.872 349.346C237.313 349.658 238.227 351.08 237.915 352.52C237.645 353.77 236.539 354.624 235.311 354.624Z" fill="#685E1F"/>
<path d="M235.554 354.623C235.115 354.623 234.67 354.515 234.26 354.288C232.971 353.573 232.507 351.948 233.222 350.658L308.09 215.773C308.805 214.485 310.432 214.022 311.72 214.735C313.008 215.45 313.473 217.075 312.758 218.365L237.889 353.25C237.402 354.129 236.491 354.623 235.554 354.623Z" fill="#685E1F"/>
<path d="M84.1859 354.623C83.7502 354.623 83.3083 354.516 82.9005 354.292C81.6089 353.58 81.139 351.957 81.85 350.666L172.092 186.86C172.804 185.568 174.429 185.098 175.718 185.809C177.009 186.521 177.479 188.144 176.768 189.435L86.5259 353.241C86.0395 354.125 85.1267 354.623 84.1859 354.623Z" fill="#685E1F"/>
<path d="M329.702 222.853L291.147 220.184C289.427 220.065 288.129 218.574 288.248 216.854C288.357 215.28 289.616 214.06 291.147 213.955L329.702 211.286C332.896 211.065 335.664 213.475 335.885 216.669C336.107 219.863 333.697 222.631 330.503 222.853C330.243 222.87 329.953 222.868 329.702 222.853Z" fill="#685E1F"/>
<path d="M317.531 227.485C317.159 227.485 316.785 227.467 316.409 227.431L305.741 226.346C305.173 226.287 304.759 225.779 304.816 225.21C304.875 224.643 305.366 224.238 305.951 224.285L316.612 225.371C321.478 225.831 326.003 222.587 327.121 217.815C327.25 217.261 327.815 216.87 328.372 216.996C328.928 217.125 329.286 217.632 329.158 218.188L329.137 218.281C327.87 223.694 322.992 227.485 317.531 227.485Z" fill="#685E1F"/>
<path d="M125.788 253.019H91.1178C90.5455 253.019 90.0829 252.557 90.0829 251.984V201.877C90.0829 201.304 90.5455 200.842 91.1178 200.842H152.85C152.862 200.842 152.875 200.842 152.889 200.842H192.282C192.854 200.842 193.317 201.304 193.317 201.877C193.317 202.449 192.854 202.912 192.282 202.912H153.486L126.698 252.477C126.518 252.81 126.169 253.019 125.788 253.019ZM92.1528 250.949H125.17L151.134 202.912H92.1528V250.949Z" fill="#685E1F"/>
<path d="M102.502 253.019C101.93 253.019 101.467 252.557 101.467 251.984V201.877C101.467 201.304 101.93 200.842 102.502 200.842C103.074 200.842 103.537 201.304 103.537 201.877V251.984C103.537 252.555 103.074 253.019 102.502 253.019Z" fill="#685E1F"/>
<path d="M113.542 253.019C112.97 253.019 112.507 252.557 112.507 251.984V201.877C112.507 201.304 112.97 200.842 113.542 200.842C114.114 200.842 114.577 201.304 114.577 201.877V251.984C114.577 252.555 114.114 253.019 113.542 253.019Z" fill="#685E1F"/>
<path d="M147.807 212.279H91.1178C90.5455 212.279 90.0829 211.816 90.0829 211.244C90.0829 210.672 90.5455 210.209 91.1178 210.209H147.806C148.379 210.209 148.841 210.672 148.841 211.244C148.841 211.816 148.379 212.279 147.807 212.279Z" fill="#685E1F"/>
<path d="M143.421 220.393H91.1178C90.5455 220.393 90.0829 219.93 90.0829 219.358C90.0829 218.786 90.5455 218.323 91.1178 218.323H143.421C143.994 218.323 144.456 218.786 144.456 219.358C144.456 219.93 143.994 220.393 143.421 220.393Z" fill="#685E1F"/>
<path d="M139.036 228.507H91.1178C90.5455 228.507 90.0829 228.044 90.0829 227.472C90.0829 226.899 90.5455 226.437 91.1178 226.437H139.036C139.609 226.437 140.071 226.899 140.071 227.472C140.071 228.044 139.609 228.507 139.036 228.507Z" fill="#685E1F"/>
<path d="M134.651 236.622H91.1178C90.5455 236.622 90.0829 236.159 90.0829 235.587C90.0829 235.014 90.5455 234.552 91.1178 234.552H134.65C135.223 234.552 135.685 235.014 135.685 235.587C135.686 236.159 135.224 236.622 134.651 236.622Z" fill="#685E1F"/>
<path d="M130.266 244.736H91.1178C90.5455 244.736 90.0829 244.273 90.0829 243.701C90.0829 243.128 90.5455 242.666 91.1178 242.666H130.265C130.838 242.666 131.3 243.128 131.3 243.701C131.301 244.272 130.838 244.736 130.266 244.736Z" fill="#685E1F"/>
<path d="M356.122 354.623H235.556C234.081 354.623 232.887 353.429 232.887 351.954C232.887 350.479 234.081 349.285 235.556 349.285H356.122C357.596 349.285 358.791 350.479 358.791 351.954C358.791 353.429 357.596 354.623 356.122 354.623Z" fill="#685E1F"/>
<path d="M165.682 206.693C165.246 206.693 164.804 206.588 164.397 206.362C163.105 205.65 162.635 204.027 163.346 202.737L172.092 186.86C172.847 185.47 173.285 181.994 173.671 178.926C174.529 172.109 175.501 164.381 181.323 164.381C181.757 164.381 182.184 164.488 182.568 164.69L200.162 173.971C201.466 174.659 201.965 176.274 201.278 177.577C200.589 178.882 198.974 179.377 197.672 178.692L181.082 169.941C180.016 171.264 179.316 176.822 178.967 179.593C178.479 183.471 178.018 187.134 176.775 189.421L168.022 205.312C167.536 206.195 166.623 206.693 165.682 206.693Z" fill="#F75F4B"/>
<path d="M220.594 23.7237C222.251 8.75645 247.641 -2.61335 256.001 10.9795C261.022 19.1431 258.417 25.1819 263.635 24.978C268.852 24.7742 274.498 19.3511 282.688 19.9565C290.877 20.562 299.955 23.7661 300.026 34.2687C300.097 44.7712 298.749 51.4455 309.705 56.4556C318.734 60.584 336.953 75.4943 322.119 93.7941C315.529 101.923 272.492 111.637 253.763 96.6122C253.763 96.6122 237.067 94.325 239.417 72.0946C223.17 72.0946 217.859 48.4297 220.594 23.7237Z" fill="#453433"/>
<path d="M242.125 81.3096C242.125 81.3096 240.158 72.6503 237.339 67.2086C240.702 60.1234 246.912 57.593 246.912 57.593L252.129 74.4532L242.125 81.3096Z" fill="#01B0BB"/>
<path d="M226.213 192.695C221.034 193.109 215.849 170.92 222.454 168.741C229.059 166.563 229.447 192.436 226.213 192.695Z" fill="#009CA6"/>
<path d="M280.504 65.3521C314.183 71.9529 326.878 106.279 332.284 113.776C335.923 118.823 360.827 138.109 357.024 153.558C352.994 169.923 335.723 164.559 335.723 164.559L301.46 112.544L280.504 65.3521Z" fill="#F75F4B"/>
<path d="M357.422 193.754C356.324 193.754 355.302 193.054 354.942 191.954C353.76 188.338 350.66 184.863 347.377 181.184C340.905 173.928 332.85 164.9 339.039 151.553C339.645 150.246 341.196 149.676 342.504 150.283C343.812 150.89 344.379 152.441 343.774 153.748C339.028 163.985 344.975 170.651 351.273 177.71C354.768 181.627 358.381 185.678 359.902 190.332C360.35 191.701 359.602 193.175 358.233 193.623C357.964 193.711 357.691 193.754 357.422 193.754Z" fill="#FF826A"/>
<path d="M187.533 103.949C186.756 101.232 189.861 92.1767 193.613 89.5893C197.364 87.002 201.116 101.232 201.116 101.232L187.533 103.949Z" fill="#009CA6"/>
<path d="M177.247 45.6315C178.658 45.2931 180.114 48.2778 180.114 48.2778L186.326 64.5594H189.957C189.957 64.5594 195.25 61.643 194.26 59.5835C193.726 58.4719 190.56 58.6862 188.87 58.8859C188.243 58.9604 187.655 58.5847 187.452 57.9866L187.445 57.9638C187.213 57.2807 187.56 56.5335 188.236 56.283C189.685 55.747 192.288 54.9811 195.12 55.0918C199.194 55.2512 201.425 59.0101 201.488 62.3229C201.565 66.3354 196.373 74.0322 196.373 74.0322C196.373 74.0322 216.968 109.467 219.772 109.068C222.575 108.669 254.227 53.735 260.926 57.7361C270.516 63.4634 268.453 88.1953 268.453 88.1953C268.453 88.1953 242.178 147.437 214.42 141.576C186.662 135.715 187.918 74.4224 187.918 74.4224C187.918 74.4224 183.466 73.2819 181.408 67.9302C176.98 56.4186 174.858 46.2048 177.247 45.6315Z" fill="#FFBA94"/>
<path d="M260.926 57.736C254.227 53.7349 222.575 108.669 219.772 109.068C217.873 109.338 207.809 93.1639 201.515 82.7018C201.515 82.7018 197.623 103.043 187.533 103.949C190.348 121.118 199.366 138.397 214.42 141.575C242.177 147.436 268.453 88.1942 268.453 88.1942C268.453 88.1942 270.516 63.4633 260.926 57.736Z" fill="#01B0BB"/>
<path d="M254.239 113.616L239.951 80.8657C239.951 80.8657 226.212 107.96 231.677 137.679C240.22 132.359 248.033 122.874 254.239 113.616Z" fill="#028C95"/>
<path d="M244.418 70.9604C237.856 77.2994 222.455 140.086 258.683 195.733C285.913 237.557 305.846 188.891 305.846 188.891L244.418 70.9604Z" fill="#01B0BB"/>
<path d="M267.683 61.9813L247.917 39.6919L232.574 43.814L244.418 70.9604L251.569 75.4945L267.683 61.9813Z" fill="#FFBA94"/>
<path d="M250.387 42.5906C249.216 47.5541 244.287 56.3977 239.69 60.1245L235.46 50.4292L250.387 42.5906Z" fill="#EA7D47"/>
<path d="M200 37.7112H181V41.5065H200V37.7112Z" fill="#1C88B7"/>
<path d="M198.258 37.7111H182.742V37.6739C182.742 35.6448 184.36 34 186.357 34H194.644C196.64 34 198.258 35.6448 198.258 37.6739V37.7111H198.258Z" fill="#1C88B7"/>
<path d="M196.93 68.9999H184.07L182.742 41.5063H198.258L196.93 68.9999Z" fill="url(#paint1_linear)" fill-opacity="0.9"/>
<path d="M184.654 70.0804C185.796 69.9953 186.675 68.919 186.641 67.6177L186.252 52.4898C186.218 51.1408 185.217 50.0615 184.018 50.0753C182.833 50.0986 181.875 51.1967 181.91 52.5444L182.299 67.6722C182.334 69.0212 183.333 70.102 184.533 70.0855C184.574 70.085 184.614 70.0834 184.654 70.0804Z" fill="#FFBA94"/>
<path d="M206.983 399.683C206.8 399.683 206.616 399.634 206.447 399.533C205.958 399.236 205.802 398.599 206.098 398.111L234.421 351.417C234.718 350.927 235.356 350.775 235.843 351.068C236.333 351.365 236.488 352.001 236.192 352.49L207.869 399.184C207.674 399.507 207.333 399.683 206.983 399.683Z" fill="#685E1F"/>
<path d="M242.175 365.045C241.613 363.367 225.493 356.967 221.294 360.004L234.482 367.754L242.175 365.045Z" fill="#F75F4B"/>
<path d="M344.196 201.908C344.714 205.357 343.467 209.716 328.481 211.03C313.494 212.343 311.682 177.414 311.682 177.414L344.196 201.908Z" fill="#009CA6"/>
<path d="M344.196 201.908C331.13 190.997 297.724 197.34 265.887 177.414C249.488 176.33 239.502 84.7167 244.418 70.9603C254.534 70.9603 259.885 49.9832 259.885 49.9832C326.878 104.468 336.434 159.82 344.196 201.908Z" fill="url(#paint2_linear)"/>
<path opacity="0.26" d="M255.194 56.259L253.014 66.1737C270.401 100.533 266.151 151.25 280.008 184.542C303.466 193.978 327.618 193.274 341.469 198.195C335.529 156.799 334.083 100.613 255.194 56.259Z" fill="#009CA6"/>
<path d="M335.745 169.393C337.038 173.274 346.12 204.586 318.927 217.777C284.257 234.594 247.743 267.35 247.743 267.35C257.622 303.575 248.792 324.955 239.472 366.364L224.834 362.773C225.265 317.07 211.42 281.624 210.485 267.609C208.852 243.104 265.887 177.414 265.887 177.414L335.745 169.393Z" fill="#FF826A"/>
<path d="M238.252 371.826C235.494 379.369 232.786 386.838 230.439 393.935L219.967 390.675C221.485 388.726 224.859 379.578 224.301 367.083L238.252 371.826Z" fill="#FFBA94"/>
<path d="M235.769 368.249L229.916 366.26C227.655 363.931 227.858 362.773 227.858 362.773C232.689 364.272 239.155 363.695 240.134 363.554C239.884 365.196 239.754 366.221 239.195 367.754L235.769 368.249Z" fill="#F75F4B"/>
<path d="M222.575 389.519C223.356 390.086 225.413 390.799 227.172 390.64C231.384 390.259 232.762 389.042 233.139 389.262C233.516 389.483 234.566 394.697 232.849 397.585C231.132 400.474 220.382 395.848 220.382 395.848L222.575 389.519Z" fill="#FF826A"/>
<path d="M193.683 389.824C193.8 389.377 195.039 388.471 197.411 388.653C210.252 389.633 220.205 382.49 220.205 382.49C220.205 382.49 224.613 387.953 218.318 395.533L206.462 393.679L193.683 389.824Z" fill="#FF826A"/>
<path d="M208.968 393.742C208.391 393.083 205.089 388.558 207.206 387.527C211.951 386.143 216.757 383.062 218.68 384.732C220.602 386.402 223.466 391.346 226.135 391.869C228.804 392.392 233.549 390.521 233.549 390.521C233.549 390.521 233.855 392.071 233.8 393.102C233.8 393.102 223.372 395.627 222.027 396.091C220.681 396.555 208.968 393.742 208.968 393.742Z" fill="#F75F4B"/>
<path d="M193.683 389.824C192.466 389.977 191.749 393.594 191.749 393.594C191.749 393.594 200.432 397.454 208.369 398.568C222.047 400.489 231.62 402.438 231.915 401.646C232.211 400.854 232.848 397.585 232.848 397.585C232.848 397.585 218.918 395.768 213.893 394.78C203.666 392.77 193.683 389.824 193.683 389.824Z" fill="#F5F6F8"/>
<path d="M212.694 388.192C212.273 388.192 211.877 387.933 211.722 387.515L211.199 386.097C211.003 385.56 211.276 384.966 211.813 384.768C212.349 384.571 212.943 384.845 213.142 385.382L213.665 386.8C213.861 387.337 213.588 387.931 213.051 388.129C212.933 388.171 212.813 388.192 212.694 388.192Z" fill="white"/>
<path d="M208.659 389.7C208.207 389.7 207.793 389.403 207.664 388.946L207.249 387.481C207.094 386.931 207.413 386.359 207.962 386.204C208.507 386.047 209.083 386.366 209.239 386.918L209.654 388.383C209.81 388.933 209.491 389.505 208.941 389.661C208.847 389.687 208.752 389.7 208.659 389.7Z" fill="white"/>
<path d="M234.754 365.946C234.66 365.946 234.566 365.934 234.473 365.908C233.923 365.755 233.601 365.182 233.756 364.633C241.027 338.67 241.214 294.749 234.187 262.465C234.14 262.247 234.166 262.018 234.257 261.815C240.496 248.141 253.799 234.033 265.537 221.586C278.78 207.542 291.288 194.276 289.454 185.855C289.333 185.296 289.688 184.745 290.246 184.623C290.807 184.499 291.355 184.857 291.477 185.415C293.542 194.904 281.262 207.928 267.043 223.007C255.506 235.242 242.442 249.097 236.283 262.364C243.296 294.902 243.073 339.039 235.748 365.191C235.62 365.647 235.205 365.946 234.754 365.946Z" fill="#F75F4B"/>
<path d="M219.547 33.3818C219.547 33.3818 218.134 44.7537 219.625 45.3974C220.571 45.8062 224.625 44.3149 224.625 44.3149L219.547 33.3818Z" fill="#EA7D47"/>
<path d="M230.046 55.9756C227.002 55.632 215.961 30.1549 218.411 20.2289C226.657 -13.1747 265.413 21.2162 250.298 42.7201C240.997 55.9538 231.664 56.1588 230.046 55.9756Z" fill="#FFBA94"/>
<path d="M335.745 169.393L276.84 176.157C280.09 185.596 283.969 194.15 288.965 201.266C306.226 203.284 322.886 201.893 333.869 204.024C341.767 189.675 336.689 172.227 335.745 169.393Z" fill="#F75F4B"/>
<path d="M344.196 201.908C335.512 194.656 317.599 198.117 294.379 195.402C271.954 163.458 271.954 102.655 250.941 61.9491C252.431 56.4287 259.884 49.9832 259.884 49.9832C328.15 93.7941 336.434 159.82 344.196 201.908Z" fill="#01B0BB"/>
<path d="M220.986 402.076C220.928 402.076 220.87 402.071 220.811 402.06L192.811 397.276C192.247 397.18 191.868 396.646 191.965 396.083C192.061 395.519 192.596 395.142 193.158 395.237L221.159 400.022C221.723 400.118 222.101 400.652 222.004 401.215C221.918 401.72 221.48 402.076 220.986 402.076Z" fill="#685E1F"/>
<path d="M242.175 365.045C241.861 368.436 240.135 371.606 240.135 371.606C240.135 371.606 228.777 373.487 222.62 368.255C219.854 366.024 221.294 360.004 221.294 360.004C221.294 360.004 233.357 366.239 242.175 365.045Z" fill="#FF826A"/>
<path d="M296.948 88.2086C297.283 101.61 299.682 151.039 277.007 165.269C247.508 183.782 202.888 184.914 202.888 184.914L208.552 175.048C220.174 170.818 252.448 153.521 259.074 144.667C263.872 138.256 254.24 114.816 256.718 88.8544C258.14 73.9555 270.862 63.4322 283.912 69.5373C296.96 75.6424 296.948 88.2086 296.948 88.2086Z" fill="#FFBA94"/>
<path d="M202.692 184.937C202.692 184.937 191.634 184.419 191.161 184.235C190.506 183.982 190.225 182.968 190.225 182.968C190.225 182.968 189.327 182.963 188.689 182.484C188.05 182.005 185.352 176.307 185.352 176.307C185.352 176.307 180.747 174.246 180.364 173.834C178.278 171.593 181.136 169.921 181.136 169.921C183.991 171.693 187.737 172.61 189.205 172.482C190.671 172.353 202.316 170.459 203.239 170.841C204.161 171.224 209.306 174.779 209.61 176.917C210.653 184.255 202.692 184.937 202.692 184.937Z" fill="#FFBA94"/>
<path d="M297.029 91.1541C296.632 111.055 319.944 141.267 345.087 151.766L345.82 162.546C303.595 144.067 290.695 114.175 288.176 78.3022L297.029 91.1541Z" fill="#F75F4B"/>
<path d="M284.26 175.761C310.466 147.966 299.952 92.3049 295.767 82.324L268.481 115.704C273.336 136.849 277.435 158.175 284.26 175.761Z" fill="#028C95"/>
<path d="M293.151 85.5239L289.441 90.0621C291.335 102.941 294.978 114.9 301.347 125.657C301.547 119.209 301.269 112.96 300.724 107.273C298.276 101.574 296.932 96.0513 297.029 91.154L293.151 85.5239Z" fill="#F75F4B"/>
<path d="M199.623 175.251L193.609 171.028L194.957 171.494H194.956C194.585 171.437 194.384 171.38 194.113 171.314L193.37 171.104C192.882 170.954 192.406 170.783 191.935 170.593C190.995 170.213 190.083 169.742 189.216 169.17C188.353 168.59 187.538 167.898 186.852 167.069C186.163 166.244 185.626 165.277 185.302 164.268C185.061 163.516 185.474 162.711 186.226 162.47C186.857 162.267 187.524 162.524 187.867 163.056L187.915 163.133C188.659 164.289 189.814 165.032 191.151 165.489C191.822 165.714 192.53 165.874 193.257 165.967C193.619 166.013 193.985 166.045 194.348 166.06L194.885 166.068C195.042 166.064 195.271 166.063 195.331 166.04L196.68 166.506L202.824 170.538C204.139 171.401 204.506 173.168 203.642 174.483C202.779 175.798 201.013 176.165 199.697 175.302C199.675 175.287 199.643 175.265 199.623 175.251Z" fill="#FFBA94"/>
<path d="M283.911 69.5373C270.861 63.4322 258.139 73.9555 256.717 88.8544C254.239 114.816 263.87 138.255 259.073 144.667C254.336 150.998 226.667 166.692 222.454 168.741C224.959 171.246 223.652 190.133 226.213 192.695C232.552 193.471 260.863 175.4 277.006 165.269C299.681 151.039 297.282 101.61 296.947 88.2086C296.948 88.2086 296.96 75.6424 283.911 69.5373Z" fill="#01B0BB"/>
<path d="M215.618 109.847C215.618 109.847 216.768 103.95 219.117 103.95C221.465 103.95 223.899 109.847 223.899 109.847H215.618Z" fill="#009CA6"/>
<path d="M261.574 140.086C260.194 140.259 256.572 143.881 258.814 147.33C261.056 150.78 261.574 140.086 261.574 140.086Z" fill="#009CA6"/>
<path d="M219.398 32.7991C227.852 30.7272 229.619 27.4661 232.687 23.5178L218.07 23.9918C218.119 26.5874 218.616 29.6302 219.398 32.7991Z" fill="#EA7D47"/>
<path d="M272.197 53.8497C240.251 59.8834 244.412 28.4565 244.412 28.4565C244.412 28.4565 237.688 27.9815 235.749 17.5907C234.081 24.0363 225.696 33.3818 212.759 30.3805C215.691 25.7709 214.62 21.746 220.546 16.8787C226.472 12.0124 242.761 10.9785 242.761 10.9785L251.77 20.2733L256.588 32.7991L290.148 21.3724C298.735 48.3532 272.197 53.8497 272.197 53.8497Z" fill="#453433"/>
<path d="M214.634 25.7471L258.685 20.3064C260.824 20.0425 262.073 17.7398 261.096 15.8189C257.884 9.50894 249.318 -1.86294 229.851 0.260749C208.018 2.64317 209.613 17.3869 211.237 23.4557C211.64 24.9616 213.086 25.9386 214.634 25.7471Z" fill="#453FAF"/>
<path d="M236.995 57.0416C236.696 57.0416 236.4 56.9132 236.195 56.6648C235.831 56.224 235.894 55.5719 236.336 55.2076C238.514 53.412 239.098 38.0691 234.155 22.6341C233.981 22.0897 234.281 21.507 234.825 21.3332C235.367 21.1551 235.952 21.4594 236.126 22.0028C241.047 37.3653 241.078 53.9792 237.652 56.8046C237.46 56.9639 237.226 57.0416 236.995 57.0416Z" fill="#453FAF"/>
<path d="M239.704 32.1046C240.656 34.8834 243.68 36.3634 246.458 35.4112C249.235 34.4591 250.716 31.435 249.764 28.6572C248.812 25.8795 245.788 24.3985 243.01 25.3506C240.232 26.3017 238.751 29.3258 239.704 32.1046Z" fill="#FFBA94"/>
<path d="M241.977 31.3256C242.499 32.848 244.156 33.6594 245.678 33.1378C247.201 32.6161 248.012 30.9592 247.491 29.4368C246.969 27.9144 245.312 27.103 243.79 27.6246C242.267 28.1463 241.456 29.8032 241.977 31.3256Z" fill="#EA7D47"/>
<defs>
<linearGradient id="paint0_linear" x1="39.3275" y1="437.261" x2="559.816" y2="437.261" gradientUnits="userSpaceOnUse">
<stop stop-color="#ECEDF2"/>
<stop offset="1" stop-color="#ECEDF2" stop-opacity="0.53"/>
</linearGradient>
<linearGradient id="paint1_linear" x1="186" y1="69" x2="198" y2="44" gradientUnits="userSpaceOnUse">
<stop stop-color="#F75F4B"/>
<stop offset="1" stop-color="#DD4531"/>
</linearGradient>
<linearGradient id="paint2_linear" x1="276.388" y1="212.298" x2="301.421" y2="106.127" gradientUnits="userSpaceOnUse">
<stop stop-color="#BEE1E3"/>
<stop offset="1" stop-color="white"/>
</linearGradient>
</defs>
</svg>
