<?xml version="1.0" encoding="utf-8"?>
<!-- Generator: Adobe Illustrator 19.0.0, SVG Export Plug-In . SVG Version: 6.00 Build 0)  -->
<svg version="1.1" id="Layer_1" xmlns="http://www.w3.org/2000/svg" xmlns:xlink="http://www.w3.org/1999/xlink" x="0px" y="0px"
	 width="512px" height="512px" viewBox="-49 141 512 512" style="enable-background:new -49 141 512 512;" xml:space="preserve">
<style type="text/css">
	.st0{fill:none;stroke:#4F5456;stroke-width:14;stroke-linecap:round;stroke-linejoin:round;stroke-miterlimit:10;}
</style>
<g>
	<path class="st0" d="M317.830658,390.1934814c21.8158875,0,42.3374329,3.4801636,60.2698669,9.6107483
		c6.6502991-12.9840393,10.258728-26.8431396,10.258728-41.2442627c0-73.5653076-93.7824707-133.0932312-209.6796265-133.0932312
		S-31,284.9946594-31,358.559967c0.8953171,37.0572815,25.2266827,70.7193604,60.0383072,93.2756348l1.6940327,1.0352173
		c-5.3885174,17.1720886-15.4728079,38.3148804-35.9570465,51.5060425
		c-10.1996374,6.5681763-18.9199791,8.5517883-18.4644413,11.1733093c0.9742298,5.6060181,42.462532,5.793457,80.116333-2.8336792
		c30.3371696-6.9508362,53.3961983-18.5263062,67.5991364-26.8040771l3.0927505-0.0967407
		c16.7349167,4.0523682,34.1228714,6.0730286,51.5605545,6.0870361v-0.2494202
		c5.4020233,0,10.7556305-0.1300354,16.0542755-0.3840637c-2.656311-6.5018311-4.0725708-13.3226013-4.0725708-20.3555298
		C190.6613312,426.2967834,247.5397949,390.1934814,317.830658,390.1934814z"/>
	<path class="st0" d="M194.733902,491.2692261c14.195282,34.7454834,63.8858795,60.3647461,123.096756,60.3647461v0.1512451
		c10.5758667-0.0085449,21.1216125-1.2340088,31.2711792-3.6917725l1.8757324,0.0587158
		c8.6139832,5.0203857,22.5991821,12.0408325,40.9984741,16.2564697c22.8367615,5.2323608,47.999176,5.1185913,48.5899963,1.7186279
		c0.2763062-1.5899048-5.0125732-2.7930298-11.1985474-6.7766113c-12.423584-8.0002441-18.5396118-20.8233032-21.8077698-31.2380371
		l1.0274963-0.6278076c21.1129456-13.6802368,35.869812-34.0961304,36.4127808-56.571106
		c0-30.7693787-27.0534668-57.4872742-66.8994751-71.1094666"/>
</g>
</svg>
