<?xml version="1.0" encoding="utf-8"?>
<!-- Generator: Adobe Illustrator 19.0.0, SVG Export Plug-In . SVG Version: 6.00 Build 0)  -->
<svg version="1.1" id="Layer_1" xmlns="http://www.w3.org/2000/svg" xmlns:xlink="http://www.w3.org/1999/xlink" x="0px" y="0px"
	 width="512px" height="512px" viewBox="-49 141 512 512" style="enable-background:new -49 141 512 512;" xml:space="preserve">
<style type="text/css">
	.st0{fill:none;stroke:#4F5456;stroke-width:14;stroke-linecap:round;stroke-linejoin:round;stroke-miterlimit:10;}
</style>
<g>
	<g>
		<path class="st0" d="M-13.6698942,437.6352844c2.4162025,10.9225159,10.9347591,42.7285767,40.5302544,68.7251892
			c27.5855942,24.2312012,54.7935715,6.8081665,79.298317,31.7193604
			c10.729332,10.9072876,8.5787125,16.2445068,31.7193298,58.1520996
			C147.1886292,613.0934448,155.4077911,626.4837646,160.7864075,635"/>
		<path class="st0" d="M427.6698914,437.6352844c-2.4161987,10.9225159-10.9347534,42.7285767-40.5302429,68.7251892
			c-27.5856018,24.2312012-54.7935791,6.8081665-79.2983398,31.7193604
			c-10.7293091,10.9072876-8.5787048,16.2445068-31.7192993,58.1520996
			C266.8113708,613.0934448,258.5922241,626.4837646,253.2135925,635"/>
	</g>
	<g>
		<path class="st0" d="M207,223.8421478c16.8196716-38.1410828,54.7605896-64.2022095,92.677948-64.8301697
			c39.1105347-0.6469269,65.3784485,25.0872498,72.2886963,32.4377136
			c29.8401794,31.7423706,28.1669006,71.139389,27.8032227,79.7026215
			c-0.4310913,10.1416626-2.43927,24.4056396-12.9747009,48.1924438
			c-5.8086853,13.1133728-26.1875,56.1683044-85.2640381,109.3596191
			C280.2051392,447.9064026,248.9677429,472.812439,207,496.3592224"/>
		<path class="st0" d="M207,496.3592224c-41.9677429-23.5467834-73.2051239-48.4528198-94.5311203-67.6548462
			c-59.076561-53.1913147-79.4553528-96.2462463-85.2640381-109.3596191
			c-10.5354328-23.7868042-12.5436249-38.0507813-12.9746971-48.1924438
			c-0.3636942-8.5632324-2.0369654-47.9602509,27.8031921-79.7026215
			c6.9102478-7.3504639,33.1781845-33.0846405,72.2886963-32.4377136
			C152.2394104,159.6399384,190.1803284,185.7010651,207,223.8421478"/>
	</g>
</g>
</svg>
