<?xml version="1.0" encoding="utf-8"?>
<!-- Generator: Adobe Illustrator 19.0.0, SVG Export Plug-In . SVG Version: 6.00 Build 0)  -->
<svg version="1.1" id="Layer_1" xmlns="http://www.w3.org/2000/svg" xmlns:xlink="http://www.w3.org/1999/xlink" x="0px" y="0px"
	 width="512px" height="512px" viewBox="-49 141 512 512" style="enable-background:new -49 141 512 512;" xml:space="preserve">
<style type="text/css">
	.st0{fill:none;stroke:#4F5456;stroke-width:14;stroke-linecap:round;stroke-linejoin:round;stroke-miterlimit:10;}
</style>
<g>
	<path class="st0" d="M424.8707275,589.668335H-10.8707333C-21.9878197,589.668335-31,580.6561279-31,569.5390625V300.9351501
		c0-11.1170654,9.0121803-20.1292725,20.1292667-20.1292725h435.7414551c11.1170959,0,20.1292725,9.012207,20.1292725,20.1292725
		v268.6039124C445,580.6561279,435.9878235,589.668335,424.8707275,589.668335z"/>
	<path class="st0" d="M208.9548187,280.5698853l29.8668518-59.7336884
		c5.0575256-10.1150513,15.395874-16.5045166,26.7048492-16.5045166h97.9777527
		c11.3089905,0,21.6473389,6.3894653,26.7048645,16.5045166l29.8668518,59.7336884"/>
	<line class="st0" x1="284.7043152" y1="243.4281921" x2="344.3264771" y2="243.4281921"/>
	<polyline class="st0" points="14.4496918,280.5698853 14.4496918,251.2474976 70.1622162,251.2474976 70.1622162,280.5698853 	"/>
	<path class="st0" d="M289.8382263,357.0440674c19.2656555,20.4028931,31.0804138,47.9168396,31.0804138,78.1930237
		s-11.8147583,57.7901306-31.0804138,78.1930237"/>
	<path class="st0" d="M124.1617661,357.0440674C144.9311829,335.0487061,174.3606567,321.3184509,207,321.3184509
		s62.0688171,13.7302551,82.8382263,35.7256165"/>
	<path class="st0" d="M289.8382263,513.4301147C269.0688171,535.4254761,239.6393433,549.1557007,207,549.1557007
		s-62.0688171-13.7302246-82.8382339-35.7255859"/>
	<path class="st0" d="M124.1617661,357.0440674c-19.2656631,20.4028931-31.0803986,47.9168396-31.0803986,78.1930237
		s11.8147354,57.7901306,31.0803986,78.1930237"/>
	<circle class="st0" cx="207" cy="435.2370911" r="60.5995903"/>
	<line class="st0" x1="445" y1="357.0440674" x2="289.8382263" y2="357.0440674"/>
	<line class="st0" x1="124.1617661" y1="357.0440674" x2="-31" y2="357.0440674"/>
	<line class="st0" x1="-31" y1="513.4301147" x2="124.1617661" y2="513.4301147"/>
	<line class="st0" x1="289.8382263" y1="513.4301147" x2="445" y2="513.4301147"/>
</g>
</svg>
