<?xml version="1.0" encoding="utf-8"?>
<!-- Generator: Adobe Illustrator 19.0.0, SVG Export Plug-In . SVG Version: 6.00 Build 0)  -->
<svg version="1.1" id="Layer_1" xmlns="http://www.w3.org/2000/svg" xmlns:xlink="http://www.w3.org/1999/xlink" x="0px" y="0px"
	 width="512px" height="512px" viewBox="-49 141 512 512" style="enable-background:new -49 141 512 512;" xml:space="preserve">
<style type="text/css">
	.st0{fill:none;stroke:#4F5456;stroke-width:14;stroke-linecap:round;stroke-linejoin:round;stroke-miterlimit:10;}
</style>
<g>
	<path class="st0" d="M207,635"/>
	<g>
		<path class="st0" d="M55.3972588,402.9771729h267.3424683H55.3972588z"/>
		<path class="st0" d="M425.98172,495.894989H309.4269409c-12.4541626,0-22.5502319,10.0960693-22.5502319,22.5502014V635
			H14.9155254c-14.8549471,0-26.8972607-12.0422974-26.8972607-26.8972778V334.7831116
			c0-14.85495,12.0423136-26.8972778,26.8972607-26.8972778h384.1689453c14.85495,0,26.8972473,12.0423279,26.8972473,26.8972778
			V495.894989L286.876709,635"/>
		<polyline class="st0" points="170.5936127,534.7841187 55.3972588,535.2523804 170.5936127,534.7841187 		"/>
		<polyline class="st0" points="227.1050262,468.3770142 55.3972588,469.0750122 227.1050262,468.3770142 		"/>
	</g>
	<g>
		<line class="st0" x1="207" y1="349.1826477" x2="207" y2="260.0684814"/>
		<circle class="st0" cx="207" cy="209.5342407" r="50.5342484"/>
	</g>
</g>
</svg>
