<svg width="515" height="922" viewBox="0 0 515 922" fill="none" xmlns="http://www.w3.org/2000/svg">
<path d="M514.944 3.05176e-05H0.435547V922H514.944V3.05176e-05Z" fill="#F5F6F8"/>
<mask id="mask0" mask-type="alpha" maskUnits="userSpaceOnUse" x="0" y="0" width="515" height="922">
<path d="M514.944 3.05176e-05H0.435547V922H514.944V3.05176e-05Z" fill="#F5F6F8"/>
</mask>
<g mask="url(#mask0)">
<path d="M287.183 213.767C538.522 281.113 412.74 459.313 668.703 610.276C924.667 761.239 321.201 950.275 118.429 833.766C-84.3432 717.258 17.0105 586.389 -241.478 366.393C-499.967 146.398 35.8429 146.421 287.183 213.767Z" fill="#EFF0F4"/>
<path d="M262.254 436.786C263.302 435.264 268.259 434.887 272.233 436.74C276.121 438.521 265.846 442.24 265.846 442.24L262.254 436.786Z" fill="#049599"/>
<path d="M300.942 453.195C299.153 453.662 295.437 450.133 293.641 446.133C291.864 442.243 302 446.836 302 446.836L300.942 453.195Z" fill="#049599"/>
<path d="M359.606 406.238L279.459 413.534C272.702 414.156 267.708 420.162 268.323 426.84L268.409 427.783C269.357 438.075 261.795 447.17 251.502 448.117C251.502 448.117 180.229 447.422 154.591 481.875C130.991 513.591 140.999 579.5 140.999 579.5C140.999 579.5 163 603 177.998 585.5C192.996 568 175.499 520.9 197.999 501.5C220.499 482.1 282.846 485.642 282.846 485.642C291.881 484.811 298.623 477.139 298.342 468.053L297.84 453.995C297.599 442.766 306.061 433.113 317.203 431.929L343.559 429.029C349.916 428.364 355.627 424.986 359.264 419.739L363.671 413.391C366.075 410.238 363.535 405.876 359.606 406.238Z" fill="#EE9B27"/>
<path d="M300.975 453.745C301.252 451.58 301.62 448.694 302.004 446.836C291.632 447.791 266.81 442.389 262.333 436.779L260.378 439.653C265.364 445.612 289.96 453.729 300.975 453.745Z" fill="#01B0BB"/>
<path d="M186.613 473.613C186.108 472.747 184.753 472.597 183.586 473.278C182.419 473.959 181.883 475.212 182.388 476.078C182.893 476.944 184.248 477.094 185.415 476.413C186.582 475.732 187.118 474.479 186.613 473.613Z" fill="#E08D2B"/>
<path d="M201.801 476C203.011 475.144 203.38 473.586 202.625 472.518C201.87 471.451 200.278 471.279 199.068 472.134C197.858 472.989 197.489 474.548 198.244 475.615C198.998 476.683 200.591 476.855 201.801 476Z" fill="#E08D2B"/>
<path d="M181.64 491.393C181.877 490.878 181.523 490.21 180.851 489.9C180.178 489.59 179.44 489.756 179.203 490.27C178.966 490.785 179.319 491.453 179.992 491.763C180.665 492.073 181.402 491.907 181.64 491.393Z" fill="#E08D2B"/>
<path d="M263.657 384.996C262.144 384.4 260.62 383.883 259.025 383.913C256.157 383.935 253.367 385.798 252.216 388.512C251.075 391.148 251.751 394.499 253.706 396.585C255.457 398.405 257.889 399.281 260.232 400.224C266.051 402.577 271.445 405.75 276.256 409.722C277.045 410.382 277.834 411.042 278.831 411.332C288.238 414.234 282.662 402.125 280.673 399.08C276.57 392.734 270.619 387.738 263.657 384.996Z" fill="#EE9B27"/>
<path d="M143.391 556.887C143.391 556.887 147.598 578.72 115.797 593.157C113.451 594.242 114.787 597.887 117.297 597.455C132.105 594.997 152.587 585.874 154.504 554.806L143.391 556.887Z" fill="#EE9B27"/>
<path d="M314.413 413.973C313.988 416.529 311.89 417.535 310.098 417.201C308.307 416.867 307.587 415.284 307.962 412.816C308.387 410.261 310.212 408.514 312.004 408.848C313.795 409.181 314.788 411.505 314.413 413.973Z" fill="#010E52"/>
<path d="M364.369 408.969C363.364 410.963 361.594 411.522 360.507 410.909C359.428 410.374 359.29 408.881 360.295 406.887C361.3 404.893 363.014 403.705 364.179 404.311C365.344 404.917 365.374 406.975 364.369 408.969Z" fill="#010E52"/>
<path d="M257.587 492.746C258.421 494.001 258.822 495.103 258.465 496.526C257.902 498.939 254.658 499.475 253.28 497.441C252.988 496.965 252.747 496.55 252.577 495.974C251.955 494.235 251.961 492.386 252.238 490.619C252.372 489.791 252.506 488.963 252.862 488.156C253.634 486.491 255.204 485.293 256.651 484.196C256.955 483.945 257.309 483.754 257.703 483.735C258.037 483.766 258.349 484.019 258.55 484.262C259.446 485.467 258.896 487.153 258.265 488.494C257.524 489.826 256.873 491.39 257.587 492.746Z" fill="#E29323"/>
<path d="M184.335 584.207C185.65 583.471 186.78 583.155 188.172 583.621C190.535 584.366 190.821 587.642 188.687 588.861C188.191 589.115 187.759 589.324 187.171 589.449C185.389 589.936 183.546 589.789 181.806 589.377C180.99 589.181 180.175 588.984 179.397 588.567C177.797 587.67 176.722 586.014 175.739 584.486C175.512 584.164 175.348 583.796 175.359 583.402C175.416 583.072 175.693 582.78 175.95 582.598C177.22 581.797 178.858 582.475 180.148 583.205C181.373 583.982 182.993 584.769 184.335 584.207Z" fill="#EE9B27"/>
<path d="M268.672 492.268C269.96 492.986 270.746 493.874 271.089 495.322C271.606 497.718 268.883 499.576 266.756 498.361C266.252 498.085 265.915 497.753 265.522 497.364C264.232 496.089 263.44 494.42 262.872 492.638C262.588 491.803 262.36 491.023 262.355 490.13C262.288 488.29 263.226 486.554 264.053 484.932C264.274 484.595 264.439 484.204 264.829 484.034C265.163 483.921 265.554 483.974 265.834 484.14C267.121 484.857 267.41 486.585 267.364 488.092C267.373 489.654 267.439 491.383 268.672 492.268Z" fill="#EE9B27"/>
<path d="M170.457 595.467C171.599 596.399 172.218 597.411 172.302 598.897C172.391 601.347 169.385 602.699 167.503 601.13C167.056 600.77 166.782 600.384 166.464 599.933C165.416 598.451 164.93 596.669 164.682 594.815C164.548 593.943 164.461 593.136 164.612 592.256C164.868 590.432 166.096 588.888 167.194 587.435C167.471 587.143 167.702 586.786 168.115 586.687C168.464 586.634 168.839 586.755 169.086 586.967C170.228 587.899 170.21 589.651 169.9 591.126C169.682 592.73 169.444 594.444 170.457 595.467Z" fill="#EE9B27"/>
<path d="M240.584 406.883C239.083 407.403 237.651 408.011 236.402 409.041C234.238 410.986 233.338 414.21 234.252 416.956C235.166 419.702 237.757 421.791 240.662 422.092C243.176 422.341 245.608 421.387 247.942 420.578C253.855 418.567 260.057 417.389 266.282 417.249C267.319 417.226 268.357 417.202 269.279 416.846C278.316 412.856 266.143 407.364 262.616 406.345C255.484 404.298 247.596 404.379 240.584 406.883Z" fill="#EE9B27"/>
<path d="M528 498H250V517H528V498Z" fill="url(#paint0_linear)"/>
<path d="M404.547 498.909H328.665C327.219 498.909 326.028 497.718 326.028 496.272C326.028 494.826 327.219 493.635 328.665 493.635H402.76L429.472 420.986C429.982 419.625 431.514 418.944 432.875 419.455C434.236 419.965 434.916 421.496 434.406 422.857L407.099 497.293C406.673 498.229 405.653 498.909 404.547 498.909Z" fill="#6E9BC4"/>
<path d="M384.385 419.369H432.789L403.015 498.824L353.76 498.909L384.385 419.369Z" fill="#6E9BC4"/>
<path d="M356.141 498.909H280.259C278.813 498.909 277.622 497.718 277.622 496.272C277.622 494.826 278.813 493.635 280.259 493.635H354.355L381.066 420.986C381.577 419.625 383.108 418.944 384.469 419.455C385.83 419.965 386.511 421.496 386 422.857L358.693 497.293C358.268 498.229 357.247 498.909 356.141 498.909Z" fill="#1A3867"/>
<path d="M401.824 460.798C401.143 463.52 398.676 465.477 396.379 465.307C394.083 465.052 392.721 462.67 393.402 459.947C394.083 457.225 396.55 455.269 398.846 455.439C401.143 455.694 402.504 458.076 401.824 460.798Z" fill="#1A3867"/>
<path d="M244.787 604.055H120.756V614.518H244.787V604.055Z" fill="url(#paint1_linear)"/>
<path d="M219.435 535.149H170.435C164.225 535.149 158.696 539.062 156.739 545.017L47 831.7H55.8472L155.123 625.832C158.185 619.452 164.651 615.369 171.797 615.369H196.382C205.824 615.369 213.736 622.515 214.757 631.872L226.581 831.615H233.982V549.61C233.982 541.614 227.432 535.149 219.435 535.149ZM220.286 586.871C220.286 594.442 214.161 600.652 206.505 600.652H174.689C163.885 600.652 156.229 590.018 159.717 579.725L166.607 559.393C168.564 553.524 174.093 549.525 180.303 549.525H205.739C213.736 549.525 220.201 555.991 220.201 563.987V586.871H220.286Z" fill="#E49664"/>
<path d="M219.435 535.149H170.435C164.225 535.149 158.696 539.062 156.739 545.017L120.159 640.464L147.381 641.825L155.123 625.832C158.185 619.452 164.65 615.369 171.796 615.369H196.381C205.824 615.369 213.735 622.515 214.756 631.872L215.522 645.228L233.982 646.164V549.61C233.982 541.614 227.431 535.149 219.435 535.149ZM220.286 586.871C220.286 594.442 214.161 600.652 206.504 600.652H174.689C163.885 600.652 156.229 590.018 159.716 579.725L166.607 559.393C168.564 553.524 174.093 549.525 180.303 549.525H205.739C213.735 549.525 220.201 555.991 220.201 563.987V586.871H220.286Z" fill="url(#paint2_linear)"/>
<path d="M235.684 535.149H100.168V511.414L219.01 517.454C228.368 517.965 235.599 525.621 235.599 534.979V535.149H235.684Z" fill="#F1A873"/>
<path d="M100.168 523.749V535.149H235.684V534.979C235.684 533.447 235.514 532.001 235.088 530.555L100.168 523.749Z" fill="url(#paint3_linear)"/>
<path d="M230.75 540.508C228.113 537.19 224.029 535.149 219.521 535.149H170.521C167.969 535.149 165.502 535.829 163.375 537.105L230.75 540.508Z" fill="url(#paint4_linear)"/>
<path d="M189.321 550.461C188.81 550.461 188.385 550.036 188.385 549.525V515.838C188.385 515.328 188.81 514.902 189.321 514.902C189.831 514.902 190.257 515.328 190.257 515.838V549.525C190.257 550.036 189.831 550.461 189.321 550.461Z" fill="#A9503F"/>
<path d="M192.978 550.461C192.468 550.461 192.042 550.036 192.042 549.525V515.838C192.042 515.328 192.468 514.902 192.978 514.902C193.489 514.902 193.914 515.328 193.914 515.838V549.525C193.999 550.036 193.574 550.461 192.978 550.461Z" fill="#A9503F"/>
<path d="M196.722 550.461C196.211 550.461 195.786 550.036 195.786 549.525V515.838C195.786 515.328 196.211 514.902 196.722 514.902C197.232 514.902 197.658 515.328 197.658 515.838V549.525C197.658 550.036 197.232 550.461 196.722 550.461Z" fill="#A9503F"/>
<path d="M200.465 550.461C199.954 550.461 199.529 550.036 199.529 549.525V515.838C199.529 515.328 199.954 514.902 200.465 514.902C200.975 514.902 201.4 515.328 201.4 515.838V549.525C201.4 550.036 200.975 550.461 200.465 550.461Z" fill="#A9503F"/>
<path d="M204.208 550.461C203.698 550.461 203.272 550.036 203.272 549.525V515.838C203.272 515.328 203.698 514.902 204.208 514.902C204.718 514.902 205.144 515.328 205.144 515.838V549.525C205.144 550.036 204.718 550.461 204.208 550.461Z" fill="#A9503F"/>
<path d="M185.577 550.461C185.067 550.461 184.642 550.036 184.642 549.525V515.838C184.642 515.328 185.067 514.902 185.577 514.902C186.088 514.902 186.513 515.328 186.513 515.838V549.525C186.513 550.036 186.088 550.461 185.577 550.461Z" fill="#A9503F"/>
<path d="M164.651 606.267H153.337V612.306H164.651V606.267Z" fill="#CC7748"/>
<path d="M219.691 606.267H208.377V612.306H219.691V606.267Z" fill="#CC7748"/>
<path d="M163.8 605.331H152.485V611.371H163.8V605.331Z" fill="#F1A873"/>
<path d="M218.84 605.331H207.526V611.371H218.84V605.331Z" fill="#F1A873"/>
</g>
<defs>
<linearGradient id="paint0_linear" x1="528" y1="507" x2="250" y2="507" gradientUnits="userSpaceOnUse">
<stop stop-color="#FFD9BD"/>
<stop offset="1" stop-color="#E3945A"/>
</linearGradient>
<linearGradient id="paint1_linear" x1="21.0969" y1="609.291" x2="266.425" y2="609.291" gradientUnits="userSpaceOnUse">
<stop stop-color="#F1A873"/>
<stop offset="1" stop-color="#A9503F"/>
</linearGradient>
<linearGradient id="paint2_linear" x1="78.0666" y1="590.66" x2="233.042" y2="590.66" gradientUnits="userSpaceOnUse">
<stop stop-color="#F1A873"/>
<stop offset="1" stop-color="#CC7748"/>
</linearGradient>
<linearGradient id="paint3_linear" x1="100.169" y1="529.421" x2="235.664" y2="529.421" gradientUnits="userSpaceOnUse">
<stop stop-color="#F1A873"/>
<stop offset="1" stop-color="#CC7748"/>
</linearGradient>
<linearGradient id="paint4_linear" x1="138.718" y1="537.819" x2="206.13" y2="537.819" gradientUnits="userSpaceOnUse">
<stop stop-color="#F1A873"/>
<stop offset="1" stop-color="#A9503F"/>
</linearGradient>
</defs>
</svg>
