<svg xmlns="http://www.w3.org/2000/svg" width="88" height="87"><g fill="none" fill-rule="evenodd"><path fill="#ff3939" d="M25.83 64.386c-1.738-4.833.612-10.058 2.524-14.825 1.912-4.767 3.265-10.673.028-14.66-2.746-3.383-7.717-3.95-11.134-6.651-4.103-3.244-4.786-9.654-2.251-14.096C6.452 19.729.802 29.371.802 40.334c0 17.02 13.614 30.86 30.548 31.228-2.203-2.183-4.488-4.308-5.52-7.176"/><path stroke="#fff" stroke-linecap="square" stroke-linejoin="round" stroke-width="1.604" d="M63.277 40.334c0 17.252-13.985 31.237-31.237 31.237S.802 57.586.802 40.334 14.788 9.097 32.04 9.097s31.237 13.985 31.237 31.237z"/><path fill="#ffb500" d="M42.295 39.788h-9.373V23.463c0-1.209-.933-2.264-2.142-2.3a2.208 2.208 0 00-2.276 2.207v16.418h-.062a4.48 4.48 0 004.48 4.417h9.466a2.208 2.208 0 002.207-2.276c-.036-1.209-1.09-2.14-2.3-2.14"/><path stroke="#fff" stroke-linecap="square" stroke-linejoin="round" stroke-width="1.604" d="M42.295 39.788h-9.373V23.463c0-1.209-.933-2.264-2.142-2.3a2.208 2.208 0 00-2.276 2.207v16.418h-.062a4.48 4.48 0 004.48 4.417h9.466a2.208 2.208 0 002.207-2.276c-.036-1.209-1.09-2.14-2.3-2.14zm14.103 34.078l.592-1.822c.24-.742 1.29-.742 1.532 0l1.239 3.815a.806.806 0 00.766.556h4.012c.78 0 1.104.998.473 1.457l-3.245 2.358a.804.804 0 00-.293.9l1.24 3.815c.24.743-.609 1.36-1.24.901l-3.245-2.358a.805.805 0 00-.946 0l-3.246 2.358c-.631.459-1.48-.158-1.24-.9l1.241-3.816a.808.808 0 00-.293-.9L50.5 77.872c-.631-.459-.307-1.457.474-1.457h4.011M77.444 23.54l.593-1.822c.24-.74 1.29-.74 1.532 0l1.239 3.816a.805.805 0 00.766.556h4.012c.78 0 1.105.998.473 1.456l-3.246 2.359a.805.805 0 00-.293.9l1.24 3.816c.242.742-.608 1.358-1.239.9l-3.245-2.358a.805.805 0 00-.946 0l-3.246 2.358c-.631.458-1.48-.158-1.24-.9l1.24-3.816a.805.805 0 00-.292-.9l-3.246-2.359c-.63-.458-.306-1.456.473-1.456h4.012M60.643 2.695l.471-1.45c.191-.59 1.026-.59 1.218 0l.986 3.035a.64.64 0 00.609.442h3.19c.621 0 .879.794.377 1.159l-2.581 1.875a.64.64 0 00-.233.716l.986 3.035c.192.589-.483 1.08-.985.715l-2.582-1.876a.64.64 0 00-.752 0l-2.582 1.876c-.502.364-1.177-.126-.984-.715l.985-3.035a.639.639 0 00-.232-.716l-2.582-1.875c-.502-.365-.244-1.159.376-1.159h3.192m9.5 51.944c-6.323-.28-11.416-5.52-11.526-11.85a12.03 12.03 0 011.027-5.1c.908-2.052-1.577-3.918-3.259-2.431a15.045 15.045 0 00-5.095 11.488c.097 8.007 6.564 14.627 14.566 14.897a15.043 15.043 0 0011.005-4.225c1.602-1.548-.013-4.215-2.112-3.466a12.09 12.09 0 01-4.605.687z"/></g></svg>