<?xml version="1.0" encoding="utf-8"?>
<!-- Generator: Adobe Illustrator 19.0.0, SVG Export Plug-In . SVG Version: 6.00 Build 0)  -->
<svg version="1.1" id="Layer_1" xmlns="http://www.w3.org/2000/svg" xmlns:xlink="http://www.w3.org/1999/xlink" x="0px" y="0px"
	 width="512px" height="512px" viewBox="-49 141 512 512" style="enable-background:new -49 141 512 512;" xml:space="preserve">
<style type="text/css">
	.st0{fill:none;stroke:#27AAE1;stroke-width:10;stroke-linecap:round;stroke-linejoin:round;stroke-miterlimit:10;}
</style>
<g id="XMLID_3_">
	<g>
		<path id="XMLID_19_" class="st0" d="M8.4926939,237.6374359v173.5498199c0,27.8937378,6.6240797,55.418335,19.5672607,80.1273193
			c11.1169662,21.2226563,27.0926743,45.3284302,50.023365,68.5275269
			C127.1483688,609.4813843,181.44841,628.0506592,206.8260345,635"/>
		<path id="XMLID_18_" class="st0" d="M8.4926939,237.6374359c26.165844-2.2028046,61.1698112-7.8562775,100.2105179-22.2690125
			C153.8831635,198.6892242,184.6581116,176.4369354,207.173996,159"/>
	</g>
	<g>
		<path id="XMLID_17_" class="st0" d="M405.5072937,237.6374359v173.5498199
			c0,27.8937378-6.6240845,55.418335-19.5672607,80.1273193c-11.1169434,21.2226563-27.0926514,45.3284302-50.0233459,68.5275269
			C286.8516235,609.4813843,232.5516052,628.0506592,207.173996,635"/>
		<path id="XMLID_13_" class="st0" d="M405.5072937,237.6374359c-26.1658325-2.2028046-61.1697998-7.8562775-100.2105103-22.2690125
			C260.1168518,198.6892242,229.3418884,176.4369354,206.8260193,159"/>
	</g>
	<path class="st0" d="M184.3747253,593.1532593c7.4033203,2.6635132,14.93573,4.9475708,22.4766235,7.1846924"/>
	<path class="st0" d="M37.4030342,260.8467712c32.1861916-2.7096252,64.0905457-10.150238,94.0368195-22.2848358
		c8.8437653-3.5836029,17.5062866-7.6130219,25.94133-12.0746155"/>
	<path class="st0" d="M296.291626,554.7885132c-26.4237061,20.9921265-56.8753662,37.6914063-89.1429901,45.5494385"/>
	<g>
		<path id="XMLID_10_" class="st0" d="M207,345.6581726c8.3164063-18.8586426,27.0760651-31.7444153,45.8240814-32.0549011
			c19.3379669-0.3198853,32.3259735,12.4042358,35.7427216,16.0386353
			c14.754303,15.6948242,13.9269409,35.1744385,13.7471313,39.4085083
			c-0.2131348,5.0144653-1.2060852,12.0672302-6.4152527,23.8284912
			c-2.8720703,6.4838257-12.9482727,27.7720642-42.1583252,54.0722046
			C243.1958618,456.4454346,227.7507172,468.7601013,207,480.4026489"/>
		<path id="XMLID_4_" class="st0" d="M207,480.4026489c-20.7507019-11.6425476-36.1958466-23.9572144-46.7403564-33.4515381
			c-29.2100525-26.3001404-39.2862396-47.5883789-42.1583176-54.0722046
			c-5.2091751-11.761261-6.2021179-18.8140259-6.4152603-23.8284912
			c-0.1798325-4.2340698-1.0071564-23.7136841,13.7471313-39.4085083
			c3.4167328-3.6343994,16.4047546-16.3585205,35.7427216-16.0386353C179.9239349,313.9137573,198.683609,326.79953,207,345.6581726
			"/>
	</g>
</g>
</svg>
