<svg width="515" height="922" viewBox="0 0 515 922" fill="none" xmlns="http://www.w3.org/2000/svg">
<path d="M514.944 3.05176e-05H0.435547V922H514.944V3.05176e-05Z" fill="#F5F6F8"/>
<mask id="mask0" mask-type="alpha" maskUnits="userSpaceOnUse" x="0" y="0" width="515" height="922">
<path d="M514.944 3.05176e-05H0.435547V922H514.944V3.05176e-05Z" fill="#F5F6F8"/>
</mask>
<g mask="url(#mask0)">
<path d="M287.183 213.767C538.522 281.113 412.74 459.313 668.703 610.276C924.667 761.239 321.201 950.275 118.429 833.766C-84.3432 717.258 17.0105 586.389 -241.478 366.393C-499.967 146.398 35.8429 146.421 287.183 213.767Z" fill="#EFF0F4"/>
<path d="M213.821 310.991C213.821 310.991 213.736 310.821 213.481 310.566C213.396 310.396 213.226 310.311 213.056 310.055C212.885 309.885 212.715 309.63 212.545 309.46C212.375 309.29 212.205 309.12 211.95 308.865C211.694 308.609 211.439 308.439 211.099 308.184C210.503 307.674 209.823 307.248 208.972 306.823C208.122 306.483 207.271 306.057 206.25 305.972C205.229 305.802 204.208 305.887 203.102 306.142C201.997 306.398 200.891 306.993 199.955 307.759C199.019 308.524 198.083 309.545 197.403 310.736C196.722 311.842 196.127 313.118 195.786 314.479C195.446 315.84 195.191 317.201 195.191 318.477C195.191 318.818 195.191 319.158 195.191 319.498C195.191 319.838 195.191 320.179 195.191 320.519C195.191 321.2 195.276 321.795 195.361 322.391C195.531 323.667 195.701 324.772 196.042 325.878C196.127 326.389 196.297 326.899 196.467 327.41C196.637 327.92 196.722 328.345 196.892 328.771C197.233 329.621 197.488 330.387 197.743 330.983C198.253 332.173 198.594 332.854 198.594 332.854C198.594 332.854 198.253 332.173 197.573 331.068C197.233 330.472 196.892 329.792 196.467 328.941C196.297 328.516 196.042 328.09 195.872 327.58C195.616 327.154 195.446 326.644 195.276 326.049C194.851 325.028 194.51 323.837 194.17 322.561C194 321.88 193.83 321.285 193.745 320.604C193.66 320.264 193.66 319.924 193.575 319.583C193.575 319.243 193.49 318.903 193.49 318.477C193.405 317.031 193.405 315.5 193.66 313.969C193.83 312.437 194.34 310.821 195.021 309.375C195.701 307.844 196.637 306.483 197.828 305.207C199.019 304.016 200.465 302.995 201.997 302.399C203.528 301.804 205.229 301.464 206.76 301.464C208.292 301.464 209.738 301.804 211.014 302.229C212.29 302.654 213.396 303.25 214.246 303.76C214.672 304.016 215.097 304.271 215.523 304.611C215.863 304.866 216.288 305.207 216.543 305.462C216.884 305.717 217.054 305.887 217.309 306.057C217.479 306.227 217.649 306.398 217.819 306.483C218.075 306.738 218.245 306.823 218.245 306.823C219.436 307.929 219.521 309.715 218.5 310.906C217.394 312.097 215.608 312.182 214.417 311.161C213.991 311.161 213.906 311.076 213.821 310.991Z" fill="#6C222C"/>
<path d="M205.91 333.705C205.91 333.705 205.655 334.045 205.314 334.555C204.889 335.066 204.293 335.917 203.613 336.852C202.167 338.724 200.04 341.106 197.658 343.147C196.467 344.168 195.191 345.104 193.83 345.87C193.149 346.21 192.554 346.55 191.873 346.805C191.278 347.061 190.597 347.231 190.087 347.401C189.491 347.571 188.981 347.656 188.471 347.656C187.96 347.741 187.62 347.656 187.28 347.656C186.939 347.656 186.684 347.571 186.514 347.571C186.344 347.571 186.259 347.571 186.259 347.571C186.259 347.571 186.344 347.571 186.514 347.571C186.684 347.571 186.939 347.571 187.28 347.486C187.62 347.401 187.96 347.316 188.386 347.231C188.811 347.061 189.236 346.89 189.747 346.635C190.257 346.38 190.767 346.04 191.278 345.7C191.788 345.359 192.299 344.934 192.809 344.423C193.83 343.488 194.766 342.382 195.616 341.191C197.318 338.894 198.679 336.257 199.615 334.3C200.04 333.279 200.465 332.514 200.635 331.918C200.891 331.323 201.061 330.983 201.061 330.983C201.656 329.536 203.358 328.771 204.889 329.451C206.335 330.047 207.101 331.748 206.42 333.279C206.165 333.279 206.08 333.535 205.91 333.705Z" fill="#6C222C"/>
<path d="M213.566 401.08L214.842 404.057L215.778 406.099C216.543 407.63 217.309 409.246 218.245 410.948C219.095 412.564 220.116 414.265 221.137 415.882C222.158 417.583 223.179 419.199 224.284 420.901C228.623 427.536 233.557 434.172 238.661 440.722C243.765 447.272 249.125 453.737 254.654 460.033C256.185 461.734 257.717 463.52 259.248 465.222L260.013 463.095C261.119 459.607 262.225 456.119 263.246 452.546C263.757 450.76 264.182 448.974 264.692 447.187C265.203 445.401 265.628 443.614 266.053 441.743L267.329 436.298L268.435 430.769C269.201 427.111 269.796 423.368 270.477 419.625C270.817 417.753 271.073 415.882 271.328 414.01L272.178 408.396L273.54 397.081V396.826C274.05 392.658 277.878 389.595 282.046 390.106C285.96 390.616 288.852 394.019 288.767 397.847L288.597 409.672L288.342 415.541C288.257 417.498 288.171 419.455 288.086 421.496C287.831 425.409 287.576 429.408 287.151 433.321L286.555 439.276L285.789 445.23C285.534 447.187 285.279 449.229 284.939 451.185C284.599 453.142 284.343 455.184 284.003 457.14C283.322 461.138 282.557 465.052 281.706 469.05C280.77 473.048 279.835 476.961 278.644 480.96C278.048 482.916 277.453 484.958 276.772 486.999L275.666 490.062C275.241 491.168 274.986 492.019 274.22 493.55C271.413 499.59 264.352 502.227 258.312 499.505C257.376 499.079 256.441 498.484 255.675 497.888L254.824 497.208L249.635 492.954L244.616 488.701C241.298 485.809 237.981 483.001 234.663 480.024C228.113 474.154 221.562 468.199 215.182 461.904C208.802 455.609 202.592 449.144 196.552 442.168C195.021 440.382 193.574 438.595 192.043 436.809C190.597 434.937 189.066 433.066 187.62 431.109C186.173 429.152 184.812 427.111 183.366 424.984L181.154 421.411L179.538 418.604C174.179 409.501 177.156 397.677 186.344 392.317C195.446 386.958 207.271 389.935 212.63 399.123C213.055 399.804 213.396 400.484 213.736 401.25L213.566 401.08Z" fill="#F6A87D"/>
<path d="M224.2 420.816C223.094 419.114 222.073 417.498 221.052 415.797C220.287 414.521 219.521 413.33 218.84 412.053L200.551 431.449C200.551 431.449 215.778 471.687 218.075 473.814C231.686 466.838 240.703 443.359 240.703 443.359V443.274C239.938 442.338 239.257 441.487 238.491 440.552C233.472 434.086 228.623 427.451 224.2 420.816Z" fill="url(#paint0_linear)"/>
<path d="M224.625 419.369C225.986 417.668 220.372 411.203 217.054 403.802C213.736 396.486 209.908 414.606 209.908 414.606L224.625 419.369Z" fill="#D82427"/>
<path d="M346.019 731.744C346.615 732.85 344.062 739.23 339.384 741.186C334.705 743.143 333.939 729.362 333.939 729.362L346.019 731.744Z" fill="#275F91"/>
<path d="M318.456 740.506C321.008 746.716 319.222 757.52 322.369 764.495C323.56 767.132 326.197 768.749 329.005 768.749L388.213 769.259C388.213 769.259 395.529 761.943 383.279 760.497C361.246 758.03 348.401 751.139 341.51 731.063C338.447 721.791 315.309 732.85 318.456 740.506Z" fill="#FFC3A1"/>
<path d="M225.305 678.575C223.689 685.041 215.778 692.782 214.161 700.268C213.566 703.075 214.672 705.968 216.969 707.669L245.467 730.383C247.594 732.084 250.316 733.02 253.038 733.02H267.415C267.415 733.02 272.774 727.065 256.1 721.45C246.743 709.881 244.361 700.778 249.465 684.785C252.528 675.428 227.347 670.494 225.305 678.575Z" fill="#F6A87D"/>
<path d="M342.616 733.615L324.921 730.893C320.498 733.53 317.265 737.273 318.541 740.506C319.562 742.888 319.902 746.035 320.072 749.268C329.09 747.652 340.319 737.103 342.616 733.615Z" fill="#F6A87D"/>
<path d="M199.699 335.661C199.189 339.064 193.83 349.783 188.725 351.314C194.595 360.927 206.505 359.055 210.078 353.441L199.699 335.661Z" fill="#6C222C"/>
<path d="M215.862 414.606C215.862 414.606 221.307 366.627 221.052 364.67C220.796 362.713 205.569 350.548 205.569 350.548C205.569 350.548 195.191 369.859 184.046 380.748L182.77 396.996L215.862 414.606Z" fill="#FFC3A1"/>
<path d="M250.486 338.639C250.486 338.639 252.783 355.142 250.656 356.163C249.295 356.759 243.34 354.717 243.34 354.717L250.486 338.639Z" fill="#FFC3A1"/>
<path d="M235.684 371.816C240.108 371.22 255.591 333.875 251.847 319.498C239.087 271.009 183.367 321.965 205.91 353.015C219.776 371.986 233.387 372.071 235.684 371.816Z" fill="#FFC3A1"/>
<path d="M203.442 354.036C203.272 356.078 203.442 373.687 218.5 390.871C219.605 380.833 220.711 370.54 220.967 366.456L203.442 354.036Z" fill="#F6A87D"/>
<path d="M262.991 316.266C269.627 314.054 267.84 307.418 267.84 307.418C267.84 307.418 260.524 313.033 250.912 304.526C245.552 298.656 239.683 293.467 229.729 294.062C213.907 294.998 214.502 307.674 214.502 307.674C214.502 307.674 208.462 301.549 202.337 304.866C189.577 311.842 201.486 336.427 201.486 336.427L208.887 340.425C208.887 340.425 219.691 334.726 222.158 321.285C221.988 338.979 238.066 338.639 238.066 338.639C238.066 338.639 236.45 333.194 239.853 330.727C241.214 338.128 271.669 347.996 274.816 319.498C270.307 321.37 264.778 320.094 262.991 316.266Z" fill="#6C222C"/>
<path d="M245.211 355.227C238.916 351.569 231.94 359.396 225.73 359.906C219.52 360.416 206.845 345.104 207.355 340.425L200.635 337.108C200.635 365.265 222.923 383.13 235.598 381.939C247.423 380.833 241.638 364.415 245.211 355.227Z" fill="#6C222C"/>
<path d="M211.156 340.654C215.417 338.462 217.095 333.231 214.903 328.969C212.711 324.708 207.48 323.031 203.218 325.223C198.957 327.415 197.28 332.646 199.472 336.907C201.664 341.168 206.895 342.846 211.156 340.654Z" fill="#FFC3A1"/>
<path d="M209.167 336.706C211.251 335.621 212.062 333.053 210.978 330.969C209.894 328.885 207.325 328.074 205.241 329.158C203.157 330.242 202.346 332.811 203.43 334.895C204.514 336.979 207.083 337.79 209.167 336.706Z" fill="#F6A87D"/>
<path d="M172.053 526.046C172.053 526.046 176.221 526.387 183.452 527.067C190.683 527.663 201.061 528.598 213.481 529.534C225.902 530.47 284.599 532.256 291.575 533.362C308.163 536.084 317.181 546.888 316.245 563.307C315.905 569.772 308.419 587.296 308.419 587.296C300.848 602.098 293.361 616.9 286.301 630.766C282.813 637.742 279.41 644.463 276.177 650.843C272.945 657.223 269.967 663.263 267.16 668.792C261.631 679.937 257.037 689.294 253.804 695.759C245.297 704.266 233.898 687.593 223.009 682.404C225.561 675.598 229.219 665.9 233.643 654.246C235.77 648.376 238.152 642.081 240.619 635.36C243.086 628.64 245.723 621.579 248.36 614.263C251.592 605.246 254.995 595.888 258.483 586.36L255.931 586.53C240.363 587.551 225.902 588.742 213.481 589.678C201.061 590.614 190.683 591.55 183.452 592.145C176.221 592.741 172.053 593.166 172.053 593.166C153.508 594.782 137.174 581.086 135.643 562.541C134.027 543.996 147.723 527.663 166.268 526.131C168.14 525.876 170.266 525.876 172.053 526.046Z" fill="#1C88B7"/>
<path d="M290.723 552.843C299.911 556.756 309.524 565.859 314.118 583.043C315.394 587.807 346.018 731.659 346.018 731.659C338.447 735.657 317.69 749.183 314.883 741.271C314.883 741.271 313.437 737.188 310.97 730.127C309.694 726.554 308.163 722.301 306.461 717.367C304.675 712.433 302.803 706.903 300.592 700.864C296.168 688.784 291.064 674.662 285.534 659.52C279.92 644.463 273.88 628.385 267.925 612.306L266.479 608.478C266.479 608.478 263.416 608.308 261.375 608.138C257.206 607.883 253.038 607.628 248.954 607.372C240.788 606.777 232.876 606.181 225.305 605.671C217.734 605.076 210.588 604.48 203.868 603.8C197.147 603.119 168.649 603.544 151.635 595.973C133.26 587.807 126.285 565.859 133.43 548.675C140.661 531.491 160.397 523.409 177.581 530.64C179.623 531.321 232.876 528.513 290.723 552.843Z" fill="#30B7F1"/>
<path d="M199.7 531.661C182.175 533.362 157.505 536.935 138.875 539.827C136.663 542.38 134.877 545.357 133.516 548.59C132.41 551.312 131.559 554.204 131.134 557.097C165.672 553.864 205.399 532.171 199.7 531.661Z" fill="#1C88B7"/>
<path d="M123.563 551.822C138.875 559.223 224.625 532.256 224.625 532.256C224.625 532.256 206.931 443.444 224.625 419.369C200.465 398.357 193.064 369.944 193.064 369.944C193.064 369.944 166.523 379.472 148.063 402.951C115.907 443.699 123.563 551.822 123.563 551.822Z" fill="#F85656"/>
<path d="M217.82 483.086L189.321 479.598L145.511 419.795C146.191 431.79 150.785 503.843 202.847 538.722C215.608 535.149 224.71 532.256 224.71 532.256C224.71 532.256 219.946 509.032 217.82 483.086Z" fill="url(#paint1_linear)"/>
<path d="M257.887 591.464L138.45 585.425C141.853 589.848 146.276 593.506 151.806 595.973C168.82 603.544 197.318 603.119 204.038 603.8C210.759 604.48 217.905 605.076 225.476 605.671C232.962 606.181 240.873 606.777 249.125 607.372C253.208 607.628 257.377 607.883 261.545 608.138C263.672 608.308 266.649 608.478 266.649 608.478C266.649 608.478 258.313 592.911 257.887 591.464Z" fill="url(#paint2_linear)"/>
<path d="M162.695 465.817C163.29 468.369 174.349 465.562 178.773 462.5C183.281 459.437 173.669 451.951 173.669 451.951L162.695 465.817Z" fill="#D82427"/>
<path d="M191.278 412.053L191.703 416.562L191.873 418.349L192.128 420.39C192.554 423.113 192.979 425.835 193.575 428.642C194.766 434.172 196.382 439.786 198.253 445.401C200.21 451.015 202.422 456.63 204.974 462.074C206.25 464.796 207.526 467.519 208.887 470.241C209.227 470.921 209.653 471.687 209.993 472.368L297.529 474.835C301.272 474.92 304.165 478.067 304.08 481.725C303.995 485.043 301.442 487.765 298.21 488.19L202.167 500.781C197.743 501.376 193.575 499.505 191.023 496.357L189.917 494.996L188.045 492.784L186.344 490.657C185.238 489.296 184.132 487.85 183.111 486.489C180.984 483.682 178.943 480.875 176.986 477.982C173.073 472.197 169.33 466.243 165.842 459.947C162.439 453.737 159.207 447.187 156.484 440.382C155.123 436.979 153.847 433.491 152.656 429.833L151.806 427.111L150.955 424.133L149.594 419.029C146.616 407.715 153.337 396.146 164.651 393.168C175.965 390.191 187.535 396.911 190.512 408.225C190.852 409.416 191.023 410.522 191.108 411.713L191.278 412.053Z" fill="#FFC3A1"/>
<path d="M317.436 466.923H317.521L328.92 466.243C331.132 466.243 331.982 463.861 330.706 462.585L317.35 463.265C316.33 463.35 315.564 464.201 315.649 465.222C315.649 466.158 316.415 466.923 317.436 466.923Z" fill="#F6A87D"/>
<path d="M320.413 476.196C320.413 476.196 320.328 476.196 320.158 476.281C319.988 476.366 319.818 476.451 319.562 476.536C319.307 476.621 319.052 476.791 318.712 476.961C318.371 477.131 317.946 477.302 317.521 477.472C317.095 477.642 316.585 477.812 316.075 477.982C315.564 478.152 315.054 478.407 314.458 478.493C313.863 478.663 313.267 478.833 312.672 479.003C312.076 479.173 311.481 479.343 310.8 479.428C310.205 479.598 309.524 479.684 308.929 479.854C308.333 480.024 307.738 480.024 307.142 480.109C306.547 480.194 305.951 480.279 305.441 480.364C304.93 480.449 304.42 480.449 303.91 480.449C302.038 480.534 300.762 480.534 300.762 480.534H300.422C298.55 480.619 297.019 482.236 297.104 484.107C297.189 485.979 298.806 487.51 300.677 487.425C300.762 487.425 300.932 487.425 301.017 487.425C301.017 487.425 302.463 487.255 304.59 486.914C305.101 486.829 305.696 486.744 306.292 486.574C306.887 486.404 307.568 486.319 308.163 486.149C308.844 485.979 309.524 485.894 310.205 485.638C310.885 485.383 311.566 485.213 312.246 484.958C312.927 484.703 313.608 484.532 314.203 484.277C314.884 484.022 315.479 483.767 316.075 483.512C316.67 483.256 317.266 483.001 317.861 482.746C318.371 482.491 318.967 482.236 319.392 481.98C319.903 481.725 320.328 481.47 320.668 481.3C321.009 481.13 321.434 480.875 321.689 480.704C321.944 480.534 322.2 480.364 322.285 480.279C322.455 480.194 322.455 480.109 322.455 480.109C323.476 479.428 323.816 477.982 323.135 476.961C322.795 475.94 321.519 475.6 320.413 476.196Z" fill="#F6A87D"/>
<path d="M286.47 480.109C286.47 480.109 294.722 487.85 301.357 487.85C312.586 487.85 312.331 475.855 312.331 475.855L309.694 466.158L293.616 473.984L286.47 480.109Z" fill="#FFC3A1"/>
<path d="M329.005 482.661C327.474 481.47 318.542 473.729 318.542 473.729C317.181 472.878 311.736 469.645 310.46 468.71C309.014 467.689 307.057 467.944 306.037 469.39C305.016 470.836 305.271 472.793 306.717 473.814C306.972 473.984 307.313 474.154 307.653 474.324C309.184 474.835 314.544 477.387 316.075 477.982C316.075 477.982 322.71 483.086 324.156 484.277C326.283 485.979 329.005 484.362 329.005 482.661Z" fill="#FFC3A1"/>
<path d="M338.362 474.75L324.836 464.541C324.325 464.116 323.645 464.031 322.964 464.116L322.709 464.201L308.502 467.348C306.801 467.689 305.695 469.39 306.12 471.092C306.461 472.793 308.162 473.899 309.863 473.473C309.948 473.473 310.034 473.473 310.119 473.388L322.709 469.901L333.938 476.451C336.575 477.982 338.362 476.111 338.362 474.75Z" fill="#FFC3A1"/>
<path d="M337.597 459.607L322.54 457.906C321.945 457.821 321.434 457.906 321.009 458.246L320.754 458.416L307.483 467.178C306.037 468.114 305.611 470.071 306.547 471.517C307.483 472.963 309.44 473.388 310.886 472.453C310.971 472.453 310.971 472.368 311.056 472.368L323.051 463.265L335.386 463.605C338.363 463.435 338.788 460.713 337.597 459.607Z" fill="#FFC3A1"/>
<path d="M312.417 475.94C312.417 477.217 311.991 487.765 301.443 487.765C298.55 487.765 295.403 486.319 292.766 484.703C305.526 490.062 312.417 475.94 312.417 475.94Z" fill="url(#paint3_linear)"/>
<path d="M161.503 451.355C162.949 454.333 164.48 457.225 166.012 460.033C167.713 463.18 169.499 466.243 171.371 469.22C179.282 460.288 191.873 452.036 199.529 448.803L161.503 451.355Z" fill="#F6A87D"/>
<path d="M262.311 678.575C260.779 685.381 261.885 697.971 253.804 695.674C245.807 693.377 261.715 678.575 261.715 678.575" fill="#1C88B7"/>
<path d="M198.254 445.401C196.297 439.786 194.681 434.172 193.575 428.642C192.98 425.835 192.469 423.113 192.129 420.39L191.874 418.349L191.704 416.562L191.278 412.053V411.798C191.193 410.607 190.938 409.501 190.683 408.31C187.705 396.996 176.136 390.276 164.822 393.253C153.508 396.231 143.299 409.416 145.851 422.177C148.403 434.937 162.185 464.796 162.695 465.732C171.712 459.352 190.257 450.335 199.445 448.718C199.105 447.698 198.679 446.507 198.254 445.401Z" fill="#F85656"/>
<path d="M266.529 606.928C266.529 606.928 266.602 606.853 266.747 606.779C266.893 606.704 267.184 606.481 267.256 606.332C267.329 606.258 267.402 606.183 267.474 606.034C267.547 605.886 267.692 605.737 267.838 605.588C268.056 605.29 268.347 604.843 268.565 604.322C268.783 603.801 269.074 603.28 269.365 602.685C269.51 602.387 269.583 602.089 269.728 601.791C269.874 601.494 269.947 601.121 270.092 600.824C270.31 600.154 270.528 599.409 270.746 598.739C270.892 597.995 271.11 597.25 271.255 596.506C271.401 595.762 271.546 594.943 271.619 594.198C271.764 593.454 271.764 592.71 271.837 591.965C271.837 591.221 271.91 590.551 271.91 589.881C271.91 589.211 271.837 588.541 271.837 587.945C271.764 587.35 271.692 586.829 271.692 586.308C271.619 585.861 271.546 585.414 271.473 585.042C271.328 584.372 271.255 584 271.255 584C271.255 584 271.401 584.372 271.619 585.042C271.692 585.34 271.91 585.787 271.982 586.233C272.128 586.68 272.201 587.275 272.346 587.796C272.419 588.392 272.564 589.062 272.71 589.732C272.782 590.402 272.855 591.146 272.928 591.891C272.928 592.635 273 593.454 273 594.198C273 595.017 273 595.836 272.928 596.655C272.928 597.474 272.782 598.293 272.71 599.111C272.564 599.93 272.491 600.675 272.346 601.419C272.273 601.791 272.201 602.164 272.128 602.536C272.055 602.908 271.91 603.28 271.837 603.578C271.692 604.248 271.401 604.918 271.183 605.513C270.965 606.109 270.746 606.63 270.456 607.151C270.31 607.374 270.237 607.598 270.092 607.821C269.947 608.044 269.801 608.268 269.656 608.491C269.365 608.938 269.219 609.012 269.074 609.235C268.929 609.384 268.856 609.459 268.856 609.459C268.274 610.129 267.184 610.203 266.529 609.533C265.875 608.938 265.802 607.821 266.456 607.151C266.384 607.002 266.456 607.002 266.529 606.928Z" fill="#1C88B7"/>
<path d="M308.418 706.648C308.418 706.648 308.418 705.712 308.418 704.096C308.418 703.331 308.418 702.31 308.333 701.204C308.248 700.098 308.248 698.822 308.163 697.461C308.078 696.1 307.993 694.568 307.908 693.037C307.823 691.506 307.653 689.805 307.483 688.103C307.227 686.402 307.057 684.615 306.802 682.829C306.632 681.978 306.547 681.042 306.377 680.192C306.207 679.341 306.036 678.405 305.866 677.555C305.696 676.619 305.441 675.768 305.271 674.917C305.016 674.067 304.845 673.131 304.59 672.28C303.995 670.579 303.654 668.878 303.059 667.261C302.804 666.496 302.463 665.645 302.208 664.879C302.038 664.454 301.953 664.114 301.783 663.688C301.613 663.348 301.443 662.923 301.358 662.582C301.017 661.902 300.762 661.136 300.422 660.456C300.167 659.775 299.911 659.095 299.571 658.499C298.976 657.308 298.38 656.117 297.87 655.181C297.359 654.161 296.849 653.395 296.424 652.714C295.573 651.353 295.148 650.503 295.148 650.503C295.148 650.503 295.743 651.268 296.764 652.459C297.274 653.14 297.87 653.82 298.55 654.841C299.146 655.777 299.826 656.883 300.592 658.074C301.358 659.265 301.953 660.626 302.719 662.072C302.889 662.412 303.059 662.753 303.229 663.178C303.399 663.518 303.569 663.943 303.74 664.369C304.08 665.134 304.42 665.985 304.76 666.751C305.101 667.516 305.356 668.452 305.696 669.303C305.951 670.154 306.292 671.004 306.547 671.94C306.802 672.791 306.972 673.726 307.227 674.662C307.483 675.598 307.738 676.449 307.908 677.384C308.078 678.32 308.248 679.256 308.418 680.107C308.588 681.042 308.674 681.978 308.844 682.829C309.184 684.615 309.269 686.487 309.439 688.188C309.524 689.89 309.609 691.591 309.609 693.207C309.609 693.973 309.609 694.824 309.609 695.504C309.609 696.27 309.524 696.95 309.524 697.716C309.524 699.077 309.354 700.353 309.269 701.544C309.184 702.65 309.099 703.671 308.929 704.436C308.588 705.712 308.418 706.648 308.418 706.648Z" fill="url(#paint4_linear)"/>
<path d="M180.644 483.001C181.495 484.192 182.345 485.383 183.196 486.574C184.217 487.935 185.323 489.381 186.429 490.743L188.13 492.869L190.002 495.081L191.107 496.442C193.745 499.675 197.913 501.461 202.252 500.866L219.436 498.654C198.083 501.461 185.578 489.041 180.644 483.001Z" fill="url(#paint5_linear)"/>
<path d="M189.236 373.262C189.236 373.262 189.236 373.687 189.236 374.538C189.236 375.304 189.236 376.41 189.406 377.771C189.492 378.451 189.492 379.132 189.577 379.897C189.662 380.663 189.832 381.429 189.917 382.279C190.002 383.13 190.257 383.981 190.427 384.831C190.597 385.682 190.768 386.618 191.023 387.469C191.278 388.319 191.533 389.255 191.788 390.106C192.044 390.956 192.299 391.807 192.639 392.573C193.235 394.189 193.745 395.72 194.34 396.911C195.531 399.378 196.297 401.08 196.297 401.08C196.297 401.08 195.276 399.548 193.83 397.251C192.979 396.146 192.384 394.614 191.533 393.083C191.108 392.317 190.682 391.552 190.342 390.701C190.002 389.85 189.577 389 189.236 388.149C188.811 387.298 188.556 386.448 188.215 385.512C187.875 384.661 187.535 383.811 187.28 382.96C187.025 382.109 186.769 381.258 186.599 380.493C186.344 379.727 186.259 378.962 186.089 378.281C185.748 376.92 185.578 375.729 185.408 374.878C185.323 374.113 185.238 373.602 185.238 373.602C185.068 372.496 185.834 371.39 187.025 371.22C188.13 371.05 189.236 371.816 189.406 373.007C189.236 373.092 189.236 373.177 189.236 373.262Z" fill="url(#paint6_linear)"/>
<path d="M193.745 371.475C193.745 371.475 193.745 371.646 193.83 371.986C193.915 372.326 193.915 372.837 194 373.347C194.085 373.857 194.255 374.453 194.341 375.219C194.426 375.899 194.681 376.92 194.936 377.856C195.191 378.876 195.361 379.897 195.702 381.088C196.042 382.194 196.382 383.385 196.722 384.661C197.063 385.937 197.488 387.128 197.913 388.404C198.339 389.68 198.764 390.956 199.275 392.232C199.785 393.508 200.295 394.784 200.806 395.975C201.316 397.251 201.827 398.442 202.422 399.633C203.018 400.824 203.528 401.93 204.123 402.951C204.719 403.972 205.059 405.078 205.655 405.929C207.867 409.501 209.313 411.798 209.313 411.798C209.313 411.798 207.526 409.672 204.889 406.439C204.209 405.673 203.613 404.652 202.933 403.717C202.252 402.696 201.486 401.675 200.806 400.569C200.04 399.463 199.36 398.272 198.679 397.081C197.998 395.89 197.233 394.699 196.552 393.423C195.872 392.147 195.276 390.956 194.596 389.68C194 388.404 193.32 387.213 192.809 386.022C192.299 384.831 191.788 383.64 191.278 382.534C190.768 381.429 190.427 380.323 190.002 379.302C189.662 378.281 189.236 377.43 188.981 376.495C188.726 375.559 188.471 374.793 188.216 374.113C188.045 373.432 187.96 373.007 187.875 372.666C187.79 372.326 187.79 372.156 187.79 372.156C187.365 370.455 188.386 368.753 190.002 368.328C191.703 367.903 193.405 368.923 193.83 370.54C193.83 370.71 193.915 370.795 193.915 370.965L193.745 371.475Z" fill="url(#paint7_linear)"/>
<path d="M211.695 310.906C211.695 310.906 211.695 310.566 211.61 309.97C211.61 309.375 211.525 308.524 211.525 307.503C211.525 306.483 211.525 305.292 211.695 304.016C211.78 303.42 211.78 302.74 211.95 302.059C212.036 301.378 212.206 300.698 212.376 300.102C212.546 299.422 212.716 298.826 212.886 298.146C213.056 297.55 213.312 296.87 213.567 296.359C213.822 295.764 214.077 295.253 214.417 294.743C214.758 294.233 215.013 293.807 215.268 293.382C215.608 292.957 215.864 292.616 216.119 292.361C216.374 292.021 216.629 291.851 216.799 291.595C217.225 291.17 217.395 291 217.395 291C217.395 291 217.225 291.255 216.97 291.766C216.884 292.021 216.629 292.276 216.544 292.616C216.374 292.957 216.204 293.382 216.034 293.807C215.864 294.233 215.779 294.743 215.608 295.253C215.523 295.764 215.438 296.359 215.268 296.87C215.183 297.465 215.183 298.061 215.098 298.656C215.098 299.252 215.098 299.847 215.098 300.443C215.098 301.038 215.183 301.634 215.268 302.229C215.353 302.825 215.438 303.42 215.523 303.931C215.779 305.036 215.949 306.057 216.289 306.908C216.544 307.759 216.799 308.439 216.97 308.95C217.14 309.46 217.225 309.8 217.225 309.8C217.735 311.332 216.97 312.948 215.523 313.543C213.992 314.054 212.376 313.288 211.78 311.842C211.78 311.502 211.695 311.161 211.695 310.906Z" fill="#6C222C"/>
<path d="M289.107 367.732H280.941V374.283H289.107V367.732Z" fill="#F29E79"/>
<path d="M276.773 405.929C276.093 404.823 270.478 398.272 269.882 391.977C269.372 385.682 294.042 375.133 294.042 375.133C297.87 382.62 294.638 395.04 290.639 399.038C285.875 404.482 276.773 405.929 276.773 405.929Z" fill="#F6A87D"/>
<path d="M278.729 395.805H257.462V397.507H278.729V395.805Z" fill="#03838B"/>
<path d="M278.899 396.316H257.461C255.42 396.316 253.803 394.699 253.803 392.658V357.864H282.642V392.658C282.557 394.699 280.94 396.316 278.899 396.316Z" fill="url(#paint8_linear)"/>
<path d="M288.086 364.16C287.491 364.16 286.98 363.989 286.47 363.564L282.812 360.331H278.218C276.857 360.331 274.645 357.949 275.836 355.568H283.748C284.343 355.568 284.939 355.823 285.364 356.163L288.937 358.97C289.958 359.821 290.298 362.118 289.447 363.139C288.937 363.649 288.767 364.16 288.086 364.16Z" fill="#FFC3A1"/>
<path d="M269.457 371.22C269.457 371.22 270.648 370.54 272.349 369.519C274.136 368.498 276.433 367.222 278.9 366.031C280.091 365.436 281.367 364.84 282.643 364.33C282.983 364.16 283.238 364.074 283.664 363.989C284.004 363.904 284.429 363.734 284.855 363.649H285.025H285.365H285.45H285.705C286.131 363.649 286.726 363.734 286.896 363.819C287.407 363.904 287.747 364.074 288.087 364.245C289.363 364.84 290.044 365.436 290.554 365.861C291.065 366.286 291.32 366.627 291.32 366.627C292.341 367.392 292.596 368.923 291.83 369.944C291.065 370.965 289.533 371.22 288.513 370.455C288.513 370.455 288.257 370.37 287.747 370.199C287.237 370.029 286.556 369.689 285.96 369.519C285.79 369.519 285.705 369.434 285.705 369.434C285.62 369.434 285.96 369.519 286.131 369.434H285.96H285.875C285.62 369.434 286.216 369.349 286.216 369.434H286.131C286.046 369.434 285.875 369.519 285.62 369.604C285.365 369.689 285.195 369.774 284.855 369.859C283.834 370.285 282.643 370.795 281.452 371.305C276.688 373.517 273.2 375.048 273.2 375.048C268.862 376.58 268.096 372.752 268.096 372.752C268.351 371.986 268.947 371.475 269.457 371.22Z" fill="#FFC3A1"/>
<path d="M269.882 378.877C269.882 378.877 284.514 374.028 285.28 374.198C286.045 374.453 291.83 378.196 291.83 378.196" fill="#FFC3A1"/>
<path d="M266.564 377.43C266.564 377.43 274.646 374.453 280.345 372.326C281.111 372.071 281.791 371.816 282.557 371.561C282.982 371.475 283.323 371.305 283.748 371.22C284.003 371.135 284.173 371.135 284.514 371.05C284.599 371.05 284.769 371.05 284.854 370.965H285.024H285.109C285.194 370.965 285.364 370.965 285.449 370.965C285.705 370.965 285.96 371.05 286.215 371.05L286.64 371.22L286.725 371.305C286.981 371.39 287.491 371.646 287.916 371.901C288.257 372.071 288.597 372.241 288.937 372.411C289.533 372.752 290.043 373.007 290.554 373.262L290.128 381.854C289.958 381.769 289.873 381.684 289.703 381.599L289.618 381.514C289.618 381.514 288.427 380.663 286.64 379.387C286.215 379.047 285.705 378.706 285.194 378.366C284.939 378.196 284.769 378.026 284.514 377.941C284.429 377.856 284.343 377.771 284.003 377.856C283.323 378.026 282.642 378.196 281.876 378.281C276.177 379.642 270.392 381.173 270.392 381.173C269.371 381.514 266.224 380.748 266.564 377.43Z" fill="#FFC3A1"/>
<path d="M273.455 380.578C273.455 380.578 273.71 380.578 274.136 380.578C274.391 380.578 274.476 380.493 274.646 380.493C274.901 380.408 275.156 380.408 275.412 380.323C276.688 380.067 278.559 379.387 280.686 378.962C281.196 378.877 281.792 378.706 282.387 378.706C282.983 378.621 283.578 378.621 284.174 378.621C284.769 378.621 285.365 378.621 286.045 378.791C286.641 378.877 287.236 379.047 287.747 379.217C288.853 379.557 289.703 380.067 290.214 380.408C290.724 380.833 291.064 381.003 291.064 381.003C292.766 382.279 293.191 384.661 291.915 386.363C290.639 388.064 288.257 388.489 286.556 387.213C286.471 387.128 286.301 387.043 286.216 386.958L285.79 386.618C285.79 386.618 285.705 386.533 285.62 386.363C285.535 386.192 285.28 386.022 285.025 385.852C284.854 385.767 284.684 385.682 284.514 385.597C284.344 385.512 284.004 385.427 283.748 385.342C283.408 385.342 283.068 385.257 282.728 385.257C282.387 385.257 281.962 385.257 281.537 385.257C279.835 385.257 277.794 385.597 276.092 385.682C275.667 385.682 275.327 385.682 274.901 385.682C274.476 385.682 274.051 385.682 273.88 385.597C273.455 385.512 273.2 385.512 273.2 385.512C271.924 385.342 270.988 384.066 271.158 382.79C271.328 381.429 272.349 380.578 273.455 380.578Z" fill="#FFC3A1"/>
<path d="M283.323 394.019C280.856 394.019 278.474 392.828 276.347 390.616C275.241 389.425 275.326 387.639 276.432 386.533C277.623 385.427 279.409 385.512 280.515 386.618C281.451 387.554 282.812 388.574 284.173 388.064C286.13 387.298 288.342 383.47 288.342 377.09C288.342 371.816 286.81 367.988 285.024 366.371C281.962 363.564 276.942 366.967 276.942 366.967C276.517 366.712 276.092 366.286 275.837 365.861C275.071 364.5 275.666 362.713 277.028 361.948C282.217 359.226 285.79 360.161 287.916 361.437C291.83 363.819 294.041 369.519 294.041 377.09C293.956 385.257 290.979 391.467 286.215 393.423C285.279 393.849 284.343 394.019 283.323 394.019Z" fill="#01B0BB"/>
<path d="M528 498H250V517H528V498Z" fill="url(#paint9_linear)"/>
<path d="M395.614 769.004H343.892V780.148H395.614V769.004Z" fill="#D88A58"/>
<path d="M343.892 773.087V780.148H395.529V775.724L343.892 773.087Z" fill="#CC7748"/>
<path d="M404.547 498.909H328.665C327.219 498.909 326.028 497.718 326.028 496.272C326.028 494.826 327.219 493.635 328.665 493.635H402.76L429.472 420.986C429.982 419.625 431.514 418.944 432.875 419.455C434.236 419.965 434.916 421.496 434.406 422.857L407.099 497.293C406.673 498.229 405.653 498.909 404.547 498.909Z" fill="#6E9BC4"/>
<path d="M384.385 419.369H432.789L403.015 498.824L353.76 498.909L384.385 419.369Z" fill="#6E9BC4"/>
<path d="M356.141 498.909H280.259C278.813 498.909 277.622 497.718 277.622 496.272C277.622 494.826 278.813 493.635 280.259 493.635H354.355L381.067 420.986C381.577 419.625 383.108 418.944 384.469 419.455C385.83 419.965 386.511 421.496 386.001 422.857L358.693 497.293C358.268 498.229 357.247 498.909 356.141 498.909Z" fill="#1A3867"/>
<path d="M401.824 460.798C401.143 463.52 398.676 465.477 396.379 465.307C394.083 465.052 392.721 462.67 393.402 459.947C394.083 457.225 396.55 455.269 398.846 455.439C401.143 455.694 402.504 458.076 401.824 460.798Z" fill="#1A3867"/>
<path d="M267.5 732.935H230.24V743.824H267.5V732.935Z" fill="#A9503F"/>
<path d="M244.787 604.055H120.756V614.518H244.787V604.055Z" fill="url(#paint10_linear)"/>
<path d="M219.435 535.149H170.435C164.225 535.149 158.696 539.062 156.739 545.017L47 831.7H55.8472L155.123 625.832C158.185 619.452 164.651 615.369 171.797 615.369H196.382C205.824 615.369 213.736 622.515 214.757 631.872L226.581 831.615H233.982V549.61C233.982 541.614 227.432 535.149 219.435 535.149ZM220.286 586.871C220.286 594.442 214.161 600.652 206.505 600.652H174.689C163.885 600.652 156.229 590.018 159.717 579.725L166.607 559.393C168.564 553.524 174.093 549.525 180.303 549.525H205.739C213.736 549.525 220.201 555.991 220.201 563.987V586.871H220.286Z" fill="#E49664"/>
<path d="M219.435 535.149H170.435C164.225 535.149 158.696 539.062 156.739 545.017L120.159 640.464L147.381 641.825L155.123 625.832C158.185 619.452 164.65 615.369 171.796 615.369H196.381C205.824 615.369 213.735 622.515 214.756 631.872L215.522 645.228L233.982 646.164V549.61C233.982 541.614 227.432 535.149 219.435 535.149ZM220.286 586.871C220.286 594.442 214.161 600.652 206.505 600.652H174.689C163.885 600.652 156.229 590.018 159.716 579.725L166.607 559.393C168.564 553.524 174.093 549.525 180.303 549.525H205.739C213.735 549.525 220.201 555.991 220.201 563.987V586.871H220.286Z" fill="url(#paint11_linear)"/>
<path d="M235.684 535.149H100.168V511.414L219.01 517.454C228.368 517.965 235.599 525.621 235.599 534.979V535.149H235.684Z" fill="#F1A873"/>
<path d="M100.168 523.749V535.149H235.684V534.979C235.684 533.447 235.514 532.001 235.088 530.555L100.168 523.749Z" fill="url(#paint12_linear)"/>
<path d="M230.75 540.508C228.113 537.19 224.029 535.149 219.521 535.149H170.521C167.969 535.149 165.502 535.829 163.375 537.105L230.75 540.508Z" fill="url(#paint13_linear)"/>
<path d="M189.321 550.461C188.81 550.461 188.385 550.036 188.385 549.525V515.838C188.385 515.328 188.81 514.902 189.321 514.902C189.831 514.902 190.257 515.328 190.257 515.838V549.525C190.257 550.036 189.831 550.461 189.321 550.461Z" fill="#A9503F"/>
<path d="M192.978 550.461C192.468 550.461 192.043 550.036 192.043 549.525V515.838C192.043 515.328 192.468 514.902 192.978 514.902C193.489 514.902 193.914 515.328 193.914 515.838V549.525C193.999 550.036 193.574 550.461 192.978 550.461Z" fill="#A9503F"/>
<path d="M196.722 550.461C196.211 550.461 195.786 550.036 195.786 549.525V515.838C195.786 515.328 196.211 514.902 196.722 514.902C197.232 514.902 197.658 515.328 197.658 515.838V549.525C197.658 550.036 197.232 550.461 196.722 550.461Z" fill="#A9503F"/>
<path d="M200.464 550.461C199.954 550.461 199.529 550.036 199.529 549.525V515.838C199.529 515.328 199.954 514.902 200.464 514.902C200.975 514.902 201.4 515.328 201.4 515.838V549.525C201.4 550.036 200.975 550.461 200.464 550.461Z" fill="#A9503F"/>
<path d="M204.208 550.461C203.698 550.461 203.272 550.036 203.272 549.525V515.838C203.272 515.328 203.698 514.902 204.208 514.902C204.718 514.902 205.144 515.328 205.144 515.838V549.525C205.144 550.036 204.718 550.461 204.208 550.461Z" fill="#A9503F"/>
<path d="M185.577 550.461C185.067 550.461 184.642 550.036 184.642 549.525V515.838C184.642 515.328 185.067 514.902 185.577 514.902C186.088 514.902 186.513 515.328 186.513 515.838V549.525C186.513 550.036 186.088 550.461 185.577 550.461Z" fill="#A9503F"/>
<path d="M164.651 606.267H153.337V612.306H164.651V606.267Z" fill="#CC7748"/>
<path d="M219.691 606.267H208.377V612.306H219.691V606.267Z" fill="#CC7748"/>
<path d="M163.8 605.331H152.485V611.371H163.8V605.331Z" fill="#F1A873"/>
<path d="M218.84 605.331H207.526V611.371H218.84V605.331Z" fill="#F1A873"/>
<path opacity="0.71" d="M685.792 899.408C685.792 899.408 682.314 895.832 668.108 894.612C658.176 893.803 645.068 895.688 638.592 895.689C618.872 895.749 501.316 888.727 493.946 889.197C486.504 889.663 472.683 892.826 461.942 890.598C437.215 885.487 437.683 889.655 439.048 893.281C441.58 900.089 472.788 908.329 515.058 903.532C529.316 901.989 634.138 921.973 685.792 899.408Z" fill="url(#paint14_linear)"/>
<path d="M507.218 838.279C506.188 836.923 501.61 836.79 498.033 838.667C494.532 840.474 504.148 843.452 504.148 843.452L507.218 838.279Z" fill="#049599"/>
<path d="M413.552 814.503L487.621 817.754C493.866 818.034 498.721 823.346 498.444 829.518L498.405 830.389C497.978 839.901 505.329 847.944 514.842 848.371L622.89 853.22C634.654 853.748 643.808 863.763 643.28 875.526C642.893 884.167 635.533 890.895 626.892 890.507C626.892 890.507 570.73 890.315 552.069 889.477C535.949 888.754 487.62 884.256 487.62 884.256C479.269 883.882 472.734 877.113 472.6 868.739L472.454 855.782C472.191 845.438 463.987 836.921 453.683 836.313L429.304 834.782C423.426 834.445 418.025 831.584 414.451 826.912L410.121 821.261C407.845 818.467 409.994 814.343 413.552 814.503Z" fill="#EE9B27"/>
<path d="M472.391 855.56C472.043 853.58 471.58 850.94 471.146 849.247C480.731 849.677 503.34 843.634 507.218 838.279L509.14 840.839C504.737 846.535 482.454 855.066 472.391 855.56Z" fill="#01B0BB"/>
<path d="M626.892 890.507C626.892 890.507 591.238 893.782 552.539 891.972C515.291 890.228 487.547 884.253 487.547 884.253C487.547 884.253 534.795 886.883 550.552 887.59C569.719 888.523 626.892 890.507 626.892 890.507Z" fill="#E08D2B"/>
<path d="M508.883 794.698C510.279 794.397 511.741 794.244 513.187 794.454C515.785 794.935 518.017 797.072 518.626 799.719C519.238 802.293 518.088 805.224 515.98 806.803C514.099 808.174 511.753 808.578 509.476 809.058C503.819 810.259 498.417 812.272 493.415 815.104C492.594 815.576 491.772 816.049 490.822 816.152C481.822 817.276 488.823 807.185 491.116 804.742C495.856 799.643 502.128 796.068 508.883 794.698Z" fill="#EE9B27"/>
<path d="M456.144 817.142C455.412 818.855 456.294 820.277 457.509 820.768C458.724 821.259 459.773 820.579 460.502 818.938C461.233 817.225 460.803 815.459 459.588 814.968C458.374 814.477 456.8 815.498 456.144 817.142Z" fill="#010E52"/>
<path d="M409.283 817.222C410.294 819.013 411.948 819.451 412.921 818.84C413.891 818.301 413.953 816.922 412.942 815.13C411.931 813.339 410.304 812.32 409.258 812.928C408.284 813.539 408.272 815.43 409.283 817.222Z" fill="#010E52"/>
<path d="M482.448 889.263C481.062 889.346 480.029 889.664 479.181 890.717C477.72 892.47 479.128 895.153 481.388 895.036C481.9 894.986 482.339 894.933 482.857 894.738C484.48 894.229 485.836 893.198 486.981 892.013C487.515 891.455 488.05 890.897 488.445 890.187C489.24 888.695 489.249 886.876 489.251 885.203C489.267 884.84 489.211 884.473 489.006 884.173C488.798 883.945 488.438 883.857 488.148 883.843C486.765 883.854 485.832 885.195 485.195 886.403C484.556 887.684 483.768 889.031 482.448 889.263Z" fill="#EE9B27"/>
<path d="M501.839 891.661C501.417 892.952 501.441 894.044 502.115 895.239C503.265 897.182 506.268 896.735 506.947 894.582C507.115 894.081 507.134 893.645 507.157 893.137C507.232 891.467 506.723 889.843 505.993 888.282C505.662 887.54 505.328 886.87 504.774 886.263C503.667 884.977 501.947 884.39 500.373 883.81C500.013 883.721 499.656 883.56 499.287 883.689C498.99 883.821 498.759 884.101 498.673 884.389C498.251 885.679 499.137 887.029 500.111 888.018C501.009 889.077 502.046 890.288 501.839 891.661Z" fill="#EE9B27"/>
<path d="M526.307 818.254C527.585 818.966 528.787 819.747 529.754 820.882C531.406 822.993 531.704 826.063 530.435 828.407C529.166 830.751 526.48 832.231 523.797 832.038C521.476 831.861 519.423 830.605 517.435 829.497C512.394 826.724 506.956 824.661 501.332 823.535C500.394 823.348 499.457 823.16 498.678 822.689C491.12 817.62 503.043 814.59 506.406 814.232C513.205 813.518 520.275 814.854 526.307 818.254Z" fill="#EE9B27"/>
</g>
<defs>
<linearGradient id="paint0_linear" x1="200.631" y1="442.974" x2="240.782" y2="442.974" gradientUnits="userSpaceOnUse">
<stop stop-color="#D82427"/>
<stop offset="1" stop-color="#F85656"/>
</linearGradient>
<linearGradient id="paint1_linear" x1="204.285" y1="517.83" x2="147.35" y2="392.051" gradientUnits="userSpaceOnUse">
<stop stop-color="#F85656"/>
<stop offset="0.0783497" stop-color="#F44F50"/>
<stop offset="0.4189" stop-color="#E43839"/>
<stop offset="0.7349" stop-color="#DB292C"/>
<stop offset="1" stop-color="#D82427"/>
</linearGradient>
<linearGradient id="paint2_linear" x1="245.413" y1="591.65" x2="45.3236" y2="616.196" gradientUnits="userSpaceOnUse">
<stop stop-color="#3FA1CB"/>
<stop offset="1" stop-color="#1C88B7"/>
</linearGradient>
<linearGradient id="paint3_linear" x1="310.998" y1="480.826" x2="295.84" y2="486.043" gradientUnits="userSpaceOnUse">
<stop stop-color="#F29E79"/>
<stop offset="1" stop-color="#FFC3A1"/>
</linearGradient>
<linearGradient id="paint4_linear" x1="313.158" y1="676.9" x2="292.48" y2="679.27" gradientUnits="userSpaceOnUse">
<stop stop-color="#1C88B7"/>
<stop offset="1" stop-color="#79AADD"/>
</linearGradient>
<linearGradient id="paint5_linear" x1="194.048" y1="501.938" x2="198.924" y2="492.842" gradientUnits="userSpaceOnUse">
<stop stop-color="#F29E79"/>
<stop offset="1" stop-color="#FFC3A1"/>
</linearGradient>
<linearGradient id="paint6_linear" x1="190.54" y1="383.756" x2="202.669" y2="411.843" gradientUnits="userSpaceOnUse">
<stop stop-color="#F85656"/>
<stop offset="1" stop-color="#D82427"/>
</linearGradient>
<linearGradient id="paint7_linear" x1="192.112" y1="376.14" x2="225.387" y2="446.083" gradientUnits="userSpaceOnUse">
<stop stop-color="#F85656"/>
<stop offset="1" stop-color="#D82427"/>
</linearGradient>
<linearGradient id="paint8_linear" x1="253.797" y1="377.111" x2="375.065" y2="377.111" gradientUnits="userSpaceOnUse">
<stop stop-color="#03A3AD"/>
<stop offset="1" stop-color="#04767D"/>
</linearGradient>
<linearGradient id="paint9_linear" x1="528" y1="507" x2="250" y2="507" gradientUnits="userSpaceOnUse">
<stop stop-color="#FFD9BD"/>
<stop offset="1" stop-color="#E3945A"/>
</linearGradient>
<linearGradient id="paint10_linear" x1="21.0969" y1="609.291" x2="266.425" y2="609.291" gradientUnits="userSpaceOnUse">
<stop stop-color="#F1A873"/>
<stop offset="1" stop-color="#A9503F"/>
</linearGradient>
<linearGradient id="paint11_linear" x1="78.0666" y1="590.66" x2="233.042" y2="590.66" gradientUnits="userSpaceOnUse">
<stop stop-color="#F1A873"/>
<stop offset="1" stop-color="#CC7748"/>
</linearGradient>
<linearGradient id="paint12_linear" x1="100.169" y1="529.421" x2="235.664" y2="529.421" gradientUnits="userSpaceOnUse">
<stop stop-color="#F1A873"/>
<stop offset="1" stop-color="#CC7748"/>
</linearGradient>
<linearGradient id="paint13_linear" x1="138.718" y1="537.82" x2="206.13" y2="537.82" gradientUnits="userSpaceOnUse">
<stop stop-color="#F1A873"/>
<stop offset="1" stop-color="#A9503F"/>
</linearGradient>
<linearGradient id="paint14_linear" x1="438.375" y1="893.55" x2="847.17" y2="911.897" gradientUnits="userSpaceOnUse">
<stop stop-color="#ECEDF2"/>
<stop offset="1" stop-color="#ECEDF2"/>
</linearGradient>
</defs>
</svg>
