<?xml version="1.0" encoding="utf-8"?>
<!-- Generator: Adobe Illustrator 19.0.0, SVG Export Plug-In . SVG Version: 6.00 Build 0)  -->
<svg version="1.1" id="Layer_1" xmlns="http://www.w3.org/2000/svg" xmlns:xlink="http://www.w3.org/1999/xlink" x="0px" y="0px"
	 width="512px" height="512px" viewBox="-49 141 512 512" style="enable-background:new -49 141 512 512;" xml:space="preserve">
<style type="text/css">
	.st0{fill:none;stroke:#4F5456;stroke-width:14;stroke-linecap:round;stroke-linejoin:round;stroke-miterlimit:10;}
</style>
<g>
	<circle class="st0" cx="196.4966431" cy="285.7653198" r="126.7653351"/>
	<polyline class="st0" points="354.2411194,574.3010864 370.2475281,590.3074951 408.9666748,551.5883179 	"/>
	<path class="st0" d="M418.1589661,616.4042358c0.5076599,6.1326294,0.7801514,12.3320313,0.7801514,18.5957642"/>
	<path class="st0" d="M382.2608337,512.6226196c-39.7931519-60.2823792-108.1274414-100.065094-185.7641907-100.065094
		C73.6450577,412.5575256-25.9458179,512.1484375-25.9458179,635"/>
	<path class="st0" d="M382.2608337,512.6226196c31.9172668,0.3538208,57.6849976,26.3242188,57.6849976,58.3253174
		c0,18.378418-8.5060425,34.7623901-21.7868652,45.4562988"/>
	<path class="st0" d="M382.2608337,512.6226196c-0.2197571-0.0024414-0.4366455-0.0166016-0.6569519-0.0166016
		c-32.2213135,0-58.3419189,26.1205444-58.3419189,58.3419189c0,32.2213135,26.1206055,58.3419189,58.3419189,58.3419189
		c13.8429565,0,26.5517273-4.8308716,36.5550842-12.8856201"/>
</g>
</svg>
