<?xml version="1.0" encoding="utf-8"?>
<!-- Generator: Adobe Illustrator 19.0.0, SVG Export Plug-In . SVG Version: 6.00 Build 0)  -->
<svg version="1.1" id="Layer_1" xmlns="http://www.w3.org/2000/svg" xmlns:xlink="http://www.w3.org/1999/xlink" x="0px" y="0px"
	 width="512px" height="512px" viewBox="-49 141 512 512" style="enable-background:new -49 141 512 512;" xml:space="preserve">
<style type="text/css">
	.st0{fill:none;stroke:#27AAE1;stroke-width:10;stroke-linecap:round;stroke-linejoin:round;stroke-miterlimit:10;}
</style>
<g id="XMLID_4_">
	<g id="XMLID_23_">
		<path id="XMLID_25_" class="st0" d="M300.7897949,280.2536316c0-16.6969299-18.3230591-30.2078705-40.9668274-30.2078705
			c-22.1863098,0-40.1391907,13.5109406-40.1391907,30.2078705c0,16.9256287,17.9528809,30.6216431,40.1391907,30.6216431
			s40.1392212,13.6960144,40.1392212,30.6216736c0,16.6968994-17.9529114,30.2078247-40.1392212,30.2078247
			c-22.6437836,0-40.9667969-13.5109253-40.9667969-30.2078247"/>
		<line id="XMLID_24_" class="st0" x1="259.8229675" y1="234.4590607" x2="259.8229675" y2="387.2915039"/>
	</g>
	<g id="XMLID_20_">
		<polyline id="XMLID_21_" class="st0" points="139.3457794,490.7894287 160.7555084,512.1991577 212.5451202,460.4095154 		"/>
	</g>
	<path id="XMLID_3_" class="st0" d="M309.2116089,423.6639099h30.6040649c18.2712097,0,32.5992737-14.5246887,32.5992737-32.7959595
		V230.8825531c0-18.2712097-14.328064-33.3680267-32.5992737-33.3680267h-30.6040649"/>
	<path id="XMLID_10_" class="st0" d="M146.265564,390.8679504V230.8825531
		c0-18.2712097,15.2934875-33.3680267,33.5646973-33.3680267h129.3813477v-15.4287567
		C309.2116089,169.268631,299.6565247,159,286.839386,159H65.0515366c-12.8171387,0-23.4664726,10.268631-23.4664726,23.0857697
		v370.9474487h267.6265564V423.6639099H179.8302612C161.5590515,423.6639099,146.265564,409.1392212,146.265564,390.8679504z"/>
	<path id="XMLID_13_" class="st0" d="M41.5850639,611.9141846C41.5850639,624.7313232,52.2343979,635,65.0515366,635H286.839386
		c12.8171387,0,22.3722229-10.2686768,22.3722229-23.0858154v-58.8809814H41.5850639V611.9141846z M204.8717957,590.1063232
		l-57.8526764-1.3146973L204.8717957,590.1063232z"/>
</g>
</svg>
