<svg width="1146" height="822" viewBox="0 0 1146 822" fill="none" xmlns="http://www.w3.org/2000/svg">
<path opacity="0.655" d="M1146 527L1146 445.5L1146 384.5L1146 304.5L1146 149L1146 -3.12038e-05L696.565 -3.33874e-05C659.553 19.6512 624.827 43.4755 593.085 71.0542C569.131 91.9024 550.213 117.539 527.037 138.752C504.807 159.103 471.539 166.987 442.239 168.344C366.1 171.87 289.37 130.549 213.744 156.065C87.7157 198.588 11.4805 358.081 24.1298 470.68C40.5854 592.93 79.5 621 126 657C172.5 693 239.99 702.092 296.091 697.667C379.632 691.078 460.242 665.673 537.916 635.378C601.789 610.467 670.218 562.701 741.749 585.186C816.95 608.826 889.723 637.139 958.293 676.444C1003.94 702.612 1049.53 733.172 1100.01 751.03C1115.22 756.408 1130.57 760.174 1146 762.517L1146 726L1146 685.5L1146 527Z" fill="#ECEDF2"/>
<path opacity="0.523" d="M1086.94 764.468C1086.94 764.468 1080.64 758.484 1055.83 757.534C1038.5 756.87 1015.9 761.141 1004.62 761.695C970.35 763.376 765.824 760.265 752.976 761.695C740.128 763.125 716.392 769.687 697.521 766.683C654.18 759.783 655.359 766.933 657.999 773.117C662.943 784.7 717.799 796.592 790.807 785.045C815.492 781.137 999.024 807.676 1086.94 764.468Z" fill="url(#paint0_linear)"/>
<path d="M824.954 266.947C824.954 266.947 823.08 282.018 825.054 282.871C826.307 283.412 831.681 281.436 831.681 281.436L824.954 266.947Z" fill="#EA7D47"/>
<path d="M950.688 459.749C950.082 461.692 948.253 463.292 940.481 463.864C932.709 464.436 937.052 456.535 937.052 456.535L950.688 459.749Z" fill="#DD4531"/>
<path d="M751.116 297.994C752.986 297.545 754.916 301.501 754.916 301.501L763.148 323.079H767.961C767.961 323.079 774.976 319.215 773.661 316.479C772.953 315.007 768.761 315.29 766.518 315.554C766.116 315.602 765.709 315.509 765.367 315.292C765.025 315.075 764.768 314.747 764.639 314.363L764.629 314.333C764.48 313.898 764.506 313.422 764.702 313.006C764.898 312.591 765.249 312.268 765.679 312.106C768.592 311.004 771.688 310.468 774.802 310.527C780.202 310.738 783.157 315.719 783.241 320.11C783.341 325.427 776.463 335.627 776.463 335.627C776.463 335.627 803.757 382.588 807.472 382.06C811.187 381.532 853.134 308.728 862.012 314.031C874.721 321.621 871.988 354.397 871.988 354.397C871.988 354.397 837.166 432.908 800.38 425.141C763.594 417.374 765.258 336.141 765.258 336.141C763.261 335.457 761.446 334.327 759.951 332.837C758.456 331.347 757.32 329.536 756.629 327.541C750.763 312.29 747.95 298.754 751.116 297.994Z" fill="#FFBA94"/>
<path d="M801.588 375.766L801.596 375.771C804.414 379.671 806.596 382.188 807.473 382.064C807.799 382.017 808.423 381.406 809.288 380.35L821.498 387.619L798.405 424.638C787.297 421.373 779.905 411.155 774.985 398.756C782.812 400.202 801.588 375.766 801.588 375.766Z" fill="white"/>
<path d="M862.013 314.035C874.722 321.625 871.989 354.401 871.989 354.401C871.989 354.401 837.166 432.912 800.381 425.145C795.608 424.105 791.203 421.801 787.626 418.474C800.153 411.831 807.473 382.064 807.473 382.064C811.188 381.535 853.135 308.732 862.013 314.035Z" fill="#F75F4B"/>
<path d="M766.103 327.752C766.514 327.752 766.918 327.651 767.282 327.46C767.645 327.268 767.956 326.991 768.189 326.653C768.422 326.314 768.568 325.924 768.617 325.516C768.666 325.108 768.615 324.695 768.468 324.311L752.257 282.057C752.143 281.74 751.966 281.449 751.738 281.201C751.51 280.953 751.235 280.754 750.928 280.613C750.622 280.473 750.291 280.396 749.954 280.385C749.617 280.374 749.282 280.431 748.967 280.552C748.653 280.672 748.365 280.855 748.122 281.088C747.879 281.321 747.684 281.6 747.55 281.909C747.416 282.218 747.345 282.551 747.341 282.888C747.338 283.225 747.401 283.559 747.528 283.871L763.739 326.126C763.922 326.604 764.246 327.016 764.668 327.306C765.091 327.597 765.591 327.752 766.103 327.752Z" fill="#453433"/>
<path d="M758.002 324.129C758.65 324.129 759.272 323.88 759.743 323.435C760.213 322.99 760.494 322.382 760.53 321.735L761.39 306.062C761.42 305.396 761.185 304.745 760.737 304.25C760.29 303.756 759.665 303.458 758.999 303.422C758.333 303.385 757.68 303.612 757.18 304.054C756.681 304.496 756.376 305.118 756.332 305.783L755.471 321.456C755.453 321.788 755.5 322.121 755.61 322.435C755.721 322.749 755.892 323.038 756.114 323.286C756.336 323.533 756.604 323.735 756.904 323.879C757.205 324.023 757.53 324.106 757.862 324.124C757.902 324.127 757.953 324.129 758.002 324.129Z" fill="#FFBA94"/>
<path d="M745.576 739.581C746.031 738.469 741.376 737.119 738.141 738.064C734.906 739.009 737.941 743.176 737.941 743.176L745.576 739.581Z" fill="#DD4531"/>
<path d="M991.359 722.135C991.246 720.435 987.198 721.189 985.175 722.808C983.152 724.427 988.564 728.27 988.564 728.27L991.359 722.135Z" fill="#DD4531"/>
<path d="M985.838 739.44C987.281 739.439 988.696 739.041 989.93 738.292C991.163 737.542 992.167 736.469 992.832 735.188C993.498 733.908 993.8 732.469 993.705 731.03C993.61 729.59 993.122 728.203 992.294 727.021L974.186 701.176C973.594 700.323 972.838 699.596 971.964 699.035C971.089 698.475 970.113 698.093 969.09 697.91C968.068 697.728 967.019 697.75 966.005 697.974C964.991 698.198 964.031 698.62 963.18 699.216C962.329 699.812 961.604 700.57 961.047 701.447C960.49 702.324 960.112 703.302 959.934 704.325C959.756 705.348 959.781 706.397 960.009 707.41C960.237 708.423 960.663 709.382 961.262 710.23L979.37 736.077C980.098 737.117 981.066 737.966 982.192 738.552C983.318 739.137 984.569 739.442 985.838 739.44Z" fill="#FFBA94"/>
<path d="M733.842 751.836C735.49 751.835 737.096 751.319 738.435 750.36C739.774 749.4 740.78 748.046 741.311 746.486L751.484 716.615C752.143 714.638 751.994 712.48 751.068 710.613C750.142 708.746 748.515 707.321 746.542 706.649C744.57 705.977 742.411 706.113 740.538 707.027C738.665 707.941 737.23 709.559 736.545 711.527L726.372 741.397C725.969 742.585 725.855 743.852 726.039 745.092C726.223 746.333 726.699 747.512 727.429 748.532C728.159 749.552 729.122 750.383 730.237 750.958C731.352 751.532 732.588 751.832 733.842 751.834V751.836Z" fill="#FFBA94"/>
<path d="M980.445 699.201C979.382 697.911 957.076 711.416 959.732 716.651C962.388 721.886 977.865 713.161 977.865 713.161L980.445 699.201Z" fill="#231D77"/>
<path d="M753.789 719.788C754.083 718.525 731.403 714.94 729.376 719.788C727.349 724.636 739.1 725.448 739.1 725.448L753.789 719.788Z" fill="#161459"/>
<path d="M861.505 456.535L858.672 473.586C858.672 473.586 785.026 559.775 776.124 575.962C757.044 610.653 730.748 726.235 730.748 726.235C730.748 726.235 743.003 728.611 748.182 726.235C748.182 726.235 808.164 630.963 812.311 607.524C812.311 607.524 876.196 564.206 888.942 547.211L893.874 456.536L861.505 456.535Z" fill="#322783"/>
<path d="M743.65 728.807C743.922 728.807 744.189 728.734 744.423 728.596C744.658 728.458 744.85 728.259 744.981 728.021C747.297 723.806 801.343 625.289 806.24 600.87C811.003 597.025 852.484 562.97 875.14 525.764C875.244 525.594 875.313 525.405 875.344 525.208C875.374 525.011 875.366 524.81 875.319 524.616C875.271 524.422 875.186 524.24 875.069 524.079C874.951 523.918 874.803 523.782 874.633 523.678C874.462 523.575 874.273 523.505 874.076 523.475C873.879 523.444 873.678 523.453 873.484 523.5C873.29 523.547 873.108 523.632 872.947 523.75C872.786 523.868 872.65 524.016 872.546 524.186C848.885 563.044 804.356 598.493 803.909 598.846C803.618 599.077 803.421 599.407 803.357 599.773C799.301 622.698 742.887 725.523 742.318 726.558C742.192 726.789 742.127 727.049 742.131 727.313C742.135 727.577 742.208 727.834 742.342 728.061C742.476 728.288 742.667 728.477 742.896 728.607C743.125 728.738 743.384 728.807 743.647 728.807H743.65Z" fill="#241E72"/>
<path d="M929.69 456.535H872.028C864.896 497.004 873.849 497.151 873.849 497.151C870.549 535.744 863.325 587.286 877.491 614.198C899.915 656.798 970.124 722.848 970.124 722.848C970.124 722.848 978.483 722.848 984.244 712.732C984.244 712.732 940.919 612.177 923.417 594.841C923.415 594.841 957.326 485.947 929.69 456.535Z" fill="#453FAF"/>
<path d="M980.909 716.161C981.153 716.161 981.393 716.101 981.609 715.987C981.965 715.8 982.233 715.479 982.353 715.095C982.473 714.711 982.435 714.295 982.248 713.938C980.073 709.793 929.316 613.247 911.306 594.396C913.089 585.774 927.816 510.524 911.242 456.096C911.109 455.731 910.841 455.43 910.494 455.257C910.146 455.083 909.745 455.05 909.373 455.163C909.001 455.276 908.687 455.528 908.495 455.866C908.303 456.204 908.249 456.603 908.342 456.98C925.629 513.752 908.351 593.753 908.175 594.554C908.121 594.804 908.131 595.062 908.203 595.307C908.275 595.552 908.408 595.774 908.589 595.954C925.725 612.929 979.028 714.324 979.564 715.347C979.692 715.593 979.886 715.799 980.123 715.942C980.36 716.086 980.632 716.162 980.909 716.161Z" fill="#322783"/>
<path d="M915.497 503.545C915.893 503.535 916.269 503.371 916.546 503.087C916.822 502.804 916.977 502.423 916.977 502.028C916.977 501.632 916.822 501.252 916.546 500.968C916.269 500.685 915.893 500.52 915.497 500.51C912.128 500.47 908.811 499.674 905.79 498.181C902.77 496.688 900.123 494.536 898.044 491.884C891.038 483.41 888.625 470.171 891.421 455.562C891.459 455.366 891.458 455.165 891.417 454.97C891.377 454.775 891.299 454.589 891.187 454.424C891.075 454.259 890.931 454.118 890.765 454.008C890.598 453.899 890.412 453.823 890.216 453.786C890.02 453.748 889.819 453.75 889.624 453.79C889.428 453.83 889.243 453.909 889.078 454.02C888.913 454.132 888.772 454.276 888.662 454.442C888.553 454.609 888.477 454.795 888.439 454.991C885.471 470.491 888.118 484.643 895.703 493.818C898.064 496.818 901.069 499.249 904.494 500.932C907.92 502.616 911.68 503.509 915.497 503.545Z" fill="#322783"/>
<path d="M726.164 729.395C726.164 729.395 736.364 735.476 751.058 729.395L753.79 719.788C735.811 724.127 729.377 719.788 729.377 719.788L726.164 729.395Z" fill="#241E72"/>
<path d="M881.389 461.828C896.864 467.574 925.28 488.368 947.568 483.408C945.282 472.264 944 455.275 944 455.275L881.389 461.828Z" fill="white"/>
<path d="M987.046 708.305C984.871 721.734 967.016 725.072 967.016 725.072L959.732 716.65C959.732 716.65 975.437 713.54 980.445 699.2L987.046 708.305Z" fill="#322783"/>
<path d="M888.746 304.848L862.546 275.309L842.213 280.772L857.913 316.748L888.746 304.848Z" fill="#FFBA94"/>
<path d="M891.276 305.276C888.177 301.394 884.755 297.781 881.047 294.476C881.047 294.476 866.936 306.476 859.619 314.965L891.276 305.276Z" fill="white"/>
<path d="M861.505 456.54C871.34 466.376 917.935 459.754 950.688 459.754C958.46 408.554 954.809 360.293 890.567 303.654C883.718 305.21 866.647 309.003 856.244 317.399C856.245 317.392 845.966 437.777 861.505 456.54Z" fill="#FF826A"/>
<path d="M845.144 375.266C845.412 375.266 845.672 375.178 845.884 375.015C846.096 374.853 846.248 374.624 846.317 374.366C849.494 362.352 849.584 350.072 849.658 340.206C849.732 330.232 849.79 322.354 852.899 319.881C853.999 319.008 855.548 318.812 857.649 319.281C857.96 319.342 858.282 319.279 858.547 319.105C858.811 318.932 858.998 318.662 859.067 318.354C859.135 318.045 859.081 317.721 858.915 317.452C858.749 317.183 858.484 316.989 858.177 316.912C855.316 316.271 853.095 316.624 851.387 317.983C847.37 321.183 847.311 329.153 847.23 340.19C847.158 349.92 847.069 362.029 843.97 373.748C843.923 373.928 843.917 374.116 843.954 374.298C843.991 374.48 844.069 374.652 844.183 374.799C844.296 374.946 844.442 375.065 844.608 375.148C844.775 375.23 844.959 375.272 845.144 375.272V375.266Z" fill="#FF826A"/>
<path d="M843.698 428.539C844.107 428.54 844.51 428.437 844.868 428.24C845.227 428.043 845.53 427.759 845.749 427.413C847.332 424.902 848.696 422.259 849.825 419.513C849.951 419.22 850.017 418.905 850.021 418.586C850.024 418.267 849.965 417.951 849.847 417.655C849.728 417.359 849.552 417.09 849.329 416.861C849.107 416.633 848.841 416.452 848.548 416.326C848.255 416.201 847.94 416.134 847.621 416.131C847.302 416.127 846.986 416.186 846.69 416.305C846.394 416.423 846.124 416.599 845.896 416.822C845.668 417.044 845.487 417.31 845.361 417.603C844.334 420.109 843.092 422.521 841.65 424.813C841.417 425.18 841.287 425.603 841.273 426.037C841.259 426.472 841.362 426.902 841.571 427.283C841.78 427.664 842.088 427.982 842.462 428.204C842.836 428.426 843.262 428.543 843.697 428.543L843.698 428.539Z" fill="#F75F4B"/>
<path d="M844.893 377.425C845.42 377.425 845.933 377.252 846.354 376.934C846.775 376.617 847.081 376.17 847.226 375.663C847.906 373.121 848.433 370.54 848.805 367.934C848.882 367.302 848.708 366.665 848.319 366.16C847.931 365.655 847.36 365.323 846.729 365.235C846.099 365.148 845.459 365.311 844.947 365.691C844.436 366.071 844.094 366.636 843.996 367.265C843.653 369.646 843.173 372.004 842.557 374.329C842.454 374.691 842.436 375.071 842.505 375.441C842.574 375.81 842.728 376.158 842.954 376.458C843.181 376.758 843.474 377.002 843.81 377.169C844.146 377.337 844.517 377.424 844.893 377.424V377.425Z" fill="#FF826A"/>
<path d="M865.824 279.151C864.271 285.729 857.741 297.451 851.648 302.388L846.042 289.54L865.824 279.151Z" fill="#EA7D47"/>
<path d="M838.866 296.89C834.832 296.435 820.2 262.671 823.447 249.516C834.375 205.248 885.737 250.825 865.706 279.323C853.384 296.861 841.011 297.131 838.866 296.89Z" fill="#FFBA94"/>
<path d="M823.448 249.514C824.404 245.037 826.314 240.818 829.048 237.145L856.666 238.945C856.666 238.945 852.229 253.67 850.738 249.897C849.247 246.124 848.723 243.025 845.22 244.225C840.393 245.879 835.481 260.662 823.393 259.268C822.852 256.038 822.871 252.738 823.448 249.514Z" fill="#EA7D47"/>
<path d="M806.608 218.146C806.608 218.146 817.594 218.868 824.15 231.664C824.15 231.664 822.298 220.411 832.65 218.146H832.773C833.724 222.469 836.81 224.222 840.216 223.716C854.048 206.822 871.316 221.997 864.116 234.505C895.898 233.212 871.316 273.105 886.697 285.322C857.905 289.503 863.484 263.428 857.37 259.683C849.536 254.883 850.679 243.09 846.676 242.165C840.42 240.72 840.635 250.849 826.732 252.851C806.154 255.814 793.45 232.012 806.601 218.151L806.608 218.146Z" fill="#001065"/>
<path d="M857.605 263.425C858.057 264.744 858.889 265.898 859.998 266.744C861.106 267.589 862.44 268.087 863.831 268.174C865.222 268.261 866.608 267.934 867.813 267.233C869.018 266.533 869.988 265.491 870.601 264.239C871.213 262.987 871.441 261.582 871.255 260.201C871.07 258.819 870.478 257.524 869.556 256.479C868.634 255.434 867.423 254.685 866.076 254.328C864.728 253.972 863.306 254.022 861.987 254.474C861.111 254.774 860.304 255.243 859.609 255.856C858.915 256.468 858.349 257.211 857.942 258.042C857.535 258.873 857.296 259.776 857.238 260.7C857.18 261.624 857.305 262.55 857.605 263.425Z" fill="#FFBA94"/>
<path d="M860.617 262.392C860.864 263.115 861.32 263.749 861.927 264.213C862.534 264.677 863.265 264.951 864.028 264.999C864.791 265.047 865.55 264.868 866.211 264.484C866.872 264.101 867.404 263.53 867.741 262.843C868.077 262.157 868.202 261.387 868.1 260.629C867.998 259.872 867.673 259.162 867.168 258.589C866.662 258.016 865.998 257.606 865.259 257.411C864.52 257.215 863.74 257.244 863.017 257.492C862.05 257.825 861.254 258.527 860.804 259.446C860.354 260.364 860.287 261.424 860.617 262.392Z" fill="#EA7D47"/>
<path d="M865.458 261.345C865.751 261.991 865.775 262.726 865.525 263.39C865.275 264.053 864.772 264.59 864.126 264.883C863.75 265.051 863.339 265.129 862.926 265.109L859.701 269.66C859.494 269.952 859.179 270.15 858.826 270.21C858.473 270.27 858.11 270.188 857.817 269.981L857.795 269.965C857.503 269.758 857.305 269.443 857.244 269.09C857.184 268.736 857.266 268.374 857.473 268.081L860.633 263.622C860.621 263.597 860.603 263.576 860.592 263.551C860.448 263.231 860.367 262.886 860.356 262.535C860.344 262.184 860.402 261.835 860.525 261.506C860.649 261.178 860.836 260.877 861.076 260.62C861.316 260.364 861.604 260.158 861.924 260.013C862.244 259.868 862.589 259.787 862.94 259.776C863.291 259.764 863.64 259.822 863.969 259.946C864.297 260.069 864.599 260.256 864.855 260.496C865.111 260.736 865.318 261.024 865.462 261.344L865.458 261.345Z" fill="white"/>
<path d="M952.57 406.841C896.07 382.119 877.942 354.417 872.079 333.094L934.337 354.294C944.09 370.31 950.307 388.226 952.57 406.841Z" fill="#F75F4B"/>
<path d="M863.005 236.621C863.103 236.621 863.201 236.61 863.297 236.589C865.121 236.242 866.85 235.508 868.366 234.437C869.883 233.366 871.152 231.982 872.088 230.378C872.705 229.41 873.118 228.326 873.302 227.193C873.486 226.06 873.437 224.901 873.158 223.787C873.037 223.45 872.789 223.173 872.467 223.016C872.144 222.859 871.773 222.835 871.433 222.949C871.093 223.063 870.811 223.305 870.647 223.624C870.484 223.943 870.452 224.314 870.558 224.656C870.71 225.404 870.712 226.175 870.566 226.924C870.42 227.673 870.127 228.385 869.705 229.021C868.958 230.289 867.947 231.381 866.742 232.224C865.536 233.067 864.163 233.641 862.716 233.908C862.385 233.98 862.092 234.171 861.894 234.446C861.696 234.72 861.606 235.058 861.642 235.395C861.678 235.732 861.837 236.043 862.089 236.27C862.341 236.496 862.668 236.621 863.006 236.621H863.005Z" fill="#001065"/>
<path d="M904.463 310.141C921.994 313.022 973.719 340.298 987.604 364.464C1014.61 411.474 1003.69 474.629 1003.69 474.629C1003.69 474.629 993.862 483.215 993.37 480.193C990.74 464.015 970.913 395.42 961.026 384.602C953.865 376.768 913.25 371.211 895.346 362.678C877.442 354.145 865.176 334.185 876.355 318.707C887.534 303.229 904.463 310.141 904.463 310.141Z" fill="#FFBA94"/>
<path d="M992.161 373.28C995.33 380.191 997.903 387.359 999.851 394.708C994.3 398.903 982.721 405.929 971.916 407.061C969.798 401.209 967.327 395.49 964.516 389.937L992.161 373.28Z" fill="white"/>
<path d="M895.35 362.678C877.444 354.146 865.18 334.185 876.359 318.707C887.538 303.229 904.463 310.141 904.463 310.141C921.994 313.022 975.886 339.041 989.771 363.204C992.777 368.436 997.444 379.392 997.444 379.392C978.477 395.033 966.488 396.854 966.488 396.854C964.103 391.454 961.888 387.368 960.028 385.331C952.872 377.498 913.255 371.211 895.35 362.678Z" fill="#FF826A"/>
<path d="M967.701 399.644C967.881 399.644 968.061 399.628 968.238 399.596C980.65 397.379 994.043 386.187 998.445 382.509C998.83 382.187 999.135 381.931 999.353 381.756C999.664 381.506 999.922 381.198 1000.11 380.848C1000.3 380.498 1000.42 380.114 1000.47 379.718C1000.51 379.321 1000.47 378.921 1000.36 378.538C1000.25 378.156 1000.06 377.799 999.814 377.489C999.564 377.178 999.255 376.92 998.905 376.729C998.556 376.538 998.172 376.417 997.775 376.375C997.379 376.332 996.978 376.368 996.596 376.48C996.213 376.592 995.857 376.778 995.546 377.028C995.309 377.218 994.975 377.499 994.553 377.851C990.453 381.273 977.996 391.687 967.171 393.62C966.425 393.754 965.757 394.163 965.297 394.765C964.836 395.367 964.618 396.119 964.685 396.874C964.751 397.629 965.097 398.332 965.655 398.844C966.214 399.357 966.943 399.642 967.701 399.644Z" fill="#FF826A"/>
<path d="M1028.54 546.898C1030.2 546.89 1031.83 546.5 1033.31 545.758C1036.2 544.353 1039.39 541.284 1038.26 534.652C1035.74 519.828 1012.71 496.408 1002.1 495.168C1001.74 495.126 1001.37 495.229 1001.09 495.454C1000.8 495.68 1000.62 496.009 1000.57 496.371C1000.53 496.732 1000.64 497.095 1000.86 497.38C1001.09 497.666 1001.42 497.85 1001.78 497.892C1011.18 498.992 1033.29 521.792 1035.56 535.112C1036.25 539.149 1035.12 541.825 1032.11 543.293C1029.29 544.669 1026.38 544.393 1023.22 542.449C1010.86 534.849 1000.68 505.717 1000.55 496.659C1000.54 496.299 1000.39 495.955 1000.14 495.702C999.88 495.449 999.535 495.307 999.174 495.307H999.153C998.79 495.313 998.443 495.462 998.19 495.723C997.936 495.984 997.797 496.335 997.802 496.699C997.943 506.455 1008.46 536.593 1021.79 544.786C1023.8 546.107 1026.14 546.839 1028.54 546.898Z" fill="#FF826A"/>
<path d="M1035.37 525.813C1037.06 525.863 1038.73 525.491 1040.23 524.733C1041.74 523.974 1043.03 522.853 1043.99 521.469C1046.58 517.929 1046.61 513.5 1044.08 508.663C1037.72 496.495 1015.6 482.987 1002.58 483.256C1002.21 483.265 1001.87 483.417 1001.62 483.679C1001.37 483.942 1001.23 484.293 1001.24 484.656C1001.26 485.014 1001.42 485.349 1001.68 485.597C1001.94 485.845 1002.28 485.988 1002.64 485.997C1013.57 485.754 1035.29 497.763 1041.65 509.932C1043.69 513.832 1043.73 517.173 1041.78 519.852C1041.03 520.934 1040.01 521.8 1038.83 522.363C1037.64 522.927 1036.33 523.168 1035.02 523.062C1024.87 522.734 1009.61 508.309 1003.14 498.113C1003.04 497.958 1002.92 497.823 1002.77 497.717C1002.62 497.611 1002.45 497.535 1002.28 497.494C1002.1 497.453 1001.91 497.447 1001.73 497.478C1001.56 497.509 1001.38 497.575 1001.23 497.672C1001.08 497.77 1000.94 497.897 1000.84 498.046C1000.74 498.196 1000.66 498.364 1000.62 498.542C1000.59 498.72 1000.58 498.904 1000.62 499.083C1000.65 499.262 1000.72 499.432 1000.82 499.584C1007.64 510.334 1023.29 525.428 1034.93 525.805C1035.08 525.812 1035.23 525.813 1035.37 525.813Z" fill="#FF826A"/>
<path d="M339.676 742.492H339.691C431.242 741.539 555.906 718.873 665.03 683.34C761.809 651.828 895.63 594.753 983.573 501.804C983.82 501.539 983.952 501.188 983.94 500.826C983.929 500.464 983.775 500.121 983.512 499.873C983.249 499.624 982.899 499.489 982.537 499.498C982.175 499.506 981.831 499.657 981.58 499.918C829.606 660.549 508.695 737.989 339.661 739.749C339.304 739.761 338.965 739.911 338.717 740.169C338.469 740.426 338.331 740.77 338.333 741.128C338.335 741.486 338.476 741.828 338.727 742.083C338.978 742.338 339.319 742.485 339.676 742.492Z" fill="#FF826A"/>
<path d="M964.706 501.924C972.742 498.724 975.375 493.693 978.14 490.656C980.905 487.619 990.353 481.543 992.171 473.667L1003.95 472.984C1003.95 472.984 1007.19 500.195 1002.38 504.101C1000.97 505.247 998.477 505.501 996.129 506.687C995.216 507.146 994.922 508.906 993.577 509.218C991.818 509.627 991.077 508.397 989.707 508.794C987.292 509.494 987.183 512.266 984.439 512.245C981.812 512.225 980.115 498.484 980.115 498.484C980.115 498.484 971.822 505.031 968.407 505.059C966.234 505.078 964.706 501.924 964.706 501.924Z" fill="#FFBA94"/>
<path d="M981.248 499.974C981.487 499.975 981.721 499.913 981.928 499.795C982.136 499.678 982.309 499.508 982.43 499.303C986.669 492.169 993.897 489.559 999.181 490.132C1001.62 490.399 1003.4 491.375 1003.83 492.682C1003.96 493.006 1004.21 493.268 1004.53 493.415C1004.85 493.561 1005.21 493.582 1005.54 493.473C1005.87 493.363 1006.15 493.131 1006.31 492.825C1006.48 492.518 1006.52 492.16 1006.43 491.822C1005.65 489.446 1003.05 487.795 999.474 487.405C993.315 486.737 984.929 489.72 980.066 497.905C979.881 498.218 979.827 498.591 979.917 498.944C980.007 499.296 980.233 499.598 980.545 499.784C980.758 499.911 981.001 499.976 981.248 499.974Z" fill="#FF826A"/>
<path d="M981.575 499.452C981.845 499.452 982.11 499.373 982.335 499.223C982.56 499.074 982.736 498.861 982.84 498.612C989.505 482.775 1000.79 479.055 1004.17 480.23C1004.51 480.342 1004.88 480.315 1005.2 480.156C1005.52 479.998 1005.77 479.719 1005.89 479.381C1006.01 479.043 1005.99 478.671 1005.84 478.346C1005.69 478.021 1005.41 477.769 1005.08 477.642C999.956 475.842 987.296 480.954 980.312 497.549C980.225 497.757 980.191 497.984 980.212 498.209C980.234 498.434 980.311 498.65 980.436 498.837C980.561 499.025 980.73 499.18 980.929 499.286C981.128 499.393 981.35 499.449 981.576 499.449L981.575 499.452Z" fill="#FF826A"/>
<path d="M685.602 763.595C687.434 762.731 689.428 762.268 691.453 762.237C693.662 762.313 695.853 762.277 698.033 762.206C703.868 762.019 714.768 755.653 718.567 752.206C721.949 749.138 728.531 741.1 728.531 741.1C728.531 741.1 727.898 740.078 729.879 740.22C731.86 740.362 735.299 741.162 737.303 741.178C743.035 741.223 745.563 739.531 745.563 739.531C745.563 739.531 744.063 748.216 744.449 750.194C744.835 752.172 747.065 757.948 747.799 760.08C748.457 762.066 748.625 764.181 748.287 766.245L746.323 769.225L686.384 767.325L685.602 763.595Z" fill="#F75F4B"/>
<path d="M694.923 762.158C693.769 762.122 692.602 762.009 691.458 761.97C689.403 762.03 687.393 762.589 685.602 763.598L686.383 767.326L693.515 765.88L694.923 762.158Z" fill="#FF826A"/>
<path d="M685.602 763.598C690.144 765.114 694.796 766.274 699.517 767.069C702.717 767.489 743.95 767.033 743.95 767.033L748.286 766.249C748.286 766.249 749.213 768.834 748.839 770.206C748.465 771.578 748.47 772.492 747.178 772.88C745.886 773.268 734.314 772.323 731.031 772.28C727.071 772.224 717.315 774.273 703.243 773.488C697.443 773.164 684.733 772.44 683.499 769.4C682.265 766.36 683.168 764.144 685.602 763.598Z" fill="#F75F4B"/>
<path d="M695.794 764.955C704.87 764.034 713.8 762.91 719.694 758.837C725.994 754.484 728.662 749.107 731.307 740.415C731.298 738.826 724.337 731.354 722.681 731.47C725.573 735.635 726.365 740.411 725.366 743.257C723.95 747.289 720.361 750.41 716.3 753.497C709.92 758.347 700.515 761.215 698.385 761.68C697.5 761.873 694.925 762.159 694.925 762.159C693.236 762.901 693.516 765.88 693.516 765.88C693.59 765.75 693.98 765.139 695.794 764.955Z" fill="#FF826A"/>
<path opacity="0.48" d="M693.534 765.843C693.527 765.855 693.521 765.867 693.516 765.88L693.534 765.843Z" fill="#97B5A8"/>
<path d="M722.649 759.649C722.866 759.648 723.079 759.596 723.271 759.497C723.464 759.398 723.63 759.255 723.757 759.08C723.884 758.904 723.967 758.701 724 758.487C724.034 758.273 724.016 758.055 723.949 757.849C723.883 757.649 722.282 752.866 717.949 751.284C717.78 751.222 717.6 751.195 717.42 751.203C717.24 751.21 717.064 751.253 716.901 751.329C716.737 751.406 716.591 751.513 716.469 751.646C716.347 751.778 716.253 751.934 716.191 752.103C716.13 752.272 716.102 752.452 716.11 752.632C716.117 752.812 716.161 752.988 716.237 753.152C716.313 753.315 716.42 753.462 716.553 753.583C716.686 753.705 716.841 753.799 717.01 753.861C720.078 754.981 721.334 758.661 721.347 758.703C721.437 758.978 721.611 759.217 721.845 759.387C722.079 759.557 722.36 759.648 722.649 759.649Z" fill="white"/>
<path d="M715.639 763.679C715.709 763.679 715.78 763.674 715.849 763.663C716.209 763.607 716.531 763.411 716.746 763.118C716.962 762.824 717.051 762.458 716.996 762.098C716.964 761.898 716.196 757.131 712.551 755.098C712.394 755.01 712.221 754.954 712.042 754.933C711.863 754.913 711.682 754.927 711.509 754.976C711.335 755.025 711.173 755.108 711.032 755.22C710.891 755.331 710.773 755.47 710.685 755.627C710.597 755.784 710.541 755.957 710.521 756.136C710.5 756.315 710.514 756.496 710.563 756.67C710.612 756.843 710.695 757.005 710.807 757.146C710.918 757.287 711.057 757.405 711.214 757.493C713.66 758.859 714.279 762.48 714.284 762.516C714.334 762.84 714.498 763.135 714.747 763.348C714.995 763.562 715.312 763.679 715.639 763.679Z" fill="white"/>
<path d="M708.689 765.436C708.87 765.436 709.048 765.401 709.214 765.332C709.381 765.263 709.532 765.162 709.66 765.035C709.787 764.908 709.888 764.756 709.957 764.59C710.026 764.424 710.061 764.245 710.061 764.065C710.034 762.875 709.738 761.707 709.197 760.646C708.656 759.586 707.884 758.661 706.936 757.94C706.789 757.832 706.621 757.755 706.443 757.713C706.264 757.671 706.08 757.665 705.899 757.695C705.719 757.726 705.546 757.792 705.391 757.89C705.237 757.988 705.104 758.116 705 758.267C704.895 758.417 704.822 758.587 704.785 758.766C704.747 758.945 704.746 759.13 704.781 759.31C704.816 759.49 704.886 759.661 704.988 759.813C705.09 759.965 705.221 760.095 705.374 760.195C705.957 760.663 706.433 761.251 706.768 761.918C707.103 762.586 707.291 763.318 707.318 764.065C707.318 764.245 707.354 764.423 707.423 764.59C707.492 764.756 707.593 764.907 707.72 765.034C707.847 765.162 707.998 765.263 708.165 765.332C708.331 765.401 708.509 765.436 708.689 765.436Z" fill="white"/>
<path d="M701.184 766.751C701.524 766.751 701.852 766.624 702.104 766.395C702.356 766.167 702.514 765.853 702.547 765.514C702.581 765.169 702.823 762.091 700.847 760.267C700.58 760.02 700.225 759.89 699.861 759.905C699.498 759.919 699.155 760.078 698.908 760.345C698.661 760.613 698.531 760.967 698.546 761.331C698.56 761.694 698.719 762.037 698.986 762.284C699.639 763.124 699.938 764.187 699.819 765.244C699.801 765.424 699.819 765.604 699.872 765.777C699.924 765.949 700.01 766.11 700.124 766.249C700.238 766.388 700.379 766.504 700.538 766.589C700.697 766.674 700.871 766.727 701.05 766.744C701.093 766.748 701.138 766.751 701.184 766.751Z" fill="white"/>
<path d="M748.285 766.249L743.949 767.032C743.949 767.032 713.104 767.373 702.708 767.193H702.933L703.078 773.47L703.242 773.48C717.314 774.265 727.07 772.216 731.03 772.272C734.312 772.318 745.884 773.263 747.177 772.872C748.47 772.481 748.464 771.572 748.838 770.198C749.212 768.824 748.285 766.249 748.285 766.249Z" fill="white"/>
<path d="M747.168 771.276C745.876 771.663 734.303 770.719 731.021 770.676C727.061 770.62 717.113 772.648 703.04 771.863L703.078 773.478C717.15 774.263 727.07 772.224 731.03 772.278C734.312 772.324 745.884 773.269 747.177 772.878C748.47 772.487 748.464 771.578 748.838 770.204C748.968 769.734 748.461 770.888 747.168 771.276Z" fill="#F75F4B"/>
<path d="M724.717 749.765C724.254 749.517 723.813 749.229 723.4 748.903C720.279 743.915 718.371 736.623 720.579 733.054C720.998 732.361 721.611 731.806 722.343 731.459C723.076 731.112 723.894 730.989 724.695 731.105C725.323 731.153 725.931 731.349 726.468 731.677C727.006 732.004 727.459 732.454 727.79 732.989C730.49 737.221 726.89 747.745 726.467 748.931C726.408 749.101 726.315 749.257 726.195 749.391C726.074 749.525 725.929 749.634 725.766 749.712C725.604 749.789 725.427 749.834 725.248 749.843C725.068 749.853 724.888 749.827 724.718 749.766L724.717 749.765ZM722.912 734.496C721.819 736.263 722.341 740.963 724.659 745.556C725.799 741.55 726.698 736.38 725.476 734.462C725.369 734.278 725.217 734.124 725.034 734.015C724.851 733.905 724.644 733.843 724.431 733.834C724.337 733.826 724.249 733.821 724.167 733.821C723.915 733.802 723.663 733.855 723.441 733.975C723.218 734.094 723.035 734.275 722.912 734.496Z" fill="white"/>
<path d="M728.22 752.998C728.455 752.997 728.686 752.936 728.89 752.821C729.095 752.705 729.266 752.539 729.388 752.338C729.51 752.138 729.578 751.909 729.586 751.674C729.594 751.44 729.542 751.207 729.434 750.998C729.334 750.811 727.001 746.44 722.71 746.44H722.631C722.451 746.442 722.273 746.48 722.107 746.551C721.942 746.622 721.792 746.725 721.666 746.854C721.54 746.983 721.441 747.136 721.375 747.303C721.308 747.47 721.275 747.649 721.277 747.829C721.274 748.011 721.309 748.191 721.378 748.359C721.447 748.527 721.55 748.678 721.68 748.805C721.81 748.932 721.965 749.031 722.134 749.096C722.304 749.161 722.485 749.19 722.666 749.183H722.707C725.329 749.183 726.988 752.242 727.007 752.272C727.125 752.492 727.299 752.675 727.513 752.803C727.727 752.931 727.971 752.998 728.22 752.998Z" fill="white"/>
<path d="M726.89 749.128C726.57 749.032 726.296 748.821 726.121 748.537C725.945 748.253 725.879 747.914 725.935 747.584C727.063 741.011 730.658 737.884 733.522 737.75C734.193 737.677 734.869 737.841 735.431 738.216C735.993 738.59 736.406 739.15 736.597 739.797C736.945 741.104 736.813 744.625 728.103 749.108C727.916 749.204 727.71 749.256 727.5 749.259C727.289 749.263 727.081 749.218 726.891 749.128H726.89ZM732.929 740.667C731.729 741.167 730.303 742.614 729.357 745.252C733.539 742.645 734.057 740.804 733.973 740.538C733.887 740.5 733.793 740.484 733.699 740.49C733.434 740.498 733.172 740.558 732.929 740.666V740.667Z" fill="white"/>
<path d="M965.55 765.498C973.35 764.914 975.912 751.661 977.018 746.859C978.002 742.583 978.783 732.63 978.783 732.63C978.783 732.63 977.722 732.172 979.363 731.197C981.004 730.222 984.226 729.063 985.744 727.879C987.759 726.079 989.635 724.13 991.356 722.048C991.356 722.048 991.885 726.693 994.871 729.401C996.306 730.701 1001.24 733.144 1003.91 735.81C1006.2 738.105 1006.93 738.995 1006.93 738.995L1008.61 745.607L969.229 771.942L965.55 770.568V765.498Z" fill="#F75F4B"/>
<path d="M967.12 759.318C966.189 759.924 957.27 756.473 954.52 762.246C953.038 765.359 955.495 766.208 955.495 766.208C955.495 766.208 963.65 769.308 965.747 767.78C967.483 766.52 967.12 759.318 967.12 759.318Z" fill="#FF826A"/>
<path d="M954.523 762.246C956.513 765.47 965.608 769.452 973.479 766.964C976.439 766.028 1001.04 750.103 1005.18 744.622C1006.38 742.997 1007 741.015 1006.94 738.994C1006.94 738.994 1009.63 742.094 1010.09 743.382C1010.44 744.128 1010.62 744.946 1010.61 745.773C1010.6 746.6 1010.4 747.412 1010.02 748.148C1007.2 753.282 1000.48 755.53 997.863 757.295C994.709 759.424 987.821 764.838 976.289 771.94C971.534 774.869 961.416 773.49 955.364 769.412C952.744 767.651 953.069 763.699 954.523 762.246Z" fill="#F75F4B"/>
<path d="M980.62 751.442C983.144 744.531 983.277 738.873 980.594 730.566C979.716 729.316 970.826 728.066 969.584 729.066C974.151 730.766 975.634 733.293 976.408 736.085C977.545 740.38 977.38 744.915 975.934 749.115C973.563 756.441 969.534 758.791 967.094 759.176C967.094 760.251 965.827 767.227 965.827 767.227C966.377 763.7 975.961 764.198 980.62 751.442Z" fill="#FF826A"/>
<path opacity="0.48" d="M968.277 771.35C968.278 771.363 968.28 771.376 968.283 771.388L968.277 771.35Z" fill="#97B5A8"/>
<path d="M982.558 749.229C982.881 749.229 983.193 749.115 983.44 748.908C983.687 748.7 983.853 748.412 983.909 748.094C983.965 747.776 983.907 747.449 983.745 747.17C983.583 746.89 983.328 746.677 983.025 746.567C982.606 746.416 978.849 745.106 975.958 745.846C975.782 745.889 975.616 745.967 975.471 746.074C975.325 746.182 975.202 746.317 975.109 746.472C975.016 746.628 974.954 746.8 974.928 746.979C974.902 747.158 974.911 747.341 974.956 747.516C975.001 747.692 975.08 747.856 975.189 748.001C975.297 748.146 975.434 748.268 975.59 748.359C975.746 748.451 975.918 748.511 976.098 748.536C976.277 748.561 976.46 748.549 976.635 748.503C978.394 748.059 981.172 748.816 982.094 749.147C982.243 749.201 982.4 749.229 982.558 749.229Z" fill="white"/>
<path d="M976.409 742.853C976.653 742.853 976.892 742.789 977.102 742.665C978.646 741.756 981.722 742.465 982.677 742.782C983.022 742.898 983.399 742.873 983.724 742.711C984.05 742.549 984.298 742.264 984.415 741.92C984.531 741.575 984.505 741.198 984.343 740.872C984.181 740.546 983.897 740.298 983.552 740.182C983.052 740.015 978.611 738.597 975.712 740.299C975.453 740.452 975.251 740.686 975.137 740.965C975.024 741.245 975.006 741.553 975.085 741.844C975.165 742.134 975.338 742.391 975.578 742.573C975.818 742.756 976.111 742.854 976.412 742.853H976.409Z" fill="white"/>
<path d="M980.441 755.942C980.694 755.942 980.943 755.871 981.158 755.738C981.374 755.605 981.548 755.415 981.662 755.188C981.776 754.962 981.826 754.709 981.804 754.456C981.783 754.204 981.691 753.962 981.541 753.758C980.697 752.717 979.613 751.894 978.383 751.36C977.153 750.827 975.812 750.598 974.475 750.693C974.118 750.729 973.79 750.903 973.56 751.178C973.33 751.453 973.217 751.807 973.245 752.165C973.273 752.522 973.439 752.854 973.709 753.091C973.979 753.327 974.33 753.448 974.688 753.428C975.565 753.365 976.445 753.511 977.254 753.854C978.064 754.198 978.78 754.729 979.344 755.403C979.473 755.571 979.64 755.707 979.83 755.8C980.02 755.894 980.229 755.942 980.441 755.942Z" fill="white"/>
<path d="M973.668 766.891C977.305 765.466 1001.11 750.008 1005.17 744.623C1006.38 742.999 1007 741.016 1006.93 738.995C1006.93 738.995 1009.62 742.095 1010.08 743.383C1010.44 744.129 1010.62 744.947 1010.6 745.774C1010.59 746.6 1010.39 747.413 1010.01 748.149C1007.19 753.283 1000.47 755.531 997.857 757.296C994.703 759.425 987.816 764.839 976.283 771.941C975.054 770.468 974.162 768.745 973.668 766.891Z" fill="white"/>
<path d="M974.978 770.107C986.509 763.007 993.588 757.539 996.743 755.407C999.357 753.643 1006.08 751.395 1008.9 746.26C1009.27 745.539 1009.47 744.741 1009.49 743.929C1009.51 743.117 1009.34 742.312 1008.99 741.576C1009.43 742.131 1009.79 742.735 1010.08 743.376C1010.44 744.122 1010.62 744.94 1010.6 745.767C1010.59 746.594 1010.39 747.406 1010.01 748.142C1007.19 753.276 1000.47 755.524 997.858 757.288C994.704 759.417 987.816 764.831 976.284 771.934C975.773 771.383 975.334 770.769 974.978 770.107Z" fill="#F75F4B"/>
<path d="M976.01 761.142C976.245 761.142 976.477 761.082 976.682 760.967C976.887 760.851 977.059 760.686 977.182 760.485C977.304 760.284 977.373 760.055 977.381 759.82C977.39 759.585 977.338 759.351 977.23 759.142C976.531 757.915 975.523 756.892 974.306 756.175C973.088 755.458 971.705 755.073 970.292 755.057H970.163C969.983 755.06 969.805 755.099 969.639 755.171C969.474 755.243 969.324 755.348 969.199 755.478C969.074 755.608 968.975 755.761 968.909 755.929C968.844 756.097 968.812 756.277 968.815 756.457C968.832 756.817 968.985 757.157 969.244 757.408C969.504 757.658 969.849 757.8 970.209 757.804H970.289C971.197 757.819 972.086 758.065 972.874 758.518C973.661 758.971 974.32 759.617 974.789 760.394C974.904 760.619 975.079 760.808 975.295 760.94C975.51 761.072 975.758 761.142 976.01 761.142Z" fill="white"/>
<path d="M971.182 764.649C971.362 764.649 971.541 764.614 971.707 764.545C971.874 764.476 972.025 764.375 972.152 764.247C972.28 764.12 972.381 763.969 972.45 763.802C972.519 763.636 972.554 763.457 972.554 763.277C972.554 761.305 971.413 757.966 968.269 756.854C967.926 756.733 967.549 756.752 967.221 756.909C966.893 757.065 966.64 757.346 966.519 757.689C966.397 758.031 966.417 758.408 966.573 758.737C966.73 759.065 967.01 759.318 967.353 759.439C969.21 760.096 969.811 762.309 969.811 763.278C969.811 763.642 969.956 763.99 970.213 764.247C970.47 764.504 970.819 764.649 971.182 764.649Z" fill="white"/>
<path d="M977.159 741.951C977.053 741.873 966.509 734.142 967.259 728.809C967.414 727.709 968.088 726.223 970.423 725.376C970.985 725.165 971.58 725.055 972.18 725.049C978.909 725.049 979.313 739.206 979.336 740.821C979.34 741.076 979.272 741.326 979.142 741.545C979.011 741.764 978.822 741.942 978.596 742.059C978.37 742.176 978.116 742.228 977.862 742.209C977.608 742.19 977.364 742.101 977.158 741.951H977.159ZM971.359 727.951C970.083 728.415 970.004 728.978 969.974 729.19C969.699 731.138 973.093 734.982 976.414 737.852C975.924 732.963 974.452 727.79 972.178 727.79C971.898 727.797 971.622 727.852 971.361 727.953L971.359 727.951Z" fill="white"/>
<path d="M977.57 742.154C977.25 742.058 976.976 741.848 976.8 741.563C976.624 741.279 976.558 740.94 976.615 740.61C977.742 734.038 981.338 730.91 984.2 730.776C984.872 730.702 985.548 730.867 986.11 731.241C986.672 731.615 987.085 732.175 987.276 732.823C987.624 734.129 987.492 737.651 978.776 742.134C978.589 742.23 978.383 742.282 978.173 742.285C977.963 742.289 977.755 742.244 977.565 742.154H977.57ZM983.609 733.693C982.409 734.193 980.983 735.64 980.037 738.278C984.219 735.671 984.737 733.83 984.653 733.564C984.567 733.526 984.473 733.51 984.379 733.516C984.113 733.525 983.852 733.585 983.609 733.693Z" fill="white"/>
<path d="M843.699 427.32C843.908 427.32 844.113 427.267 844.295 427.164C844.477 427.062 844.629 426.915 844.737 426.736C865.451 392.636 864.337 332.772 858.319 316.636C858.267 316.482 858.184 316.341 858.076 316.22C857.968 316.098 857.837 316 857.69 315.93C857.544 315.861 857.384 315.821 857.222 315.814C857.06 315.807 856.898 315.833 856.746 315.89C856.594 315.946 856.454 316.033 856.336 316.145C856.218 316.256 856.124 316.39 856.059 316.539C855.993 316.687 855.958 316.848 855.956 317.01C855.954 317.173 855.984 317.334 856.045 317.484C861.773 332.846 862.656 392.56 842.662 425.478C842.55 425.662 842.49 425.873 842.486 426.088C842.482 426.303 842.536 426.515 842.642 426.703C842.747 426.891 842.901 427.047 843.087 427.155C843.273 427.264 843.484 427.321 843.699 427.321V427.32Z" fill="#F75F4B"/>
<path d="M787.626 421.514C787.983 421.514 788.337 421.451 788.671 421.327C800.71 416.908 808.886 388.504 810.404 382.855C810.613 382.078 810.504 381.249 810.102 380.552C809.7 379.854 809.037 379.345 808.26 379.137C807.482 378.928 806.654 379.037 805.956 379.439C805.259 379.841 804.75 380.504 804.541 381.281C801.218 393.657 793.692 413.019 786.579 415.629C785.91 415.875 785.349 416.348 784.994 416.966C784.639 417.585 784.512 418.308 784.637 419.01C784.762 419.712 785.13 420.347 785.677 420.805C786.223 421.263 786.913 421.513 787.626 421.513V421.514Z" fill="#F75F4B"/>
<path opacity="0.71" d="M561.665 804.053C561.665 804.053 557.292 799.9 540.08 799.241C528.055 798.781 512.37 801.741 504.546 802.128C480.763 803.295 338.838 801.136 329.924 802.128C321.01 803.12 304.537 807.674 291.443 805.589C261.368 800.801 262.186 805.763 264.018 810.054C267.449 818.092 305.518 826.344 356.175 818.331C373.305 815.621 500.66 834.036 561.665 804.053Z" fill="url(#paint1_linear)"/>
<path d="M343.242 740.126C341.934 738.563 336.386 738.654 332.224 741.048C328.062 743.442 339.819 746.508 339.819 746.508L343.242 740.126Z" fill="#049599"/>
<path d="M229.124 716.535L318.524 716.454C320.314 716.453 322.087 716.804 323.742 717.488C325.396 718.172 326.899 719.175 328.166 720.44C329.432 721.706 330.437 723.208 331.122 724.862C331.808 726.516 332.161 728.288 332.161 730.078V731.105C332.161 733.831 332.698 736.531 333.741 739.049C334.784 741.567 336.313 743.856 338.24 745.784C340.168 747.711 342.456 749.24 344.974 750.283C347.493 751.326 350.192 751.863 352.918 751.863H483.374C490.21 751.863 496.767 754.579 501.6 759.413C506.434 764.247 509.15 770.803 509.15 777.639C509.15 782.662 507.154 787.48 503.602 791.031C500.05 794.583 495.233 796.578 490.21 796.578C490.21 796.578 422.542 799.359 399.985 799.359C380.509 799.359 322.085 796.578 322.085 796.578C317.248 796.578 312.593 794.727 309.077 791.405C305.561 788.082 303.45 783.54 303.176 778.71L302.291 763.098C301.851 757.075 299.178 751.433 294.796 747.276C290.415 743.119 284.639 740.748 278.601 740.625L249.136 740.125C245.643 740.066 242.202 739.264 239.043 737.771C235.885 736.279 233.08 734.13 230.816 731.469L225.251 724.929C224.621 724.189 224.217 723.284 224.085 722.321C223.953 721.358 224.099 720.378 224.506 719.495C224.913 718.613 225.565 717.865 226.383 717.341C227.201 716.816 228.152 716.537 229.124 716.535Z" fill="#EE9B27"/>
<path d="M302.192 762.767C301.692 760.444 300.986 757.283 300.343 755.255C311.872 755.221 338.819 746.766 343.243 740.126L345.722 743.087C340.691 750.187 314.305 761.651 302.192 762.767Z" fill="#01B0BB"/>
<path d="M490.21 796.58C460.535 800.346 430.658 802.29 400.745 802.401C355.745 802.328 322.083 796.58 322.083 796.58C322.083 796.58 379.14 797.218 398.16 797.232C421.174 797.254 490.21 796.58 490.21 796.58Z" fill="#E08D2B"/>
<path d="M446.991 769.929C448.482 769.799 449.61 768.777 449.512 767.647C449.413 766.517 448.124 765.707 446.633 765.837C445.142 765.968 444.013 766.989 444.112 768.12C444.211 769.25 445.5 770.06 446.991 769.929Z" fill="#E08D2B"/>
<path d="M431.86 780.101C433.518 780.101 434.862 778.905 434.862 777.428C434.862 775.952 433.518 774.755 431.86 774.755C430.202 774.755 428.858 775.952 428.858 777.428C428.858 778.905 430.202 780.101 431.86 780.101Z" fill="#E08D2B"/>
<path d="M461.783 780.356C462.186 779.658 462.054 778.828 461.488 778.502C460.923 778.176 460.138 778.476 459.736 779.174C459.333 779.871 459.465 780.701 460.03 781.027C460.596 781.354 461.381 781.053 461.783 780.356Z" fill="#E08D2B"/>
<path d="M342.856 687.48C344.538 686.982 346.301 686.812 348.047 686.98C349.64 687.232 351.129 687.933 352.337 689.002C353.545 690.071 354.422 691.462 354.865 693.013C355.26 694.577 355.206 696.221 354.709 697.755C354.212 699.29 353.293 700.653 352.057 701.689C349.898 703.448 347.046 704.025 344.349 704.715C337.618 706.442 331.193 709.196 325.301 712.88C324.393 713.544 323.366 714.025 322.276 714.298C311.464 716.171 319.402 703.598 322.045 700.511C327.478 694.132 334.745 689.582 342.856 687.48Z" fill="#EE9B27"/>
<path d="M494.466 754.85C494.466 754.85 517.999 762.239 537.981 728.925C539.459 726.461 543.336 728.381 542.545 731.143C537.945 747.172 525.351 768.648 490.812 766.919L494.466 754.85Z" fill="#EE9B27"/>
<path d="M280.505 717.414C280.333 717.817 280.243 718.25 280.242 718.688C280.241 719.125 280.329 719.559 280.499 719.962C280.67 720.365 280.92 720.729 281.235 721.033C281.549 721.338 281.922 721.575 282.331 721.731C283.801 722.26 285.081 721.404 285.831 719.331C286.581 717.258 285.991 715.145 284.522 714.616C283.053 714.087 281.253 715.34 280.505 717.414Z" fill="#010E52"/>
<path d="M224.136 720.039C225.465 722.144 227.427 722.559 228.602 721.817C229.777 721.075 229.717 719.459 228.388 717.354C227.059 715.249 225.03 714.144 223.856 714.885C222.682 715.626 222.807 717.934 224.136 720.039Z" fill="#010E52"/>
<path d="M316.102 802.845C315.356 802.856 314.622 803.038 313.957 803.378C313.293 803.718 312.716 804.206 312.27 804.804C311.911 805.306 311.704 805.901 311.674 806.518C311.645 807.134 311.794 807.746 312.103 808.28C312.413 808.814 312.871 809.247 313.421 809.528C313.971 809.808 314.59 809.924 315.204 809.86C315.794 809.793 316.373 809.656 316.931 809.452C318.799 808.684 320.461 807.489 321.783 805.961C322.445 805.294 323.008 804.535 323.452 803.706C324.367 801.868 324.277 799.711 324.166 797.66C324.191 797.219 324.063 796.783 323.803 796.426C323.659 796.293 323.489 796.192 323.303 796.13C323.117 796.068 322.92 796.047 322.725 796.067C321.073 796.149 320.025 797.823 319.315 799.32C318.605 800.817 317.726 802.527 316.102 802.845Z" fill="#EE9B27"/>
<path d="M474.015 802.198C473.269 802.209 472.535 802.391 471.871 802.731C471.207 803.071 470.629 803.559 470.184 804.157C469.825 804.659 469.618 805.254 469.588 805.87C469.559 806.487 469.708 807.099 470.017 807.633C470.327 808.167 470.784 808.6 471.334 808.88C471.884 809.161 472.503 809.276 473.117 809.213C473.707 809.145 474.286 809.009 474.844 808.805C476.712 808.037 478.374 806.842 479.696 805.314C480.359 804.648 480.921 803.888 481.366 803.059C482.281 801.221 482.191 799.064 482.079 797.013C482.104 796.573 481.976 796.137 481.717 795.779C481.573 795.646 481.402 795.545 481.216 795.483C481.03 795.421 480.833 795.4 480.638 795.42C478.986 795.502 477.938 797.175 477.228 798.672C476.518 800.169 475.639 801.882 474.015 802.198Z" fill="#EE9B27"/>
<path d="M339.587 804.666C339.346 805.372 339.27 806.124 339.366 806.864C339.461 807.604 339.726 808.312 340.139 808.933C340.491 809.441 340.981 809.836 341.552 810.072C342.122 810.308 342.748 810.373 343.356 810.262C343.963 810.15 344.525 809.865 344.974 809.442C345.423 809.019 345.741 808.475 345.888 807.875C346.024 807.298 346.091 806.706 346.088 806.112C345.995 804.095 345.43 802.127 344.437 800.367C344.032 799.519 343.507 798.734 342.877 798.036C341.454 796.555 339.394 795.913 337.426 795.326C337.02 795.155 336.566 795.128 336.142 795.252C335.969 795.343 335.816 795.469 335.695 795.624C335.575 795.778 335.488 795.956 335.442 796.146C334.963 797.73 336.183 799.285 337.353 800.453C338.523 801.621 339.837 803.03 339.587 804.666Z" fill="#EE9B27"/>
<path d="M493.855 803.583C493.613 804.289 493.537 805.041 493.633 805.781C493.729 806.521 493.993 807.229 494.407 807.85C494.758 808.358 495.248 808.754 495.819 808.99C496.39 809.226 497.016 809.291 497.624 809.18C498.231 809.068 498.793 808.783 499.242 808.36C499.692 807.936 500.009 807.392 500.157 806.792C500.292 806.215 500.359 805.623 500.357 805.029C500.264 803.012 499.698 801.044 498.706 799.284C498.301 798.436 497.776 797.651 497.146 796.953C495.724 795.472 493.662 794.83 491.694 794.243C491.287 794.072 490.834 794.045 490.41 794.169C490.236 794.26 490.084 794.386 489.963 794.541C489.842 794.695 489.756 794.873 489.71 795.063C489.231 796.647 490.451 798.202 491.622 799.37C492.793 800.538 494.105 801.947 493.855 803.583Z" fill="#EE9B27"/>
<path d="M365.121 714.949C366.72 715.673 368.164 716.697 369.375 717.967C370.416 719.2 371.082 720.704 371.297 722.302C371.511 723.901 371.264 725.528 370.584 726.99C369.86 728.432 368.743 729.639 367.364 730.475C365.984 731.31 364.397 731.74 362.784 731.714C360.001 731.632 357.467 730.202 354.975 728.96C348.755 725.862 342.094 723.742 335.228 722.673C334.108 722.581 333.016 722.274 332.012 721.767C322.612 716.111 336.838 711.797 340.857 711.189C349.139 709.919 357.612 711.232 365.121 714.949Z" fill="#EE9B27"/>
<path d="M1130.4 150.934C1126.78 159.181 1125.28 167.879 1123.75 177.61C1122.01 175.97 1120.99 174.964 1119.92 174.011C1110.43 165.576 1099.41 165.641 1091.58 174.258C1088.69 177.346 1085.97 180.581 1083.42 183.951C1080.79 187.524 1077.82 188.85 1073.29 187.994C1063.92 186.223 1054.42 185.619 1045.1 188.301C1039.62 189.878 1034.14 191.85 1031.65 197.784C1029.94 201.845 1030.76 203.183 1035.09 203.239C1046.32 203.385 1057.55 203.851 1068.75 203.967C1094.5 204.234 1120.25 204.245 1146 204.204V132.585C1139.32 136.689 1133.92 142.909 1130.4 150.934Z" fill="white"/>
<defs>
<linearGradient id="paint0_linear" x1="656.927" y1="773.61" x2="1368.17" y2="773.61" gradientUnits="userSpaceOnUse">
<stop stop-color="#ECEDF2"/>
<stop offset="1" stop-color="#ECEDF2"/>
</linearGradient>
<linearGradient id="paint1_linear" x1="263.274" y1="810.397" x2="756.813" y2="810.397" gradientUnits="userSpaceOnUse">
<stop stop-color="#ECEDF2"/>
<stop offset="1" stop-color="#ECEDF2"/>
</linearGradient>
</defs>
</svg>
