<?xml version="1.0" encoding="utf-8"?>
<!-- Generator: Adobe Illustrator 19.0.0, SVG Export Plug-In . SVG Version: 6.00 Build 0)  -->
<svg version="1.1" id="Layer_1" xmlns="http://www.w3.org/2000/svg" xmlns:xlink="http://www.w3.org/1999/xlink" x="0px" y="0px"
	 width="512px" height="512px" viewBox="-49 141 512 512" style="enable-background:new -49 141 512 512;" xml:space="preserve">
<style type="text/css">
	.st0{fill:none;stroke:#27AAE1;stroke-width:10;stroke-linecap:round;stroke-linejoin:round;stroke-miterlimit:10;}
</style>
<g id="XMLID_14_">
	<path id="XMLID_16_" class="st0" d="M75.6447296,403.5839233H39.2024689c-2.2595978,0-4.0913734-1.8317566-4.0913734-4.0913696
		V363.050293c0-2.259613,1.8317757-4.0913696,4.0913734-4.0913696h36.4422607c2.2596054,0,4.0913773,1.8317566,4.0913773,4.0913696
		v36.4422607C79.7361069,401.7521667,77.904335,403.5839233,75.6447296,403.5839233z"/>
	<path id="XMLID_15_" class="st0" d="M374.7975159,403.5839233h-36.4422607c-2.259613,0-4.0913696-1.8317566-4.0913696-4.0913696
		V363.050293c0-2.259613,1.8317566-4.0913696,4.0913696-4.0913696h36.4422607c2.2595825,0,4.0913696,1.8317566,4.0913696,4.0913696
		v36.4422607C378.8888855,401.7521667,377.0570984,403.5839233,374.7975159,403.5839233z"/>
	<path id="XMLID_12_" class="st0" d="M245.483429,426.7227783h-76.9668884c-3.8482819,0-6.9679413-3.1196289-6.9679413-6.9678955
		v-76.9669189c0-3.8482971,3.1196594-6.9679565,6.9679413-6.9679565h76.9668884
		c3.8482819,0,6.9679565,3.1196594,6.9679565,6.9679565v76.9669189
		C252.4513855,423.6031494,249.3317108,426.7227783,245.483429,426.7227783z"/>
	<path id="XMLID_11_" class="st0" d="M279.7576904,443.6924133c25.7500916-30.0151062,31.1567383-74.1581116,10.2604675-110.3515625
		c-26.471283-45.8496704-85.0991058-61.5589294-130.9487457-35.0875549
		c-45.8496628,26.471283-61.5589142,85.098999-35.0875397,130.9486694
		c26.471283,45.8496094,85.0989838,61.5588989,130.9486389,35.087616c0.258667-0.149292,0.5031891-0.3134155,0.759903-0.4647217"/>
	<path id="XMLID_9_" class="st0" d="M304.4876099,479.7831726c0.0001831-0.0002136,0.0003967-0.0002136,0.0006104-0.0004272
		l3.3181458-2.7843018l-27.149353-32.3553467l-0.0596313,0.0500183l-0.8396912-1.0007019
		c-6.6859741,7.793396-14.7394409,14.6325684-24.067276,20.1324463l12.3071747,14.6670532l0.0595093-0.0499268l15.712677,18.7254944
		l3.3182678-2.7843018c0.0001221-0.0001221,0.0003052-0.0003052,0.0004272-0.0004272L304.4876099,479.7831726z"/>
	<path id="XMLID_8_" class="st0" d="M280.6044312,505.3862c-1.0717163,5.4878235,0.2465515,11.3930969,4.120636,16.0100403
		l55.0288086,65.5808105c6.8068848,8.1121826,18.9011841,9.1702881,27.0133972,2.3634033l17.399231-14.5997314
		c8.1121521-6.8068848,9.1702881-18.9012451,2.3633728-27.0134277L351.0014954,505.3862"/>
	<path id="XMLID_7_" class="st0" d="M407.0322266,200.1732025H6.967813c-20.9691105,0-37.9677811,16.998764-37.9677811,37.9677734
		v229.27742c0,20.9689941,16.9986725,37.967804,37.9677811,37.967804h273.6365967
		c0.8112793-4.1543274,2.9886169-8.0702209,6.4836121-11.0030212l17.400177-14.6004333
		c8.1121521-6.8062744,20.2061768-5.7481995,27.0128784,2.3637695L351.0014954,505.3862h56.0307312
		C428.0012512,505.3862,445,488.3873901,445,467.418396v-229.27742
		C445,217.1719666,428.0012512,200.1732025,407.0322266,200.1732025z"/>
	<line id="XMLID_2_" class="st0" x1="-31" y1="258.0204163" x2="319.3888855" y2="258.0204163"/>
	<circle id="XMLID_6_" class="st0" cx="100.034668" cy="229.0968018" r="12.121994"/>
	<circle id="XMLID_5_" class="st0" cx="62.7066154" cy="229.0968018" r="12.121994"/>
	<circle id="XMLID_1_" class="st0" cx="25.3785591" cy="229.0968018" r="12.121994"/>
</g>
</svg>
