<?xml version="1.0" encoding="utf-8"?>
<!-- Generator: Adobe Illustrator 19.0.0, SVG Export Plug-In . SVG Version: 6.00 Build 0)  -->
<svg version="1.1" id="Layer_1" xmlns="http://www.w3.org/2000/svg" xmlns:xlink="http://www.w3.org/1999/xlink" x="0px" y="0px"
	 width="512px" height="512px" viewBox="-49 141 512 512" style="enable-background:new -49 141 512 512;" xml:space="preserve">
<style type="text/css">
	.st0{fill:none;stroke:#4F5456;stroke-width:14;stroke-linecap:round;stroke-linejoin:round;stroke-miterlimit:10;}
</style>
<g>
	<g>
		<g>
			<g>
				<g>
					<g>
						<polyline class="st0" points="249.696228,378.0096436 224.1338501,356.5598755 249.696228,335.1109009 
							249.1773071,335.1109009 249.1773071,301.741394 249.4371643,301.4815063 282.8066406,301.4815063 282.8066406,302.0004272 
							304.2556458,276.4380493 325.7054443,302.0004272 325.7054443,301.4815063 359.0749207,301.4815063 359.3339844,301.741394 
							359.3339844,335.1109009 358.8150635,335.1109009 384.3774414,356.5598755 358.8150635,378.0096436 359.3339844,378.0096436 
							359.3339844,411.3791504 359.0749207,411.6381836 325.7054443,411.6381836 325.7054443,411.1200562 304.2556458,436.6824341 
							282.8066406,411.1200562 282.8066406,411.6381836 249.4371643,411.6381836 249.1773071,411.3791504 249.1773071,378.0096436 
													"/>
					</g>
				</g>
			</g>
		</g>
		<g>
			<polyline class="st0" points="267.7395935,413.9008789 267.7395935,517.5619507 304.2556458,488.2661743 			"/>
			<polyline class="st0" points="340.771698,413.9008789 340.771698,517.5619507 304.2556458,488.2661743 			"/>
		</g>
	</g>
	<g>
		<rect x="-31" y="234.0924683" class="st0" width="476" height="325.8150635"/>
		<line class="st0" x1="29.2558498" y1="479.0753784" x2="89.4692841" y2="479.0753784"/>
		<line class="st0" x1="29.2558498" y1="385.0987854" x2="60.2792931" y2="385.0987854"/>
		<line class="st0" x1="29.2558498" y1="442.618042" x2="116.5770721" y2="442.618042"/>
	</g>
</g>
</svg>
