<?xml version="1.0" encoding="utf-8"?>
<!-- Generator: Adobe Illustrator 19.0.0, SVG Export Plug-In . SVG Version: 6.00 Build 0)  -->
<svg version="1.1" id="Layer_1" xmlns="http://www.w3.org/2000/svg" xmlns:xlink="http://www.w3.org/1999/xlink" x="0px" y="0px"
	 width="512px" height="512px" viewBox="0 0 512 512" style="enable-background:new 0 0 512 512;" xml:space="preserve">
<style type="text/css">
	.st0{fill:#555555;}
</style>
<g>
	<path class="st0" d="M431.9367676,308.3820801c-4.0820923-23.6860962-21.3851929-40.4282227-45.2559204-44.7788696
		c-24.0159912-4.3771362-47.9893799-8.9882202-72.0056763-13.3638306c-3.4259033-0.6241455-5.1634521-2.0197754-4.9212646-5.6382446
		c0.1595459-2.3851929,0.1485596-4.7982178-0.008606-7.184082c-0.1992798-3.0250244,0.9812622-5.0563354,3.4776611-6.800354
		c19.6085205-13.6981812,32.4765625-32.2348633,39.0687866-55.1551514c0.8088989-2.8123779,2.2990112-4.0430908,5.1713867-4.7364502
		c16.1461792-3.8973999,28.2001343-18.9751587,29.1013794-34.6317749
		c1.1206055-19.4686279-11.4971313-35.2593384-27.5285034-39.598999c-4.3276978-1.1715088-6.2167358-3.262085-7.4647217-7.3615723
		c-1.1013794-3.6177979-0.1438599-4.9199829,3.1679688-5.7307129c2.7828979-0.6812744,5.4614868-1.7817383,8.2000122-2.6531982
		c2.1790161-0.6933594,3.5350952-2.1134033,2.3141479-4.2651978c-2.1459351-3.7820435-0.7349854-9.4712524-6.0285034-11.4775391
		c-0.7181396-0.2721558-1.8240967,0.4127808-2.7303467,0.7148438c-3.0296021,1.0097656-6.0809326,1.9656982-9.0643921,3.0990601
		c-2.4398193,0.9268799-4.0010986,0.5927734-5.505188-1.8675537c-2.574707-4.2119141-5.5380859-8.2002563-8.5148926-12.149353
		c-5.4417114-7.2191772-5.4954834-7.1786499-0.4897461-14.6832275c6.9697266-10.4491577,6.9291382-10.3831787-3.7035522-16.9219971
		c-2.4408569-1.5010376-3.9308472-1.4243164-5.4129639,1.1240234c-1.7642822,3.0336914-3.9763184,5.8148804-5.6420288,8.8959351
		c-1.8851929,3.4869385-3.6332397,3.7192993-7.0493774,1.5025635c-26.0186768-16.883606-54.1020508-20.7647705-83.9260254-12.62146
		c-11.0536499,3.0181885-11.1575928,3.1299438-5.9639893,13.010498c1.7954102,3.4155884,1.5892334,5.1907959-2.2033081,6.9168091
		c-12.7722168,5.8128052-23.0341797,14.8071899-31.3797607,26.0174561
		c-6.1974487,8.3247681-6.2644043,8.4945068-14.9104004,2.2633057c-3.2694092-2.3562622-4.5371094-1.4562378-5.9215088,1.7802124
		c-2.5760498,6.0219727-5.37677,11.9654541-6.9907837,18.3261719c-0.8605347,3.3912354-2.7436523,4.7921143-6.074707,5.7128906
		c-16.3214722,4.5115967-27.6699219,19.6156006-28.4793091,35.1765747
		c-1.010498,19.4283447,12.9057617,35.3046265,28.2059937,39.2199707c3.7444458,0.9581909,5.4786987,2.7643433,6.5737915,6.418335
		c6.5391235,21.8186646,18.8508301,39.6809692,37.5499268,52.8553467c3.4158936,2.4066162,5.0404053,5.0500488,4.5163574,9.1657104
		c-0.2200928,1.7285767-0.1734009,3.5238647,0.0026245,5.2634888c0.3811035,3.7653198-1.2364502,5.3557739-4.9711914,6.0307617
		c-24.1798706,4.3701782-48.3013306,9.0636597-72.4845581,13.4146118
		c-28.3772583,5.1055908-45.7553101,30.3352661-45.4762573,54.3188477
		c0.6560059,56.3793945,0.1989746,112.7717285,0.2012329,169.1588745c0.0002441,6.8535767,0.0255737,6.8463745,6.9558105,6.8461304
		c56.5473633-0.0019531,113.0947266-0.0010986,169.6420898,0.0014038S369.0731812,493.9979858,425.6205444,494
		c6.9118652,0.0002441,6.8933105,0.005249,6.8926392-6.9216919c-0.0049438-49.9976807,0.0519409-99.9954224-0.0458374-149.9929199
		C432.4486694,327.5144653,433.5664673,317.838623,431.9367676,308.3820801z M355.7362671,149.651062
		c0.1731567-5.4037476,0.0437622-10.8172607,0.0437622-16.2265625c0.0021362-5.7275391,0.0354004-11.4552612-0.0115967-17.1824341
		c-0.0241699-2.9448853,0.9376221-3.8388062,3.682251-2.1985474c7.3649292,4.4014282,11.0563965,11.208313,11.0332642,19.4196777
		c-0.0219727,7.7948608-3.338562,14.461853-10.4106445,18.7545166
		C356.7883911,154.2115479,355.6130981,153.4942017,355.7362671,149.651062z M152.0122681,152.3048096
		c-7.2703247-4.3017578-10.7068481-11.1535034-10.6080933-19.1171265
		c0.0983887-7.9284058,3.4407959-14.8137207,10.9230957-18.9332275c2.5470581-1.4023438,3.7983398-1.1056519,3.7540283,2.1046143
		c-0.0791626,5.7288818-0.0222778,11.4596558-0.0222778,17.1896973c0.0090332,5.5708618-0.0692139,11.1431885,0.0361938,16.7120972
		C156.1669922,154.0527954,154.4387817,153.7405396,152.0122681,152.3048096z M223.2843018,57.8931885
		c-4.2762451,11.3068848-11.3369751,17.4443359-22.7209473,20.6373901
		C206.3303223,69.1708984,213.8533325,63.5509033,223.2843018,57.8931885z M195.4869385,200.663269
		c-0.3109131,1.2139893-0.0958862,2.96698-1.4551392,3.3057861c-1.602417,0.3994141-2.4226074-1.3204346-3.2667847-2.3967896
		c-10.399231-13.2601318-16.8181763-28.1281738-18.1367798-45.0608521
		c-1.4150391-18.1720581-1.9018555-36.3409424,1.0569458-54.4021606c1.6199341-9.8885498,1.8668213-9.8480835,11.2750244-7.7293091
		c28.2299805,6.3577271,55.6102295-15.2832642,55.7974854-44.1237183c0.0238037-3.6636963,0.2747803-7.3587646-0.8478394-10.937439
		c-0.8478394-2.7027588,0.4957886-3.8598633,2.9624634-4.1998291c12.9862061-1.7897339,25.7416992-0.7787476,38.2895508,3.0535889
		c3.1526489,0.9628906,2.8770752,2.2230225,0.8395386,4.2102051c-4.8016968,4.6830444-9.3577271,9.6276855-14.2996216,14.1536255
		c-3.2114868,2.9411621-4.4572144,6.1512451-4.3473511,10.5117798c0.3172607,12.5873413,0.1583252,12.4571533-12.1446533,12.5300293
		c-11.6112671,0.0687256-10.8639526-2.3214722-10.7559204,11.6729126c0.0223999,2.8948975,1.4138184,3.9543457,4.1505127,3.921875
		c4.7902832-0.0568848,9.5853882,0.118103,14.3717651-0.0263672c3.2869873-0.0991821,4.7924805,1.196167,4.4664307,4.5007324
		c-0.015564,0.1582642-0.0048218,0.3192749-0.0031738,0.4789429c0.1157227,11.4655151-1.7434692,10.2520142,11.1177979,10.4439087
		c3.2369385,0.0483398,4.6491699-1.2252197,4.5822754-4.5196533c-0.1199341-5.9066772-0.0338745-11.8175049-0.0338745-20.4457397
		c-4.133667-12.6634521,3.2880249-23.0256958,14.4175415-32.3723145c7.333252-6.1585083,7.0480347-6.8566284,14.6138916-0.6229248
		c18.3375854,15.1085815,29.3320923,34.2630005,31.1641235,58.2337646
		c1.3520508,17.6895752,1.7521362,35.3718872-1.0291138,52.9854736
		c-2.2489624,14.2426758-8.5336304,26.6530151-17.3173828,37.9058228c-0.7446899,0.9539795-1.4733276,2.5007935-2.8798218,2.1755371
		c-1.4121704-0.3265991-1.2521973-2.0291748-1.604126-3.2108154c-4.5904541-15.4127197-14.5474243-25.3019409-30.3699341-28.6103516
		c-4.4571533-0.9319458-9.2180786-0.5128784-13.8405151-0.53302c-13.0956421-0.0571289-26.1916504-0.0333862-39.2875366-0.0183105
		C214.9408569,171.5583496,199.9593506,183.201355,195.4869385,200.663269z M294.109314,289.9672852
		c-0.0078125,7.592041-2.8320313,11.8100586-7.7064209,11.6318359c-4.71698-0.1724243-7.270752-4.1887207-7.2945557-11.586792
		c-0.0267944-8.2983398-0.0061646-16.5968628-0.0061646-24.8952637c0.0143433-8.9366455-0.1417236-17.8772583,0.0824585-26.8082886
		c0.1065063-4.243103-1.5471802-5.5210571-5.6364136-5.4598999c-12.604248,0.1884766-25.2141724,0.1619263-37.8200073,0.0300293
		c-9.0769653-0.0949707-16.954834-2.8512573-22.015625-11.0784912c-6.3639526-10.3455811-3.0645142-24.4608154,7.1034546-30.6970825
		c2.7067871-1.6600952,4.1988525-2.0084229,4.3383179,2.0568848c0.3277588,9.5550537,0.4490967,9.3778076,10.0998535,9.4686279
		c4.1281738,0.0388184,5.6170044-1.2612915,5.5762329-5.491333c-0.1045532-10.8590698-1.677063-9.8789063,9.9389648-9.9208984
		c5.2661743-0.019043,10.5356445,0.1102905,15.7976074-0.0391846c3.2432861-0.0921631,4.8411255,1.0898438,4.5084839,4.4382935
		c-0.015686,0.1578369-0.0014648,0.3190308,0.0038452,0.4784546c0.3751831,11.3235474,0.3690796,11.2283325,11.5369263,10.499939
		c3.1072998-0.2026978,4.3215942-1.4916992,4.1417847-4.4371948c-0.0290527-0.4762573-0.0550537-0.9703979,0.0351563-1.4333496
		c0.4369507-2.2432251-1.3019409-5.6542969,1.1192627-6.5075073c2.1680908-0.7639771,4.5714111,1.7428589,6.4541016,3.4520264
		c7.8114014,7.0914917,9.428894,19.1224976,3.2249146,28.2789917c-2.6906128,3.9710693-3.5641479,7.8765259-3.5289917,12.4854126
		C294.2036133,252.9431152,294.128479,271.4555664,294.109314,289.9672852z M263.4248047,259.2092285
		c0.0342407,1.4342041,0.0046387,2.8699341,0.0046387,4.3049316c-0.010437,3.1889038-0.2266846,6.3964844,0.0454712,9.5619507
		c0.3244629,3.7738647-1.5322876,5.324585-4.9053345,5.4742432c-16.4772949,0.7312622-32.4978638-5.156311-39.8588867-22.0896606
		c-0.4974976-1.1445923-0.7626953-2.4399414-0.8845825-3.6896973c-0.6218262-6.3754883-0.3348999-6.510498,5.8101807-5.1622925
		c9.616272,2.1098633,19.3853149,0.7353516,29.0795898,0.9227295
		C265.5174561,248.7788696,263.1466064,247.5628662,263.4248047,259.2092285z M95.0663452,326.7150879
		c-0.2105713-12.1256714,0.8076172-22.9383545,7.9775391-32.2749634c5.4737549-7.1278076,12.503479-11.8220215,21.173584-13.8668213
		c6.5103149-1.5353394,13.1420288-2.5502319,19.704834-3.8707275c3.0537109-0.6144409,4.5928345,0.3601074,4.4899292,3.6253662
		c-0.0803833,2.550354-0.1204224,5.1119995,0.0256348,7.6569214c0.2140503,3.7297363-0.126709,6.8202515-5.0994873,6.4295654
		c-0.9503174-0.074646-2.0068359,0.4178467-2.1899414,1.5026245c-0.6935425,4.1090088-0.7626343,8.2531738,0.0194702,12.3479614
		c0.2947998,1.5436401,1.8765869,1.6488037,3.1311035,1.5977783c3.164917-0.1288452,4.1699829,1.4358521,4.0975342,4.4003906
		c-0.1209106,4.9432373-0.0665894,9.8925781,0.0064697,14.8379517c0.043396,2.93573-1.1486816,4.3509521-4.2103271,4.5014038
		c-3.9726563,0.1951904-7.968689,0.5126953-11.8780518,1.2081909c-3.1660156,0.5632935-4.177124-0.6972656-4.8845215-3.5316162
		c-2.0652466-8.2748413-2.1757813-8.2472534-10.5682373-6.5161133c-6.8500977,1.4130249-7.0352173,1.4508057-5.6416016,8.2877808
		c0.649231,3.1852417,0.0003052,4.3850708-3.3125,4.4589844c-3.1727295,0.0708618-6.3460693,0.5510254-9.4973755,1.0030518
		c-2.5930176,0.3719482-3.4459229-0.7341919-3.3687134-3.1813965
		C95.142334,332.1434326,95.0663452,328.9498291,95.0663452,326.7150879z M412.7693481,478.3023682
		c-17.571228-0.0519409-35.1431885-0.0958252-52.713623,0.0325317c-3.9817505,0.0291138-4.2703247-2.1260376-4.2634888-5.194397
		c0.0496826-22.5232544,0.0134277-45.0466309,0.0064087-67.5699463
		c-0.0037842-12.1402588-0.1237183-24.2823486,0.0617065-36.4197388c0.0635986-4.1590576-1.0172729-6.0247192-5.6066895-6.001709
		c-10.2293091,0.0512695-10.1836548-0.1654053-10.1749268,10.0301514
		c0.0283203,33.0662231-0.0579834,66.1328125,0.1134644,99.1981812c0.0238647,4.5906372-1.3465576,6.0360107-5.9725342,6.0026245
		c-26.1960449-0.1890259-52.394165-0.0914917-78.5915527-0.0914917c-25.5584717-0.0070801-51.1168823,0.0062256-76.675354-0.015564
		c-7.1849976-0.0061646-7.1946411-0.0535278-7.1953125-6.9956055c-0.0029297-33.7052002-0.003418-67.4104614,0.0031738-101.1156616
		c0.0013428-6.8640747,0.0170288-6.864563-6.9210815-6.8895264c-0.9584351-0.003418-1.9310913,0.1066284-2.8729858-0.0181885
		c-4.6553955-0.6170044-5.9954834,1.4494019-5.9755859,5.9937134c0.1490479,34.0240479,0.0791626,68.0490723,0.0701294,102.0737305
		c-0.0018921,6.9465332-0.0169067,6.9649048-6.788269,6.9657593c-16.1337891,0.0021362-32.2698364-0.1685181-48.3999023,0.0716553
		c-4.7144775,0.0701294-5.9068604-1.5802612-5.888855-6.0804443c0.1486206-37.218811,0.1259155-74.4386597,0.0098877-111.6577759
		c-0.0123291-3.9624023,0.9130859-5.8983154,5.2883301-5.7941284c3.6380615,0.0866089,7.3417358-0.4190674,10.9312134-1.1066895
		c3.0829468-0.5905762,4.2111816,0.3207397,4.8457642,3.3779907c1.7105713,8.2408447,1.8606567,8.2096558,10.286377,6.576355
		c6.9275513-1.3428955,7.1071167-1.3757324,5.803894-8.4973145c-0.5667725-3.0969849,0.3838501-3.9470825,3.2518311-4.1894531
		c4.9211426-0.4158936,9.8126221-1.1744995,14.7219238-1.7424316c8.0983887-0.9368286,13.90271-7.3577271,13.9579468-15.5602417
		c0.0419922-6.2296753,0.1657715-12.4646606-0.0372314-18.6878052c-0.118103-3.6211548,0.9559326-5.1213379,4.8504639-5.1303711
		c11.3596802-0.0263672,11.2698364-0.1674194,10.5617676-11.3961182c-0.1928711-3.0581055-1.3917847-4.0982056-4.3773804-4.2468872
		c-11.0750122-0.5513306-11.0709229-0.633606-11.0006714-11.8103638c0.0578003-9.1970825,0.0469971-9.2513428,8.9644165-11.0252686
		c9.0761108-1.805481,18.1895142-3.4243164,27.2588501-5.2618408c3.1106567-0.630249,4.9000854,0.3228149,6.6610718,3.0480347
		c10.6698608,16.512085,25.9481812,24.9741821,45.6317139,25.40271c1.7564087,0.038208,3.5264893,0.1404419,5.2689209-0.0195923
		c3.6160278-0.3320313,5.1744995,0.821167,5.932312,4.7992554c2.3328247,12.2455444,13.2709351,19.4716187,26.465332,18.1685181
		c10.9896851-1.0853882,19.4692993-11.0672607,19.510376-23.0027466c0.0280151-8.1466675,0.078125-16.2940674-0.0063477-24.4398193
		c-0.0299683-2.8895874,0.835144-4.0773926,3.9423218-3.4572754c7.9777832,1.5922241,15.9935303,2.9954834,23.9992676,4.4457397
		c2.5445557,0.4609375,3.7819824,1.9939575,4.2655029,4.4790649c1.4017334,7.2046509,2.8303833,14.4063721,4.4227295,21.5704956
		c0.5709839,2.5689087-0.5951538,4.2522583-2.0349121,6.0392456c-7.6143188,9.4505615-15.0898438,19.0155029-22.842041,28.3510132
		c-2.4771729,2.9830933-2.6832886,4.9266968,0.5906982,7.3904419c10.8231812,8.1447754,7.5657349,8.3621216,16.0134888-1.8776855
		c7.7220459-9.3602295,15.0581055-19.039917,22.8258667-28.3607788c2.6277466-3.1531982,3.302002-6.1474609,2.364563-10.0625
		c-1.5593872-6.5125122-2.6259766-13.1414795-4.0248413-19.6947632c-0.5661011-2.6523438,0.3882446-3.7654419,2.9346924-3.2658691
		c9.3891602,1.8417969,18.9596558,3.1123047,28.090271,5.8411255c16.3297729,4.8804932,25.8643799,19.0298462,26.4840088,37.5963135
		c0.4187012,12.5488281,0.397644,12.4859009-11.3575439,16.4176636c-3.317627,1.1096802-6.6049805,2.4656982-9.6611328,4.15271
		c-2.5324097,1.3979492-4.1262207,1.2969971-5.2449341-1.4695435c-0.0596313-0.1474609-0.1289063-0.2960815-0.2208862-0.4246216
		c-1.9038696-2.6591797-1.980896-7.619873-5.3355713-7.9283447c-3.9890747-0.3667603-7.5188599,3.0419312-11.1990967,4.9113159
		c-2.3533936,1.1953735-1.8154907,3.046875-0.8870239,4.9042969c1.6425781,3.2859497,3.2337036,6.5991821,4.9500122,9.8461304
		c1.0206299,1.9308472,0.8803711,3.4056396-0.612793,5.1675415c-18.7017212,22.0678711-19.1625977,55.1494751-0.9735718,77.8362427
		c1.4123535,1.7615967,1.5940552,3.234436,0.7507324,5.21698c-1.6872559,3.9662476-3.1500854,8.0276489-4.8154297,12.0037842
		c-0.9370117,2.2373047-0.4502563,3.6873169,1.8852539,4.4627686c0.7571411,0.2513428,1.5009766,0.5450439,2.242981,0.8392334
		c9.3408813,3.7032471,9.4212036,3.7387695,13.3126221-5.3299561c1.125-2.6217041,2.1103516-3.5167236,4.8792725-1.8051758
		c5.6172485,3.472229,11.8173218,5.6255493,18.3173828,6.7523193c2.6494751,0.4592896,3.9899292,1.6240234,3.9592285,4.3843994
		c-0.0567627,5.1109009-0.0826416,10.2242432,0.0171509,15.3339233
		C416.8594971,477.2353516,415.5845947,478.3106689,412.7693481,478.3023682z M416.8088379,394.2681885
		c-0.0108032,13.2452393-0.1344604,26.4923096,0.0623779,39.7346802c0.0612183,4.1195068-1.3184814,5.2040405-5.019165,3.7822266
		c-1.9348755-0.7434692-3.9142456-1.3875732-5.8002319-2.2390137c-8.3677979-3.7775269-8.3707275-3.8026123-5.7111816-12.5457153
		c0.4225464-1.3890991,1.2611694-3.1132202-0.4819336-3.7874146c-4.3707886-1.6904297-8.3430176-5.1465454-13.3334961-4.2871704
		c-2.1903687,0.3772583-2.569519-0.6891479-3.1135864-1.8955078c-6.3358765-14.0476074-5.6533813-27.8295288,1.7164917-41.3157349
		c1.1343384-2.0758057,2.3991699-2.5579834,3.7334595-0.1420898c0.3084717,0.5585327,0.5908203,1.1315918,0.8839722,1.6985474
		c5.1804199,10.0193481,7.236084,10.4138184,16.7133179,3.6281738c2.1292725-1.5245361,1.8516846-3.0448608,0.9154053-4.918396
		c-2.0684814-4.1391602-4.0428467-8.3284302-6.2241821-12.4071045c-1.3483276-2.5210571-0.8969727-4.1689453,1.7041016-5.3531494
		c4.1716309-1.899292,8.819519-5.7999878,12.7643433-3.7416382c3.0374756,1.5848999,1.0681763,7.3499756,1.130127,11.2357788
		C416.9216919,372.5633545,416.8088379,383.416687,416.8088379,394.2681885z"/>
	<path class="st0" d="M236.1467896,409.7811279c5.1276245-4.7863159,9.9840698-9.8640137,14.9249878-14.8485718
		c0.8775024-0.8851929,1.6190796-1.9051514,2.5343628-2.9951172c-0.6213989-0.9157715-1.0474243-1.765686-1.6738892-2.4251709
		c-1.8668823-1.965271-3.9530029-3.7375488-5.6923218-5.8049316c-2.2665405-2.6939697-4.0601807-2.7653809-6.5576172-0.0964355
		c-5.0106812,5.3546753-10.3900757,10.3624268-15.484375,15.6417236c-1.9880371,2.0601807-3.4716797,2.2144775-5.4910278,0.0383301
		c-3.361084-3.6222534-6.9553833-7.02771-10.442688-10.5332031c-8.7393188-8.7850342-8.6679688-8.7227173-17.0307617,0.300354
		c-2.0130005,2.171936-1.9124146,3.5576172,0.1179199,5.524231c5.2694092,5.104126,10.2546387,10.5076904,15.6264648,15.4975586
		c2.7362671,2.541748,2.4432983,4.21521-0.1206055,6.5392456c-3.5413818,3.2098999-6.8078613,6.7230835-10.1918335,10.1066895
		c-8.3237915,8.3228149-8.2070313,8.2041626,0.0843506,16.3497314c2.7098389,2.6621094,4.2759399,2.1293945,6.5770874-0.2921753
		c5.0527344-5.3172607,10.3873291-10.3656006,15.5009766-15.626709c1.8444824-1.8977051,3.2640381-2.0284424,5.1407471-0.0402832
		c3.5023193,3.7103271,7.1802979,7.2548218,10.7845459,10.8689575c8.4656372,8.4890747,8.3862915,8.4136963,16.6964722-0.2930298
		c2.1994629-2.3044434,2.0938721-3.7641602-0.1053467-5.8756714c-5.1765137-4.9698486-10.0199585-10.293457-15.2972412-15.1488037
		C233.1540527,414.0062256,233.458313,412.2906494,236.1467896,409.7811279z"/>
	<path class="st0" d="M286.0062256,332.5878906c-12.4129639-0.0266724-22.5861816,10.0629883-22.5842896,22.3988647
		c0.0022583,14.3552246,9.3775024,23.9699097,23.3608398,23.9572144c13.4434204-0.012207,23.0194092-9.7121582,22.9974365-23.295166
		C309.7581177,341.9960327,300.090271,332.6181641,286.0062256,332.5878906z M286.1266479,362.9232178
		c-3.637207-0.2991943-6.8641968-3.9488525-6.6283569-7.4966431c0.2416992-3.6375122,3.8074951-6.9107056,7.3790283-6.7735596
		c3.6057129,0.1384888,7.0040283,3.7033691,6.9068604,7.2454834
		C293.6825562,359.6043701,289.7406006,363.22052,286.1266479,362.9232178z"/>
	<path class="st0" d="M233.0722046,126.5654907c0.0944214-14.3224487-9.1981201-23.918396-23.2538452-24.0131836
		c-12.6317139-0.085144-23.0087891,9.7554932-23.0697632,21.8772583
		c-0.0723877,14.3963623,9.024292,24.3308716,22.3720093,24.4324341
		C223.0267334,148.9677734,232.9855957,139.6970825,233.0722046,126.5654907z M202.8031616,125.5371094
		c0.1345825-3.6324463,3.6125488-6.980896,7.2158813-6.9470215c3.6085205,0.0338745,7.0698853,3.4925537,7.0822144,7.0767212
		c0.0126953,3.6724243-3.864563,7.409668-7.4941406,7.2235107
		C206.0047607,132.7055664,202.6711426,129.1028442,202.8031616,125.5371094z"/>
	<path class="st0" d="M301.7697144,148.8632202c13.8518066,0.0108032,23.3629761-9.5869751,23.3273926-23.5397949
		c-0.0332642-13.0358276-9.9834595-22.8214111-23.18396-22.8005981
		c-13.3709106,0.0211182-23.1700439,9.9092407-23.1564331,23.3666382
		C278.7700195,139.0116577,288.6280518,148.8529053,301.7697144,148.8632202z M301.6165161,118.5436401
		c3.710083-0.1781616,7.5377197,3.4935303,7.5116577,7.2055664c-0.0249634,3.5556641-3.524292,7.0822144-7.0873413,7.1425171
		c-3.5164795,0.0595093-7.0861206-3.3739014-7.2550659-6.9782104
		C294.6212158,122.4025879,298.0385742,118.7155151,301.6165161,118.5436401z"/>
</g>
</svg>
