<?xml version="1.0" encoding="utf-8"?>
<!-- Generator: Adobe Illustrator 19.0.0, SVG Export Plug-In . SVG Version: 6.00 Build 0)  -->
<svg version="1.1" id="Layer_1" xmlns="http://www.w3.org/2000/svg" xmlns:xlink="http://www.w3.org/1999/xlink" x="0px" y="0px"
	 width="512px" height="512px" viewBox="0 0 512 512" style="enable-background:new 0 0 512 512;" xml:space="preserve">
<style type="text/css">
	.st0{fill:#555555;}
</style>
<g>
	<path class="st0" d="M255.8261719,493.9992981c-51.1040192,0.000061-102.2080231,0.0013428-153.3120422-0.0013123
		c-7.597084-0.0003967-7.6425171-0.0088501-7.6467743-7.619751c-0.0221786-39.6052551-0.4477005-79.2170715,0.1575546-118.8130188
		c0.2979202-19.4912415,10.3709183-34.1366577,27.1309662-43.9821167c2.6560822-1.5602417,4.3656616-3.3389282,5.4309921-6.2263184
		c7.3472977-19.9137573,11.504921-40.4081726,12.5395889-61.6445313c1.4932556-30.6483459,0.5370636-61.3013,0.6509857-91.9495697
		c0.0469513-12.6316376,1.9607239-24.8045502,6.0543518-36.6395798c1.3982391-4.0423737,1.124649-7.017189-1.622406-10.4758301
		c-13.571579-17.086937-21.9704971-36.5357437-25.8591614-58.0071526
		c-2.2124329-12.2160263-1.2203751-24.5080338-1.3997879-36.7764435c-0.0351639-2.4041061,1.2172012-3.350462,3.5462265-3.4908485
		c33.3487091-2.0101814,64.872345,3.9519596,93.5976105,21.7002354c3.6126404,2.2321243,5.0296631,1.9215965,7.2419586-1.8190727
		c8.1445618-13.7711391,20.1941376-20.9447842,36.5395508-19.8882008
		c14.5534058,0.9407482,24.6588135,8.7148285,31.5603638,21.0522861c1.3435669,2.4017563,2.026123,3.4696121,4.8623047,1.7100258
		c25.7709351-15.9882412,53.746582-23.7788391,84.193573-22.8527336
		c14.7814636,0.4496098,14.3312988,0.082262,14.7779236,14.5646057
		c0.9879456,32.0345001-8.9126282,60.2776871-28.4801941,85.3503113c-1.7713013,2.2696533-2.1907959,4.3374557-1.1826782,7.0367584
		c5.2076416,13.9442673,6.9083862,28.3826065,6.6949768,43.2455826c-0.339386,23.6306305-0.2478638,47.2705231-0.0781555,70.9046326
		c0.1843872,25.6797485,3.3373413,50.9115601,12.1743164,75.2269592c1.5201721,4.1828003,3.5883484,7.3163147,7.5955505,9.8067322
		c17.6370239,10.9610901,26.4427185,26.8322754,26.3031616,47.8829651
		c-0.2519531,38.0065918-0.059082,76.0161133-0.0629578,114.0243835c-0.0007935,7.6571655-0.0234375,7.6769104-7.6166687,7.6778259
		C358.3536072,494.0022278,307.0898743,493.9992676,255.8261719,493.9992981z M341.3206482,274.1437378
		c7.4934998-7.4426575,12.0753784-16.1266785,13.2583313-26.4143066c2.031189-17.6645508,0.7167358-35.4117432,0.8963318-53.1196594
		c0.1471863-14.5130005,0.898407-29.0875702-1.0797119-43.5290222
		C347.2767639,99.1085281,300.367157,60.646637,247.90065,65.4823532
		c-33.2961426,3.0688248-58.6599426,19.1657715-76.4953156,47.1979675
		c-9.4690704,14.8827286-14.4969482,31.4715347-14.6255798,48.9797134
		c-0.2121277,28.8739777-1.6052704,57.7958679,0.8605652,86.6275024
		c0.8597717,10.0529175,5.6730957,18.6281738,13.0751495,25.9422607c1.249176-2.0691223,0.7890472-3.8601685,0.7909851-5.5435791
		c0.0446167-39.1248779,0.0051575-78.2499084,0.0737915-117.3747253c0.0198212-11.2928009-1.64534-10.1584473,10.6783905-10.359787
		c3.7798004-0.0617828,5.3856964,1.4034882,4.907959,5.0693054c-0.5487061,4.210495,1.7368317,6.215683,4.8669586,8.8214264
		c8.9355316,7.4386444,17.1091156,7.4290619,25.6557617-0.2268829c8.2352295-7.3769684,16.6301727-8.190155,25.0583954-0.1931458
		c0.5614014,0.5326691,1.4913025,0.6764526,2.0541229,1.2082214c7.8137817,7.3827667,15.4905853,6.3211975,22.9571381-0.4495392
		c9.2479553-8.3861237,18.3264465-8.3850555,27.5109558,0.1011963c7.9330444,7.329895,15.6399231,6.6941528,24.0005798,0.0739441
		c3.5546265-2.8146667,6.3572998-4.9735565,5.6608276-9.8617554c-0.4642334-3.2582245,1.2191162-4.7351379,4.478302-4.487915
		c0.7935486,0.0601959,1.5961914-0.0003815,2.3946228-0.0033569c8.7027588-0.0324097,8.7046204-0.0323029,8.7056274,8.4364777
		c0.0045776,39.6040344-0.0007629,79.2080994,0.0397644,118.812088
		C340.5515137,270.0861816,340.026062,272.0348206,341.3206482,274.1437378z M324.8351746,197.4010162
		c0-7.5042572-0.0506287-15.0090332,0.0249634-22.5125122c0.0301514-2.9922485-0.8242188-3.8760223-3.5834656-2.1369019
		c-3.3752747,2.1273804-6.9747009,3.9211884-10.2289734,6.2119141c-2.9654541,2.0874329-5.4201355,1.7150726-8.307312-0.125885
		c-5.920105-3.7747803-12.065033-7.1963196-17.9961853-10.9545593c-2.3449097-1.4858398-4.1912537-1.4681091-6.5445557,0.0232086
		c-5.9297485,3.757843-12.1075745,7.1255798-18.0198059,10.9093475c-2.906189,1.8599243-5.2843781,2.10289-8.295166,0.1448669
		c-5.8838959-3.8264618-12.0485992-7.2182922-18.0044098-10.9383698c-2.4541779-1.5328979-4.5056763-1.6466522-7.0280151-0.0188599
		c-6.0336761,3.8937988-12.2767487,7.4616547-18.3532715,11.291214c-2.4311371,1.5321808-4.5086975,1.7810059-7.0203094,0.0543518
		c-3.413208-2.3465118-7.1235504-4.2557983-10.6135406-6.4972839c-2.5471039-1.6359253-3.7597656-1.3251495-3.670517,1.9239502
		c0.4555054,16.5838776-0.6874695,33.1760406,0.7680206,49.765564
		c3.1822662,36.2710724,36.5404205,65.4724884,75.3908539,61.2964325
		c27.9264832-3.0018311,51.6874695-23.1732788,58.7993774-50.3680725
		C325.436676,222.9124451,324.8120117,210.1498566,324.8351746,197.4010162z M110.5753479,422.2333374
		c-0.0059814,0-0.0119705,0-0.017952,0c0,16.9289551,0.0210114,33.8579407-0.0199203,50.7867737
		c-0.0071259,2.9498901,0.0595169,5.3453369,4.1525269,5.2971191c12.4554214-0.146759,24.914032-0.1008911,37.370636-0.0151062
		c3.1590881,0.021759,3.9440155-1.4329834,4.2102661-4.359375c0.5483398-6.0270386-1.3658295-11.2156372-4.1164703-16.3989258
		c-14.7819824-27.8551025-15.549469-56.1312256-1.963623-84.6297607
		c5.9902039-12.5654602,6.3065643-25.8829346,6.0069733-39.3516541c-0.0368805-1.6582336-0.4221039-2.9244995-2.4608765-2.5379944
		c-9.6936798,1.8377991-19.679245,2.7544556-27.8630142,9.2178955
		c-10.5608292,8.3409119-15.1544037,19.4993591-15.2651978,32.6417542
		C110.4700317,389.3327332,110.5753479,405.7834778,110.5753479,422.2333374z M401.5220337,422.4805603
		c0-16.2704163,0.0205383-32.540863-0.0134583-48.8112183c-0.0093384-4.4750366-0.5227661-8.9318848-1.752655-13.2266541
		c-5.0561523-17.6557007-22.5986328-30.0088196-41.5288696-29.4682312c-1.687439,0.0481567-2.3111267,0.6611633-2.3289185,2.2163086
		c-0.1368103,11.9608459-0.5152893,23.9482117,4.1984558,35.3341064c2.3777466,5.7433777,5.2012329,11.3516846,7.0209656,17.2678528
		c7.3143005,23.7796021,5.463501,46.899231-5.8549194,69.1543274c-2.9552612,5.8109131-6.1696472,11.3980103-5.5175781,18.447937
		c0.3428345,3.7062378,1.3869934,4.9967957,5.0914001,4.9450378c11.6422119-0.1626282,23.293457-0.2622375,34.9300232,0.0420532
		c4.7996216,0.1254883,5.8864441-1.7169189,5.8312378-6.1343994
		C401.3904724,455.6608582,401.5146484,439.0699463,401.5220337,422.4805603z M223.7926483,478.2845459
		c0.0507202-0.3796082,0.1014557-0.7591858,0.1521759-1.1387939c-4.6100922-3.1157227-9.1365814-6.3662415-13.8614349-9.2969666
		c-2.8659821-1.7777405-3.1101227-3.4692078-1.2199707-6.1647034c4.0052643-5.7118225,7.7878571-11.5797729,11.7128143-17.4602356
		c-1.2861176-0.5478821-1.835022,0.1886597-2.4709015,0.5393982c-18.7362213,10.3331299-40.1208038-4.2970276-39.0503387-23.5776367
		c0.7244568-13.0483093,0.2579346-26.1711731,0.0936127-39.257782c-0.1261292-10.0451355,4.164917-17.6429749,12.5386658-22.7132568
		c8.771759-5.3112793,17.8789978-4.9932556,26.8818054-0.149353c1.2633209,0.6796875,2.2919769,2.3292847,4.4593658,1.2396545
		c-6.4521027-11.7736206-10.8726044-24.1588135-12.6247864-37.418396c-0.3875732-2.9330139-2.2531433-2.9186401-4.5537109-2.4442444
		c-7.1840515,1.4815063-14.4169159,2.7358093-21.5779114,4.3178101
		c-14.591507,3.2235413-12.5478668,0.0097351-12.2775574,15.2565002c0.255661,14.4194336-1.2903442,28.1895142-7.6714325,41.403717
		c-10.5259094,21.7973938-10.2120361,43.8190918,0.8239288,65.3580627c4.3666229,8.5223999,8.156311,16.9083862,6.7579956,26.775238
		c-0.4956207,3.4971924,1.1239166,4.8121643,4.6585236,4.7463379c8.4565582-0.1575623,16.918396-0.0242004,25.3781128-0.0166626
		C209.2252808,478.2896729,216.5089722,478.2845459,223.7926483,478.2845459z M287.4298096,477.5636597
		c1.2316895,0.3881531,1.6539001,0.6368408,2.0767822,0.6378784c15.4862061,0.0380554,30.9729614-0.0090332,46.458313,0.1183167
		c3.5307922,0.0290527,4.6036987-1.685791,4.1911316-4.7285767c-1.3124084-9.6798401,1.720459-18.2246399,6.6395569-26.3154907
		c0.4131165-0.6795044,0.7329712-1.4181824,1.0675964-2.1424866c9.6611938-20.9096375,10.0198669-41.8754578,0.3275757-62.8800049
		c-3.219696-6.9775391-5.966156-14.0794067-7.2305603-21.7278137c-1.5766296-9.5376892-0.4711914-19.1195679-0.7183838-28.6757202
		c-0.0853271-3.2993469-1.1146851-4.9472656-4.4147339-5.562439c-9.7207031-1.8120728-19.4293213-3.708313-29.0896606-5.8147583
		c-3.5235901-0.76828-5.015564,0.3383484-5.3804932,3.7837524c-1.2293091,11.605896-5.3020325,22.2928772-10.6381836,32.5715942
		c-0.6062317,1.1677856-1.8497314,2.2766113-0.9726563,4.1716309c1.8804016-0.9882813,3.6619568-1.9764099,5.4871826-2.875946
		c17.5217285-8.6349182,37.6943359,3.9062195,37.6504211,23.3751526
		c-0.0312805,13.8897705,0.0572205,27.7801819-0.0358276,41.6694031
		c-0.0901794,13.4613037-11.318573,24.4461365-24.7435913,24.8855896
		c-5.9080811,0.1934509-11.1412659-1.456543-17.2774048-4.9336853c4.5622864,6.8618774,8.1677856,12.6956482,12.2118225,18.2076721
		c2.2988586,3.1334534,1.8233948,4.966217-1.3068542,6.8960571
		C297.0613403,471.1031799,292.5332947,474.2135925,287.4298096,477.5636597z M286.5366211,306.5071411
		c0-1.5970459-0.1097717-3.2031555,0.0221558-4.7892151c0.3017578-3.6278381-0.5119324-4.7873535-4.5449524-3.4479065
		c-17.3423767,5.759552-34.8134918,5.7227173-52.1743774-0.0448914c-3.0077515-0.9992065-4.2672119-0.9675903-4.3672028,2.7548828
		c-0.7190094,26.769928,6.8940735,50.3492737,26.0422363,69.680603c4.6146088,4.6586914,4.46698,4.6802063,9.187912-0.1558838
		C278.0830078,352.7000732,286.5001831,331.3021851,286.5366211,306.5071411z M139.5639954,34.3654709
		c-5.3925629-0.9328308-6.172821,1.1242676-6.0041504,4.459301c1.1353912,22.4499664,7.2458649,43.2581291,20.0397797,61.9379539
		c3.1511078,4.6007767,3.1846771,4.6914291,6.1548462,0.1388397c6.6778717-10.2355881,14.9291229-19.0186691,24.3935547-26.7164536
		c7.3390656-5.9691238,15.3017426-10.9323196,23.878418-14.877037c3.3700867-1.5500183,3.4143677-2.8381996,0.2122955-4.5151329
		c-0.9867706-0.5167732-1.9242859-1.1275902-2.8843384-1.6953583
		C184.58992,40.8177757,162.0883942,34.6796265,139.5639954,34.3654709z M378.4143066,38.5670662
		c0.1856995-4.0329819-0.5624084-4.7857933-4.6040344-4.491169c-2.7006226,0.1968689-5.3878174,0.6014824-8.0899658,0.7506027
		c-22.4942322,1.2413559-43.0398865,8.4564247-62.1514893,20.1367264c-2.514679,1.5368767-3.5387878,2.5706444,0.0800476,4.2190933
		c20.4107666,9.2974777,36.7601624,23.4155273,48.9068604,42.2561035c2.2966919,3.5623856,3.3042908,3.0294342,5.4330139-0.0408783
		C371.0992126,82.4878464,377.6223145,61.476593,378.4143066,38.5670662z M194.9163055,402.2103882
		c0,5.7490845-0.0905609,11.4998474,0.0194244,17.2467957c0.2093811,10.9423218,7.5636139,15.3337402,16.9693604,10.0229187
		c7.2278137-4.0810242,14.2568359-8.5128174,21.4194641-12.7115479c2.094162-1.2275696,2.9649506-2.4033813,1.719696-4.9607849
		c-3.1867676-6.5445251-3.1910553-13.2997742-0.0673218-19.8714294c1.1476746-2.4144287,0.741806-3.7257996-1.4972076-5.02948
		c-7.1730957-4.1765442-14.1939087-8.6181335-21.414093-12.7093506c-9.5238953-5.396637-16.7332153-1.2499084-17.1052856,9.809021
		C194.7564087,390.0679932,194.9238739,396.1420288,194.9163055,402.2103882z M317.1803894,402.2854309
		c-0.005127,0-0.0102539,0-0.0154114,0c0-3.1882324,0.0003052-6.3764954-0.0000916-9.5647278
		c-0.0003662-3.3475952,0.0210571-6.695343-0.0067139-10.0427246c-0.0594788-7.1686096-7.0759583-14.6295471-16.0898743-9.0697937
		c-7.3235474,4.5171814-14.7636719,8.8491516-22.221405,13.1428223c-2.371521,1.365387-3.0071716,2.6933899-1.6768494,5.3400269
		c3.2070007,6.3801575,2.9198608,12.9953613-0.0020447,19.3717651c-1.2168884,2.6556396-0.6590271,4.0197449,1.6974792,5.3841248
		c7.3083191,4.2314453,14.6694336,8.3926697,21.7759094,12.9465637c9.3440247,5.9877014,16.8893738-1.7940369,16.5830994-9.8150024
		C316.9996033,414.0888367,317.1803894,408.1836853,317.1803894,402.2854309z M154.2079163,280.0298462
		c-1.9632568,11.1222839-4.1517639,20.7298889-7.0217285,30.1745605c-1.5466919,5.0899048-1.0507202,5.5966797,4.3032532,4.5330811
		c16.1155701-3.2016296,32.2224884-6.4468689,48.3365173-9.65625c10.6270142-2.1165771,10.5525513-2.0984497,10.0559845-12.7810669
		c-0.1254883-2.6996765-1.1844482-4.4671936-3.3620148-5.8911743c-5.5283661-3.6152649-9.8869019-8.5386353-14.5363922-13.1419678
		c-1.3972015-1.3833313-2.019455-3.5762329-4.7793884-4.6195984c0,10.1609497-0.1097717,19.8428955,0.0528259,29.5202637
		c0.0671387,3.9959717-1.0161743,4.7146301-4.673645,2.9761047
		C172.1125793,296.1665955,162.4181519,290.1785889,154.2079163,280.0298462z M324.8702393,269.1940308
		c-5.5908203,4.9720459-9.9651794,10.6762085-15.8384705,14.3878174c-5.8490601,3.6963196-7.459259,8.3224487-6.9411621,14.7424622
		c0.2751465,3.4089966,1.1530762,5.0778503,4.7503967,5.7583008c16.5821838,3.1365051,33.111908,6.5504456,49.6593933,9.8703003
		c9.9290771,1.9920349,10.049469,1.9609985,7.1577759-7.9098816c-2.3884583-8.1531372-3.8340454-16.5346069-5.927887-25.7601013
		c-8.0606079,9.5780029-17.2894287,15.9229736-27.7758484,20.5490723c-4.7946777,2.1151123-5.0528259,2.0928955-5.0733337-3.049408
		C324.8430786,288.2532043,324.8702393,278.7235413,324.8702393,269.1940308z M235.0660553,50.4853516
		c14.1902466-2.2772751,27.928299-1.9400215,41.7157135-0.1062927
		c-1.1028442-8.6500816-10.5534973-15.9989357-20.4585571-16.2124176
		C246.5190582,33.9553299,236.9456177,41.106739,235.0660553,50.4853516z M256.6813049,453.7308655
		c-0.4306641-0.0054626-0.8613129-0.0109558-1.2919922-0.0164185c-1.8348846,7.3132019-3.6939697,14.6205139-5.4857178,21.9443054
		c-0.3911133,1.5986328,0.541275,2.4393921,2.0655823,2.4845581c2.7013855,0.0800781,5.407196,0.0948181,8.1091309,0.0391846
		c1.5236206-0.0313416,2.4761963-0.8703308,2.0869751-2.4682617
		C260.3778992,468.3765564,258.5162659,461.0569458,256.6813049,453.7308655z M255.7519836,394.6415405
		c-3.5689545,0.1427612-7.0068665,3.8031616-6.8711395,7.3157349c0.138916,3.5943909,3.6828766,7.0472717,7.2021332,7.0171204
		c3.7342224-0.0320435,7.3722839-3.8978577,7.118988-7.5647278
		C262.9574585,397.8695068,259.2502441,394.5015869,255.7519836,394.6415405z M240.4033661,445.5925598
		c-0.3263245-0.1339417-0.6526489-0.2678528-0.9789886-0.4017639c-2.904068,4.3520203-5.8106384,8.7023926-8.7105103,13.0572205
		c-0.738678,1.1092529-1.3623352,2.28125-0.1587372,3.4360046c1.1502533,1.1035767,2.3820648,2.4064636,3.9983673,2.4408569
		c1.5926819,0.033844,1.7026978-1.673584,2.0013275-2.8542175
		C237.8743744,456.053894,239.126709,450.8201599,240.4033661,445.5925598z M272.6500244,445.2149048
		c-0.3337402,0.1261902-0.66745,0.2523804-1.0011597,0.3785706c1.2824707,5.2288208,2.540863,10.4637451,3.8658142,15.6817932
		c0.2997437,1.1803589,0.47052,3.0432129,1.9888306,2.8002014c1.4411011-0.2307129,2.8196411-1.3899841,4.0295715-2.3804321
		c1.2912903-1.0570679,0.5758972-2.3111877-0.1572876-3.4128113
		C278.4737854,453.9220886,275.5596619,449.5700073,272.6500244,445.2149048z"/>
	<path class="st0" d="M255.6708221,271.633728c-14.504303-0.0097046-26.9780731-9.9833679-30.0413361-24.0202332
		c-1.2342682-5.6558685-0.276886-6.8895264,5.4233856-6.9542236c1.7552185-0.0199432,3.5205994,0.1164703,5.2642212-0.026825
		c3.2411957-0.2663574,4.8105927,0.9990234,5.6497498,4.2972107c1.5804596,6.211853,7.437912,10.5956268,13.6479492,10.8863678
		c5.7075043,0.2672272,12.7319183-4.2167206,14.2635956-10.1425781c1.1741333-4.5425873,3.7237244-5.1240845,7.6296997-5.1065369
		c10.2888794,0.0462341,11.15448,1.1538391,7.758728,11.0251923
		C281.0412292,263.8758545,269.571228,271.6430054,255.6708221,271.633728z"/>
	<path class="st0" d="M225.5024872,195.063797c-0.065567,4.6020813-3.2285004,7.6252899-7.8941956,7.5454712
		c-4.6335144-0.0792999-7.7327423-3.2008667-7.733078-7.7888184c-0.000351-4.7637787,3.3784485-8.000351,8.1808624-7.8365784
		C222.5685883,187.1378021,225.5690155,190.3934937,225.5024872,195.063797z"/>
	<path class="st0" d="M294.5056152,186.9848328c4.5517273,0.0592194,7.6338806,3.2251129,7.6573792,7.865509
		c0.0236816,4.669281-3.0248718,7.749939-7.6796265,7.7604675c-4.8404236,0.0109406-8.0692444-3.2608795-7.9468079-8.0527191
		C286.6520081,190.0393219,289.9288025,186.9252777,294.5056152,186.9848328z"/>
</g>
</svg>
