<?xml version="1.0" encoding="utf-8"?>
<!-- Generator: Adobe Illustrator 19.0.0, SVG Export Plug-In . SVG Version: 6.00 Build 0)  -->
<svg version="1.1" id="Layer_1" xmlns="http://www.w3.org/2000/svg" xmlns:xlink="http://www.w3.org/1999/xlink" x="0px" y="0px"
	 width="512px" height="512px" viewBox="0 0 512 512" style="enable-background:new 0 0 512 512;" xml:space="preserve">
<style type="text/css">
	.st0{fill:#555555;}
</style>
<g>
	<path class="st0" d="M255.5610962,493.9466553c-50.9377441,0-101.8754578,0.0003052-152.8132019-0.0003967
		c-7.8110962-0.0001221-7.8208923-0.0022583-7.8669891-7.8829651c-0.0233612-3.9917297-0.1265564-7.988739,0.0357971-11.973999
		c0.1249008-3.0657043-1.2086639-4.4529419-4.0653381-5.4899597c-22.7006378-8.2405396-37.0168991-24.0531006-41.2531624-47.9642639
		c-2.7987137-15.7970886-0.0049973-30.9292297,9.3538361-44.2860107c2.965271-4.2320251,3.4381104-7.7686462,1.569416-12.7343445
		c-8.6365433-22.9498596-12.5944176-46.7290344-11.6427383-71.3230591
		c0.9271584-23.9602966,20.6350098-48.7408142,44.6386108-55.5631409c5.0639877-1.4393005,10.2901993-2.3647308,15.2614517-4.056488
		c4.4765396-1.523407,6.7334366-0.5529022,8.8182907,3.9229279c10.3713531,22.2654877,26.1698303,39.9045563,46.8336334,53.1646881
		c12.6213226,8.0992432,26.3288422,13.5777588,40.9424896,16.9092407c3.310791,0.7547913,4.4620361,0.0849609,4.6202698-3.5361633
		c0.2303314-5.2711487-0.897644-9.2358704-5.328476-12.8156433c-7.6407471-6.1731262-13.3146057-14.1704102-17.6919861-22.9850159
		c-1.1153259-2.2459412-2.4311676-3.3146362-5.0747528-3.4498901
		c-16.8049164-0.8600159-31.2155609-12.1455688-36.0651855-28.2427521
		c-1.7010193-5.6461182-2.8717041-11.4497528-4.4570923-17.1333466
		c-4.0654144-14.5745239-11.5617828-27.6488647-18.1499786-41.1178436
		c-2.6941833-5.5079803-2.5693893-5.8360901,3.5531311-5.7293396c5.8888092,0.1026611,11.8098602-0.6730042,17.6659698,0.6414948
		c3.8549805,0.8653107,4.238205-1.6277924,4.1199951-4.4954224c-0.4364777-10.5901947,0.4905701-21.023468,3.286499-31.2880096
		c6.4354858-23.6263885,19.4817963-42.8295288,38.6889954-57.8768616c2.5562286-2.0026016,3.8287811-4.1994019,4.4292755-7.4338531
		c5.2083282-28.0536842,23.5759125-47.1387787,49.8750916-52.1410294
		c32.9451447-6.2663488,65.5072479,15.7702274,71.6013031,48.8614502c1.0563049,5.7357559,3.5019836,9.4087372,7.9405823,13.1747055
		c25.1745605,21.3595047,38.9536133,48.4230957,39.1253967,81.8493652c0.0464172,9.0320129-0.0040283,8.9732513,8.8427429,8.7163544
		c4.9461975-0.1436615,9.8996887-0.0153198,14.8489685-0.0815887c3.1803284-0.0425873,4.0732727,1.1317444,2.5380554,4.0595703
		c-1.8532104,3.534317-3.5033875,7.1753387-5.3658752,10.7045135c-7.6342773,14.4659271-13.6872253,29.477829-17.0914307,45.5690002
		c-4.2370911,20.0283356-21.7662964,31.8820496-37.5465393,32.0082703
		c-2.2554321,0.0180664-3.4632263,1.0379028-4.3834534,2.9703064c-4.887207,10.263092-11.9836121,18.7938232-20.6356506,26.0969238
		c-2.1665649,1.8287659-3.5734253,10.4172974-2.2828369,12.9790955c0.9720154,1.9294434,2.5050049,0.965271,3.7644348,0.6982727
		c20.0485229-4.2505493,37.9460144-12.9785461,53.8739929-25.8565979
		c15.1808167-12.2739258,26.6600647-27.4177094,34.8595276-45.0405731c1.7165527-3.6893311,3.7480469-4.2973938,7.4771118-3.3773956
		c13.3742065,3.2994843,26.6668091,6.5568695,37.5601501,15.8186798
		c14.5230713,12.3479462,22.5697632,27.7933197,23.2192383,46.9557648
		c0.8283997,24.4438477-3.7639465,47.9439392-12.419342,70.7101135c-1.1326904,2.9792786-0.966156,5.2944336,0.9380493,7.980011
		c18.7272034,26.412262,14.5224304,61.9458923-9.0093994,82.4707031
		c-6.2297668,5.4336853-13.2145386,9.5258179-21.0339966,12.0693665c-3.251709,1.0576782-4.6850891,2.7037659-4.5092163,6.1867676
		c0.2332764,4.618927-0.1381226,9.2696838,0.1243591,13.885498c0.2389832,4.2025452-1.4107361,5.5566101-5.5556946,5.5256958
		c-19.9585571-0.1490479-39.9188843-0.0533447-59.8786011-0.0543518
		c-16.1274719-0.0008545-32.2549438-0.0190125-48.3823853-0.0233765c-15.967804-0.0043335-31.9355774-0.000946-47.9033508-0.000946
		C255.5610962,493.9294128,255.5610962,493.9380493,255.5610962,493.9466553z M401.5171204,426.4357605
		c0-1.9160156,0.0486755-3.8334656-0.0076599-5.7478027c-0.4783325-16.2606201,1.1623535-32.5736694-0.9543762-48.7868652
		c-1.8111877-13.872467-13.4891968-27.2596741-26.8342285-30.1069031
		c-22.9289856-4.8919067-45.9680176-9.2666016-68.9349976-13.9840088c-2.5968628-0.5333557-3.586792,0.3647461-3.9405518,2.6376953
		c-0.4898987,3.1477966-0.9581909,6.299469-1.3894653,9.4558105
		c-6.0422668,44.2210693-12.0530396,88.4464722-18.1523438,132.6596375
		c-0.5628967,4.0804443,0.467926,5.7989197,4.9344482,5.7393494c15.32547-0.2045593,30.6560974-0.1681519,45.9829102-0.024353
		c3.4889526,0.0327454,5.6434021-1.3889465,7.4645691-4.1379089c8.388916-12.6627197,9.73349-26.4182129,6.2768555-40.8361206
		c-2.3088989-9.6307373-2.3825073-9.4211121,6.7620544-13.9109802c3.8242188-1.877594,5.4410706-0.7477112,6.6868286,2.8388672
		c5.9879456,17.2392883,6.3706055,34.4031982-0.8591309,51.3561401c-1.5632019,3.6654663-1.0755005,4.7431335,2.9634399,4.68927
		c11.4940796-0.1532898,22.9964905-0.2463989,34.4853821,0.043335c4.6204224,0.1165466,5.6395874-1.7092896,5.5889893-5.9013367
		C401.4048767,457.0935669,401.5166931,441.7639771,401.5171204,426.4357605z M110.5771179,425.722229
		c0,15.8028259,0.0694427,31.6061707-0.0531921,47.4080811c-0.0275726,3.5534973,0.8796921,5.2177124,4.8225021,5.1542664
		c11.809288-0.1899719,23.6244278-0.1325989,35.4356918-0.0149841c3.6896515,0.0367126,4.4280701-0.9160461,2.8461456-4.4317322
		c-6.7052765-14.901825-6.6352081-30.3796387-2.8904572-45.9172974c2.6707153-11.0812378,3.2106018-10.9762268,13.5097961-6.1013794
		c4.1408234,1.9599915,4.4593506,3.9278564,3.0491638,8.0885925c-5.1964111,15.3320313-3.8856964,30.1430359,4.9680328,44.0089417
		c1.7458954,2.7342224,3.8569031,4.3788452,7.3720551,4.3528442c15.6426086-0.1155701,31.2871399-0.1188049,46.929657,0.0063477
		c3.7653961,0.0300903,4.7766724-1.621582,4.2910004-4.9909058c-1.0912781-7.5704651-2.1347046-15.1479492-3.1771088-22.7254028
		c-3.3881989-24.6298218-6.7812958-49.2589722-10.1444855-73.8922424
		c-2.0266266-14.8438416-3.9961853-29.6954651-6.0032349-44.5420227c-0.4326019-3.2000427-1.3041229-5.0664368-5.497757-4.1748047
		c-21.3677826,4.5429993-42.785965,8.8601685-64.233551,13.0133362
		c-19.1509705,3.7084351-31.1803589,19.7710266-31.2287674,39.7435303
		C110.5362396,395.7122803,110.5654221,410.7172546,110.5771179,425.722229z M332.8354492,167.0470276
		c0.0122986,0.0000153,0.0245361,0.0000305,0.0368347,0.0000458c0,5.109787,0.0119019,10.219635-0.0051575,15.329361
		c-0.0081482,2.449585,0.7088623,3.2998352,3.1103821,1.8014679c2.9745483-1.8559113,6.0471802-3.5650635,9.1477661-5.2046356
		c1.9272156-1.019104,2.6607666-2.4766541,2.734314-4.6156921c1.0712891-31.1572723-8.2129517-58.0059128-31.9371948-79.2878647
		c-27.6478271-24.8016663-72.0515594-29.8223724-104.045105-10.9719543
		c-30.2897491,17.8465576-45.7161713,44.6195755-47.8191528,79.694603
		c-0.585022,9.7575073,1.4074554,16.2443695,11.0466003,20.0287323c4.0452271,1.5881653,4.1902924,0.6858063,4.1557159-2.6913605
		c-0.0882568-8.6219025-0.0361633-17.2453461-0.0222321-25.8681335c0.0106964-6.6094208,0.0228729-6.6094208,6.6745911-6.6334381
		c8.9277954-0.0322418,8.9277954-0.0322266,8.9602814,8.6750183c0.0198517,5.3237457-0.0001526,5.2733154,5.1979828,3.2118683
		c18.3584137-7.2803955,35.9191742-5.9358215,52.408905,5.2120361c2.5372009,1.715271,4.3397827,1.6650543,6.8518066,0.02211
		c16.8750305-11.0370483,34.7262268-12.8138733,53.3151245-4.8729401c3.5773621,1.528183,4.7029419,1.286499,4.6431885-2.8843994
		c-0.143219-9.9912567-1.2910461-9.3431396,9.6585693-9.3619537c0.6386719-0.0010986,1.2791748,0.0477753,1.9156799,0.0140076
		c2.8523865-0.1513672,4.0360413,1.2271423,3.9919128,4.0322723
		C332.7808838,157.4653778,332.8354492,162.2566223,332.8354492,167.0470276z M194.8867645,212.0234833
		c0.4052124,7.9961395-0.3185577,18.0161896,0.7595367,28.0686646
		c3.7266693,34.7480927,37.8888702,59.8056488,72.2390137,52.6758881
		c29.145752-6.0494995,49.0059204-30.8327637,49.3032227-61.706665c0.133667-13.8779144-0.2367554-27.7655945,0.1553955-41.6337433
		c0.1612244-5.7013397-2.4095154-8.8945007-6.8482056-11.4648438c-15.9483643-9.2353668-33.7215576-7.1860352-47.1477661,5.4842682
		c-7.2642212,6.8552399-7.2642212,6.8552399-14.6832886-0.0841217
		c-14.4610443-13.5260162-35.9511871-14.8374634-50.3204498-3.1881104c-2.4374084,1.9760132-3.6027832,4.113205-3.519455,7.3253632
		C195.0191193,194.9930573,194.8867645,202.4943848,194.8867645,212.0234833z M389.6481628,330.3279419
		c0.314209,0.5048523,0.418335,0.848053,0.6496582,1.0135803c1.0376282,0.7425537,2.1455078,1.388916,3.1669922,2.1517334
		c14.8983154,11.1245422,23.9284668,25.2889404,23.781311,44.5505371
		c-0.1756287,22.9882202-0.0290527,45.9790039,0.0068054,68.968689c0.0085144,5.4587402,0.7792358,5.8700562,5.7149353,3.2800903
		c18.3638-9.6362305,27.6407166-30.3301697,22.9470215-50.5563965c-2.1260376-9.1615295-7.523468-16.4736328-12.6410828-23.9666748
		c-1.5914307-2.3301697-2.1748352-4.4065247-1.0560303-7.0900574c8.8579407-21.2459717,13.6182251-43.2411804,14.9000244-66.3723755
		c1.3512878-24.3840027-14.22229-45.6703186-36.6860657-50.9949341c-3.4764404-0.8240356-5.1124268,0.006897-6.8562622,3.0017853
		c-15.8520203,27.2249908-38.434845,46.9591827-67.1356812,59.806839c-1.1925049,0.533783-2.9243164,0.4351501-3.4476013,2.6925659
		c6.4111633,1.2581177,12.9027405,2.0397034,19.0833435,3.8708191c7.5388489,2.2336121,14.3600769,0.8943176,21.4165039-1.8035889
		c13.1594543-5.0313416,25.7688599-11.0797119,37.8937378-18.2669067c10.127594-6.0033264,10.1807556-5.732605,16.163269,4.7746887
		c1.4433594,2.5350647,1.1650085,3.9603271-1.3233948,5.3601685c-5.14505,2.8941956-10.1170349,6.1052551-15.3257751,8.8747253
		C403.9082031,323.3406372,396.7598267,326.7633667,389.6481628,330.3279419z M179.2650909,316.3386841
		c-0.4837494-0.5275574-0.7242737-1.0090027-1.1015778-1.1701355
		c-30.3549805-12.9631348-54.1750107-33.3282471-70.4747314-62.2033539
		c-1.131279-2.0040588-2.5457764-2.3655243-4.7667999-1.9396057c-19.2137146,3.6844635-35.1761017,20.6714935-37.4682465,40.0322723
		c-1.324173,11.1847839-0.0114746,22.2779236,1.5407333,33.3027344c2.101799,14.9283142,6.4904861,29.2720642,12.454834,43.1070251
		c1.4331512,3.3242798,1.0336075,5.9868469-1.0882034,8.8627625c-2.6488724,3.5902405-5.0860596,7.3648682-7.3136139,11.2332153
		c-12.9000816,22.4019775-4.8671341,50.3460693,17.9136887,62.5943298c5.1762848,2.7830505,5.8991394,2.3645935,5.9017563-3.4191895
		c0.0106277-23.4745789,0.0259933-46.9491272,0.0292435-70.4237061
		c0.0018234-13.1036377,5.0449982-24.1411743,13.5907898-33.8414612c4.0921402-4.644989,9.0803757-8.2182312,14.4676132-12.0741577
		c-10.8895721-5.1131287-21.0752869-10.0524902-30.8235779-15.8322144
		c-9.6243134-5.7062378-9.4692612-5.5994873-3.7512512-14.9953308c2.1700974-3.5658875,3.9489136-4.0988464,7.5384216-1.8510742
		c10.694519,6.6968689,22.2592392,11.8153076,33.3620911,17.7425537
		C146.0642395,324.4256592,162.3620605,321.3787231,179.2650909,316.3386841z M225.5851288,312.2902222
		c-0.3833313,2.9283142,0.526413,6.2080383,0.9546814,9.513855c1.9436035,15.0029602,4.0344696,29.9867249,6.0507965,44.9803467
		c0.3927612,2.9205933,1.4595337,4.9596558,4.7735748,5.6098633c5.7451019,1.1272278,10.69664,4.1607361,15.302002,7.6113892
		c2.3768158,1.7808838,4.0506439,2.2146301,6.5973358,0.1669312c4.6231384-3.7172546,9.8493042-6.5627747,15.7022705-7.8638916
		c2.8232422-0.6276245,3.9664307-2.1738586,4.2891235-4.8710327c0.6049805-5.057312,1.4520874-10.0858459,2.0438232-15.1444397
		c1.6825867-14.3837585,4.7149048-28.5986328,5.2542725-43.1299438c0.1508179-4.0645142-0.8807373-5.0020142-4.900177-3.5191956
		c-16.115448,5.9450378-32.4624634,5.829834-48.8257751,0.9953613
		C225.4639435,304.4640198,225.4965668,304.3535767,225.5851288,312.2902222z M255.8376465,478.1903381
		c8.2471924,0.0914612,8.3682556,0.1083374,9.3306274-6.7991638c3.6030273-25.8612061,7.1260071-51.7335815,10.6494446-77.605835
		c0.1644897-1.2077332,0.6558533-2.7275085-0.6832886-3.4972229c-1.2790833-0.7350769-2.4333191,0.3464355-3.4924011,0.9702759
		c-4.8776245,2.8730164-8.638092,7.0491943-12.4713745,11.0874023c-2.3161316,2.4399719-4.0687408,2.3411255-6.3092957-0.0305176
		c-3.4984436-3.7030334-6.9382019-7.5123596-11.2801971-10.2919922c-1.4230499-0.9109497-2.9819641-2.7102661-4.6455994-1.641571
		c-1.6724701,1.0743103-0.627655,3.1964417-0.3983002,4.8840332c1.7793579,13.0925293,3.5437927,26.1870422,5.3420258,39.2769775
		c1.8200226,13.2485962,3.7476807,26.4830933,5.4564972,39.7459106c0.3936157,3.0551147,1.7552338,4.1837463,4.6764374,3.9208069
		C253.2776794,478.09552,254.5619202,478.1903381,255.8376465,478.1903381z M213.3851929,65.003479
		c28.7125702-11.4857178,56.8305969-11.2967339,85.2581787-0.1101379
		c-6.1380005-18.8787613-23.2925415-30.3883286-42.3091431-30.7067032
		C237.1125031,33.86483,219.2404938,46.799202,213.3851929,65.003479z M148.419632,189.8083801
		c0.1005402,1.0501556,0.0240326,1.5601959,0.2049713,1.9510498c5.7115021,12.3369446,9.4465637,25.2914276,12.6541595,38.4757385
		c1.9175873,7.881897,7.3202209,13.2716675,14.9921875,16.1502228c1.5914764,0.5971222,3.8231812,1.5427094,3.4988861-1.6672058
		c-1.1562347-11.4445953-0.2424622-22.9128418-0.55867-34.3643951c-0.0439606-1.5911102,0.0875092-3.3072052-1.2997284-4.4324799
		C169.2260742,198.8760223,160.2641296,192.3167725,148.419632,189.8083801z M364.1039429,190.2312469
		c-2.3477173-0.3836975-3.7835388,0.3536377-5.2689209,0.8218689c-8.3590088,2.6351471-15.3060608,7.6618195-22.2217712,12.830658
		c-2.7027588,2.0200653-3.8019104,4.2209625-3.8226318,7.594986c-0.0673828,10.9775085,0.7115479,21.973053-0.4616394,32.9324799
		c-0.3068542,2.8670197,1.1801453,2.8849945,3.1943054,2.1303253c7.8366699-2.9363556,13.3721924-8.3477478,15.3348083-16.440567
		C354.127655,216.6192474,357.9828491,203.3734283,364.1039429,190.2312469z"/>
	<path class="st0" d="M255.8023834,271.587616c-14.4231567-0.0023804-26.5700836-9.495575-29.9981537-23.4427948
		c-1.5341339-6.2416534-0.6098938-7.4820404,5.6229706-7.5311737c1.4361572-0.011322,2.8839569,0.1151123,4.3064423-0.0246429
		c3.5553589-0.3493042,5.4406128,0.8305664,6.3454742,4.6495514c1.3966217,5.8945313,7.3427887,10.1591187,13.4284668,10.5218201
		c5.458786,0.3252869,12.0952606-4.1025085,14.3421173-9.5197449c0.8118591-1.9573669,0.4367371-4.9432526,3.2619934-5.333725
		c4.0900574-0.5653229,8.3557129-1.0288544,12.3202209,0.3025818c2.1584473,0.7248993,1.477478,3.3150024,1.2337341,5.1408234
		c-1.7880554,13.3946533-14.9694824,25.0385132-28.469574,25.2340698
		C257.3983459,271.5959473,256.6002808,271.5858765,255.8023834,271.587616z"/>
	<path class="st0" d="M225.5134888,202.4107971c-0.0183868,4.7209778-3.0683746,7.7861481-7.7836761,7.822464
		c-4.6712494,0.0359802-7.7901001-3.0698395-7.8022614-7.7696533c-0.0121765-4.7024841,3.0781403-7.8097687,7.7733459-7.8160095
		C222.4115295,194.6413116,225.5316772,197.7417297,225.5134888,202.4107971z"/>
	<path class="st0" d="M302.1716309,202.8205414c-0.1915588,4.6103973-3.4449158,7.554306-8.1922913,7.4130096
		c-4.565979-0.1358948-7.5619812-3.4514923-7.3916931-8.1802368c0.1656189-4.5991516,3.4621582-7.5823364,8.1828003-7.4049988
		C299.3891296,194.8218231,302.3673096,198.11026,302.1716309,202.8205414z"/>
</g>
</svg>
