<?xml version="1.0" encoding="utf-8"?>
<!-- Generator: Adobe Illustrator 19.0.0, SVG Export Plug-In . SVG Version: 6.00 Build 0)  -->
<svg version="1.1" id="Layer_1" xmlns="http://www.w3.org/2000/svg" xmlns:xlink="http://www.w3.org/1999/xlink" x="0px" y="0px"
	 width="512px" height="512px" viewBox="0 0 512 512" style="enable-background:new 0 0 512 512;" xml:space="preserve">
<style type="text/css">
	.st0{fill:#555555;}
</style>
<g>
	<path class="st0" d="M332.8206177,120.0836945c1.6508179,4.9076233,2.8562622,8.6636353,4.17453,12.3796387
		c5.0151062,14.1372986,10.0887451,28.2538605,15.0841675,42.3980713c0.90271,2.5558472,1.8658447,4.378006,5.18927,4.5499725
		c10.3408203,0.5350189,18.4350891,7.353653,21.0763855,17.2440338c2.5105286,9.4008026-1.5372925,20.2848969-10.249176,25.2715454
		c-4.0922546,2.342392-5.035675,5.1430511-4.6780701,9.3244476c0.2316895,2.7096405,1.0921936,3.5950317,3.9024658,3.087204
		c10.9082947-1.9711761,21.9515991-1.2254791,32.9506531-1.3775635c3.0278931-0.0418854,4.6673584,0.7635651,3.4241943,4.197876
		c-3.9621582,10.9458923-6.6518555,22.3471222-11.7392578,32.8902435
		c-5.6082153,11.6224976-13.6521606,21.1725159-24.5700073,28.1100464c-2.9069824,1.847168-4.0412903,3.9667969-4.0098572,7.4048157
		c0.1404114,15.3604126,1.3804016,30.571228,5.0227661,45.5411682c1.930603,7.9348145,3.1106873,15.9937439,2.6712646,24.1784973
		c-0.2110596,3.9313965,1.1769104,5.9132385,5.0253601,7.348114c10.0010986,3.7288513,20.4593506,6.4833069,29.6893005,12.0151978
		c17.0333557,10.2088013,26.2039795,25.3158875,26.5788879,45.2712097
		c0.2998047,15.9601746-0.0420532,31.9317017,0.1668091,47.8947449c0.0578613,4.4206238-1.1095886,6.1915588-5.8768616,6.1870422
		c-113.8356323-0.1081543-227.6714325-0.1062012-341.5071106-0.0072937
		c-4.5111542,0.0039368-5.719902-1.6430359-5.6775818-5.8822632c0.1641083-16.4428711-0.0282211-32.8888855,0.0635376-49.3329163
		c0.1093445-19.5954895,13.6296844-39.5074768,31.8514709-46.8906555
		c8.4293976-3.4154663,16.9693375-6.5604858,25.4856796-9.7574768c2.2420197-0.8416138,4.1126099-1.8012695,3.930542-4.6364136
		c-0.9881897-15.3893433,4.3217621-29.9148865,6.1458435-44.915802c1.1549835-9.4983521,1.7212524-19.0510864,1.5943146-28.6377563
		c-0.0314026-2.3704224-1.0611877-3.8218079-2.9744263-5.0324707
		c-15.4079742-9.7499695-25.0074081-23.8119812-30.4254684-41.0047913
		c-2.0621948-6.5438995-4.2384796-13.0568085-6.5701065-19.5089111c-1.3989792-3.8712921-0.6669693-5.5986023,3.7905502-5.4654083
		c10.1953506,0.3046722,20.417244-0.4176788,30.5870285,1.0484314c1.7464447,0.2517548,4.7309723,2.1557617,5.2237091-0.9866791
		c0.5183716-3.3058472,2.0242462-7.4120178-2.4497223-9.758316c-9.417923-4.9391174-13.1304016-12.9051666-12.5316162-23.325058
		c0.5589142-9.7259064,9.3818817-19.9813385,19.0743103-20.2486725c5.6986237-0.157196,7.174469-3.0442963,8.7943115-7.3289032
		c13.7704926-36.4242859,27.5193939-72.8580704,41.5779877-109.1716156
		C212.2410583,38.3488426,230.5,23.3826122,256.6694031,19.025816c16.0178833-2.6667347,31.8018188-0.286459,45.5012817,8.9361305
		c26.2396851,17.6647205,51.7140198,36.372818,73.3755798,59.7070389
		c11.6376953,12.5363693,22.4189453,25.7712936,31.8132019,40.0743942
		c3.9953613,6.0830536,1.7983398,12.9904633,1.5926208,19.5563965c-0.0541687,1.7294006-2.1228027,1.6194-3.5386047,1.6657562
		c-8.1544495,0.2669678-15.8689575-0.1704559-23.5116272-4.4219666
		c-14.3547363-7.9853363-29.3188782-14.8756256-44.036438-22.2074738
		C336.60495,121.7081604,335.2931213,121.1832504,332.8206177,120.0836945z M386.6871033,128.3300171
		c0.5653687-1.552803-0.2955017-2.2340317-0.8205872-2.9307632c-6.6261292-8.7920685-13.6636963-17.2250519-21.1114197-25.3537598
		c-19.9897461-21.8176956-43.7020874-39.1019707-67.6325073-56.1362152
		c-9.1075745-6.4830132-19.4797363-10.1214371-30.525116-9.6681366
		c-22.8067932,0.9359856-40.5422058,13.3410606-48.4748993,33.8159714
		c-13.6599274,35.2572632-27.0022736,70.6376038-40.4619446,105.9723511
		c-1.9440155,5.1035004-1.7845306,5.3177185,3.6721039,5.318573c49.6379242,0.0076904,99.2758484,0.0083008,148.9137878,0.00177
		c6.2378845-0.000824,6.2819519-0.1058807,4.1194153-6.1576385c-9.5554504-26.7403717-19.136261-53.4717484-28.6389771-80.2308655
		c-4.5759277-12.8855133-6.4156799-9.8660889,7.8356323-14.9976349c2.4346313-0.8766556,3.9225159-0.3164978,4.7686157,2.2135544
		c1.3150024,3.9322052,2.9842834,7.756218,4.1177979,11.7359161c1.0931396,3.8380051,3.3365173,6.1796188,6.9140015,7.9246902
		c15.490387,7.5561447,30.8694763,15.3403091,46.2922058,23.0352402
		C379.3099365,124.6965256,382.9768677,126.4955444,386.6871033,128.3300171z M255.9714355,225.6726837
		c0-0.0105438,0-0.0210876,0-0.0316315c-9.0947266,0-18.1894226-0.0022736-27.2841339,0.0006256
		c-9.2543335,0.0029449-18.5178833,0.2591858-27.7593231-0.0833282c-4.9461365-0.1833191-6.4152069,1.6020355-6.1706696,6.3411713
		c0.3366241,6.5244293,0.2041779,13.0820923,0.0546265,19.6205292c-0.2500305,10.9318542,0.878067,21.5802002,4.6925507,31.9575195
		c2.1983337,5.9805298,2.9873505,12.3042908,3.1049957,18.779541c0.1631927,8.9822083,1.6912842,17.8221436,6.3470306,25.7348633
		c5.2885284,8.9880981,11.9848938,16.9949036,19.4296722,24.1619568
		c13.8521271,13.3352051,35.9597931,14.3000488,51.5374908,3.0083313
		c7.2401428-5.2481689,12.0322266-12.7027283,17.6762695-19.3739014
		c6.6643066-7.8770142,10.3700867-16.9728394,11.2198486-27.4102783c0.6049194-7.4294434,0.4581604-14.9845886,2.6983032-22.2557373
		c1.7782593-5.7721252,4.0520325-11.375061,4.7937317-17.4894104c1.5065308-12.4194336,0.3135986-24.8681335,0.8885498-37.2833099
		c0.203125-4.3854675-1.2938843-5.8091125-5.7039795-5.7614288
		C292.9899292,225.7882843,274.480072,225.6726837,255.9714355,225.6726837z M163.4769745,394.6323242
		c4.0192413-13.1101074,6.9525299-25.2354126,7.8045349-37.8995972c0.6062164-9.0107117,1.1002808-8.8006592,10.4430237-8.8689575
		c4.1477356-0.0303345,5.5023499,1.3559875,5.5702057,5.533844c0.2016602,12.4204712-1.8577118,24.4128418-5.55896,36.2129211
		c-3.7069702,11.8182983-2.1429291,23.085083,4.6661987,33.356842c5.2219238,7.8774414,10.2321625,15.7769165,12.84758,24.9663391
		c0.2740021,0.9627075,0.2121735,2.5342102,1.7423706,2.4395142c1.2627106-0.0781555,1.5411072-1.4880066,2.0810699-2.4236755
		c4.7530518-8.2362976,6.4385529-17.3057556,6.6811218-26.6251221c0.2607727-10.0176392,2.9851379-19.1639404,8.5604553-27.4371338
		c4.1345367-6.1351929,5.9127502-12.9863281,6.6868744-20.2090149c0.2461395-2.2963257-0.699646-3.816864-2.4197388-5.3323059
		c-17.0056305-14.9822083-31.7622833-31.4613953-35.486496-55.0094604
		c-0.4081573-2.5806885-1.7635345-3.4941406-4.2322998-3.3876648c-4.637207,0.2000122-9.2996674,0.0785217-13.7562408-1.256012
		c-4.1743164-1.25-5.0921783,0.5421448-4.9444122,4.2189026c0.3916016,9.7458191-0.126358,19.4579773-2.118927,29.0158081
		c-2.1784515,10.4495239-4.5710449,20.848938-5.2527161,31.54599
		C156.3084717,381.0392456,157.9796143,387.8913269,163.4769745,394.6323242z M347.7698975,319.7099609
		c0-2.5534668-0.0688477-5.1092529,0.0172729-7.6598206c0.110321-3.2677917-1.2303772-4.2232056-4.4248047-3.437561
		c-4.3409424,1.0675964-8.7980652,1.7434082-13.2798157,1.3012695c-3.7397461-0.3689575-5.149353,1.4664917-5.6141357,4.8195496
		c-0.5705566,4.1159058-1.6086731,8.1286316-3.1167297,12.0162964c-6.4738159,16.6886292-18.1668396,29.4230042-31.24823,41.0635986
		c-1.8841553,1.6765442-3.5362244,3.0611572-3.1798096,5.8991394c0.9042053,7.199646,2.6819153,14.0313416,6.7286682,20.225708
		c5.4274597,8.3078308,8.3889465,17.3860779,8.5715332,27.4602051c0.1628723,8.9865417,1.8201599,17.7670288,6.2638855,25.7808228
		c0.6708069,1.2098083,0.9450073,3.2010193,2.5296936,3.1871338c1.7983398-0.0157166,1.6053162-2.1373291,2.0074158-3.3773499
		c2.3809814-7.3430176,5.5224915-14.3612976,10.1404419-20.5140991c9.1652222-12.2112122,11.1003418-25.261261,6.284729-39.7205505
		c-3.0266113-9.087616-4.8468933-18.5094604-4.660614-28.1947632c0.2253418-11.7155457-2.0510864-10.5904846,11.2934875-10.6011353
		c0.1595154-0.0001221,0.319397,0.0152893,0.4786072,0.0098267c2.5091553-0.0861511,3.8560181,0.9688721,3.9071655,3.6329346
		c0.2559204,13.3288269,2.8997803,26.2572937,6.6472168,38.9953613c0.3375549,1.1473083-0.0934753,2.8901367,1.5655212,3.0729675
		c1.218689,0.1343079,1.6278381-1.3662109,2.2108154-2.2635498c0.7787476-1.1985779,1.47229-2.4692383,2.0575867-3.7739563
		c3.8121033-8.4977722,2.1876526-17.2995911,0.8607788-25.888916
		C351.6491699,347.7511902,347.3710632,334.0739746,347.7698975,319.7099609z M370.8366394,478.1769104
		c0,0.0109253,0,0.0218506,0,0.0328064c13.5488586,0,27.098938-0.1002808,40.6458435,0.0638123
		c3.8391113,0.0464783,5.4152527-1.082428,5.3282471-5.1412048c-0.2186279-10.1967773,0.1253052-20.4064636-0.135437-30.6012878
		c-0.2241211-8.7632751-2.5670776-16.9211731-8.0526123-24.0603333c-2.0648499-2.6873169-3.7186279-3.3193359-6.6468506-1.2444153
		c-21.5112,15.2423706-45.0956116,26.293457-70.1703796,34.243988c-2.5744629,0.8163452-4.1227417,2.2592468-4.5952759,4.879364
		c-0.9894104,5.4861755-1.7776489,10.9892883-2.1203003,16.5681458c-0.2363281,3.8477173,1.0367737,5.3898621,5.1013184,5.3320618
		C343.7373047,478.0571594,357.2878113,478.1769104,370.8366394,478.1769104z M140.5746918,478.1782532
		c0,0.0102539,0,0.0205383,0,0.0308228c13.7062531,0,27.414032-0.114563,41.1177673,0.0714111
		c3.9908295,0.0541382,5.6153564-1.3327942,5.1399841-5.2618103c-0.6108246-5.0486145-1.2368164-10.0967712-1.7361603-15.1569824
		c-0.3835144-3.8865356-2.6053467-5.7706299-6.2060394-6.8598022c-9.1545258-2.769165-18.0757599-6.1951599-26.8239441-10.078186
		c-14.7493744-6.546814-28.8722687-14.2098389-41.991394-23.6287537c-2.8530045-2.0483398-4.6467056-1.6645813-6.6916656,1.118042
		c-3.7585297,5.1143188-6.3632278,10.642334-7.2833099,16.9316711c-1.8332901,12.5315552-0.3400726,25.1442566-0.9283676,37.7025146
		c-0.1872177,3.9967041,1.3384933,5.2482605,5.2416534,5.1976929
		C113.7984161,478.0713501,127.1872482,478.1782532,140.5746918,478.1782532z M256.4624329,194.9838562
		c-31.6069794,0-63.213974-0.0108795-94.8209076,0.0233765c-2.2165833,0.0023956-4.4992065,0.0647278-6.6340027,0.5822754
		c-3.4380798,0.8335266-5.692627,3.2720795-5.7348175,6.8048401c-0.0449982,3.7705383,2.2561951,6.3186951,5.9691315,7.0512695
		c2.4765167,0.4886017,5.0681458,0.5375977,7.6083679,0.5385132c62.8947144,0.0228271,125.789444,0.0131073,188.6841888,0.0080109
		c2.0743713-0.0001526,4.1347961,0.0152893,6.1352844-0.7517395c3.1808472-1.2195892,5.0697937-3.5436554,5.0348206-6.8581696
		c-0.0327148-3.1050568-1.9104004-5.2969055-4.8257141-6.5409088c-2.4449158-1.0432892-5.0100403-0.8486023-7.5534973-0.849472
		C319.0376892,194.9812317,287.7500305,194.9849396,256.4624329,194.9838562z M312.8846436,477.9586487
		c-5.3460693-6.0842896-10.8551941-10.7091064-15.0037537-16.554657c-1.1520996-1.6233215-3.2272949-1.0775146-4.9405823-0.8130188
		c-24.5718689,3.7936707-49.1403656,3.8191833-73.7150879,0.0317383c-1.7154999-0.2644043-3.803421-0.878418-4.9763489,0.6804504
		c-4.3596191,5.7941895-9.7390747,10.6887512-15.3526764,16.6554871
		C237.2933044,477.9586487,274.5153198,477.9586487,312.8846436,477.9586487z M136.2361298,249.6630554
		c-6.5267944-0.2015533-6.6966705-0.0164948-4.8731842,5.2516479c7.7745056,22.4608459,23.2414703,35.5940857,46.9878998,38.6573486
		c7.1112518,0.9173584,7.6295013,0.3556213,5.2665253-6.5611877c-2.4855347-7.2754822-4.6205292-14.6038208-4.4719086-22.3858643
		c0.0430145-2.2525635-1.0412292-3.4736328-3.0124664-4.3347473
		C163.0199585,254.5617828,149.3092346,251.1662292,136.2361298,249.6630554z M329.6768799,294.1690063
		c24.54776-1.6700745,44.4498901-16.6134644,51.559021-40.9659271c1.0321655-3.5357056-0.7723694-3.845871-3.3719177-3.6275787
		c-12.4649353,1.0467072-24.4407349,4.1051178-36.2206421,8.284729c-5.9501648,2.1112061-10.3408813,4.5624084-9.0740051,11.9930725
		c0.3278503,1.9228516-0.4606628,4.104187-1.0040588,6.0936279c-1.2592163,4.6100464-2.7026062,9.1694336-4.0300293,13.761261
		C326.8341675,292.1335449,326.6867676,294.2956848,329.6768799,294.1690063z M274.6510315,392.3587646
		c-1.6218872-3.8854675-2.4897156-8.5848389-3.5490112-13.2377625c-0.4098816-1.8002319-1.9228821-1.3878479-3.1312561-1.1676025
		c-7.9090271,1.4417114-15.8195801,1.558075-23.7111053-0.0155029c-2.4562073-0.4897766-3.4170227,0.4223022-3.8679352,2.778595
		c-0.6260376,3.2714539-1.3875275,6.5504456-2.4865417,9.6876831c-0.9091187,2.5951843-0.5859985,4.4668274,1.4213562,6.3955078
		c4.7062683,4.5218201,9.3106995,9.1546326,13.8283386,13.8652954c1.9171143,1.9989624,3.394928,2.3754578,5.4909668,0.1774292
		c4.6138916-4.8383179,9.4285889-9.4848938,14.1444702-14.226532
		C273.7947083,395.6060181,274.8945618,394.6123657,274.6510315,392.3587646z M339.6919861,431.6375427
		c17.6466675-6.6233521,32.9334717-14.749115,47.6448669-24.0305481c2.7147827-1.712738,1.9355469-2.7351685-0.5570984-3.6469421
		c-5.2417908-1.9172974-10.5223694-3.7486572-15.6693115-5.8972778c-2.9016418-1.2113647-4.6934204-0.6766663-6.3734741,1.9781494
		c-3.919281,6.1934204-9.282959,10.8935547-15.7802124,14.2788391c-1.4716187,0.7668152-2.6551514,1.7082825-3.1540833,3.3772278
		C344.479126,422.1242371,342.6021118,426.3304749,339.6919861,431.6375427z M172.1277618,431.5004883
		c-2.7338409-5.215271-4.6558533-9.5463562-6.0787811-14.0751343c-0.4736328-1.5073853-1.6116791-2.2739258-2.8974304-2.9787903
		c-6.662262-3.6525269-12.4133606-8.314209-16.2738037-14.9995117c-1.1300201-1.9569092-2.6086273-2.6269531-4.7737579-1.8088989
		c-5.6533356,2.1360779-11.3153381,4.2497559-16.9884796,6.3325806c-2.6366119,0.9680176-2.9948883,2.0492859-0.4353867,3.6643066
		C139.3655396,416.9016113,154.6232758,425.0214233,172.1277618,431.5004883z M229.3088226,445.5408936
		c3.0131073,0.4524536,3.6364441-1.4579163,3.4627533-4.0553894c-0.3291016-4.9213562,1.0381165-9.3594055,3.2719116-13.7327576
		c1.2717896-2.4898682,5.3173676-3.943573,4.1569672-6.8994751c-1.0204468-2.5994568-3.852951-4.5588989-6.0766754-6.5915527
		c-1.7004852-1.5544128-3.1441345-4.9555054-5.2532349-4.1238098c-2.1147766,0.8339844-1.9630127,4.3782959-2.4602814,6.8672791
		c-1.4347839,7.1813049-0.4082642,14.6159363-2.5010986,21.7575073
		C222.2755127,444.3372803,223.293869,445.4187317,229.3088226,445.5408936z M283.2349548,445.4828796
		c1.4690247-1.370636,6.4968872,1.1761169,5.3774109-3.9393921c-1.4388733-6.5748596-2.189209-13.1595154-2.4400024-19.8668518
		c-0.1116333-2.9858398-0.9309998-5.9640808-1.6101685-8.9039612c-0.5455322-2.3613281-1.7437134-3.4842529-3.9230347-1.3019409
		c-2.7027893,2.7065735-5.397522,5.4215393-8.1262512,8.1017456c-1.2161255,1.194519-1.5244141,2.3202209-0.2077942,3.6750183
		c5.1817932,5.3320007,7.4924622,11.6956787,6.8933411,19.1391602
		C278.9972534,444.8865051,280.4382019,445.816925,283.2349548,445.4828796z M179.1297302,235.1220703
		c0-2.0687256,0.0179596-4.1376343-0.0053864-6.2060852c-0.0206604-1.8315735-0.7879181-3.1246948-2.7776337-3.1647186
		c-3.1801147-0.0639801-6.3635406-0.0623779-9.5434875,0.0067444c-1.4436951,0.0313568-2.1784973,0.8906708-2.542984,2.3508453
		c-1.7644196,7.0681915,0.1023407,10.5422516,6.9947205,12.7522125
		C179.1869812,243.4043579,179.1869812,243.4043732,179.1297302,235.1220703z M332.774353,234.3645782
		c-0.0011292,8.9470673-0.0001831,8.9501495,8.6434326,6.3006439c1.3670959-0.4190521,2.7393494-0.8321838,4.0762634-1.335556
		c1.2818604-0.4826508,1.9248352-1.4403229,2.2216797-2.8347931c1.831665-8.6044769,0.063446-10.8968658-8.5052795-10.8530121
		c-0.3181152,0.0016174-0.6406555,0.0363922-0.9537354-0.0030212c-4.103363-0.5166016-6.0053711,1.1635437-5.4990845,5.3876953
		C332.8892212,232.1242371,332.7774353,233.2511139,332.774353,234.3645782z M255.8069,447.20224
		c3.5555878,0.1087341,7.1515656-3.2359924,7.3443451-6.8311462c0.1968384-3.6709595-3.4718628-7.4533997-7.2285461-7.4526367
		c-3.5374146,0.0007324-7.08461,3.5397339-7.0934601,7.0771179C248.8202667,443.5695496,252.2316895,447.0929565,255.8069,447.20224
		z"/>
	<path class="st0" d="M256.0505676,340.6411438c-8.5649567,0.0265808-15.2336273-5.1773071-17.1639404-13.7463074
		c-1.8206329-8.0820313-3.4911346-16.2046204-4.93367-24.3614197c-0.5015259-2.8358154-1.405777-5.2319946-3.5882416-7.0332947
		c-5.6712646-4.6808472-8.7718658-11.2752686-10.712265-17.8141479c-2.1078339-7.1030884,6.3463135-5.6049805,9.551239-8.5928955
		c2.240036-2.0883179,3.9372711-0.5926819,5.0496216,1.8876953c3.0795898,6.8672485,6.5531311,13.4754944,12.5349579,18.3953247
		c2.0279999,1.6679382,1.9463043,4.3109436,2.4376526,6.5974426c1.7070923,7.9437866,3.2329559,15.9264221,4.8892059,23.8814697
		c0.2737274,1.3147583,0.1629028,3.370697,2.0388947,3.2854309c1.9356079-0.0879517,1.3979187-2.1700439,1.6619873-3.4651184
		c1.6556091-8.1184692,3.2314758-16.2533264,4.9064026-24.3677063c0.4472656-2.1667786,0.7172546-4.5246582,2.5711365-6.052124
		c5.8441162-4.8149109,9.352417-11.2201233,12.2689209-17.9926147c1.3291931-3.0865479,2.9608765-3.4877625,5.9196167-1.9797668
		c12.9905701,6.6210938,10.8589478,4.233429,5.6471252,15.555542c-2.0171814,4.3820496-4.2525024,8.5567322-8.0002441,11.7558594
		c-1.903717,1.6250916-2.7012939,3.850769-3.1716003,6.2733765c-1.5487366,7.9769287-2.9764709,15.9856873-4.8343811,23.8920898
		C271.0568848,335.5523376,264.5686646,340.6147156,256.0505676,340.6411438z"/>
	<path class="st0" d="M228.846756,255.6860657c-6.758606-2.2725677-12.9409637-4.3369751-19.1118774-6.4351044
		c-1.8447571-0.627243-2.384613-1.9484863-1.7883759-3.7729187c0.0987244-0.302063,0.1855927-0.6083374,0.2685699-0.9151764
		c3.1690369-11.718338,3.1706848-11.7239838,14.6463165-8.0088654c2.7227325,0.8814392,5.4294128,1.8125916,8.1422882,2.7243805
		c0.7533722,0.2532043,1.525116,0.4676819,2.2498169,0.7874298c3.7391205,1.6498566,1.7788544,4.4259186,0.8534088,6.4477081
		C232.6360626,249.7268829,233.551178,254.6706543,228.846756,255.6860657z"/>
	<path class="st0" d="M298.3683777,233.4093781c4.0566101,2.4070587,3.5313416,7.2593384,5.2281189,10.8665009
		c0.803894,1.7089996,1.53125,3.8805847-1.0950317,4.8053589c-6.3044128,2.2199249-12.6472168,4.3357239-19.0120544,6.3765259
		c-2.7254333,0.8739014-3.4827576-1.4023438-3.690094-3.1937866c-0.4613953-3.9873962-5.9528503-8.7477264-1.6370239-11.5199585
		C283.8805542,237.0709534,291.1846008,235.8666382,298.3683777,233.4093781z"/>
</g>
</svg>
