<?xml version="1.0" encoding="utf-8"?>
<!-- Generator: Adobe Illustrator 19.0.0, SVG Export Plug-In . SVG Version: 6.00 Build 0)  -->
<svg version="1.1" id="Layer_1" xmlns="http://www.w3.org/2000/svg" xmlns:xlink="http://www.w3.org/1999/xlink" x="0px" y="0px"
	 width="512px" height="512px" viewBox="-0.5 0.5 512 512" style="enable-background:new -0.5 0.5 512 512;" xml:space="preserve">
<style type="text/css">
	.st0{fill:#19C337;}
	.st1{fill:#FFFFFF;}
</style>
<g>
	<path class="st0" d="M450.4727478,342.4100647c-13.7617188,37.2969055-34.5742188,69.726593-61.867218,96.3789673
		c-31.0664063,30.3359375-71.7461243,54.4414368-120.9102173,71.6367493c-1.6132813,0.5625-3.296875,1.0234375-4.9882813,1.3632813
		c-2.234375,0.4414063-4.5078125,0.6796875-6.7617188,0.7109375h-0.4414063c-2.4023438,0-4.8164063-0.2421875-7.2109375-0.7109375
		c-1.6914063-0.3398438-3.3515778-0.8007813-4.9570465-1.3515625
		c-49.2226715-17.1679688-89.9531708-41.2617493-121.0508423-71.5976868
		c-27.3047028-26.6523743-48.1133041-59.0625305-61.8554993-96.359436
		C35.4412842,274.6678467,36.863163,199.9646759,38.0076942,139.9333954l0.0195313-0.921875
		c0.2304688-4.9570313,0.3789063-10.1640625,0.4609375-15.9140701c0.4179688-28.230484,22.8632927-51.585968,51.097683-53.1601868
		c58.867218-3.2851563,104.406311-22.4843864,143.3164825-60.4101868l0.3398438-0.3125
		c6.4609375-5.9257851,14.6015778-8.832037,22.7031403-8.7109423c7.8125,0.1015629,15.59375,3.0039074,21.8242188,8.7109423
		l0.3320313,0.3125c38.9179993,37.9258041,84.4570923,57.1250305,143.3243103,60.4101868
		c28.234375,1.5742188,50.679718,24.9297028,51.0976868,53.1601868c0.0820313,5.7890701,0.2304688,10.9882889,0.4609375,15.9140701
		l0.0117188,0.390625C474.1368408,199.5467072,475.5509033,274.3983154,450.4727478,342.4100647z"/>
	<path class="st1" d="M369.0056763,215.1751556L257.3145142,326.8815002l-24.1344757,24.1344604
		c-5.7014618,5.7014771-13.1794281,8.5484314-20.6497955,8.5484314c-7.4779663,0-14.948349-2.8469543-20.6574097-8.5484314
		l-51.8902283-51.9129944c-11.4029541-11.4029541-11.4029541-29.8739014,0-41.2844543
		c11.3877563-11.4029388,29.881485-11.4029388,41.2844238,0l31.2632141,31.2632141l115.1910095-115.1910095
		c11.4029236-11.4105377,29.8966675-11.4105377,41.2844238,0
		C380.4086304,185.2936554,380.4086304,203.787384,369.0056763,215.1751556z"/>
</g>
</svg>
