<svg width="1440" height="837" fill="none" 
  xmlns="http://www.w3.org/2000/svg">
  <g clip-path="url(#clip0)">
    <path opacity=".66" d="M498.01-417.87c-13.49 50.62-.63 101.4 38.14 136.94 23.2 21.27 50.41 38.24 58.87 70.52 8.51 32.5-3.22 67.13-21.56 94.08-28.88 42.44-80.29 62.27-108.35 105-34.33 52.3-28.12 125.67.26 181.4C524.48 286.2 645.14 357.9 769.6 384.24a553.6 553.6 0 0 0 191.5 6.62c31.45-4.44 61.28-15.63 92.27-20.8 29.73-4.96 61.92 6.55 87.24 21.37 65.77 38.5 107.62 114.95 184.94 134.74 128.86 32.98 279.66-59.26 330.38-160.58 52.78-111.5 25.41-158.8 9.56-216.52-15.56-56.66-64.56-95.13-114.02-121.97-73.66-39.98-155.1-62.57-236.74-79.47-67.14-13.9-150.54-11.1-198.29-68.92-50.19-60.79-95.8-124.17-131.9-194.48-24.04-46.8-45.63-97.26-78.24-139.73-37.23-48.5-88.85-78.7-146.45-97.5-36.9-12.03-77.2-25.06-116.34-17.08-66.96 13.64-128.66 89.06-145.5 152.22z" fill="#ECEDF2"/>
    <path d="M270.93 184.73c1.53-9.73 3.03-18.43 6.65-26.68 6.52-14.86 19.5-23.53 35.06-24.04 12.83-.41 21.07 7.98 21.85 21.03.58 9.66.13 19.3-3.13 28.53-1.32 3.77-.55 6.28 2.85 8.47 4.79 3.09 9.24 6.65 12.35 11.6 1.17 1.88 2.5 3.93 1.45 6.1-1.09 2.28-3.6 1.5-5.53 1.5-42.19.03-84.37.28-126.55-.16-11.2-.11-22.43-.58-33.66-.73-4.33-.05-5.15-1.39-3.44-5.45 2.5-5.93 7.97-7.9 13.45-9.48 9.32-2.68 18.82-2.08 28.2-.31 4.52.86 7.5-.47 10.12-4.04 2.55-3.37 5.27-6.6 8.16-9.7 7.83-8.61 18.85-8.68 28.34-.24 1.07.95 2.09 1.96 3.83 3.6z" fill="#FEFEFE"/>
  </g>
  <defs>
    <clipPath id="clip0">
      <path fill="#fff" d="M0 0h1440v837H0z"/>
    </clipPath>
  </defs>
</svg>
