<?xml version="1.0" encoding="utf-8"?>
<!-- Generator: Adobe Illustrator 19.0.0, SVG Export Plug-In . SVG Version: 6.00 Build 0)  -->
<svg version="1.1" id="Layer_1" xmlns="http://www.w3.org/2000/svg" xmlns:xlink="http://www.w3.org/1999/xlink" x="0px" y="0px"
	 width="1440px" height="1860px" viewBox="464 -674 1440 1860" style="enable-background:new 464 -674 1440 1860;"
	 xml:space="preserve">
<style type="text/css">
	.st0{fill:none;}
	.st1{fill:#F5F6F8;}
</style>
<rect x="464" y="-649" class="st0" width="1440" height="1810"/>
<path class="st1" d="M741.4000244-221.4850159C826.0300293-172.085022,894.2000122-103.875,943.5700073-19.1950073
	c49.3699951,84.6699829,75.2200317,176.4000244,75.2200317,277.5499878
	c0,101.1399536-25.8499756,195.2200317-75.2199707,279.8999634
	c-49.3699951,84.6700439-117.5400391,152.8900146-202.1700439,202.2800293s-176.3099976,72.9200439-277.3999939,75.2700195
	v268.1400757c148.1000061,0,286.8000183-37.630127,413.7399597-110.5501099
	c126.9500122-72.9200439,228.0300293-174.0599365,300.9000244-301.0699463
	c72.8800049-127.0200195,110.5-265.7900391,110.5-416.3299561c0-150.5300293-37.6199951-286.9500122-110.5-413.9699707
	c-72.8699951-127.0100098-173.9500122-228.1499939-300.9000244-301.0700073
	C750.7999878-534.3150024,612.0999756-571.9450073,464-571.9450073v275.2000122
	c98.7299805,0,192.7700195,25.8699951,277.4000244,75.2600098V-221.4850159z"/>
</svg>
