<?xml version="1.0" encoding="utf-8"?>
<!-- Generator: Adobe Illustrator 19.0.0, SVG Export Plug-In . SVG Version: 6.00 Build 0)  -->
<svg version="1.1" id="Layer_1" xmlns="http://www.w3.org/2000/svg" xmlns:xlink="http://www.w3.org/1999/xlink" x="0px" y="0px"
	 width="2060px" height="800px" viewBox="550 -120 2060 800" style="enable-background:new 550 -120 2060 800;"
	 xml:space="preserve">
<style type="text/css">
	.st0{fill:#F5F6F8;}
	.st1{fill:url(#SVGID_1_);}
	.st2{fill:url(#SVGID_2_);}
	.st3{fill:url(#SVGID_3_);}
	.st4{fill:url(#SVGID_4_);}
	.st5{fill:url(#SVGID_5_);}
	.st6{fill:url(#SVGID_6_);}
	.st7{fill:url(#SVGID_7_);}
	.st8{fill:url(#SVGID_8_);}
	.st9{fill:url(#SVGID_9_);}
	.st10{fill:url(#SVGID_10_);}
	.st11{fill:url(#SVGID_11_);}
	.st12{fill:url(#SVGID_12_);}
	.st13{fill:url(#SVGID_13_);}
	.st14{fill:url(#SVGID_14_);}
	.st15{fill:url(#SVGID_15_);}
	.st16{fill:url(#SVGID_16_);}
	.st17{fill:url(#SVGID_17_);}
</style>
<rect x="550" y="-120" class="st0" width="2060" height="800"/>
<g>
	
		<linearGradient id="SVGID_1_" gradientUnits="userSpaceOnUse" x1="1078.614624" y1="245.3548126" x2="1028.2266846" y2="245.3548126" gradientTransform="matrix(1 0 0 -1 0 560)">
		<stop  offset="0" style="stop-color:#FFFFFF"/>
		<stop  offset="1" style="stop-color:#FFFFFF;stop-opacity:0"/>
	</linearGradient>
	<polygon class="st1" points="1053.4206543,289.4512024 1078.614624,314.6451721 1053.4206543,339.8391724 
		1028.2266846,314.6452026 	"/>
	
		<linearGradient id="SVGID_2_" gradientUnits="userSpaceOnUse" x1="1717.5692139" y1="354" x2="1667.1812744" y2="354" gradientTransform="matrix(1 0 0 -1 0 560)">
		<stop  offset="0" style="stop-color:#FFFFFF"/>
		<stop  offset="1" style="stop-color:#FFFFFF;stop-opacity:0"/>
	</linearGradient>
	<polygon class="st2" points="1692.3752441,180.806015 1717.5692139,206 1692.3752441,231.193985 1667.1812744,206.0000153 	"/>
	
		<linearGradient id="SVGID_3_" gradientUnits="userSpaceOnUse" x1="2546.6147461" y1="537.4417725" x2="2496.2268066" y2="537.4417725" gradientTransform="matrix(1 0 0 -1 0 560)">
		<stop  offset="0" style="stop-color:#FFFFFF"/>
		<stop  offset="1" style="stop-color:#FFFFFF;stop-opacity:0"/>
	</linearGradient>
	<polygon class="st3" points="2521.4204102,-2.6357365 2546.6147461,22.5582409 2521.4204102,47.7522354 2496.2265625,22.5582581 	
		"/>
	
		<linearGradient id="SVGID_4_" gradientUnits="userSpaceOnUse" x1="826.6721191" y1="271.9080811" x2="773.5655518" y2="271.9080811" gradientTransform="matrix(1 0 0 -1 0 560)">
		<stop  offset="0" style="stop-color:#FFFFFF"/>
		<stop  offset="1" style="stop-color:#FFFFFF;stop-opacity:0"/>
	</linearGradient>
	<path class="st4" d="M800.1187744,261.5386658c-14.664917,0-26.5532227,11.8882751-26.5532227,26.5532532
		s11.8883057,26.5532532,26.5532227,26.5532532c14.6650391,0,26.5533447-11.8882751,26.5533447-26.5532532
		S814.7838135,261.5386658,800.1187744,261.5386658z M800.1187744,306.587738
		c-10.2148438,0-18.4957275-8.2808838-18.4957275-18.4958191c0-10.2149048,8.2808838-18.4957886,18.4957275-18.4957886
		c10.2149658,0,18.4958496,8.2808838,18.4958496,18.4957886C818.614624,298.3068542,810.3337402,306.587738,800.1187744,306.587738z
		"/>
	
		<linearGradient id="SVGID_5_" gradientUnits="userSpaceOnUse" x1="2505.4916992" y1="28.7434292" x2="2452.3852539" y2="28.7434292" gradientTransform="matrix(1 0 0 -1 0 560)">
		<stop  offset="0" style="stop-color:#FFFFFF"/>
		<stop  offset="1" style="stop-color:#FFFFFF;stop-opacity:0"/>
	</linearGradient>
	<path class="st5" d="M2478.9384766,504.7033386c-14.6650391,0-26.5532227,11.8882751-26.5532227,26.5532532
		s11.8881836,26.5532227,26.5532227,26.5532227s26.5532227-11.8882446,26.5532227-26.5532227
		S2493.6035156,504.7033386,2478.9384766,504.7033386z M2478.9384766,549.7523804
		c-10.2148438,0-18.4960938-8.2808838-18.4960938-18.4957886c0-10.2149658,8.28125-18.4957886,18.4960938-18.4957886
		s18.4956055,8.2808228,18.4956055,18.4957886C2497.434082,541.4714966,2489.1533203,549.7523804,2478.9384766,549.7523804z"/>
	
		<linearGradient id="SVGID_6_" gradientUnits="userSpaceOnUse" x1="1737.4243164" y1="95.7388077" x2="1684.3178711" y2="95.7388077" gradientTransform="matrix(1 0 0 -1 0 560)">
		<stop  offset="0" style="stop-color:#FFFFFF"/>
		<stop  offset="1" style="stop-color:#FFFFFF;stop-opacity:0"/>
	</linearGradient>
	<path class="st6" d="M1710.8710938,437.7079468c-14.6650391,0-26.5532227,11.8883057-26.5532227,26.5532532
		c0,14.664978,11.8881836,26.5532532,26.5532227,26.5532532c14.664917,0,26.5532227-11.8882751,26.5532227-26.5532532
		C1737.4243164,449.5962524,1725.5360107,437.7079468,1710.8710938,437.7079468z M1710.8710938,482.757019
		c-10.2149658,0-18.4958496-8.2808838-18.4958496-18.4958191c0-10.2149048,8.2808838-18.4957886,18.4958496-18.4957886
		s18.4957275,8.2808838,18.4957275,18.4957886C1729.3668213,474.4761353,1721.0860596,482.757019,1710.8710938,482.757019z"/>
	
		<linearGradient id="SVGID_7_" gradientUnits="userSpaceOnUse" x1="650.3769531" y1="471.0015564" x2="613.385376" y2="471.0015564" gradientTransform="matrix(1 0 0 -1 0 560)">
		<stop  offset="0" style="stop-color:#FFFFFF"/>
		<stop  offset="1" style="stop-color:#FFFFFF;stop-opacity:0"/>
	</linearGradient>
	<path class="st7" d="M631.8811646,70.502655c-10.2149658,0-18.4957886,8.2808456-18.4957886,18.4957962
		s8.2808228,18.4958038,18.4957886,18.4958038s18.4957886-8.2808456,18.4957886-18.4958038
		S642.0961304,70.502655,631.8811646,70.502655z M631.8811646,101.8817978c-7.1152344,0-12.8833008-5.7680893-12.8833008-12.8833466
		s5.7680664-12.8833389,12.8833008-12.8833389c7.1152954,0,12.8833618,5.7680893,12.8833618,12.8833389
		S638.99646,101.8817978,631.8811646,101.8817978z"/>
	
		<linearGradient id="SVGID_8_" gradientUnits="userSpaceOnUse" x1="2196.0908203" y1="220.1608276" x2="2159.0993652" y2="220.1608276" gradientTransform="matrix(1 0 0 -1 0 560)">
		<stop  offset="0" style="stop-color:#FFFFFF"/>
		<stop  offset="1" style="stop-color:#FFFFFF;stop-opacity:0"/>
	</linearGradient>
	<path class="st8" d="M2177.5952148,321.3433838c-10.215332,0-18.4960938,8.2808228-18.4960938,18.4957886
		s8.2807617,18.4957886,18.4960938,18.4957886c10.2148438,0,18.4956055-8.2808228,18.4956055-18.4957886
		S2187.8100586,321.3433838,2177.5952148,321.3433838z M2177.5952148,352.7225037
		c-7.1157227,0-12.8837891-5.7680664-12.8837891-12.8833313s5.7680664-12.8833313,12.8837891-12.8833313
		c7.1152344,0,12.8833008,5.7680664,12.8833008,12.8833313S2184.7104492,352.7225037,2177.5952148,352.7225037z"/>
	
		<linearGradient id="SVGID_9_" gradientUnits="userSpaceOnUse" x1="1504.7877197" y1="439.622406" x2="1467.7961426" y2="439.622406" gradientTransform="matrix(1 0 0 -1 0 560)">
		<stop  offset="0" style="stop-color:#FFFFFF"/>
		<stop  offset="1" style="stop-color:#FFFFFF;stop-opacity:0"/>
	</linearGradient>
	<path class="st9" d="M1486.2919922,101.8818054c-10.2149658,0-18.4958496,8.280838-18.4958496,18.4957962
		s8.2808838,18.4957962,18.4958496,18.4957962s18.4957275-8.280838,18.4957275-18.4957962
		S1496.506958,101.8818054,1486.2919922,101.8818054z M1486.2919922,133.2609406
		c-7.1152344,0-12.8834229-5.7680817-12.8834229-12.8833389s5.7681885-12.8833389,12.8834229-12.8833389
		s12.8833008,5.7680817,12.8833008,12.8833389S1493.4072266,133.2609406,1486.2919922,133.2609406z"/>
	
		<linearGradient id="SVGID_10_" gradientUnits="userSpaceOnUse" x1="2320.7897949" y1="471.0015564" x2="2283.7980957" y2="471.0015564" gradientTransform="matrix(1 0 0 -1 0 560)">
		<stop  offset="0" style="stop-color:#FFFFFF"/>
		<stop  offset="1" style="stop-color:#FFFFFF;stop-opacity:0"/>
	</linearGradient>
	<path class="st10" d="M2302.2939453,70.502655c-10.215332,0-18.4960938,8.2808456-18.4960938,18.4957962
		s8.2807617,18.4958038,18.4960938,18.4958038c10.2148438,0,18.4956055-8.2808456,18.4956055-18.4958038
		S2312.5087891,70.502655,2302.2939453,70.502655z M2302.2939453,101.8817978
		c-7.1152344,0-12.8833008-5.7680893-12.8833008-12.8833466s5.7680664-12.8833389,12.8833008-12.8833389
		s12.8833008,5.7680893,12.8833008,12.8833389S2309.4091797,101.8817978,2302.2939453,101.8817978z"/>
	
		<linearGradient id="SVGID_11_" gradientUnits="userSpaceOnUse" x1="724.7931519" y1="15.8600664" x2="687.8015747" y2="15.8600664" gradientTransform="matrix(1 0 0 -1 0 560)">
		<stop  offset="0" style="stop-color:#FFFFFF"/>
		<stop  offset="1" style="stop-color:#FFFFFF;stop-opacity:0"/>
	</linearGradient>
	<path class="st11" d="M706.2973633,525.644104c-10.2149658,0-18.4957886,8.2808838-18.4957886,18.4958496
		s8.2808228,18.4957886,18.4957886,18.4957886s18.4957886-8.2808228,18.4957886-18.4957886
		S716.5123291,525.644104,706.2973633,525.644104z M706.2973633,557.0232544
		c-7.1152344,0-12.8833008-5.7680664-12.8833008-12.8833008c0-7.1152954,5.7680664-12.8833618,12.8833008-12.8833618
		c7.1152954,0,12.8833618,5.7680664,12.8833618,12.8833618C719.1807251,551.255188,713.4126587,557.0232544,706.2973633,557.0232544
		z"/>
	<g>
		
			<linearGradient id="SVGID_12_" gradientUnits="userSpaceOnUse" x1="2080.3735352" y1="57.2693214" x2="2074.6860352" y2="57.2693214" gradientTransform="matrix(1 0 0 -1 0 560)">
			<stop  offset="0" style="stop-color:#FFFFFF"/>
			<stop  offset="1" style="stop-color:#FFFFFF;stop-opacity:0"/>
		</linearGradient>
		<path class="st12" d="M2077.5297852,518.489502L2077.5297852,518.489502c-1.5708008,0-2.84375-1.2731934-2.84375-2.843811
			v-25.8300476c0-1.5705872,1.2729492-2.843811,2.84375-2.843811l0,0c1.5703125,0,2.84375,1.2732239,2.84375,2.843811v25.8300476
			C2080.3735352,517.2163086,2079.1000977,518.489502,2077.5297852,518.489502z"/>
		
			<linearGradient id="SVGID_13_" gradientUnits="userSpaceOnUse" x1="3313.8874512" y1="-669.8240967" x2="3308.1999512" y2="-669.8240967" gradientTransform="matrix(4.489659e-011 1 1 -4.489659e-011 2747.3537598 -2808.3129883)">
			<stop  offset="0" style="stop-color:#FFFFFF"/>
			<stop  offset="1" style="stop-color:#FFFFFF;stop-opacity:0"/>
		</linearGradient>
		<path class="st13" d="M2061.7709961,502.7306824L2061.7709961,502.7306824c0-1.5705872,1.2729492-2.843811,2.84375-2.843811
			h25.8300781c1.5703125,0,2.84375,1.2732239,2.84375,2.843811l0,0c0,1.5705872-1.2734375,2.843811-2.84375,2.843811h-25.8300781
			C2063.0439453,505.5744934,2061.7709961,504.3012695,2061.7709961,502.7306824z"/>
	</g>
	<g>
		
			<linearGradient id="SVGID_14_" gradientUnits="userSpaceOnUse" x1="1240.6890869" y1="38.6666756" x2="1235.0014648" y2="38.6666756" gradientTransform="matrix(1 0 0 -1 0 560)">
			<stop  offset="0" style="stop-color:#FFFFFF"/>
			<stop  offset="1" style="stop-color:#FFFFFF;stop-opacity:0"/>
		</linearGradient>
		<path class="st14" d="M1237.8453369,537.0921631L1237.8453369,537.0921631c-1.5706787,0-2.8438721-1.2731934-2.8438721-2.843811
			v-25.8300781c0-1.5705872,1.2731934-2.8437805,2.8438721-2.8437805l0,0c1.5705566,0,2.84375,1.2731934,2.84375,2.8437805
			v25.8300781C1240.6890869,535.8189697,1239.4158936,537.0921631,1237.8453369,537.0921631z"/>
		
			<linearGradient id="SVGID_15_" gradientUnits="userSpaceOnUse" x1="3332.4899902" y1="-1509.5085449" x2="3326.8024902" y2="-1509.5085449" gradientTransform="matrix(4.489659e-011 1 1 -4.489659e-011 2747.3537598 -2808.3129883)">
			<stop  offset="0" style="stop-color:#FFFFFF"/>
			<stop  offset="1" style="stop-color:#FFFFFF;stop-opacity:0"/>
		</linearGradient>
		<path class="st15" d="M1222.0864258,521.333313L1222.0864258,521.333313c0-1.5705566,1.2731934-2.843811,2.84375-2.843811
			h25.8302002c1.5705566,0,2.84375,1.2732544,2.84375,2.843811l0,0c0,1.5706177-1.2731934,2.843811-2.84375,2.843811h-25.8302002
			C1223.3596191,524.177124,1222.0864258,522.9039307,1222.0864258,521.333313z"/>
	</g>
	<g>
		
			<linearGradient id="SVGID_16_" gradientUnits="userSpaceOnUse" x1="2439.4702148" y1="250.5684814" x2="2433.7824707" y2="250.5684814" gradientTransform="matrix(1 0 0 -1 0 560)">
			<stop  offset="0" style="stop-color:#FFFFFF"/>
			<stop  offset="1" style="stop-color:#FFFFFF;stop-opacity:0"/>
		</linearGradient>
		<path class="st16" d="M2436.6264648,325.1903687L2436.6264648,325.1903687c-1.5708008,0-2.8442383-1.2731934-2.8442383-2.8437805
			v-25.8301086c0-1.5705872,1.2734375-2.843811,2.8442383-2.843811l0,0c1.5703125,0,2.84375,1.2732239,2.84375,2.843811v25.8301086
			C2439.4702148,323.9171753,2438.1967773,325.1903687,2436.6264648,325.1903687z"/>
		
			<linearGradient id="SVGID_17_" gradientUnits="userSpaceOnUse" x1="3120.5883789" y1="-310.7275391" x2="3114.9006348" y2="-310.7275391" gradientTransform="matrix(4.489659e-011 1 1 -4.489659e-011 2747.3537598 -2808.3129883)">
			<stop  offset="0" style="stop-color:#FFFFFF"/>
			<stop  offset="1" style="stop-color:#FFFFFF;stop-opacity:0"/>
		</linearGradient>
		<path class="st17" d="M2420.8671875,309.4315186L2420.8671875,309.4315186c0-1.5705872,1.2734375-2.8437805,2.84375-2.8437805
			h25.8305664c1.5703125,0,2.84375,1.2731934,2.84375,2.8437805l0,0c0,1.5705872-1.2734375,2.843811-2.84375,2.843811h-25.8305664
			C2422.140625,312.2753296,2420.8671875,311.0021057,2420.8671875,309.4315186z"/>
	</g>
</g>
</svg>
