<?xml version="1.0" encoding="utf-8"?>
<!-- Generator: Adobe Illustrator 19.0.0, SVG Export Plug-In . SVG Version: 6.00 Build 0)  -->
<svg version="1.1" id="Layer_1" xmlns="http://www.w3.org/2000/svg" xmlns:xlink="http://www.w3.org/1999/xlink" x="0px" y="0px"
	 width="2060px" height="1760px" viewBox="-157.1575165 -624 2060 1760"
	 style="enable-background:new -157.1575165 -624 2060 1760;" xml:space="preserve">
<style type="text/css">
	.st0{fill:#F5F6F8;}
	.st1{fill:url(#SVGID_1_);}
	.st2{fill:url(#SVGID_2_);}
	.st3{fill:url(#SVGID_3_);}
	.st4{fill:url(#SVGID_4_);}
	.st5{fill:url(#SVGID_5_);}
	.st6{fill:url(#SVGID_6_);}
	.st7{opacity:0.8;fill:url(#SVGID_7_);}
	.st8{opacity:0.8;fill:#FFFFFF;}
</style>
<g>
	<path class="st0" d="M1904-480V992L903.1694336,700.9783325c-52.881897-15.3770142-100.8261108-44.8130493-137.387146-85.9984131
		c-1.3156128-1.4819946-2.6279297-2.9879761-3.9361572-4.5183716c-38.8809814-45.484375-56.1535034-91.4697876-64-118.1538696
		c-51.2996826-123.8523865-102.5995483-247.7045593-153.899292-371.5569153
		c-22.2809448-53.792572-21.6143188-114.7733917,3.625-167.2429962c0.831604-1.7287788,1.6919556-3.4624062,2.5820313-5.2000771
		c0.8473511-1.6543007,1.7076416-3.2849922,2.579895-4.8923225
		c28.2354126-52.0291328,77.5130005-89.3979034,134.7738037-104.4134521
		C1093.0050049-267.3319702,1498.5024414-373.6661072,1904-480z"/>
	
		<linearGradient id="SVGID_1_" gradientUnits="userSpaceOnUse" x1="1844.5905762" y1="256.8204651" x2="1486.8469238" y2="256.8204651">
		<stop  offset="0" style="stop-color:#FFFFFF"/>
		<stop  offset="1" style="stop-color:#FFFFFF;stop-opacity:0"/>
	</linearGradient>
	<path class="st1" d="M1815.8725586,285.5384216h-300.3077393c-15.8604736,0-28.7178955-12.8574524-28.7178955-28.717926v-0.000061
		c0-15.8604584,12.8574219-28.7179108,28.7178955-28.7179108h300.3077393c15.8604736,0,28.7180176,12.8574524,28.7180176,28.7179108
		v0.000061C1844.5905762,272.6809692,1831.7330322,285.5384216,1815.8725586,285.5384216z"/>
	
		<linearGradient id="SVGID_2_" gradientUnits="userSpaceOnUse" x1="1326.0263672" y1="-97.6410599" x2="1683.7700195" y2="-97.6410599">
		<stop  offset="0" style="stop-color:#FFFFFF"/>
		<stop  offset="1" style="stop-color:#FFFFFF;stop-opacity:0"/>
	</linearGradient>
	<path class="st2" d="M1659.9752197-73.8461914h-310.1539307c-13.1416016,0-23.7949219-10.6533127-23.7949219-23.7948456v-0.0000534
		c0-13.1415253,10.6533203-23.7948456,23.7949219-23.7948456h310.1539307c13.1414795,0,23.7947998,10.6533203,23.7947998,23.7948456
		v0.0000534C1683.7700195-84.4995041,1673.1166992-73.8461914,1659.9752197-73.8461914z"/>
	
		<linearGradient id="SVGID_3_" gradientUnits="userSpaceOnUse" x1="1383.4622803" y1="-60.3076782" x2="1647.8725586" y2="-60.3076782">
		<stop  offset="0" style="stop-color:#FFFFFF"/>
		<stop  offset="1" style="stop-color:#FFFFFF;stop-opacity:0"/>
	</linearGradient>
	<path class="st3" d="M1634.3341064-46.7692528h-237.333374c-7.4770508,0-13.5384521-6.0613556-13.5384521-13.5384102v-0.0000267
		c0-7.4770622,6.0614014-13.5384102,13.5384521-13.5384102h237.333374c7.4771729,0,13.5384521,6.061348,13.5384521,13.5384064
		v0.0000305C1647.8725586-52.8306084,1641.8112793-46.7692528,1634.3341064-46.7692528z"/>
	
		<linearGradient id="SVGID_4_" gradientUnits="userSpaceOnUse" x1="897.71875" y1="628.5127563" x2="1255.4622803" y2="628.5127563">
		<stop  offset="0" style="stop-color:#FFFFFF"/>
		<stop  offset="1" style="stop-color:#FFFFFF;stop-opacity:0"/>
	</linearGradient>
	<path class="st4" d="M1226.7443848,657.2307129H926.4366455c-15.8604736,0-28.7178955-12.8574219-28.7178955-28.7178955v-0.000061
		c0-15.8604736,12.8574219-28.7178955,28.7178955-28.7178955h300.3077393c15.8604736,0,28.7178955,12.8574219,28.7178955,28.7178955
		v0.000061C1255.4622803,644.373291,1242.6048584,657.2307129,1226.7443848,657.2307129z"/>
	
		<linearGradient id="SVGID_5_" gradientUnits="userSpaceOnUse" x1="866.5392456" y1="582.7692261" x2="1138.9494629" y2="582.7692261">
		<stop  offset="0" style="stop-color:#FFFFFF"/>
		<stop  offset="1" style="stop-color:#FFFFFF;stop-opacity:0"/>
	</linearGradient>
	<path class="st5" d="M1121.9239502,599.7948608H883.5648193c-9.4029541,0-17.0255737-7.6226196-17.0255737-17.0256348l0,0
		c0-9.4030151,7.6226196-17.0256348,17.0255737-17.0256348h238.3591309c9.4029541,0,17.0255127,7.6226196,17.0255127,17.0256348l0,0
		C1138.9494629,592.1722412,1131.3269043,599.7948608,1121.9239502,599.7948608z"/>
	
		<linearGradient id="SVGID_6_" gradientUnits="userSpaceOnUse" x1="1468.7956543" y1="723.2820435" x2="1826.5393066" y2="723.2820435">
		<stop  offset="0" style="stop-color:#FFFFFF"/>
		<stop  offset="1" style="stop-color:#FFFFFF;stop-opacity:0"/>
	</linearGradient>
	<path class="st6" d="M1797.8212891,751.999939h-300.3077393c-15.8604736,0-28.7178955-12.8574219-28.7178955-28.7178955v-0.000061
		c0-15.8604736,12.8574219-28.7178955,28.7178955-28.7178955h300.3077393c15.8604736,0,28.7180176,12.8574219,28.7180176,28.7178955
		v0.000061C1826.5393066,739.1425171,1813.6817627,751.999939,1797.8212891,751.999939z"/>
	
		<linearGradient id="SVGID_7_" gradientUnits="userSpaceOnUse" x1="1586.1290283" y1="769.0255737" x2="1815.6992188" y2="769.0255737">
		<stop  offset="0" style="stop-color:#FFFFFF"/>
		<stop  offset="1" style="stop-color:#FFFFFF;stop-opacity:0"/>
	</linearGradient>
	<path class="st7" d="M1798.673584,786.0512085h-195.5189209c-9.4030762,0-17.0256348-7.6226196-17.0256348-17.0256348l0,0
		c0-9.4030151,7.6225586-17.0256348,17.0256348-17.0256348h195.5189209c9.4029541,0,17.0256348,7.6226196,17.0256348,17.0256348l0,0
		C1815.6992188,778.4285889,1808.0765381,786.0512085,1798.673584,786.0512085z"/>
	<g>
		<circle class="st8" cx="1024.8981934" cy="-155.0769653" r="20.5128212"/>
		<circle class="st8" cx="1742.8469238" cy="579.2820435" r="20.5128212"/>
		<circle class="st8" cx="1807.2572021" cy="335.5896912" r="8.4420271"/>
		
			<rect x="1802.3291016" y="-210.4565735" transform="matrix(0.7071068 0.7071068 -0.7071068 0.7071068 402.8695679 -1345.9366455)" class="st8" width="47.5897446" height="47.5897446"/>
		
			<rect x="941.2259521" y="261.7435608" transform="matrix(0.7071068 0.7071068 -0.7071068 0.7071068 484.5541992 -598.7404785)" class="st8" width="47.5897446" height="47.5897446"/>
	</g>
</g>
</svg>
