<?xml version="1.0" encoding="utf-8"?>
<!-- Generator: Adobe Illustrator 19.0.0, SVG Export Plug-In . SVG Version: 6.00 Build 0)  -->
<svg version="1.1" id="Layer_1" xmlns="http://www.w3.org/2000/svg" xmlns:xlink="http://www.w3.org/1999/xlink" viewBox="0 0 130 130">
  <path class="hover-fillLight" fill="#76E5A2" d="M65 10c30.376 0 55 24.624 55 55s-24.624 55-55 55-55-24.624-55-55 24.624-55 55-55z"></path>
  <path fill="#FFF" d="M102.274 27.78v-.002c-9.628-9.615-22.968-15.526-37.69-15.408-28.292.228-51.557 23.072-52.238 51.32-.22 9.175 1.915 17.832 5.84 25.416.1.192.317.29.526.24.003 0 .006 0 .01-.002a.462.462 0 0 0 .324-.616c-5.15-13.598-2.25-29.54 8.713-40.488 14.915-14.898 39.102-14.898 54.02 0L48.25 81.725c14.917 14.897 39.104 14.897 54.022 0 14.916-14.897 14.917-39.048.002-53.945z"></path>
  <path class="hover-fillDark" fill="#159570" d="M88.198 58.794c3.435 12.802-4.173 25.96-16.992 29.39-12.82 3.43-25.997-4.166-29.43-16.968-3.436-12.802 4.17-25.96 16.99-29.39 12.82-3.43 25.997 4.166 29.43 16.968z"></path>
</svg>
