<?xml version="1.0" encoding="utf-8"?>
<!-- Generator: Adobe Illustrator 19.0.0, SVG Export Plug-In . SVG Version: 6.00 Build 0)  -->
<svg version="1.1" id="Layer_1" xmlns="http://www.w3.org/2000/svg" xmlns:xlink="http://www.w3.org/1999/xlink" x="0px" y="0px"
	 viewBox="0 0 616.2536621 573.8786011" style="enable-background:new 0 0 616.2536621 573.8786011;" xml:space="preserve">
<style type="text/css">
	.st0{fill:#e0dfe5;}
</style>
<g>
	<path class="st0" d="M0.0625216,311.8512268c4.8206124-72.6278229,31.376564-144.9562225,86.6361694-205.1932373
		c23.8094025-25.95401,53.2517471-45.2367973,83.377449-63.2121544
		c24.6252289-14.6933289,50.072403-27.7658997,77.2240753-37.2474518
		c8.5045013-2.9698308,17.1704865-5.3109846,26.2008209-6.1132503c11.3336487-1.0068951,17.4926758,7.0379558,13.5279846,17.8143749
		c-2.4594116,6.6849403-7.4970398,11.3175163-12.7984924,15.6760979
		c-9.933075,8.1664352-20.9230042,14.8104477-31.657547,21.8240089
		c-9.4805603,6.1942787-18.9116821,12.4649658-28.3270264,18.758194
		c-28.4758453,19.0332718-49.8551788,44.9065781-69.5550842,72.3716202
		c-3.0117188,4.1988525-5.3383484,8.8309937-7.3588715,13.5996552c-7.1747131,16.9332428-4.4358215,30.4487152,8.9385223,43.0560608
		c11.4415741,10.7854462,25.2544556,17.8271179,39.382019,24.2526245
		c17.304657,7.8705139,34.2011871,16.4229584,49.9105377,27.2293549
		c28.5441895,19.635437,45.6493835,45.9910583,48.6750793,81.0022278
		c1.9250488,22.2749634,4.4129028,44.5905762-1.1044922,66.6319885
		c-13.5069275,53.9584656-48.4637604,86.9387512-101.9841614,98.835144
		c-51.5097809,11.4495239-96.5347519-4.0670776-133.3837128-40.8963318
		c-23.5193081-23.5067749-36.264595-53.522522-43.0180244-85.9616394
		C1.0324304,356.4324646-0.3203295,338.3506165,0.0625216,311.8512268z"/>
	<path class="st0" d="M328.0335388,382.1609192c4.862915-73.5520325,31.4353943-145.8817444,86.7481995-206.0909424
		c24.0584106-26.1880798,53.77948-45.6491089,84.2682495-63.6811523
		c26.5523682-15.7039032,53.8759766-29.834465,83.5075684-38.989624c5.897522-1.822113,11.9003906-3.1415329,17.9933472-4.0457306
		c11.8128662-1.7530212,18.7817383,7.1744156,14.3659668,18.4020233
		c-2.5321655,6.4383545-7.4456787,10.9679565-12.6097412,15.2309799c-8.8861084,7.33564-18.6574097,13.4090424-28.286377,19.6872025
		c-10.4633789,6.8222351-20.8803711,13.7158203-31.2969971,20.609375
		c-28.0001831,18.5300446-48.9825134,43.9066925-68.5967407,70.5759277
		c-4.4487305,6.0488739-7.9214172,12.7180481-10.3741455,19.8655243c-4.6477051,13.5437927-2.1456909,25.6090851,7.65625,36.0397797
		c11.545929,12.2865906,26.2803345,19.7659607,41.2798462,26.6868286
		c18.1690674,8.3832703,36.0057373,17.2578735,52.4432373,28.8272095
		c27.607605,19.4312744,43.9537354,45.3348694,47.0490112,79.2883911
		c2.0452271,22.4345703,4.0976563,44.8224792-0.9271851,67.1582031
		c-11.5617065,51.3925781-53.7614136,91.3013916-105.921051,99.8770142
		c-49.9486084,8.2121582-93.2122498-5.8549805-128.9262695-41.1810913
		c-21.4055481-21.1731567-33.8493347-48.0045776-41.4138794-77.0024414
		C329.5334778,432.4906311,327.6810913,411.1208496,328.0335388,382.1609192z"/>
</g>
</svg>
