<svg width="515" height="922" fill="none" 
  xmlns="http://www.w3.org/2000/svg">
  <path d="M514.94 0H.44v922h514.5V0z" fill="#F5F6F8"/>
  <mask id="a" maskUnits="userSpaceOnUse" x="0" y="0" width="515" height="922">
    <path d="M514.94 0H.44v922h514.5V0z" fill="#F5F6F8"/>
  </mask>
  <g mask="url(#a)">
    <path d="M578.33 588.4c-93.63 242.77-257.48 98.8-434.74 337.3-177.27 238.5-301.22-381.61-163.86-570.88 137.36-189.27 256.74-74.6 502.92-308.3 246.17-233.7 189.3 299.1 95.68 541.87z" fill="#EFF0F4"/>
  </g>
  <path d="M169.25 402.61a1.04 1.04 0 0 1-.93-.55 1.05 1.05 0 0 1 .05-1.08c1.3-2.16 3.08-4 5.2-5.38a1.05 1.05 0 0 1 1.17.09 1.08 1.08 0 0 1 .4.7 1.06 1.06 0 0 1-.54 1.05 15.15 15.15 0 0 0-4.46 4.7 1.06 1.06 0 0 1-.88.47z" fill="url(#paint0_linear)"/>
  <path d="M338.42 661.15c-2.29 9.28-60.86 6.63-82.9 9.11l70.54-22.44 12.36 13.33z" fill="#DD8A05"/>
  <path d="M264.92 538.2c-6 15.93-26.43 97.2-23.97 108.64 2.47 11.44 54.63 129.46 54.63 129.46l-18.1 70.24h24.18c8.2-3.37 8.2-25.11 11.9-30.01 3.7-4.9 12.2-17.72 9.77-24.5-2.57-7.23-11.15-8.79-13.26-12.87-2.12-4.08-32.46-145.8-32.46-145.8l-12.7-95.15z" fill="#F6A87D"/>
  <path d="M262.28 476.2c-4.18 52.72 8.45 149.2 8.45 149.2s-2.64 18.58 0 24.7c2.65 6.13 18.86 98.84 9.7 138.86a4480.66 4480.66 0 0 1-11.15 48.09s-16.65 2.91-16 5.67c.67 2.75 8.07 3.82 8.07 3.82h16.13c2.9 0 13.87-15.92 18.9-19.75 5.02-3.83 19.02-9.5 19.02-19.3 0-7.96-11.04-13.43-11.63-21.29-2.11-28.18 11.1-82.06 8.2-104.74-2.91-22.67-8.72-34.92-8.46-42.28.26-7.35 11.9-103.83 11.9-103.83l-53.13-59.14z" fill="#FFBA94"/>
  <path d="M309.73 667.98c-1.57-7.65-3.3-13.7-4.52-18.56l-30.84 17.69c3.09-.64 25.02 1.93 35.36.87z" fill="#F29E79"/>
  <path d="M238 342.83c3.36 40.12-37.08 41.13-7.78 79.24-8.95 29.57 7.18 53.99 35.97 51.54 35.29-2.99 16.48-102.14 16.48-102.14L238 342.83z" fill="#6C222C"/>
  <path d="M115.02 326.54l12.48 58.52a4.93 4.93 0 0 0 4.82 3.9h72.1a3.1 3.1 0 0 0 3.04-2.39c.1-.45.1-.92.01-1.38L195 326.67a4.93 4.93 0 0 0-4.82-3.9h-72.1a3.14 3.14 0 0 0-3.04 2.39c-.1.45-.12.92-.02 1.38z" fill="#778CA3" fill-opacity=".5"/>
  <path d="M230.22 386.88c5.7 12.7 59.8 19.7 67.75 5.75 15.37-26.93-15.88-98.26-23.52-114.94-22.95 3.14-11.43 30.27-26.96 42.12-20.13 15.38 1.02 48.43-17.27 67.07z" fill="#6C222C"/>
  <path d="M339.4 397.8c12.27-19.25.38-39.36-7.96-51.15-5.4-7.62-2.67-16.56-5.11-24.72-3.92-13.07-13.57-14-14.65-20.3-3.11-17.96-17.52-34.6-37.23-23.94-31.88 1.15-11.7 79.9 18.58 112.46 11.42 12.3 26.65 17.05 46.37 7.65z" fill="#6C222C"/>
  <path d="M305 346.64c-1.13-.29-3.66.9-5.21 3.53-2.4 4.06 3.36 5.15 3.36 5.15l1.85-8.68zM265.09 388.96c1.31-.8 10.84-9.15 15.59-15.42 4.74-6.28.67 11.36.67 11.36l-16.26 4.06z" fill="#DD8A05"/>
  <path d="M284.6 343.92c4.2 10.77-.34 28.1-11.66 40.98l35-16.96c-3.6-10.56-5.25-23.97-10-38.66l-13.35 14.64z" fill="#FFC3A1"/>
  <path d="M299.45 334.53a87.94 87.94 0 0 0-1.51-5.25l-13.35 14.64a33.6 33.6 0 0 1 1.48 12.45c7.48-3.36 12.1-15.22 13.38-21.84z" fill="#E87D48"/>
  <path d="M298.77 332.51c-1.74 2.93-10.43 17-23.6 16.67-11.5-.29-22.68-37.69-7.38-55.63 15.3-17.94 51.71 4.04 30.98 38.96z" fill="#FFC3A1"/>
  <path d="M291.76 289.7a22.77 22.77 0 0 0-5.72-2.07l-12.52 1.44a18.06 18.06 0 0 0-5.73 4.48c-1.68 2-3.07 4.24-4.13 6.63 2.53 4.4 15.2 15.9 30.47 16.44 0 0 1.89-19.92-2.37-26.91z" fill="#E87D48"/>
  <path d="M264.12 292.08c.01 0 8.2 25.94 43.52 26l1.3-10.73s-6.56-20.49-18.5-25.7c-11.94-5.21-20.78-.03-20.78-.03l-4.5 1.94-1.04 8.52z" fill="#6C222C"/>
  <path d="M302.19 325.65l-7.75.46c1.2 2.13 2.9 3.93 4.98 5.22a49.9 49.9 0 0 0 2.76-5.68z" fill="#F98459"/>
  <path d="M307.05 321.36a7.26 7.26 0 1 0-14.52-.37 7.26 7.26 0 0 0 14.52.37z" fill="#FFC3A1"/>
  <path d="M296.49 321.1a3.3 3.3 0 1 1 6.59.17 3.3 3.3 0 0 1-6.59-.17z" fill="#F6A87D"/>
  <path d="M274.8 283.69l-1.44-.05c-1.23-.03-2.46.02-3.69.17-1.77.18-3.49.7-5.06 1.53a11.08 11.08 0 0 0-4.51 4.94 50.01 50.01 0 0 0-3.12 8.92c-.95 3.75-2.29 7.4-3.98 10.87a24.59 24.59 0 0 1-5.88 7.54c-.77.68-1.58 1.33-2.25 1.97a33.28 33.28 0 0 0-7.17 9.18 35.85 35.85 0 0 0-3.49 11.25c-.6 3.93-.82 7.9-1.2 11.77-.3 3.76-1 7.48-2.1 11.09a32.4 32.4 0 0 1-4.51 9.04 38.39 38.39 0 0 1-5.72 6.29 54.22 54.22 0 0 1-8.68 6.25l-1.27.75 1.24-.8c.8-.54 1.97-1.34 3.41-2.41 1.72-1.3 3.37-2.7 4.92-4.2 2-1.93 3.79-4.08 5.32-6.4a31.17 31.17 0 0 0 3.95-8.93c.9-3.54 1.4-7.17 1.52-10.83.21-3.82.23-7.83.68-11.94a38.57 38.57 0 0 1 3.21-12.27 36.56 36.56 0 0 1 7.41-10.45c.77-.79 1.5-1.43 2.21-2.12a21.01 21.01 0 0 0 4.6-6.65c1.38-3.28 2.41-6.7 3.1-10.2.65-3.43 1.63-6.79 2.93-10.03.69-1.59 1.6-3.08 2.69-4.42a15.7 15.7 0 0 1 3.66-3.21 19.88 19.88 0 0 1 7.13-2.65c1.54-.28 3.1-.44 4.65-.48l1.52-.03a3.26 3.26 0 0 1 .13 6.51H274.8z" fill="#6C222C"/>
  <path d="M272.72 281.25l.16-.65.1-.35c.04-.15.13-.38.21-.58.17-.48.39-.93.65-1.36l.43-.68c.15-.24.35-.45.53-.68.4-.49.84-.94 1.32-1.36 1.1-.94 2.32-1.72 3.63-2.32a19.8 19.8 0 0 1 4.7-1.46 20.92 20.92 0 0 1 16.1 3.78 23.2 23.2 0 0 1 5.78 6.27c.24.4.5.77.72 1.16l.63 1.2c.4.77.77 1.56 1.09 2.37.32.76.6 1.54.85 2.33.13.38.27.75.38 1.13.11.38.2.75.29 1.12.18.74.4 1.43.51 2.12.26 1.38.52 2.63.63 3.76.14 1.13.28 2.1.31 2.91l.17 2.54-.35-2.52c-.1-.8-.3-1.76-.52-2.87-.2-1.1-.54-2.32-.9-3.66-.15-.67-.43-1.34-.65-2.04l-.37-1.07c-.13-.36-.3-.71-.44-1.07a23.5 23.5 0 0 0-1-2.2c-.36-.75-.76-1.48-1.2-2.2l-.68-1.08c-.23-.36-.5-.7-.76-1.04-.51-.71-1.07-1.38-1.67-2.02a19.75 19.75 0 0 0-8.76-5.49 18.14 18.14 0 0 0-9.46-.18c-1.3.33-2.57.83-3.75 1.48-.95.52-1.83 1.17-2.6 1.93-.3.3-.56.63-.8.97-.1.16-.23.3-.3.45l-.22.42c-.1.2-.19.4-.25.6a2.2 2.2 0 0 0-.1.24l-.06.35-.11.66a2.17 2.17 0 0 1-4.28-.75l.04-.16z" fill="#6C222C"/>
  <path d="M288.23 267.78H288c-.24-.02-.47-.01-.7 0-.36.04-.71.1-1.06.17l-.64.14-.7.22a14.9 14.9 0 0 0-3.09 1.46 13.16 13.16 0 0 0-2.91 2.44c-.2.25-.43.48-.61.73l-.52.77c-.31.5-.59 1.02-.83 1.56a11.8 11.8 0 0 0-.75 2.97l-.09 1.23c0 .36.04.68.06.94l.05.82v.21a2.2 2.2 0 1 1-4.34-.15l.14-1.08c.05-.34.09-.75.18-1.22l.42-1.56a15.57 15.57 0 0 1 1.73-3.6c.44-.6.9-1.18 1.41-1.72l.8-.8c.28-.25.6-.46.89-.7a14.81 14.81 0 0 1 7.31-2.96l.76-.08.69-.02a8.44 8.44 0 0 1 1.8.17l.24.06z" fill="#6C222C"/>
  <path d="M318.41 381.5l-.82 4.42c-.18.9-.36 1.84-.56 2.7l-.62 2.41a87.77 87.77 0 0 1-3.08 9.3c-.56 1.5-1.23 2.95-1.86 4.4-.67 1.44-1.33 2.87-2.06 4.26-.7 1.4-1.46 2.75-2.2 4.1-.79 1.33-1.55 2.67-2.38 3.96a128.02 128.02 0 0 1-16.63 21.12 120.4 120.4 0 0 1-3.16 3.14l-1.65 1.56-1.84 1.65-.32.32a9.31 9.31 0 0 1-11.1 1.46l-1.34-.76-1.22-.73-2.4-1.45a215.31 215.31 0 0 1-13.66-9.28 201 201 0 0 1-16.98-13.96A157.2 157.2 0 0 1 219.25 404l-1.75-2.18-1.7-2.24c-1.14-1.49-2.2-3.05-3.27-4.6-1.03-1.57-2.08-3.14-3.03-4.79-1-1.6-1.88-3.3-2.8-4.96a7.6 7.6 0 0 1 13.03-7.76l.26.4c.86 1.36 1.65 2.74 2.58 4.06.88 1.35 1.85 2.65 2.8 3.95 1 1.28 1.97 2.57 3.03 3.82l1.57 1.87 1.64 1.83c4.46 4.88 9.26 9.44 14.37 13.65a183.09 183.09 0 0 0 16.1 11.9 196.08 196.08 0 0 0 12.85 7.79l2.16 1.17 1.07.56.97.48-11.43 1.78c.06-.1.28-.37.43-.59l.51-.71 1.05-1.48a111.92 111.92 0 0 0 5.83-9.46 99.25 99.25 0 0 0 6.09-13.24c.43-1.11.79-2.24 1.17-3.35.34-1.12.7-2.23 1-3.34.32-1.12.56-2.23.83-3.34.22-1.1.49-2.2.64-3.3a56.53 56.53 0 0 0 .73-6.47l.08-1.58c0-.5-.03-.89-.03-1.33l-.07-3.67v-.08a16.35 16.35 0 0 1 22.36-15.52 16.35 16.35 0 0 1 10.1 18.22z" fill="#FCAC80"/>
  <path d="M215.79 381.56c-4-.08-10.94-1.69-11.97-2.49l.93-17.69 8.8 9.29 2.24 10.9z" fill="#E87D48"/>
  <path d="M360.58 456.62c1.8 3.97-29.06 13.74-48.9 11.2-19.84-2.52-11.52-27.48-11.52-27.48l60.42 16.28z" fill="#DD8A05"/>
  <path d="M269.05 456.62h48.48s22.43 33.82 23.51 78.7c.6 24.62-8.19 60.76-2.62 125.83-35.72-9.75-92.55 24.09-114.64 2 8.35-68.39 24.04-172.57 45.27-206.53z" fill="#FFB948"/>
  <path d="M341.04 535.32c-1.08-44.88-23.51-78.7-23.51-78.7h-48.48a91.42 91.42 0 0 0-6.28 12.42l.32.77c6.13 5.64 23.3 166.3 75.33 191.34-5.57-65.07 3.22-101.21 2.62-125.83z" fill="url(#paint1_linear)"/>
  <path d="M118.28 326.54l12.47 58.52a4.92 4.92 0 0 0 4.82 3.9h72.1a3.12 3.12 0 0 0 3.06-3.77l-12.47-58.52a4.93 4.93 0 0 0-4.83-3.9h-72.1a3.11 3.11 0 0 0-3.05 3.77z" fill="#F75F4B"/>
  <path d="M331.02 484.66c-6.4-17.35-13.5-28.05-13.5-28.05h-48.47a88.67 88.67 0 0 0-5.96 11.63c4.97-.6 51.55 1.04 67.94 16.42z" fill="url(#paint2_linear)"/>
  <path d="M262.8 463.88l2.29-74.92c28.38-17.01 39.9-42.32 39.9-42.32 5.94 18.72 42.56 41.78 55.59 109.98-35.28-4.89-97.79 7.26-97.79 7.26z" fill="#FFB948"/>
  <path d="M264.3 414.9l-1.5 48.98s13.1-2.54 30.67-4.83c21.34-23.53 24.24-61.67 24.03-68.04l-53.2 23.89z" fill="url(#paint3_linear)"/>
  <path d="M123.53 330.86l10.29 48.54a4.48 4.48 0 0 0 4.39 3.55h63.95a2.83 2.83 0 0 0 2.78-3.43l-10.29-48.54a4.49 4.49 0 0 0-4.39-3.55h-63.95a2.84 2.84 0 0 0-2.78 3.43z" fill="#fff"/>
  <path d="M194.65 330.98a4.49 4.49 0 0 0-4.39-3.55h-63.95a2.84 2.84 0 0 0-2.78 3.43l2.96 13.96 71.87 3.64-3.71-17.48z" fill="url(#paint4_linear)" fill-opacity=".5"/>
  <path d="M166.69 359.32a9.52 9.52 0 0 1-3.97-2.87 9.02 9.02 0 0 1-1.96-4.43 9.2 9.2 0 0 1 .53-4.87 9.53 9.53 0 0 1 7.47-5.88l-.69-4.52c-2.53.39-4.79 1.36-6.74 2.93-2.01 1.56-3.45 3.5-4.38 5.82a13.6 13.6 0 0 0-.82 7.23 14.06 14.06 0 0 0 8.84 10.9c2.35.9 4.78 1.19 7.31.8l-.7-4.6c-1.7.26-3.33.09-4.9-.51zM168.89 342.07l2.61 17.06a8.72 8.72 0 0 0 7.37-9.86 8.72 8.72 0 0 0-9.98-7.2z" fill="#FFDBDE"/>
  <path d="M288 429.4c-1.5.44-8.14-5.2-9.23-11.54l14.7-9.9-5.47 21.43z" fill="#DD8A05"/>
  <path d="M313.83 398.5l-.86 1.06-1.49 1.77-.83.95c-.27.3-.43.45-.65.67l-1.25 1.26-2.4 2.23-2.34 2.03c-3.08 2.61-6.1 4.95-9.13 7.25a509.75 509.75 0 0 1-18.19 13.02A969.23 969.23 0 0 1 258.4 441l-9.22 5.98-9.28 5.92-1 .63a8.9 8.9 0 0 1-9.3.17 122.5 122.5 0 0 1-4.94-2.94 215.31 215.31 0 0 1-13.66-9.28c-5.92-4.35-11.59-9-16.99-13.97a157.1 157.1 0 0 1-15.28-16.1 113.24 113.24 0 0 1-3.45-4.43c-1.13-1.49-2.2-3.05-3.26-4.6-1.04-1.57-2.08-3.14-3.04-4.78-1-1.6-1.88-3.3-2.8-4.97a7.59 7.59 0 0 1 2.94-10.32c3.53-1.96 8.33.63 8.33.63 19.34 30.45 54.45 49.8 55.37 50.32l3.62-3.17 8.08-7.17c5.36-4.8 10.67-9.63 15.88-14.5 5.2-4.88 10.34-9.8 15.19-14.76 2.41-2.48 4.78-4.97 6.89-7.4l1.52-1.8 1.34-1.7.55-.77c.09-.12.17-.23.24-.35l.02-.11.04-.1.15-.26.7-1.17.07-.12a16.33 16.33 0 1 1 26.73 18.61z" fill="#FFBA94"/>
  <path d="M271.42 397.8c1.12 1.3 8.85 16.67 8.3 28.83a476.1 476.1 0 0 0 15.16-10.92l.34-.26-23.8-17.65z" fill="#E87D48"/>
  <path d="M178.62 385.1a1.06 1.06 0 0 1-.99-1.45c.23-.57.4-1.31 0-1.56-1.09-.65-4.34.32-5.83 2.05a1.06 1.06 0 0 1-1.8-.64c-.03-.26.04-.53.2-.75 1.95-2.25 6.26-3.83 8.52-2.48.6.37 1.91 1.5.9 4.15a1.05 1.05 0 0 1-1 .67z" fill="url(#paint5_linear)"/>
  <path d="M177.45 382.95c4.32-18.15-6.6-28.27-11.42-41.2-5.27 1.98 4.1 22.19 4.1 22.19l-.57 17.62 7.9 1.39z" fill="#FFC3A1"/>
  <path d="M205.52 349.67v.76a8.23 8.23 0 0 0 .85 2.87 18.58 18.58 0 0 0 2.32 3.5c1.03 1.28 2.27 2.64 3.56 4.08a60 60 0 0 1 3.82 4.62 26.8 26.8 0 0 1 2.96 5.04 21.48 21.48 0 0 1 1.38 4.36c.12.55.15 1 .2 1.31l.06.47.01.06a5.43 5.43 0 1 1-10.78.18l.02-.21a8.04 8.04 0 0 0 .05-1.6c-.03-.47-.09-.93-.17-1.38-.27-1.3-.69-2.55-1.24-3.75a51.07 51.07 0 0 0-2.44-4.66c-.94-1.65-1.96-3.36-2.84-5.1a23.96 23.96 0 0 1-2-5.24 13.69 13.69 0 0 1-.34-4.3c.03-.26.05-.57.08-.71l.09-.4.07-.34a2.19 2.19 0 0 1 4.34.44z" fill="#FCAC80"/>
  <path d="M316.17 397.29c3.1-8.48 1.07-18.57-6.7-23.16a16.32 16.32 0 0 0-22.37 5.75l-.07.13-.7 1.17-.14.26-.04.1-.02.1c-.07.13-.15.24-.24.36l-.56.77-1.33 1.7-1.52 1.8a179.61 179.61 0 0 1-6.9 7.4c-1.35 1.38-2.77 2.75-4.16 4.13l-.1.14c1.97 1.17 17.58 21.32 16.67 31.45 5.89-4.34 26.1-26.4 28.18-32.1z" fill="#FFB948"/>
  <path d="M255.63 442.8c-22.94 15.71-44.64-1.31-44.64-1.31a217.4 217.4 0 0 0 13.66 9.28c1.62 1 3.09 1.9 4.96 2.94a8.91 8.91 0 0 0 9.3-.17l.99-.63 9.28-5.92 6.45-4.18z" fill="url(#paint6_linear)"/>
  <path d="M302.2 328.82l-3.89.49 2.01 15.98 3.88-.48-2-16z" fill="#F75F4B"/>
  <path d="M311.25 300.94l.82.82c.74.7 1.51 1.35 2.31 1.96 1.07.81 2.47 1.74 4.14 2.85a35.48 35.48 0 0 1 5.53 4.34c2.01 2.02 3.63 4.4 4.76 7a38.77 38.77 0 0 1 2.59 8.79c.54 3.15.89 6.33 1.04 9.53l.1 2.4a14.46 14.46 0 0 0 .32 2.25c.36 1.5.9 2.97 1.6 4.36a74.53 74.53 0 0 0 4.99 8.2c1.78 2.68 3.53 5.35 5 8.07a38.7 38.7 0 0 1 3.38 8.25c.7 2.58 1.05 5.25 1.02 7.92-.1 3.97-.9 7.9-2.4 11.58a46.4 46.4 0 0 1-1.32 3.04l-.51 1.06.47-1.08c.3-.7.74-1.73 1.21-3.07 1.34-3.7 2-7.6 1.95-11.53-.06-2.6-.49-5.19-1.27-7.67a37.72 37.72 0 0 0-3.59-7.9 100.19 100.19 0 0 0-5.22-7.78 75.88 75.88 0 0 1-5.41-8.23 22.02 22.02 0 0 1-1.92-4.73 17.14 17.14 0 0 1-.45-2.56l-.23-2.41c-.29-3.08-.77-6.13-1.44-9.15a35.93 35.93 0 0 0-2.76-7.98 19.5 19.5 0 0 0-4.36-5.8 32.03 32.03 0 0 0-5.15-3.63c-1.69-1-3.23-1.92-4.47-2.78a32.5 32.5 0 0 1-2.86-2.2l-.87-.79a2.17 2.17 0 0 1 2.92-3.21l.08.08z" fill="#6C222C"/>
  <path d="M169.53 369.63a2.11 2.11 0 0 1-1.97-1.35l-1.8-4.62a2.11 2.11 0 1 1 3.94-1.53l1.8 4.62a2.12 2.12 0 0 1-1.97 2.88z" fill="#FFC3A1"/>
  <path d="M166.03 370.35a2.11 2.11 0 0 1-1.97-1.35l-1.8-4.62a2.12 2.12 0 0 1 3.95-1.53l1.8 4.62a2.11 2.11 0 0 1-1.97 2.88z" fill="#FFC3A1"/>
  <path d="M162.56 371.94a2.12 2.12 0 0 1-1.97-1.35l-1.8-4.62a2.11 2.11 0 1 1 3.94-1.53l1.8 4.62a2.12 2.12 0 0 1-1.97 2.88z" fill="#FFC3A1"/>
  <path d="M165.5 397.66h-.33a3.82 3.82 0 0 1-3.68-2.37c-1.19-2.88.72-7.5 2.16-9.06a1.06 1.06 0 0 1 1.55 1.43c-1.06 1.16-2.52 4.97-1.75 6.82.17.43.55 1 1.82 1.06 5.76.28 11.84-9.3 12.56-12.53a1.06 1.06 0 0 1 2.06.46c-.8 3.6-7.14 14.19-14.39 14.19z" fill="#87548E"/>
  <path d="M165.85 392c-1.53-2.36-11.39-20.53-7.68-26.64 1.8-2.97 13.44-1.24 13.44-1.24l4.6 18.06-10.36 9.81z" fill="#FFC3A1"/>
  <path d="M274.37 542.06s.54 2.05 1.44 5.65c.91 3.59 2.26 8.71 4.08 14.79a277.25 277.25 0 0 0 16.83 43.17A196.44 196.44 0 0 0 309 626.93l3.3 4.69 3.33 4.36 3.3 3.98 3.21 3.59c2.15 2.21 4.12 4.23 5.98 5.88 1.79 1.73 3.54 3.01 4.88 4.18 1.39 1.1 2.53 1.9 3.28 2.48.58.4 1.18.78 1.81 1.1 0 0 .94 2.8.32 3.96-.62 1.16-3.95 4.13-5.83 2.74l-.2-.16-1.22-1.02c-.78-.68-1.98-1.63-3.41-2.93-1.38-1.35-3.18-2.87-4.98-4.85-1.89-1.9-3.86-4.17-5.99-6.66l-3.16-4c-1.06-1.41-2.1-2.9-3.2-4.4-1.06-1.54-2.1-3.15-3.19-4.77l-3.12-5.08a190.36 190.36 0 0 1-11.24-22.58 280.03 280.03 0 0 1-14.26-44.6 363.86 363.86 0 0 1-3.16-15.05c-.68-3.65-1.1-5.73-1.1-5.73z" fill="url(#paint7_linear)"/>
  <path d="M263.09 507.78c-.01 1.38.04 2.75.17 4.13.25 2.63.61 6.37 1.26 10.84.61 4.47 1.46 9.67 2.51 15.21 1.05 5.54 2.3 11.42 3.76 17.24.67 2.92 1.54 5.8 2.29 8.64.8 2.84 1.69 5.6 2.48 8.28l2.63 7.63 2.6 6.7 2.46 5.54c.7 1.67 1.49 3.01 2.06 4.17l1.85 3.58.1.18a3.17 3.17 0 0 1-3.8 4.52 3.19 3.19 0 0 1-1.94-1.8l-1.7-3.9c-.52-1.25-1.26-2.72-1.86-4.5l-2.17-5.9-2.23-7.07c-.69-2.53-1.4-5.2-2.16-7.95-.64-2.79-1.35-5.65-1.97-8.57-.57-2.94-1.25-5.9-1.73-8.9a312.42 312.42 0 0 1-2.65-17.58c-.7-5.63-1.2-10.9-1.51-15.42-.36-4.52-.48-8.3-.54-10.93-.04-1.38-.01-2.77.09-4.14z" fill="url(#paint8_linear)"/>
  <path d="M265.77 293.51l.08 1.78c.03.6.1 1.21.23 1.81.05.36.11.72.2 1.08l.34 1.24c.27.93.6 1.85.97 2.75.2.48.46.96.7 1.46.24.51.5 1.01.8 1.5l.9 1.52 1.05 1.49c.34.51.74.99 1.13 1.48.39.48.76.99 1.2 1.44l1.28 1.4c.43.45.9.87 1.34 1.3.88.9 1.86 1.65 2.75 2.44.96.7 1.84 1.46 2.77 2.05.9.62 1.77 1.2 2.6 1.67l1.2.7 1.1.56c.7.36 1.31.68 1.83.88l1.63.7-1.7-.53c-.54-.15-1.18-.4-1.92-.7l-1.17-.45-1.27-.58c-.9-.39-1.83-.89-2.82-1.42-1-.5-1.98-1.17-3.04-1.8-1-.71-2.08-1.39-3.08-2.21-.5-.4-1.03-.79-1.53-1.22l-1.48-1.32c-.5-.42-.94-.92-1.42-1.38-.47-.46-.94-.93-1.36-1.44l-1.27-1.48-1.15-1.54c-.38-.5-.72-1-1.04-1.54-.32-.53-.66-1.02-.94-1.54a28.56 28.56 0 0 1-1.43-3l-.54-1.4c-.18-.44-.27-.92-.4-1.35-.2-.71-.37-1.44-.49-2.18l-.26-1.76a2.12 2.12 0 0 1 3.35-2.01 2.14 2.14 0 0 1 .86 1.6z" fill="#6C222C"/>
  <path d="M171.25 408.49c-1.01.01-2-.37-2.74-1.06-1.37-1.31-1.9-4 .16-6.82a1.06 1.06 0 1 1 1.7 1.25c-1.3 1.79-1.12 3.35-.4 4.04.85.82 2.4.55 3.95-.69 6.83-5.47 6.78-15.95 5.6-19.2a1.07 1.07 0 0 1 .29-1.14 1.05 1.05 0 0 1 1.49.07c.1.1.17.22.21.35 1.37 3.78 1.5 15.35-6.27 21.57a6.44 6.44 0 0 1-3.99 1.63z" fill="#87548E"/>
  <path d="M37.7 192.43H-9.65c-5.33 0-5.7-.74-5.18-6.14.67-7.4 1.04-14.72 3.18-21.9 1.48-5.1 3.33-10.05 7.1-14.05 4.6-4.95 10.22-6.06 16.58-4.73 8.58 1.7 15.39 6.8 22.05 12.13a79.2 79.2 0 0 1 9.99 9.32c1.85 2.07 3.4 2 5.33.3 2.44-2.15 5.25-3.63 8.2-4.96 9.18-4.29 17.47-2.37 23.61 5.7 4.81 6.28 7.1 13.75 8.66 21.37.37 1.85-.37 2.88-2.22 2.88-2.07.08-4.22.08-6.3.08H37.72z" fill="#FEFEFE"/>
  <defs>
    <linearGradient id="paint0_linear" x1="168.2" y1="399.04" x2="175.14" y2="399.04" gradientUnits="userSpaceOnUse">
      <stop stop-color="#87548E"/>
      <stop offset=".09" stop-color="#804D87"/>
      <stop offset=".41" stop-color="#693672"/>
      <stop offset=".72" stop-color="#5C2964"/>
      <stop offset="1" stop-color="#572460"/>
    </linearGradient>
    <linearGradient id="paint1_linear" x1="480.16" y1="685.89" x2="282.02" y2="521.54" gradientUnits="userSpaceOnUse">
      <stop stop-color="#DD8A05"/>
      <stop offset="1" stop-color="#FFB948"/>
    </linearGradient>
    <linearGradient id="paint2_linear" x1="296.55" y1="493.21" x2="298.09" y2="442.9" gradientUnits="userSpaceOnUse">
      <stop stop-color="#FFB948"/>
      <stop offset="1" stop-color="#DD8A05"/>
    </linearGradient>
    <linearGradient id="paint3_linear" x1="16699.1" y1="13396.9" x2="19719" y2="11668.2" gradientUnits="userSpaceOnUse">
      <stop stop-color="#FFB948"/>
      <stop offset="1" stop-color="#DD8A05"/>
    </linearGradient>
    <linearGradient id="paint4_linear" x1="10030.5" y1="1904.79" x2="20064.8" y2="1904.79" gradientUnits="userSpaceOnUse">
      <stop stop-color="#FBF7F7"/>
      <stop offset="1" stop-color="#C4D8D2"/>
    </linearGradient>
    <linearGradient id="paint5_linear" x1="169.94" y1="382.43" x2="179.98" y2="382.43" gradientUnits="userSpaceOnUse">
      <stop stop-color="#572460"/>
      <stop offset=".28" stop-color="#5C2964"/>
      <stop offset=".59" stop-color="#693672"/>
      <stop offset=".91" stop-color="#804D87"/>
      <stop offset="1" stop-color="#87548E"/>
    </linearGradient>
    <linearGradient id="paint6_linear" x1="232.72" y1="461.4" x2="233.22" y2="445" gradientUnits="userSpaceOnUse">
      <stop stop-color="#F29E79"/>
      <stop offset="1" stop-color="#FFC3A1"/>
    </linearGradient>
    <linearGradient id="paint7_linear" x1="24462.3" y1="49502.5" x2="14799.5" y2="45287" gradientUnits="userSpaceOnUse">
      <stop stop-color="#DD8A05"/>
      <stop offset="1" stop-color="#FFB948"/>
    </linearGradient>
    <linearGradient id="paint8_linear" x1="8115.99" y1="34674.9" x2="1464.83" y2="31844.8" gradientUnits="userSpaceOnUse">
      <stop stop-color="#FFB948"/>
      <stop offset="1" stop-color="#DD8A05"/>
    </linearGradient>
  </defs>
</svg>
