<svg width="1440" height="896" viewBox="0 0 1440 896" fill="none" 
  xmlns="http://www.w3.org/2000/svg">
  <mask id="mask0" mask-type="alpha" maskUnits="userSpaceOnUse" x="0" y="0" width="1440" height="896">
    <path d="M1440 0H0V896H1440V0Z" fill="white"/>
  </mask>
  <g mask="url(#mask0)">
    <path d="M1221.39 548.223C1126.62 573.138 1030.18 573.111 935.394 548.144C840.611 523.177 757.462 476.597 685.944 405.08C614.427 333.563 566.184 248.75 541.217 153.967C516.25 59.1838 516.223 -37.255 541.138 -132.024C566.053 -226.793 614.25 -308.254 684.065 -381.396L494.461 -571C389.737 -466.276 318.273 -341.591 280.069 -200.268C241.865 -58.9462 241.905 84.0493 280.187 225.393C318.468 366.736 390.001 491.461 496.445 597.906C602.89 704.35 725.951 774.219 867.295 812.501C1008.64 850.783 1151.63 850.822 1292.96 812.618C1435.94 776.077 1560.63 704.614 1665.35 599.89L1470.76 405.296C1400.94 475.112 1316.15 523.308 1221.39 548.223Z" fill="#ECEDF2"/>
  </g>
</svg>
