<svg xmlns="http://www.w3.org/2000/svg" width="89" height="82"><g fill="none" fill-rule="evenodd"><path fill="#ff3939" d="M40.025 3.672s-11.49 48.872 3.686 75.686c0 0-9.552-6.169-19.39-12.652-5.959-3.927-12.382-7.65-15.82-11.1-2.71-2.718-1.166-4.928-.435-6.162C11.255 44.06 40.025 3.672 40.025 3.672"/><path stroke="#001E62" stroke-linecap="square" stroke-width="1.514" d="M45.01 80.601L8.5 55.607s-3.651-2.528-.842-6.459c5.484-7.679 22.186-31.735 22.186-31.735M7.737 29.258C1.042 24.356-15.928-.01 56.243 12.638m7.423-2.664a6.04 6.04 0 01-2.227 11.651 6.038 6.038 0 01-6.039-6.038c0-1.073.16-1.854.651-2.728"/><path stroke="#001E62" stroke-linecap="square" stroke-width="1.514" d="M51.397 71.974L82.08 29.489 71.407 1.405H41.92l-6.624 7.92"/><path fill="#ffb500" d="M54.218 53.183c-1.184-.88-.56-2.401.915-2.401h9.689c.664 0 1.252-.789 1.457-1.42l2.967-9.312c.46-1.413 2.456-1.503 2.916-.09l2.654 8.123c-.875 2.304-2.188 4.708-4.112 7.216-3.208 4.18-3.842 8.311-3.139 12.09l-5.554 4.005c-1.2.867-2.81-.306-2.355-1.716l2.996-9.288c.2-.624-.019-1.128-.545-1.52l-7.889-5.687z"/><path stroke="#001E62" stroke-linecap="square" stroke-linejoin="round" stroke-width="1.514" d="M71.797 39.87L74.765 49c.204.631.793 1.06 1.457 1.06h9.689c1.476 0 2.099 1.881.914 2.762l-7.888 5.866a1.532 1.532 0 00-.544 1.702l2.995 9.286c.454 1.409-1.156 2.58-2.355 1.712l-7.792-5.626a1.533 1.533 0 00-1.8.004l-7.79 5.676c-1.198.873-2.815-.294-2.362-1.707l3-9.36a1.535 1.535 0 00-.546-1.698l-7.883-5.854c-1.186-.88-.562-2.763.914-2.763h9.684c.663 0 1.252-.429 1.457-1.06l2.967-9.13c.459-1.413 2.457-1.413 2.915 0z"/></g></svg>