<svg xmlns="http://www.w3.org/2000/svg" width="89" height="90"><g fill="none" fill-rule="evenodd"><path fill="#ffb500" d="M47.155 21.796a7.876 7.876 0 00-6.337 3.191c.26-.031.522-.051.789-.051 2.152 0 4.06 1.03 5.272 2.618a2.152 2.152 0 011.36 3.989l.002.027c0 2.072-2.119 5.365-3.962 7.84.314.414.618.806.904 1.168a2.513 2.513 0 003.944 0c2.337-2.953 5.917-7.956 5.917-10.891a7.89 7.89 0 00-7.889-7.891"/><path stroke="#001E62" stroke-linecap="square" stroke-linejoin="round" stroke-width="1.496" d="M54.606 29.852c0 3.024-3.69 8.178-6.096 11.22a2.59 2.59 0 01-4.062 0c-2.407-3.042-6.096-8.196-6.096-11.22a8.128 8.128 0 1116.254 0z"/><path stroke="#001E62" stroke-linecap="square" stroke-linejoin="round" stroke-width="1.496" d="M48.695 29.852a2.216 2.216 0 11-4.432 0 2.216 2.216 0 014.432 0z"/><path fill="#ff3939" d="M70.86 31.79c-5.43 0-10.245 2.623-13.251 6.67.542-.064 1.09-.106 1.649-.106 4.5 0 8.49 2.153 11.024 5.476.19-.024.381-.041.577-.041a4.5 4.5 0 014.5 4.5c0 1.657-.898 3.1-2.231 3.881 0 .02.003.04.003.059 0 4.332-4.432 11.218-8.287 16.39.657.869 1.295 1.69 1.892 2.445 2.107 2.661 6.14 2.661 8.247 0 4.886-6.175 12.374-16.636 12.374-22.775 0-9.112-7.386-16.5-16.498-16.5"/><path stroke="#001E62" stroke-linecap="square" stroke-linejoin="round" stroke-width="1.496" d="M87.357 48.289c0 6.138-7.488 16.601-12.375 22.774-2.106 2.662-6.139 2.662-8.246 0C61.85 64.89 54.362 54.427 54.362 48.29c0-9.113 7.386-16.5 16.498-16.5 9.11 0 16.497 7.387 16.497 16.5z"/><path stroke="#001E62" stroke-linecap="square" stroke-linejoin="round" stroke-width="1.496" d="M87.357 48.289c0 6.138-7.488 16.601-12.375 22.774-2.106 2.662-6.139 2.662-8.246 0C61.85 64.89 54.362 54.427 54.362 48.29c0-9.113 7.386-16.5 16.498-16.5 9.11 0 16.497 7.387 16.497 16.5z"/><path stroke="#001E62" stroke-linecap="square" stroke-linejoin="round" stroke-width="1.496" d="M75.359 48.289a4.5 4.5 0 11-9 0 4.5 4.5 0 019 0z"/><path stroke="#001E62" stroke-linecap="square" stroke-linejoin="round" stroke-width="1.496" d="M66.254 32.318c1.161-6.48-.681-13.406-5.48-18.446-8.38-8.802-22.392-8.802-30.772 0-7.539 7.92-7.785 20.494-.538 28.682.198.224.4.443.606.657 2.193 2.283 2.225 5.871-.023 8.101L9.618 71.582a5.05 5.05 0 01-7.14-7.141l19.844-19.846.187-.131c-7.806-11.2-6.38-26.884 4.282-36.445 10.269-9.207 26.004-9.38 36.455-.38 12.345 10.63 12.865 29.285 1.56 40.592-8.275 8.276-20.487 10.216-30.607 5.82m3.486-5.751a21.296 21.296 0 0016.478-.451m.877 24.871c.154 3.812-4.232 10.495-7.11 14.45a3.266 3.266 0 01-5.12.207c-3.188-3.71-8.1-10.017-8.253-13.83-.23-5.656 4.17-10.427 9.827-10.656 5.656-.229 10.427 4.172 10.656 9.83z"/><path stroke="#001E62" stroke-linecap="square" stroke-linejoin="round" stroke-width="1.496" d="M47.592 73.021a2.796 2.796 0 11-5.586.227 2.796 2.796 0 015.586-.227z"/></g></svg>