<?xml version="1.0" encoding="utf-8"?>
<!-- Generator: Adobe Illustrator 19.0.0, SVG Export Plug-In . SVG Version: 6.00 Build 0)  -->
<svg version="1.1" id="Layer_1" xmlns="http://www.w3.org/2000/svg" xmlns:xlink="http://www.w3.org/1999/xlink" x="0px" y="0px"
	 width="1000px" height="1000px" viewBox="-11 -220 1000 1000" style="enable-background:new -11 -220 1000 1000;"
	 xml:space="preserve">
<style type="text/css">
	.st0{clip-path:url(#SVGID_2_);}
	.st1{fill:#E7EBF4;}
	.st2{fill:#D1D8E5;}
	.st3{fill:#B3B6B7;}
</style>
<g>
	<defs>
		<rect id="SVGID_1_" x="-11" y="-220" width="1000" height="1000"/>
	</defs>
	<clipPath id="SVGID_2_">
		<use xlink:href="#SVGID_1_"  style="overflow:visible;"/>
	</clipPath>
	<g id="XMLID_40_" class="st0">
		<path id="XMLID_37_" class="st1" d="M527.0854492,581.3970337c-0.460022,0.2420654-0.8264771,0.6012573-1.3347778,0.7727051
			c-1.0479736,0.3573608-2.1152954,0.5264282-3.1633301,0.5264282c-4.1292114,0-7.9782715-2.6030884-9.3692017-6.7322998
			l-0.6109009-1.8092651l-63.4885254-31.7599487l-4.8126221,11.2279663
			c-2.1442871,5.0178223-7.9493408,7.3552856-12.9865112,5.1917114c-3.7428589-1.6033936-5.9885864-5.2496948-5.99823-9.0794678
			c0-1.3039551,0.2559814-2.6320801,0.8065186-3.9070435l1.3172607-3.0734253
			c-52.130188,14.9865723-106.9660339,27.8933716-160.2848511,40.3087769
			c-23.2492218,5.4120483-46.8020477,10.9448853-70.2933197,16.6514893l23.3071289,56.6940918
			c2.0766907,5.0516357-0.3332214,10.8325195-5.3848877,12.9092407c-1.2315063,0.5070801-2.5065002,0.7485352-3.7573242,0.7485352
			c-3.8925781,0-7.5823059-2.3132935-9.1519165-6.1334229l-24.4342041-59.4402466
			c-11.7344666,2.9254761-23.4490051,5.8829346-35.0464478,8.9575195L139.999649,627.24823
			c-0.9369202,5.3752441-5.9934082,8.9683838-11.4410706,8.0507813c-4.8053284-0.8355103-8.1908264-5.0081787-8.1956482-9.7218018
			c0-0.5650024,0.043457-1.1397095,0.1448975-1.7192993l0.7938232-4.5638428
			c-6.1919861,1.7199097-12.472168,3.3703613-18.5856934,5.1482544
			c15.7634583,8.7655029,33.2703857,19.2455444,50.2991943,29.4405518
			c13.2026367,7.9035034,26.6105042,15.9005127,39.3078613,23.1882324l70.2293243-16.7450562l202.5049133-54.3306274
			l63.9165039-23.6536255L527.0854492,581.3970337z"/>
		<polygon id="XMLID_36_" class="st2" points="503.7764893,605.7714844 550.0913696,592.9057007 541.0861206,588.401001 
			494.1470947,605.7714844 		"/>
		<path id="XMLID_35_" class="st2" d="M94.8100739,631.4317627v12.1401978l59.771637,22.7716675
			c-2.2173462-1.3257446-4.4407043-2.6502075-6.6471863-3.970459
			C129.789505,651.5079956,111.2436371,640.4533081,94.8100739,631.4317627z"/>
		<path id="XMLID_34_" class="st2" d="M211.8722076,687.9887695l44.3106232-7.3890991l1.4923096-8.9448242l-52.6572113,12.555481
			C207.3047028,685.4714355,209.6772003,686.8152466,211.8722076,687.9887695z"/>
		<path class="st3" d="M566.0093384,589.8099976l-22.5440674-11.2774658l-0.0361938-0.0181274l-11.045105-5.5255127
			c0.0217896-1.1107788-0.0512695-2.2384644-0.4273682-3.3516846l-42.4657593-125.7697144l-0.2330322-2.9417725
			c0.1231689-0.097168,0.2783203-0.1762695,0.392395-0.27948c1.0625-0.9658813,1.9945679-3.0812378,1.9607544-4.515564
			c-0.0506592-2.1057129-1.1837769-3.8533325-3.1777954-5.619751l-0.4533691-5.7223511
			c0.3338623-0.7129517,0.5282593-1.4898682,0.5258179-2.223999c-0.0029907-1.1276855-0.3760986-2.0494995-0.9326782-2.909729
			l-0.8143921-10.2844238c0.2046509-0.6386719,0.3568115-1.300354,0.3272095-1.8883057
			c-0.0446777-0.8675537-0.3048706-1.6064453-0.6586304-2.2982788l-0.6845703-8.6393433
			c0.0126953-0.1599731,0.0977783-0.3374634,0.0923462-0.4890137c-0.0072021-0.2155151-0.1484985-0.3525391-0.1750488-0.5553589
			l-0.6344604-8.0115356c0.0844727-0.3103027,0.2988281-0.5559692,0.3217773-0.8892212
			c0.0657959-0.9284668-0.2010498-1.7700195-0.5934448-2.5427246l-47.9140015-604.9497681
			c-0.4298706-5.4428406-5.2110596-9.4513245-10.6442261-9.0794525c-5.4428711,0.4346466-9.5092773,5.1965332-9.0794678,10.6442108
			l47.559082,600.4733887c-2.7371216,0.3773193-3.8062744,1.0981445-4.7069702,1.9963989
			c-1.0093384,1.0045776-1.6951294,2.767334-1.6082153,4.1871948c0.197998,3.1826172,2.5209961,4.8874512,6.7709351,6.7612915
			c-0.4008179,0.2608032-0.7727051,0.5698853-1.1107788,0.9320679c-0.9176025,0.9852295-1.5502319,2.7093506-1.482666,4.0471191
			c0.1328125,2.4702759,1.5991821,4.1074829,4.000061,5.5943604l0.0102539,0.1273804
			c-1.3661499,0.3875732-2.5403442,0.9713745-3.454895,1.9233398c-0.9176025,0.9611206-1.661377,2.878418-1.6178589,4.2016602
			c0.0675659,2.2457275,1.2653198,4.0230103,3.3323364,5.7181396c-0.6133423,0.2269897-1.173584,0.5457153-1.6854858,0.9755859
			c-1.1156616,0.9272461-1.927002,2.6223755-1.9414673,4.071228c-0.0308228,3.2774048,2.3936157,5.2641602,7.3504639,8.1467896
			l0.1895752,2.3990479c-2.0857544,0.3676147-3.802002,1.9680176-4.0821533,4.1793213
			c-0.3380737,2.7093506,1.5841064,5.1820068,4.293457,5.5200806c0.2136841,0.0266113,0.3531494,0.0332031,0.5620117,0.0585938
			l0.1768799,2.2354126l-37.2039795,86.8162231c-54.157959,15.887207-111.7037964,29.3892822-167.552063,42.3920898
			c-23.7587128,5.5333862-47.8301239,11.2044067-71.8453827,17.0487061l-33.3313599-81.078125l-1.5249329-15.7471924
			c1.0896606-1.201355,1.6384277-2.8566284,1.1916809-4.5415039c-0.2988281-1.1210938-1.0196228-1.9475098-1.8828735-2.5910645
			l-0.2922058-3.0166016c0.6839905-1.1470337,1.0908813-2.3465576,0.8711243-3.7712402
			c-0.1503296-0.9719238-0.7799683-1.9921875-1.5092163-2.8216553l-0.440094-4.543335
			c0.8161926-1.242981,1.2303162-2.5523682,1.0172119-4.0953979c-0.1515198-1.1005249-0.8741455-2.2698364-1.7162781-3.1216431
			l-0.7509766-7.7555542c0.8753357-1.3305664,1.3117981-2.644165,1.0135803-4.210144
			c-0.1998291-1.0419312-0.8801575-1.9970093-1.6897278-2.7697144l-0.4147339-4.279541
			c2.057373-2.4159546,2.983429-4.5349121,2.5970764-6.8548584c-0.2414856-1.4150391-1.5550842-3.3178711-2.7817993-4.0615845
			c-0.2819214-0.1708374-0.5940247-0.3139648-0.9157715-0.4485474L88.9905243-221.062149
			c-0.5215759-5.4380035-5.2979431-9.417511-10.7939148-8.891098c-5.4380035,0.526413-9.4223328,5.360733-8.891098,10.7939148
			L132.935318,437.840271c-0.0338135,0.0108643-0.0591736,0.0181274-0.0929565,0.0289917
			c-2.5982971,0.8451538-4.0229797,3.6317749-3.1778259,6.2300415c0.6217957,1.9227295,2.313324,3.18927,4.204071,3.3824463
			l0.2758789,2.8458252c-3.9559326,3.5037842-5.7163086,5.8044434-5.0932922,8.8928833
			c0.2849426,1.4198608,1.4005432,2.9315186,2.6707153,3.6317749c0.5892029,0.3236084,1.1928711,0.53125,1.8400269,0.6375122
			c-1.7096252,2.0525513-2.5499573,4.0229492-2.1925964,6.2396851c0.2076721,1.3088379,1.3039856,3.0474243,2.3857727,3.8201294
			c0.8053284,0.5723267,1.7422485,0.8687134,2.7413635,1.0606689l0.1358032,1.4030151
			c-1.3788147,1.5641479-2.2565613,3.1627197-1.9788818,5.1524658c0.1787109,1.328064,1.130127,2.8977051,2.2119141,3.6896973
			c0.2106934,0.152771,0.4382935,0.2463379,0.6586304,0.3682861l0.0730286,0.7515869
			c-3.4210815,2.4503174-5.2206726,4.5119629-4.836731,7.4959717c0.1787109,1.4150391,1.1832275,3.0184326,2.3664551,3.8201294
			c0.8596497,0.5776978,1.8835144,0.9815674,3.6686096,1.0552368l1.2671509,13.0855103l-16.8803101,97.0487061
			c-11.6777039,3.2091675-23.3348999,6.4401245-34.7373352,9.8618164c-0.067627,0.0205078-0.103241,0.0899658-0.1696472,0.112915
			c-0.8179932,0.2855225-1.5291443,0.7606201-2.0821228,1.385437c-0.1080322,0.1225586-0.1786804,0.2734985-0.2740479,0.40625
			c-0.4219971,0.5892334-0.7020874,1.2695923-0.8330994,2.0072632c-0.0223389,0.1262207-0.1297913,0.2143555-0.1424866,0.3428955
			c-0.0066223,0.0646362,0.039856,0.1177368,0.0362244,0.182312c-0.0066223,0.1050415-0.0603638,0.1937866-0.0603638,0.3006592
			v23.9011841c0,2.0525513,1.2653198,3.8925781,3.1826477,4.6218262l121.1623535,46.1602783
			c0.5795288,0.222168,1.1784058,0.3236084,1.7627563,0.3236084c0.2704773,0,0.5409241-0.0241699,0.8113708-0.067627
			l49.4540253-8.2439575c2.0863647-0.3477173,3.7187195-1.9801025,4.0664368-4.0615845l2.7769775-16.6472778l199.0572205-53.404541
			h37.2595825c0.4490967,0,0.8934326-0.0628052,1.3232422-0.1787109l59.3448486-16.4830322
			c1.970459-0.5505981,3.3999634-2.2553711,3.5979614-4.2886353
			C568.916687,592.6738892,567.8397217,590.7276001,566.0093384,589.8099976z M478.6293335,473.539917l29.4840698,87.3082275
			l-55.0924683-27.5588989L478.6293335,473.539917z M153.9134369,547.2476807l19.7212219,47.9743652
			c-9.8539734,2.461853-19.6204224,5.0305176-29.386261,7.5968018L153.9134369,547.2476807z M94.8100739,643.5719604v-12.1401978
			c16.4335632,9.0215454,34.9794312,20.0762329,53.1244507,30.9414063c2.2064819,1.3202515,4.4298401,2.6447144,6.6471863,3.970459
			L94.8100739,643.5719604z M256.1828308,680.5996704l-44.3106232,7.3890991
			c-2.1950073-1.1735229-4.5675049-2.517334-6.8542786-3.7784424l52.6572113-12.555481L256.1828308,680.5996704z
			 M465.057251,605.9954224l-202.5049133,54.3306274l-70.2293243,16.7450562
			c-12.6973572-7.2877197-26.1052246-15.284729-39.3078613-23.1882324
			c-17.0288086-10.1950073-34.5357361-20.6750488-50.2991943-29.4405518
			c6.1135254-1.7778931,12.3937073-3.4283447,18.5856934-5.1482544l-0.7938232,4.5638428
			c-0.1014404,0.5795898-0.1448975,1.1542969-0.1448975,1.7192993c0.0048218,4.713623,3.3903198,8.8862915,8.1956482,9.7218018
			c5.4476624,0.9176025,10.5041504-2.6755371,11.4410706-8.0507813l2.3996582-13.7978516
			c11.5974426-3.074585,23.3119812-6.0320435,35.0464478-8.9575195l24.4342041,59.4402466
			c1.5696106,3.8201294,5.2593384,6.1334229,9.1519165,6.1334229c1.250824,0,2.5258179-0.2414551,3.7573242-0.7485352
			c5.0516663-2.0767212,7.4615784-7.857605,5.3848877-12.9092407l-23.3071289-56.6940918
			c23.491272-5.706604,47.0440979-11.2394409,70.2933197-16.6514893
			c53.3188171-12.4154053,108.1546631-25.3222046,160.2848511-40.3087769l-1.3172607,3.0734253
			c-0.5505371,1.2749634-0.8065186,2.6030884-0.8065186,3.9070435c0.0096436,3.8297729,2.2553711,7.4760742,5.99823,9.0794678
			c5.0371704,2.1635742,10.8422241-0.1738892,12.9865112-5.1917114l4.8126221-11.2279663l63.4885254,31.7599487l0.6109009,1.8092651
			c1.3909302,4.1292114,5.2399902,6.7322998,9.3692017,6.7322998c1.0480347,0,2.1153564-0.1690674,3.1633301-0.5264282
			c0.5083008-0.1714478,0.8747559-0.5306396,1.3347778-0.7727051l1.8883057,0.9447632L465.057251,605.9954224z
			 M503.7764893,605.7714844h-9.6293945l46.9390259-17.3704834l9.005249,4.5046997L503.7764893,605.7714844z"/>
	</g>
</g>
</svg>
