<?xml version="1.0" encoding="utf-8"?>
<!-- Generator: Adobe Illustrator 19.0.0, SVG Export Plug-In . SVG Version: 6.00 Build 0)  -->
<svg version="1.1" id="Layer_1" xmlns="http://www.w3.org/2000/svg" xmlns:xlink="http://www.w3.org/1999/xlink" x="0px" y="0px"
	 width="512px" height="512px" viewBox="-49 141 512 512" style="enable-background:new -49 141 512 512;" xml:space="preserve">
<style type="text/css">
	.st0{fill:none;stroke:#27AAE1;stroke-width:10;stroke-linecap:round;stroke-linejoin:round;stroke-miterlimit:10;}
</style>
<g>
	<g id="XMLID_23_">
		<path id="XMLID_25_" class="st0" d="M350.59552,366.8757935c0-16.4256897-18.0253906-29.7171326-40.3013-29.7171326
			c-21.8258972,0-39.4871216,13.2914429-39.4871216,29.7171326c0,16.6506653,17.6612244,30.124176,39.4871216,30.124176
			s39.4871521,13.4735107,39.4871521,30.1242065c0,16.4256592-17.6612549,29.7171021-39.4871521,29.7171021
			c-22.2759399,0-40.3012695-13.2914429-40.3012695-29.7171021"/>
		<line id="XMLID_24_" class="st0" x1="310.29422" y1="321.8251648" x2="310.29422" y2="472.1748047"/>
	</g>
	<rect x="-31" y="337.1586609" class="st0" width="71.8140945" height="189.0411072"/>
	<g>
		<path class="st0" d="M175.5884857,353.0070496v250.4994202c0,11.1832275,9.0657654,20.2489624,20.2489624,20.2489624h228.9135895
			c11.183197,0,20.2489624-9.0657349,20.2489624-20.2489624V190.4935303c0-11.183197-9.0657654-20.2489624-20.2489624-20.2489624
			H195.8374481c-11.183197,0-20.2489624,9.0657654-20.2489624,20.2489624v79.9211426"/>
		<path class="st0" d="M175.5884857,353.0070496"/>
		<path class="st0" d="M175.5884857,270.4146729"/>
		<path class="st0" d="M216.8375397,321.9956665"/>
		<path class="st0" d="M216.8375397,270.383728"/>
		<path class="st0" d="M216.8375397,321.9956665v222.4443359c25.8753815,0,46.8515778,20.9761353,46.8515778,46.8515625h93.2102661
			c0-25.8754272,20.9761658-46.8515625,46.8515625-46.8515625V249.559967
			c-25.8753967,0-46.8515625-20.9761353-46.8515625-46.8515015h-93.2102661
			c0,25.8753662-20.9761963,46.8515015-46.8515778,46.8515015v20.823761"/>
		<path class="st0" d="M216.8375397,321.9956665c9.5486908-1.9425964,16.8431396-4.927124,21.7112427-7.3031616
			c9.386322-4.5813293,28.2518463-13.7891846,27.5451202-26.5613708c-0.1923828-3.4768372-1.7981873-6.5501709-3.9243164-9.1408691
			c-4.5473022-5.5409546-11.4819641-8.5698547-18.6499176-8.5823364
			c-9.3689117-0.0162659-18.2705536-0.0231018-26.6821289-0.0242004"/>
		<path class="st0" d="M175.5884857,353.0070496c-3.4544373,6.1622314-7.9364471,12.5763245-13.7725677,18.7432251
			c-9.4021149,9.9349976-19.2765808,16.0212097-26.5613861,19.6751099"/>
		<path class="st0" d="M175.5884857,270.4146729c-13.4590759,0.0171509-24.4116364,0.0310364-32.463913,0.0088806
			c-2.9963531-0.0083008-9.3959808-0.0176697-16.7238235,2.9512634
			c-13.4665833,5.4559631-18.2007828,17.9612732-27.5451355,29.5126343
			c-6.6694641,8.2447205-12.4721985,16.3582764-17.5182648,24.1333923
			c-8.9082489,13.7261963-24.0728073,22.1030884-40.4363136,22.1030884h-0.0869446"/>
		<path class="st0" d="M216.8375397,270.383728c-15.5384369-0.0020447-29.3728485,0.0157471-41.249054,0.0309448"/>
		<path class="st0" d="M216.8375397,321.9956665c-8.411377,1.7112427-18.5666809,2.616394-30.4277649,1.5506287
			c-1.2639771,6.380127-4.0826569,17.440033-10.8212891,29.4607544"/>
	</g>
	<path class="st0" d="M175.5884857,523.2484741c-22.3857422-1.6522827-46.8050995-4.7003784-72.7978516-9.8375244
		c-12.0115128-2.3739319-23.4953232-5.0232544-34.4314117-7.857666H40.8140907"/>
</g>
</svg>
