<svg width="412" height="607" viewBox="0 0 412 607" fill="none" xmlns="http://www.w3.org/2000/svg">
<path opacity="0.523" d="M430.011 568.257C430.011 568.257 423.711 562.273 398.905 561.323C381.576 560.659 358.972 564.93 347.697 565.484C313.423 567.165 108.897 564.054 96.0493 565.484C83.2013 566.914 59.4653 573.476 40.5943 570.472C-2.74673 563.572 -1.56771 570.722 1.07229 576.906C6.01629 588.489 60.8723 600.381 133.88 588.834C158.565 584.926 342.097 611.465 430.011 568.257Z" fill="url(#paint0_linear)"/>
<path d="M227.783 55.9398C227.783 55.9398 235.236 69.1727 233.733 70.7109C232.779 71.6869 227.057 71.8978 227.057 71.8978L227.783 55.9398Z" fill="#EA7D47"/>
<path d="M293.761 263.538C293.155 265.481 291.326 267.081 283.554 267.653C275.782 268.225 280.125 260.324 280.125 260.324L293.761 263.538Z" fill="#DD4531"/>
<path d="M94.6903 147.821C96.2417 146.685 99.5502 149.588 99.5502 149.588L115.479 166.311L119.918 164.452C119.918 164.452 124.896 158.178 122.626 156.162C121.404 155.078 117.647 156.958 115.68 158.068C115.327 158.268 114.917 158.339 114.517 158.271C114.118 158.203 113.754 158 113.487 157.696L113.466 157.672C113.16 157.328 113.001 156.879 113.021 156.42C113.041 155.961 113.24 155.527 113.574 155.212C115.835 153.07 118.484 151.38 121.379 150.231C126.442 148.34 131.091 151.793 132.865 155.811C135.011 160.676 132.607 172.741 132.607 172.741C132.607 172.741 175.924 205.513 179.146 203.591C182.369 201.669 192.935 118.312 203.173 119.774C217.827 121.865 227.968 153.153 227.968 153.153C227.968 153.153 226.178 239.021 189.247 246.067C152.316 253.114 122.471 177.544 122.471 177.544C120.365 177.684 118.254 177.343 116.299 176.546C114.345 175.749 112.597 174.518 111.189 172.945C99.8874 161.144 92.0637 149.745 94.6903 147.821Z" fill="#FFBA94"/>
<path d="M171.288 200.059L171.297 200.06C175.403 202.569 178.388 204.047 179.149 203.594C179.432 203.425 179.771 202.62 180.161 201.312L194.231 203.3L187.231 246.366C175.725 247.646 164.959 241.077 155.631 231.541C163.409 229.851 171.288 200.059 171.288 200.059Z" fill="white"/>
<path d="M203.175 119.777C217.83 121.869 227.971 153.156 227.971 153.156C227.971 153.156 226.18 239.025 189.25 246.071C184.446 246.955 179.492 246.532 174.908 244.845C183.896 233.878 179.149 203.594 179.149 203.594C182.371 201.671 192.938 118.316 203.175 119.777Z" fill="#F75F4B"/>
<path d="M120.01 169.48C120.388 169.32 120.723 169.072 120.984 168.755C121.245 168.438 121.425 168.062 121.509 167.66C121.593 167.258 121.578 166.841 121.465 166.446C121.352 166.051 121.145 165.69 120.862 165.392L89.5866 132.681C89.3587 132.433 89.0835 132.232 88.7773 132.092C88.4711 131.951 88.14 131.873 87.8033 131.862C87.4665 131.851 87.131 131.908 86.8163 132.028C86.5016 132.148 86.2141 132.33 85.9705 132.563C85.727 132.796 85.5324 133.075 85.398 133.384C85.2637 133.693 85.1923 134.026 85.1881 134.362C85.1839 134.699 85.2469 135.034 85.3735 135.346C85.5001 135.658 85.6877 135.942 85.9254 136.181L117.201 168.893C117.555 169.264 118.013 169.518 118.514 169.623C119.016 169.727 119.537 169.678 120.01 169.48Z" fill="#453433"/>
<path d="M111.138 169.267C111.735 169.017 112.214 168.547 112.475 167.955C112.737 167.363 112.762 166.693 112.545 166.083L107.284 151.294C107.053 150.668 106.586 150.158 105.982 149.875C105.378 149.592 104.687 149.559 104.058 149.782C103.43 150.006 102.915 150.468 102.625 151.068C102.335 151.669 102.294 152.36 102.511 152.991L107.771 167.78C107.882 168.093 108.055 168.382 108.277 168.629C108.5 168.876 108.77 169.076 109.07 169.219C109.371 169.362 109.697 169.444 110.029 169.461C110.361 169.478 110.694 169.429 111.007 169.317C111.045 169.304 111.093 169.286 111.138 169.267Z" fill="#FFBA94"/>
<path d="M168.649 543.37C169.104 542.258 164.449 540.908 161.214 541.853C157.979 542.798 161.014 546.965 161.014 546.965L168.649 543.37Z" fill="#DD4531"/>
<path d="M334.432 525.924C334.319 524.224 330.271 524.978 328.248 526.597C326.225 528.216 331.637 532.059 331.637 532.059L334.432 525.924Z" fill="#DD4531"/>
<path d="M328.911 543.229C330.354 543.228 331.769 542.83 333.003 542.081C334.236 541.331 335.24 540.258 335.905 538.977C336.571 537.697 336.873 536.258 336.778 534.818C336.683 533.379 336.195 531.992 335.367 530.81L317.259 504.965C316.667 504.112 315.911 503.385 315.037 502.824C314.162 502.264 313.186 501.881 312.163 501.699C311.141 501.517 310.092 501.539 309.078 501.763C308.064 501.987 307.104 502.409 306.253 503.005C305.402 503.601 304.677 504.359 304.12 505.236C303.563 506.113 303.185 507.091 303.007 508.114C302.829 509.137 302.854 510.186 303.082 511.199C303.31 512.212 303.736 513.171 304.335 514.019L322.443 539.866C323.171 540.906 324.139 541.755 325.265 542.34C326.391 542.926 327.642 543.231 328.911 543.229Z" fill="#FFBA94"/>
<path d="M163.584 556.18C165.198 555.85 166.668 555.022 167.788 553.814C168.908 552.606 169.622 551.078 169.83 549.443L173.817 518.14C174.067 516.071 173.488 513.987 172.207 512.343C170.926 510.699 169.047 509.629 166.98 509.365C164.912 509.102 162.825 509.667 161.172 510.938C159.52 512.208 158.438 514.081 158.161 516.146L154.175 547.448C154.018 548.693 154.16 549.957 154.588 551.135C155.017 552.314 155.72 553.374 156.639 554.227C157.559 555.08 158.668 555.702 159.876 556.041C161.083 556.381 162.354 556.428 163.583 556.178L163.584 556.18Z" fill="#FFBA94"/>
<path d="M323.518 502.99C322.455 501.7 300.149 515.205 302.805 520.44C305.461 525.675 320.938 516.95 320.938 516.95L323.518 502.99Z" fill="#231D77"/>
<path d="M175.406 518C174.585 516.05 152.681 516.778 151.665 521.934C150.649 527.089 162.325 525.534 162.325 525.534C167.625 523.812 170.109 524.533 174.906 521C174.906 521 176.228 519.95 175.406 518Z" fill="#161459"/>
<path d="M212.799 234.293L214.429 251.501C214.429 251.501 165.323 353.682 160.866 371.609C151.311 410.031 155.505 528.492 155.505 528.492C155.505 528.492 167.96 527.649 172.357 524.025C172.357 524.025 205.928 416.565 203.931 392.846C203.931 392.846 254.585 334.606 262.552 314.913L244.087 226.001L212.799 234.293Z" fill="#322783"/>
<path d="M167.636 527.672C167.899 527.603 168.138 527.464 168.329 527.271C168.52 527.077 168.655 526.836 168.721 526.572C169.88 521.904 196.881 412.828 195.358 387.97C198.977 383.033 230.348 339.487 242.716 297.718C242.772 297.527 242.791 297.326 242.77 297.128C242.749 296.93 242.689 296.738 242.594 296.562C242.498 296.387 242.37 296.233 242.215 296.107C242.06 295.982 241.881 295.888 241.69 295.832C241.499 295.775 241.299 295.757 241.1 295.778C240.902 295.799 240.71 295.859 240.535 295.954C240.36 296.049 240.205 296.178 240.08 296.333C239.954 296.488 239.861 296.666 239.804 296.857C226.889 340.48 192.928 386.155 192.587 386.611C192.364 386.909 192.258 387.278 192.29 387.648C194.242 410.847 166.057 524.694 165.772 525.84C165.709 526.096 165.713 526.364 165.784 526.618C165.856 526.871 165.992 527.102 166.18 527.287C166.368 527.472 166.601 527.605 166.855 527.673C167.11 527.74 167.378 527.741 167.633 527.673L167.636 527.672Z" fill="#241E72"/>
<path d="M272.763 260.324H215.101C207.969 300.793 216.922 300.94 216.922 300.94C213.622 339.533 206.398 391.075 220.564 417.987C242.988 460.587 313.197 526.637 313.197 526.637C313.197 526.637 321.556 526.637 327.317 516.521C327.317 516.521 283.992 415.966 266.49 398.63C266.488 398.63 300.399 289.736 272.763 260.324Z" fill="#453FAF"/>
<path d="M323.982 519.95C324.226 519.95 324.466 519.89 324.682 519.776C325.038 519.589 325.306 519.268 325.426 518.884C325.546 518.5 325.508 518.084 325.321 517.727C323.146 513.582 272.389 417.036 254.379 398.185C256.162 389.563 270.889 314.313 254.315 259.885C254.182 259.52 253.914 259.219 253.567 259.046C253.219 258.872 252.818 258.839 252.446 258.952C252.074 259.065 251.76 259.317 251.568 259.655C251.376 259.993 251.322 260.392 251.415 260.769C268.702 317.541 251.424 397.542 251.248 398.343C251.194 398.592 251.204 398.851 251.276 399.096C251.348 399.341 251.481 399.563 251.662 399.743C268.798 416.718 322.101 518.113 322.637 519.136C322.765 519.382 322.959 519.588 323.196 519.731C323.433 519.875 323.705 519.951 323.982 519.95Z" fill="#322783"/>
<path d="M258.57 307.334C258.966 307.324 259.342 307.16 259.619 306.876C259.895 306.593 260.05 306.212 260.05 305.817C260.05 305.421 259.895 305.041 259.619 304.757C259.342 304.474 258.966 304.309 258.57 304.299C255.201 304.259 251.884 303.463 248.863 301.97C245.843 300.477 243.195 298.325 241.117 295.673C234.111 287.199 231.698 273.96 234.494 259.351C234.532 259.155 234.531 258.954 234.49 258.759C234.45 258.564 234.372 258.378 234.26 258.213C234.148 258.048 234.004 257.907 233.838 257.797C233.671 257.688 233.485 257.612 233.289 257.575C233.093 257.537 232.892 257.539 232.697 257.579C232.501 257.619 232.316 257.697 232.151 257.809C231.986 257.921 231.845 258.065 231.735 258.231C231.626 258.398 231.55 258.584 231.512 258.78C228.544 274.28 231.191 288.432 238.776 297.607C241.137 300.607 244.142 303.038 247.567 304.721C250.993 306.405 254.753 307.298 258.57 307.334Z" fill="#322783"/>
<path d="M150.44 531.989C150.44 531.989 161.65 538.906 174.831 530.009L175.585 520.049C158.838 527.897 151.666 521.933 151.666 521.933L150.44 531.989Z" fill="#241E72"/>
<path d="M224.462 265.617C239.937 271.363 268.353 292.157 290.641 287.197C288.355 276.053 287.073 259.064 287.073 259.064L224.462 265.617Z" fill="white"/>
<path d="M330.119 512.094C327.944 525.523 310.089 528.861 310.089 528.861L302.805 520.439C302.805 520.439 318.51 517.329 323.518 502.989L330.119 512.094Z" fill="#322783"/>
<path d="M231.819 108.637L205.619 79.0981L185.286 84.5611L200.986 120.537L231.819 108.637Z" fill="#FFBA94"/>
<path d="M234.349 109.065C231.25 105.183 227.828 101.57 224.12 98.2651C224.12 98.2651 210.009 110.265 202.692 118.754L234.349 109.065Z" fill="white"/>
<path d="M204.578 260.329C214.413 270.165 261.008 263.543 293.761 263.543C301.533 212.343 297.882 164.082 233.64 107.443C226.791 108.999 209.72 112.792 199.317 121.188C199.318 121.181 189.039 241.566 204.578 260.329Z" fill="#FF826A"/>
<path d="M188.217 179.055C188.485 179.055 188.745 178.967 188.957 178.804C189.169 178.642 189.321 178.413 189.39 178.155C192.567 166.141 192.657 153.861 192.731 143.995C192.805 134.021 192.863 126.143 195.972 123.67C197.072 122.797 198.621 122.601 200.722 123.07C201.033 123.131 201.355 123.068 201.62 122.894C201.884 122.721 202.071 122.451 202.14 122.143C202.208 121.834 202.154 121.51 201.988 121.241C201.822 120.972 201.557 120.778 201.25 120.701C198.389 120.06 196.168 120.413 194.46 121.772C190.443 124.972 190.384 132.942 190.303 143.979C190.231 153.709 190.142 165.818 187.043 177.537C186.996 177.717 186.99 177.905 187.027 178.087C187.064 178.269 187.142 178.441 187.256 178.588C187.369 178.735 187.515 178.854 187.681 178.936C187.848 179.018 188.032 179.061 188.217 179.061V179.055Z" fill="#FF826A"/>
<path d="M186.771 232.328C187.18 232.329 187.583 232.226 187.941 232.029C188.3 231.832 188.603 231.548 188.822 231.202C190.405 228.691 191.769 226.048 192.898 223.302C193.024 223.009 193.09 222.694 193.094 222.375C193.097 222.056 193.038 221.74 192.92 221.444C192.801 221.148 192.625 220.878 192.402 220.65C192.18 220.422 191.914 220.24 191.621 220.115C191.328 219.99 191.013 219.923 190.694 219.919C190.375 219.916 190.059 219.975 189.763 220.093C189.467 220.212 189.197 220.388 188.969 220.611C188.741 220.833 188.56 221.099 188.434 221.392C187.407 223.898 186.165 226.31 184.723 228.602C184.49 228.969 184.36 229.392 184.346 229.826C184.332 230.261 184.435 230.691 184.644 231.072C184.853 231.453 185.161 231.771 185.535 231.993C185.909 232.214 186.335 232.332 186.77 232.332L186.771 232.328Z" fill="#F75F4B"/>
<path d="M187.966 181.214C188.493 181.214 189.006 181.041 189.427 180.723C189.848 180.405 190.154 179.959 190.299 179.452C190.979 176.91 191.506 174.329 191.878 171.723C191.955 171.091 191.781 170.454 191.392 169.949C191.004 169.444 190.433 169.112 189.802 169.024C189.172 168.937 188.532 169.1 188.02 169.48C187.509 169.859 187.167 170.425 187.069 171.054C186.726 173.435 186.246 175.793 185.63 178.118C185.527 178.48 185.509 178.86 185.578 179.229C185.647 179.599 185.801 179.947 186.027 180.247C186.254 180.547 186.547 180.791 186.883 180.958C187.219 181.126 187.59 181.213 187.966 181.213V181.214Z" fill="#FF826A"/>
<path d="M194.598 82.739C198.531 88.2358 209.406 98.5 221.906 97.5L213.906 88.5L194.598 82.739Z" fill="#EA7D47"/>
<path d="M226.273 88.9224C229.832 86.9708 230.559 50.1798 222.563 39.2407C195.655 2.42972 165.428 64.0871 194.774 82.8533C212.829 94.4043 224.379 89.9593 226.273 88.9224Z" fill="#FFBA94"/>
<path d="M222.562 39.2391C219.978 35.4591 216.61 32.2805 212.687 29.9199L187.818 42.0648C187.818 42.0648 197.51 54.005 197.458 49.9484C197.406 45.8918 196.715 42.8257 200.411 42.6068C205.505 42.3055 215.658 54.1192 226.314 48.2428C225.588 45.0488 224.319 42.0032 222.562 39.2391Z" fill="#EA7D47"/>
<path d="M226.24 3.82708C226.24 3.82708 216.349 8.6636 215.139 22.9903C215.139 22.9903 212.583 11.8761 202.145 13.7085L202.032 13.7552C202.792 18.1157 200.602 20.9086 197.259 21.7328C178.051 11.3506 167.832 31.9429 179.24 40.7835C149.344 51.6466 187.225 79.2289 177.63 96.3684C205.855 89.3119 190.799 67.3038 195.035 61.5189C200.462 54.1054 194.93 43.628 198.282 41.2533C203.522 37.5426 207.166 46.9956 220.789 43.5726C240.953 38.5059 243.675 11.6635 226.248 3.82907L226.24 3.82708Z" fill="#001065"/>
<path d="M196.237 65.0702C196.32 66.4616 195.988 67.846 195.283 69.0486C194.578 70.2511 193.533 71.2178 192.279 71.8262C191.025 72.4346 189.619 72.6575 188.238 72.4667C186.858 72.276 185.564 71.6801 184.522 70.7544C183.481 69.8288 182.736 68.6149 182.384 67.2664C182.032 65.9178 182.088 64.4951 182.544 63.1782C183.001 61.8613 183.837 60.7094 184.949 59.868C186.06 59.0266 187.395 58.5336 188.787 58.4514C189.711 58.3966 190.636 58.5244 191.511 58.8274C192.385 59.1304 193.191 59.6027 193.883 60.2174C194.575 60.832 195.139 61.577 195.543 62.4096C195.947 63.2423 196.183 64.1464 196.237 65.0702Z" fill="#FFBA94"/>
<path d="M193.059 65.2575C193.105 66.0202 192.923 66.7795 192.538 67.4392C192.152 68.0989 191.579 68.6293 190.892 68.9634C190.205 69.2975 189.434 69.4202 188.677 69.3159C187.92 69.2117 187.211 68.8852 186.639 68.3778C186.068 67.8704 185.66 67.2049 185.467 66.4655C185.274 65.7261 185.304 64.9461 185.555 64.2241C185.805 63.5022 186.264 62.8707 186.874 62.4098C187.483 61.9488 188.216 61.679 188.979 61.6346C190 61.575 191.003 61.9231 191.768 62.6023C192.533 63.2815 192.997 64.2364 193.059 65.2575Z" fill="#EA7D47"/>
<path d="M188.182 66.1258C188.156 66.8342 188.413 67.5237 188.896 68.0428C189.379 68.5618 190.048 68.8679 190.757 68.8938C191.169 68.9063 191.579 68.822 191.953 68.6475L196.663 71.6345C196.966 71.826 197.333 71.8895 197.682 71.8111C198.032 71.7328 198.336 71.519 198.528 71.2166L198.543 71.1935C198.734 70.8908 198.798 70.5243 198.72 70.1745C198.642 69.8247 198.428 69.5204 198.126 69.3282L193.51 66.4017C193.512 66.374 193.52 66.3477 193.521 66.3204C193.534 65.9696 193.477 65.6197 193.355 65.2907C193.232 64.9617 193.046 64.66 192.807 64.4029C192.568 64.1458 192.281 63.9383 191.961 63.7923C191.642 63.6462 191.297 63.5645 190.946 63.5517C190.596 63.539 190.246 63.5955 189.917 63.718C189.588 63.8405 189.286 64.0266 189.029 64.2656C188.772 64.5047 188.564 64.7921 188.418 65.1114C188.272 65.4306 188.19 65.7755 188.178 66.1264L188.182 66.1258Z" fill="white"/>
<path d="M295.643 210.63C239.143 185.908 221.015 158.206 215.152 136.883L277.41 158.083C287.163 174.099 293.38 192.015 295.643 210.63Z" fill="#F75F4B"/>
<path d="M181.07 42.3199C180.979 42.3568 180.885 42.3841 180.788 42.4011C178.969 42.7723 177.091 42.7491 175.282 42.3332C173.472 41.9174 171.773 41.1184 170.298 39.9902C169.36 39.3283 168.566 38.4823 167.966 37.5037C167.366 36.525 166.972 35.4343 166.807 34.2982C166.791 33.94 166.915 33.5896 167.154 33.3223C167.393 33.0549 167.727 32.8919 168.085 32.868C168.443 32.8442 168.796 32.9614 169.068 33.1946C169.341 33.4278 169.511 33.7585 169.542 34.1156C169.686 34.8652 169.976 35.579 170.395 36.2164C170.815 36.8539 171.356 37.4023 171.988 37.8305C173.16 38.7197 174.509 39.3467 175.945 39.6693C177.38 39.9918 178.868 40.0024 180.308 39.7002C180.642 39.6408 180.985 39.7068 181.273 39.8855C181.561 40.0642 181.772 40.343 181.866 40.6682C181.961 40.9934 181.932 41.342 181.785 41.647C181.638 41.952 181.383 42.1918 181.069 42.3203L181.07 42.3199Z" fill="#001065"/>
<path d="M252.563 111.592C268.313 119.812 308.91 161.9 314.539 189.196C325.488 242.296 295.356 298.864 295.356 298.864C295.356 298.864 283.337 303.945 283.815 300.921C286.377 284.732 289.002 213.378 282.995 200.01C278.644 190.329 241.806 172.346 227.469 158.641C213.133 144.936 207.726 122.14 223.186 110.936C238.646 99.7316 252.563 111.592 252.563 111.592Z" fill="#FFBA94"/>
<path d="M316.11 198.995C316.958 206.55 317.16 214.164 316.711 221.753C310.127 224.001 296.931 227.053 286.314 224.748C286.133 218.527 285.575 212.322 284.642 206.169L316.11 198.995Z" fill="white"/>
<path d="M227.474 158.642C213.135 144.937 207.73 122.142 223.19 110.937C238.65 99.7329 252.563 111.592 252.563 111.592C268.313 119.813 311.362 161.384 316.992 188.677C318.21 194.587 319.216 206.453 319.216 206.453C296.308 215.376 284.351 213.356 284.351 213.356C283.775 207.481 282.949 202.907 281.82 200.39C277.473 190.712 241.811 172.348 227.474 158.642Z" fill="#FF826A"/>
<path d="M284.631 216.385C284.802 216.441 284.978 216.482 285.156 216.507C297.639 218.284 313.86 211.843 319.192 209.727C319.658 209.541 320.028 209.394 320.29 209.296C320.663 209.155 321.005 208.943 321.296 208.671C321.587 208.398 321.821 208.071 321.986 207.708C322.15 207.345 322.242 206.953 322.255 206.555C322.268 206.157 322.203 205.759 322.062 205.386C321.922 205.013 321.71 204.672 321.437 204.381C321.165 204.09 320.838 203.855 320.475 203.691C320.112 203.526 319.72 203.435 319.321 203.421C318.923 203.408 318.526 203.474 318.153 203.614C317.868 203.72 317.463 203.883 316.952 204.085C311.988 206.053 296.898 212.048 286.012 210.498C285.261 210.392 284.499 210.57 283.873 210.998C283.248 211.426 282.805 212.073 282.632 212.81C282.459 213.548 282.568 214.324 282.938 214.986C283.308 215.647 283.912 216.146 284.631 216.385Z" fill="#FF826A"/>
<path d="M110.675 566.532C112.507 565.669 114.502 565.206 116.526 565.174C118.735 565.25 120.926 565.214 123.106 565.143C128.941 564.956 139.841 558.59 143.64 555.143C147.022 552.075 153.604 544.037 153.604 544.037C153.604 544.037 152.971 543.015 154.952 543.157C156.933 543.299 160.372 544.099 162.376 544.115C168.108 544.16 170.636 542.468 170.636 542.468C170.636 542.468 169.136 551.153 169.522 553.131C169.908 555.109 172.138 560.885 172.872 563.017C173.53 565.003 173.698 567.118 173.36 569.182L171.396 572.162L111.457 570.262L110.675 566.532Z" fill="#F75F4B"/>
<path d="M119.996 565.095C118.842 565.059 117.675 564.946 116.531 564.907C114.476 564.968 112.467 565.526 110.675 566.535L111.456 570.263L118.588 568.817L119.996 565.095Z" fill="#FF826A"/>
<path d="M110.675 566.535C115.217 568.051 119.869 569.211 124.59 570.006C127.79 570.426 169.023 569.97 169.023 569.97L173.359 569.186C173.359 569.186 174.286 571.771 173.912 573.143C173.538 574.515 173.543 575.429 172.251 575.817C170.959 576.205 159.387 575.26 156.104 575.217C152.144 575.161 142.388 577.21 128.316 576.425C122.516 576.101 109.806 575.377 108.572 572.337C107.338 569.297 108.241 567.081 110.675 566.535Z" fill="#F75F4B"/>
<path d="M120.867 567.892C129.943 566.971 138.873 565.847 144.767 561.774C151.067 557.421 153.735 552.044 156.38 543.352C156.371 541.763 149.41 534.291 147.754 534.407C150.646 538.572 151.438 543.348 150.439 546.194C149.023 550.226 145.434 553.347 141.373 556.434C134.993 561.284 125.588 564.152 123.458 564.617C122.573 564.81 119.998 565.096 119.998 565.096C118.309 565.838 118.589 568.817 118.589 568.817C118.663 568.687 119.053 568.076 120.867 567.892Z" fill="#FF826A"/>
<path opacity="0.48" d="M130.463 585.489C130.46 585.502 130.457 585.516 130.455 585.529L130.463 585.489Z" fill="#97B5A8"/>
<path d="M147.722 562.586C147.939 562.585 148.152 562.533 148.344 562.434C148.537 562.335 148.703 562.192 148.83 562.017C148.957 561.841 149.04 561.638 149.073 561.425C149.107 561.211 149.089 560.992 149.022 560.786C148.956 560.586 147.355 555.803 143.022 554.221C142.853 554.16 142.673 554.132 142.493 554.14C142.313 554.148 142.137 554.191 141.974 554.267C141.81 554.343 141.664 554.45 141.542 554.583C141.42 554.716 141.326 554.871 141.264 555.04C141.203 555.209 141.175 555.389 141.183 555.569C141.19 555.749 141.234 555.926 141.31 556.089C141.386 556.252 141.493 556.399 141.626 556.521C141.759 556.642 141.914 556.737 142.083 556.798C145.151 557.918 146.407 561.598 146.42 561.64C146.51 561.915 146.684 562.154 146.918 562.324C147.152 562.494 147.433 562.586 147.722 562.586Z" fill="white"/>
<path d="M140.712 566.616C140.782 566.616 140.853 566.611 140.922 566.6C141.282 566.545 141.604 566.348 141.819 566.055C142.035 565.762 142.124 565.395 142.069 565.035C142.037 564.835 141.269 560.068 137.624 558.035C137.467 557.947 137.294 557.892 137.115 557.871C136.936 557.85 136.755 557.864 136.582 557.913C136.408 557.962 136.246 558.045 136.105 558.157C135.964 558.269 135.846 558.407 135.758 558.564C135.67 558.721 135.614 558.894 135.594 559.073C135.573 559.252 135.587 559.434 135.636 559.607C135.685 559.78 135.768 559.942 135.88 560.083C135.991 560.225 136.13 560.343 136.287 560.43C138.733 561.796 139.352 565.417 139.357 565.453C139.407 565.777 139.571 566.072 139.82 566.285C140.068 566.499 140.385 566.616 140.712 566.616Z" fill="white"/>
<path d="M133.762 568.373C133.942 568.373 134.121 568.338 134.287 568.269C134.454 568.2 134.605 568.099 134.732 567.972C134.86 567.845 134.961 567.694 135.03 567.527C135.099 567.361 135.134 567.182 135.134 567.002C135.106 565.812 134.811 564.644 134.27 563.583C133.729 562.523 132.956 561.598 132.009 560.877C131.861 560.769 131.693 560.692 131.515 560.65C131.337 560.608 131.152 560.602 130.972 560.633C130.791 560.663 130.619 560.729 130.464 560.827C130.31 560.926 130.177 561.054 130.072 561.204C129.968 561.355 129.895 561.524 129.857 561.704C129.82 561.883 129.818 562.068 129.853 562.247C129.888 562.427 129.959 562.598 130.061 562.75C130.163 562.902 130.294 563.032 130.447 563.132C131.03 563.6 131.505 564.188 131.841 564.856C132.176 565.523 132.364 566.255 132.391 567.002C132.391 567.182 132.427 567.361 132.496 567.527C132.564 567.693 132.665 567.844 132.793 567.972C132.92 568.099 133.071 568.2 133.238 568.269C133.404 568.338 133.582 568.373 133.762 568.373Z" fill="white"/>
<path d="M126.257 569.688C126.597 569.688 126.925 569.561 127.177 569.333C127.429 569.104 127.587 568.79 127.62 568.451C127.654 568.106 127.896 565.028 125.92 563.204C125.653 562.958 125.298 562.827 124.934 562.842C124.571 562.856 124.228 563.015 123.981 563.282C123.734 563.55 123.604 563.904 123.619 564.268C123.633 564.632 123.792 564.975 124.059 565.221C124.712 566.061 125.011 567.124 124.892 568.181C124.874 568.361 124.892 568.542 124.945 568.714C124.997 568.887 125.083 569.047 125.197 569.186C125.311 569.326 125.452 569.441 125.611 569.526C125.77 569.611 125.944 569.664 126.123 569.681C126.166 569.685 126.211 569.688 126.257 569.688Z" fill="white"/>
<path d="M173.358 569.186L169.022 569.969C169.022 569.969 138.177 570.31 127.781 570.13H128.006L128.151 576.407L128.315 576.417C142.387 577.202 152.143 575.153 156.103 575.209C159.385 575.255 170.957 576.2 172.25 575.809C173.543 575.418 173.537 574.509 173.911 573.135C174.285 571.761 173.358 569.186 173.358 569.186Z" fill="white"/>
<path d="M172.241 574.213C170.949 574.6 159.376 573.656 156.094 573.613C152.134 573.557 142.186 575.585 128.113 574.8L128.151 576.415C142.223 577.2 152.143 575.161 156.103 575.215C159.385 575.261 170.957 576.206 172.25 575.815C173.543 575.424 173.537 574.515 173.911 573.141C174.041 572.671 173.534 573.825 172.241 574.213Z" fill="#F75F4B"/>
<path d="M149.79 552.702C149.327 552.455 148.886 552.166 148.473 551.84C145.352 546.852 143.444 539.56 145.652 535.991C146.071 535.298 146.684 534.743 147.416 534.396C148.149 534.05 148.967 533.927 149.768 534.042C150.396 534.091 151.004 534.286 151.541 534.614C152.079 534.941 152.532 535.391 152.863 535.926C155.563 540.158 151.963 550.682 151.54 551.868C151.481 552.038 151.388 552.195 151.268 552.328C151.147 552.462 151.002 552.571 150.839 552.649C150.677 552.726 150.5 552.771 150.321 552.781C150.141 552.79 149.961 552.764 149.791 552.703L149.79 552.702ZM147.985 537.433C146.892 539.2 147.414 543.9 149.732 548.493C150.872 544.487 151.771 539.317 150.549 537.399C150.442 537.215 150.29 537.062 150.107 536.952C149.924 536.842 149.717 536.78 149.504 536.771C149.41 536.763 149.322 536.758 149.24 536.758C148.988 536.739 148.736 536.792 148.514 536.912C148.291 537.031 148.108 537.212 147.985 537.433Z" fill="white"/>
<path d="M153.293 555.935C153.528 555.935 153.759 555.874 153.963 555.758C154.168 555.643 154.339 555.476 154.461 555.276C154.583 555.075 154.651 554.846 154.659 554.612C154.667 554.377 154.615 554.144 154.507 553.935C154.407 553.748 152.074 549.377 147.783 549.377H147.704C147.524 549.38 147.346 549.417 147.181 549.488C147.015 549.559 146.865 549.662 146.739 549.791C146.614 549.92 146.515 550.073 146.448 550.24C146.381 550.407 146.348 550.586 146.35 550.766C146.348 550.948 146.382 551.128 146.451 551.296C146.52 551.464 146.623 551.616 146.753 551.742C146.883 551.869 147.038 551.968 147.207 552.033C147.377 552.098 147.558 552.128 147.739 552.12H147.78C150.402 552.12 152.061 555.179 152.08 555.209C152.198 555.429 152.373 555.612 152.586 555.74C152.8 555.868 153.044 555.935 153.293 555.935Z" fill="white"/>
<path d="M151.963 552.065C151.643 551.969 151.369 551.759 151.194 551.474C151.018 551.19 150.952 550.851 151.008 550.521C152.136 543.948 155.731 540.821 158.595 540.687C159.266 540.614 159.942 540.779 160.504 541.153C161.066 541.527 161.479 542.087 161.67 542.734C162.018 544.041 161.886 547.562 153.176 552.045C152.989 552.142 152.783 552.193 152.573 552.197C152.362 552.2 152.154 552.155 151.964 552.065H151.963ZM158.002 543.604C156.802 544.104 155.376 545.551 154.43 548.189C158.612 545.582 159.13 543.741 159.046 543.475C158.96 543.437 158.866 543.421 158.772 543.427C158.507 543.436 158.245 543.495 158.002 543.603V543.604Z" fill="white"/>
<path d="M308.623 569.287C316.423 568.703 318.985 555.45 320.091 550.648C321.075 546.372 321.856 536.419 321.856 536.419C321.856 536.419 320.795 535.961 322.436 534.986C324.077 534.011 327.299 532.852 328.817 531.668C330.832 529.868 332.708 527.919 334.429 525.837C334.429 525.837 334.958 530.482 337.944 533.19C339.379 534.49 344.314 536.933 346.981 539.599C349.276 541.894 350.007 542.784 350.007 542.784L351.679 549.396L312.302 575.731L308.623 574.357V569.287Z" fill="#F75F4B"/>
<path d="M310.193 563.107C309.262 563.713 300.343 560.262 297.593 566.035C296.111 569.148 298.568 569.997 298.568 569.997C298.568 569.997 306.723 573.097 308.82 571.569C310.556 570.309 310.193 563.107 310.193 563.107Z" fill="#FF826A"/>
<path d="M297.596 566.035C299.586 569.259 308.681 573.241 316.552 570.753C319.512 569.817 344.115 553.892 348.252 548.411C349.455 546.786 350.076 544.804 350.013 542.783C350.013 542.783 352.7 545.883 353.159 547.171C353.515 547.917 353.694 548.735 353.682 549.562C353.67 550.388 353.469 551.201 353.092 551.937C350.27 557.071 343.55 559.319 340.936 561.084C337.782 563.213 330.894 568.627 319.362 575.729C314.607 578.658 304.489 577.279 298.437 573.201C295.817 571.44 296.142 567.488 297.596 566.035Z" fill="#F75F4B"/>
<path d="M323.693 555.231C326.217 548.32 326.35 542.662 323.667 534.355C322.789 533.105 313.899 531.855 312.657 532.855C317.224 534.555 318.707 537.082 319.481 539.874C320.617 544.169 320.452 548.704 319.007 552.904C316.636 560.23 312.607 562.58 310.167 562.965C310.167 564.04 308.9 571.016 308.9 571.016C309.45 567.489 319.034 567.987 323.693 555.231Z" fill="#FF826A"/>
<path opacity="0.48" d="M311.35 575.139C311.351 575.152 311.353 575.165 311.356 575.177L311.35 575.139Z" fill="#97B5A8"/>
<path d="M325.631 553.018C325.954 553.018 326.266 552.904 326.513 552.697C326.76 552.489 326.926 552.201 326.982 551.883C327.038 551.565 326.98 551.238 326.818 550.959C326.656 550.679 326.402 550.466 326.098 550.356C325.679 550.205 321.922 548.895 319.031 549.635C318.855 549.678 318.69 549.756 318.544 549.863C318.398 549.971 318.275 550.106 318.182 550.261C318.089 550.417 318.028 550.589 318.001 550.768C317.975 550.947 317.985 551.13 318.029 551.305C318.074 551.48 318.153 551.645 318.262 551.79C318.371 551.935 318.507 552.057 318.663 552.148C318.819 552.24 318.992 552.3 319.171 552.325C319.35 552.349 319.533 552.338 319.708 552.292C321.467 551.848 324.245 552.605 325.167 552.936C325.316 552.99 325.473 553.017 325.631 553.018Z" fill="white"/>
<path d="M319.482 546.642C319.726 546.642 319.965 546.577 320.175 546.454C321.719 545.545 324.795 546.254 325.75 546.571C326.095 546.687 326.472 546.661 326.797 546.5C327.123 546.338 327.371 546.053 327.488 545.709C327.604 545.364 327.578 544.987 327.416 544.661C327.254 544.335 326.97 544.087 326.625 543.971C326.125 543.804 321.684 542.386 318.785 544.088C318.526 544.241 318.324 544.475 318.21 544.754C318.097 545.034 318.079 545.342 318.158 545.633C318.238 545.923 318.411 546.18 318.651 546.362C318.891 546.544 319.184 546.643 319.485 546.642H319.482Z" fill="white"/>
<path d="M323.514 559.731C323.768 559.731 324.016 559.66 324.232 559.527C324.447 559.394 324.622 559.204 324.736 558.977C324.85 558.751 324.899 558.498 324.877 558.245C324.856 557.993 324.765 557.751 324.614 557.547C323.77 556.505 322.687 555.683 321.456 555.149C320.226 554.616 318.886 554.387 317.548 554.482C317.191 554.518 316.863 554.692 316.633 554.967C316.403 555.242 316.29 555.596 316.318 555.954C316.346 556.311 316.513 556.643 316.782 556.88C317.052 557.116 317.403 557.237 317.761 557.217C318.638 557.154 319.518 557.3 320.327 557.643C321.137 557.987 321.853 558.518 322.417 559.192C322.546 559.36 322.713 559.496 322.903 559.589C323.093 559.683 323.302 559.731 323.514 559.731Z" fill="white"/>
<path d="M316.741 570.68C320.378 569.255 344.187 553.797 348.247 548.412C349.45 546.788 350.071 544.805 350.008 542.784C350.008 542.784 352.695 545.884 353.154 547.172C353.51 547.918 353.689 548.736 353.677 549.563C353.665 550.389 353.463 551.202 353.087 551.938C350.265 557.072 343.545 559.32 340.93 561.085C337.776 563.214 330.889 568.628 319.356 575.73C318.127 574.257 317.235 572.534 316.741 570.68Z" fill="white"/>
<path d="M318.051 573.896C329.582 566.796 336.661 561.328 339.816 559.196C342.43 557.432 349.15 555.184 351.972 550.049C352.345 549.328 352.547 548.53 352.564 547.718C352.58 546.906 352.41 546.101 352.067 545.365C352.5 545.919 352.865 546.524 353.154 547.165C353.51 547.911 353.689 548.729 353.677 549.556C353.666 550.383 353.464 551.195 353.087 551.931C350.265 557.065 343.545 559.313 340.931 561.077C337.777 563.206 330.889 568.62 319.357 575.723C318.846 575.172 318.407 574.558 318.051 573.896Z" fill="#F75F4B"/>
<path d="M319.083 564.931C319.318 564.931 319.55 564.871 319.755 564.756C319.96 564.64 320.132 564.474 320.254 564.274C320.377 564.073 320.446 563.844 320.454 563.609C320.463 563.374 320.411 563.14 320.303 562.931C319.604 561.704 318.596 560.681 317.378 559.964C316.161 559.247 314.777 558.862 313.365 558.846H313.236C313.056 558.849 312.877 558.888 312.712 558.96C312.546 559.032 312.397 559.137 312.272 559.267C312.146 559.397 312.048 559.55 311.982 559.718C311.916 559.886 311.884 560.066 311.888 560.246C311.904 560.606 312.058 560.946 312.317 561.197C312.576 561.447 312.922 561.589 313.282 561.593H313.362C314.27 561.608 315.159 561.854 315.946 562.307C316.733 562.76 317.393 563.406 317.862 564.183C317.977 564.408 318.152 564.597 318.367 564.729C318.583 564.861 318.83 564.931 319.083 564.931Z" fill="white"/>
<path d="M314.255 568.438C314.435 568.438 314.614 568.403 314.78 568.334C314.947 568.265 315.098 568.164 315.225 568.036C315.353 567.909 315.454 567.758 315.523 567.591C315.592 567.425 315.627 567.246 315.627 567.066C315.627 565.094 314.486 561.755 311.342 560.643C310.999 560.522 310.622 560.541 310.294 560.698C309.966 560.854 309.713 561.135 309.592 561.478C309.47 561.82 309.49 562.197 309.646 562.526C309.803 562.854 310.083 563.107 310.426 563.228C312.283 563.885 312.884 566.098 312.884 567.067C312.884 567.431 313.029 567.779 313.286 568.036C313.543 568.293 313.892 568.438 314.255 568.438Z" fill="white"/>
<path d="M320.232 545.74C320.126 545.662 309.582 537.931 310.332 532.598C310.487 531.498 311.161 530.012 313.496 529.165C314.058 528.954 314.653 528.844 315.253 528.838C321.982 528.838 322.386 542.995 322.409 544.61C322.413 544.865 322.346 545.115 322.215 545.334C322.084 545.553 321.895 545.73 321.669 545.848C321.443 545.965 321.189 546.017 320.935 545.998C320.681 545.979 320.437 545.89 320.231 545.74H320.232ZM314.432 531.74C313.156 532.204 313.077 532.767 313.047 532.979C312.772 534.927 316.166 538.771 319.487 541.641C318.997 536.752 317.525 531.579 315.251 531.579C314.971 531.586 314.695 531.641 314.434 531.742L314.432 531.74Z" fill="white"/>
<path d="M320.643 545.943C320.323 545.847 320.049 545.637 319.873 545.352C319.697 545.068 319.631 544.729 319.688 544.399C320.815 537.827 324.411 534.699 327.273 534.565C327.944 534.491 328.62 534.656 329.183 535.03C329.745 535.404 330.158 535.964 330.349 536.612C330.697 537.918 330.565 541.44 321.849 545.923C321.662 546.019 321.456 546.071 321.246 546.074C321.036 546.078 320.828 546.033 320.638 545.943H320.643ZM326.682 537.482C325.482 537.982 324.056 539.429 323.11 542.067C327.292 539.46 327.81 537.619 327.726 537.353C327.64 537.315 327.546 537.299 327.452 537.305C327.186 537.314 326.925 537.374 326.682 537.482Z" fill="white"/>
<path d="M186.772 231.109C186.981 231.109 187.186 231.056 187.368 230.953C187.55 230.851 187.702 230.703 187.81 230.525C208.524 196.425 207.41 136.561 201.392 120.425C201.34 120.271 201.257 120.13 201.149 120.008C201.041 119.887 200.91 119.789 200.763 119.719C200.617 119.65 200.457 119.61 200.295 119.603C200.133 119.596 199.971 119.622 199.819 119.678C199.667 119.735 199.527 119.822 199.409 119.933C199.291 120.045 199.197 120.179 199.132 120.328C199.066 120.476 199.031 120.637 199.029 120.799C199.027 120.961 199.057 121.123 199.118 121.273C204.846 136.635 205.729 196.349 185.735 229.267C185.623 229.451 185.563 229.661 185.559 229.877C185.555 230.092 185.609 230.304 185.715 230.492C185.82 230.68 185.974 230.836 186.16 230.944C186.346 231.053 186.557 231.11 186.772 231.11V231.109Z" fill="#F75F4B"/>
<path d="M176.082 247.649C176.411 247.511 176.713 247.316 176.974 247.073C186.371 238.346 182.94 208.989 182.158 203.192C182.05 202.394 181.63 201.672 180.99 201.184C180.349 200.696 179.541 200.482 178.744 200.59C177.946 200.698 177.224 201.118 176.736 201.759C176.248 202.399 176.034 203.207 176.142 204.005C177.858 216.704 178.396 237.47 172.843 242.625C172.321 243.11 171.986 243.764 171.897 244.471C171.809 245.179 171.972 245.894 172.358 246.494C172.744 247.093 173.329 247.537 174.01 247.748C174.691 247.959 175.425 247.924 176.082 247.648L176.082 247.649Z" fill="#F75F4B"/>
<path fill-rule="evenodd" clip-rule="evenodd" d="M266.623 323.124C267.107 323.796 266.955 324.733 266.282 325.217C253.994 334.065 247.024 342.459 240.778 356.606C231.441 377.754 232.056 402.302 233.987 416.802C235.909 431.243 242.049 457.381 259.723 489.782C261.86 493.7 264.634 498.476 267.613 503.602C269.624 507.065 271.729 510.688 273.793 514.315C278.876 523.247 283.716 532.206 286.096 538.552C288.672 545.424 291.655 556.421 287.934 567.122C283.646 579.454 272.108 584.452 259.657 586.44C250.032 587.976 239.475 587.77 230.649 587.598C228.063 587.548 225.627 587.5 223.406 587.5C222.578 587.5 221.906 586.828 221.906 586C221.906 585.172 222.578 584.5 223.406 584.5C225.737 584.5 228.252 584.549 230.891 584.6C239.685 584.77 249.853 584.967 259.184 583.477C271.309 581.542 281.373 576.855 285.1 566.137C288.462 556.469 285.805 546.321 283.287 539.606C281.003 533.518 276.286 524.76 271.186 515.799C269.155 512.231 267.064 508.631 265.055 505.173C262.055 500.008 259.24 495.161 257.089 491.218C239.23 458.478 232.982 431.985 231.013 417.198C229.052 402.47 228.372 377.277 238.034 355.394C244.501 340.746 251.818 331.935 264.53 322.783C265.202 322.299 266.139 322.451 266.623 323.124Z" fill="#FF826A"/>
<path d="M310.144 374.646C311.802 374.638 313.435 374.248 314.917 373.506C317.799 372.101 320.997 369.032 319.867 362.4C317.341 347.576 294.31 324.156 283.7 322.916C283.339 322.874 282.976 322.977 282.69 323.202C282.405 323.428 282.221 323.757 282.179 324.118C282.136 324.48 282.239 324.843 282.465 325.128C282.69 325.414 283.02 325.598 283.381 325.64C292.781 326.74 314.894 349.54 317.163 362.86C317.851 366.897 316.722 369.573 313.714 371.041C310.893 372.417 307.986 372.141 304.825 370.197C292.464 362.597 282.28 333.465 282.149 324.407C282.144 324.047 281.997 323.703 281.741 323.45C281.484 323.197 281.138 323.055 280.778 323.055H280.757C280.393 323.06 280.047 323.21 279.793 323.471C279.54 323.732 279.401 324.083 279.406 324.447C279.547 334.203 290.063 364.341 303.389 372.534C305.399 373.855 307.739 374.587 310.144 374.646Z" fill="#FF826A"/>
<path d="M316.977 353.561C318.661 353.61 320.332 353.239 321.837 352.481C323.342 351.722 324.634 350.6 325.596 349.217C328.18 345.677 328.209 341.248 325.681 336.411C319.322 324.243 297.208 310.735 284.181 311.004C283.818 311.012 283.473 311.164 283.222 311.427C282.97 311.689 282.833 312.041 282.841 312.404C282.866 312.762 283.023 313.097 283.282 313.345C283.541 313.593 283.883 313.736 284.241 313.745C295.176 313.502 316.891 325.511 323.251 337.68C325.291 341.58 325.335 344.921 323.381 347.6C322.636 348.682 321.618 349.548 320.432 350.111C319.245 350.675 317.931 350.916 316.622 350.81C306.469 350.482 291.21 336.057 284.739 325.861C284.644 325.706 284.519 325.571 284.371 325.465C284.223 325.359 284.056 325.283 283.879 325.242C283.702 325.201 283.518 325.195 283.338 325.226C283.159 325.257 282.988 325.323 282.834 325.42C282.68 325.518 282.548 325.645 282.444 325.794C282.34 325.944 282.266 326.112 282.228 326.29C282.19 326.468 282.187 326.652 282.221 326.831C282.254 327.009 282.323 327.18 282.423 327.332C289.244 338.082 304.894 353.176 316.533 353.553C316.681 353.56 316.829 353.561 316.977 353.561Z" fill="#FF826A"/>
<path d="M249.792 312.595C258.426 312.07 262.5 308.115 266.076 306.095C269.653 304.075 280.527 301.26 284.718 294.348L296.114 297.382C296.114 297.382 290.68 324.241 284.891 326.447C283.193 327.094 280.749 326.557 278.148 326.949C277.137 327.099 276.307 328.679 274.932 328.554C273.134 328.393 272.815 326.993 271.389 326.941C268.876 326.851 267.906 329.449 265.306 328.571C262.817 327.73 265.504 314.148 265.504 314.148C265.504 314.148 255.579 317.772 252.326 316.731C250.257 316.069 249.792 312.595 249.792 312.595Z" fill="#FFBA94"/>
<path d="M264.714 320.908C264.941 320.981 265.183 320.994 265.416 320.945C265.65 320.897 265.866 320.788 266.045 320.63C272.261 315.133 279.941 314.856 284.797 317.017C287.038 318.016 288.437 319.49 288.448 320.867C288.473 321.215 288.63 321.54 288.887 321.777C289.143 322.013 289.48 322.143 289.829 322.14C290.178 322.137 290.512 322.001 290.765 321.76C291.017 321.519 291.168 321.191 291.187 320.842C291.166 318.34 289.192 315.973 285.909 314.51C280.249 311.992 271.353 312.269 264.221 318.577C263.949 318.818 263.784 319.157 263.761 319.52C263.739 319.883 263.862 320.24 264.103 320.512C264.267 320.698 264.478 320.834 264.714 320.908Z" fill="#FF826A"/>
<path d="M265.185 320.511C265.442 320.594 265.718 320.598 265.978 320.525C266.238 320.451 266.47 320.303 266.646 320.098C277.832 307.055 289.718 306.962 292.571 309.112C292.862 309.323 293.223 309.411 293.578 309.358C293.932 309.305 294.252 309.116 294.469 308.83C294.686 308.544 294.782 308.185 294.737 307.829C294.692 307.473 294.509 307.149 294.229 306.926C289.902 303.647 276.285 304.646 264.564 318.313C264.417 318.485 264.315 318.69 264.267 318.91C264.219 319.131 264.226 319.36 264.288 319.577C264.349 319.795 264.464 319.993 264.621 320.156C264.777 320.318 264.972 320.439 265.187 320.508L265.185 320.511Z" fill="#FF826A"/>
<path opacity="0.523" d="M176.328 590.189C172.802 590.642 171.906 593.5 171.906 593.5C188.906 605.5 212.499 597.171 212.499 597.171C212.499 597.171 232.268 595.605 231.377 591.475C230.486 587.345 228.415 588.468 226.311 587.345C223.169 585.667 217.876 586.02 217.876 586.02C216.05 585.338 186.978 586.823 182.106 586.02C180.504 585.756 178.791 589.872 176.328 590.189Z" fill="url(#paint1_linear)"/>
<path d="M223.801 584.129C224.378 585.837 224.378 585.837 224.956 587.545C213.644 585.318 185.579 586.477 178.374 595.251L178.383 587.489C184.709 581.513 211.704 582.849 223.801 584.129Z" fill="#049599"/>
<path d="M178.192 595.348C178.31 592.975 178.446 589.739 178.35 587.614C189.495 590.565 217.712 589.372 223.704 584.103L225.332 587.605C218.635 593.161 190.181 597.405 178.192 595.348Z" fill="#01B0BB"/>
<defs>
<linearGradient id="paint0_linear" x1="0" y1="577.399" x2="711.239" y2="577.399" gradientUnits="userSpaceOnUse">
<stop stop-color="#ECEDF2"/>
<stop offset="1" stop-color="#ECEDF2"/>
</linearGradient>
<linearGradient id="paint1_linear" x1="231.406" y1="592" x2="130.512" y2="592" gradientUnits="userSpaceOnUse">
<stop stop-color="#ECEDF2"/>
<stop offset="1" stop-color="#ECEDF2"/>
</linearGradient>
</defs>
</svg>
