<?xml version="1.0" encoding="utf-8"?>
<!-- Generator: Adobe Illustrator 19.0.0, SVG Export Plug-In . SVG Version: 6.00 Build 0)  -->
<svg version="1.1" id="Layer_1" xmlns="http://www.w3.org/2000/svg" xmlns:xlink="http://www.w3.org/1999/xlink" x="0px" y="0px"
	 width="512px" height="512px" viewBox="-49 141 512 512" style="enable-background:new -49 141 512 512;" xml:space="preserve">
<style type="text/css">
	.st0{fill:none;stroke:#4F5456;stroke-width:14;stroke-linecap:round;stroke-linejoin:round;stroke-miterlimit:10;}
</style>
<g>
	<path class="st0" d="M205.2179413,159c0,36.6911926,0,73.3823395,0,110.0735168
		c13.3336029-4.2547913,35.5423737-9.4585571,62.6605072-6.7386475c14.7809753,1.4825134,61.6739197,6.185791,94.5404358,46.1708984
		c32.8652039,39.983551,28.569458,87.0995789,27.482666,96.7390442
		c11.0780945,6.0316162,22.9441528,13.2757568,35.1778259,21.986145
		c6.7035217,4.7729187,12.9273376,9.5658875,18.6882324,14.2909851
		c1.7919922,49.6983948-15.0865479,80.0195618-24.1847534,93.4411316
		c-44.3360596,65.4039307-148.1678772,89.8187256-255.0392761,52.7667236
		C157.9477386,603.4865112,151.3518982,619.2432861,144.7560577,635
		c-15.8802795-6.4394531-136.2022705-57.4588013-167.094696-179.1870728
		c-4.0721054-16.0456848-16.9095554-69.6151428,4.3972282-131.9168396
		c23.8703098-69.7975616,75.355751-105.9942474,95.6397247-119.8244934
		C128.4253693,169.4842834,178.8945618,161.2979889,205.2179413,159z"/>
	<path class="st0" d="M-28.9344769,421.7344055c21.1384144-6.428772,43.1326256-12.6904297,65.9584274-18.6882019
		c23.3649254-6.1394653,46.1084175-11.6101685,68.1570435-16.489624
		c-19.390625,8.6957703-46.7553558,23.7654724-73.6535797,49.468811
		c-19.1390839,18.2889099-32.5683517,36.7310181-41.773674,51.66745"/>
	<path class="st0" d="M22.7329597,545.9561157c9.3804779-7.925354,22.1458588-17.1760864,38.47575-25.2840576
		c21.2574768-10.5545959,40.7728653-15.3086853,54.9653625-17.5889282
		c-9.6917419,6.2098083-31.1107864,21.892334-42.8729858,50.5681152
		c-5.3689651,13.0893555-7.1732712,25.100708-7.6951447,34.0785522"/>
	<circle class="st0" cx="303.9362793" cy="398.429657" r="17.3695984"/>
	<path class="st0" d="M417.79422,422.185791l-1.6647644,14.6907349
		c-1.9665833,17.354248,4.7572937,34.5610352,17.9690857,45.9840393l5.5889893,4.8322754"/>
	<path class="st0" d="M152.4512024,231.5542755c0,16.4896088,0,32.9792023,0,49.4688263c-25.6504898,0-51.3010025,0-76.9514999,0
		c3.7821884-7.5163574,11.355629-20.0177307,25.2840652-30.7806091
		C121.6682358,234.1045074,143.8162537,231.9391785,152.4512024,231.5542755z"/>
</g>
</svg>
