<?xml version="1.0" encoding="utf-8"?>
<!-- Generator: Adobe Illustrator 19.0.0, SVG Export Plug-In . SVG Version: 6.00 Build 0)  -->
<svg version="1.1" id="Layer_1" xmlns="http://www.w3.org/2000/svg" xmlns:xlink="http://www.w3.org/1999/xlink" x="0px" y="0px"
	 width="512px" height="512px" viewBox="-49 141 512 512" style="enable-background:new -49 141 512 512;" xml:space="preserve">
<style type="text/css">
	.st0{fill:none;stroke:#4F5456;stroke-width:14;stroke-linecap:round;stroke-linejoin:round;stroke-miterlimit:10;}
</style>
<g>
	<path class="st0" d="M100.7970505,433.0757141c15.8425903-9.5849609,19.0474167-17.8357849,30.0706558-27.3855286
		c14.4582672-12.5255737,43.8781433-28.5950317,67.9898071-19.3930359
		c21.3127441,8.1337891,30.2798157,32.883728,35.1819763,46.4140625c6.0589752,16.7233276,2.793869,21.0270691,7.3460999,40.6333618
		c8.5051117,36.6312561,23.2805176,39.151825,29.5513611,66.1532898
		c5.8294067,25.1005249,2.9986572,65.8475342-24.6590881,84.9918213
		c-17.5932617,12.1777954-41.6192169,13.1136475-59.2406464,6.1912231
		c-18.2563171-7.171875-16.0003357-17.4207153-37.8961792-31.0755005
		c-19.9614258-12.4484253-39.974144-15.2415161-64.0456314-18.6011353
		c-36.3576012-5.0744019-43.5642891,1.3139038-55.7468109-7.5131226
		c-18.3659134-13.307251-22.5707397-42.7406616-18.2611084-63.5140991
		c6.7676058-32.6214905,37.1465073-56.4918213,61.1461105-65.2817078
		C80.9703979,441.4954834,88.8728714,440.2900391,100.7970505,433.0757141z"/>
	
		<ellipse transform="matrix(0.6232139 -0.7820514 0.7820514 0.6232139 -110.5738678 364.6567688)" class="st0" cx="323.151062" cy="297.0811157" rx="66.924263" ry="47.7485237"/>
	
		<ellipse transform="matrix(-0.0438517 -0.999038 0.999038 -0.0438517 -51.5172729 420.4251709)" class="st0" cx="175.429306" cy="234.865387" rx="75.9016724" ry="53.3030128"/>
	
		<ellipse transform="matrix(0.0611586 -0.9981281 0.9981281 0.0611586 -275.7051392 330.8553772)" class="st0" cx="38.0216713" cy="311.9854736" rx="60.5478096" ry="42.5205421"/>
	
		<ellipse transform="matrix(0.6334029 -0.7738222 0.7738222 0.6334029 -200.2167053 447.0164185)" class="st0" cx="371.6782532" cy="434.8193665" rx="56.2011299" ry="39.4680328"/>
</g>
</svg>
