<?xml version="1.0" encoding="utf-8"?>
<!-- Generator: Adobe Illustrator 19.0.0, SVG Export Plug-In . SVG Version: 6.00 Build 0)  -->
<svg version="1.1" id="Layer_1" xmlns="http://www.w3.org/2000/svg" xmlns:xlink="http://www.w3.org/1999/xlink" x="0px" y="0px"
	 width="512px" height="512px" viewBox="-49 141 512 512" style="enable-background:new -49 141 512 512;" xml:space="preserve">
<style type="text/css">
	.st0{fill:none;stroke:#4F5456;stroke-width:14;stroke-linecap:round;stroke-linejoin:round;stroke-miterlimit:10;}
</style>
<g>
	<path class="st0" d="M149.1093903,545.6536865c56.0348053,6.6755371,130.9242096,11.0082397,204.0652313,0
		c24.5222778-3.6907349,49.4347229-9.3551636,66.4700317-29.4534302
		c14.2024536-16.7560425,16.8734131-35.7496948,21.8173523-70.9064026
		c2.8409119-20.2020569,3.604126-38.0014038,3.5335999-52.3041077c-0.0328979-6.6738892-5.4595337-12.0570984-12.1334839-12.0570984
		H301.8267517v-71.1955566c0-26.1826477-7.4021301-51.9517517-21.9727173-73.7055511
		c-4.9649353-7.4126129-11.0127563-14.8806458-18.3852539-22.0016937
		c-36.9183807-35.6594086-81.8369904-38.2614441-99.2689819-39.2712402
		c-21.6256104-1.2527313-63.8048553-3.6960602-100.359848,26.1808319
		c-36.8206558,30.0940399-43.3682022,72.9010162-44.7255859,83.9968414
		c6.1406097-6.3180542,19.349947-17.9263611,37.0895081-18.5447693
		c27.3592072-0.9537354,46.4164352,24.8981323,57.8160019,40.3621216
		c11.5704651,15.6958008,16.4873123,31.3234558,30.5443039,126.5406799
		c7.7928772,52.7862244,7.9130859,60.1077576,7.6360779,67.6338196
		c-1.3410034,36.4332581-2.891449,78.5569153-34.9077759,102.5415955
		c-32.2511673,24.1605835-83.2084808,20.7695313-113.4502716-4.3634644
		c-16.6355591-13.8253174-23.0809898-30.9703369-27.2716999-42.5438843
		c-13.1109772-36.2088013,0.0390968-50.8756714,7.636076-135.2676086
		c3.929595-43.6523743,2.3815422-61.6156616,14.181284-92.7237854
		c7.0385504-18.5559692,15.4635153-32.9233093,21.8173599-42.5438538"/>
	<path class="st0" d="M392.3729553,380.9326477v9.5779419c0,19.7489929,16.0097351,35.7587585,35.7587585,35.7587585h15.4951477"/>
	<circle class="st0" cx="223.833847" cy="346.5703125" r="11.454114"/>
</g>
</svg>
