<?xml version="1.0" encoding="utf-8"?>
<!-- Generator: Adobe Illustrator 19.0.0, SVG Export Plug-In . SVG Version: 6.00 Build 0)  -->
<svg version="1.1" id="Layer_1" xmlns="http://www.w3.org/2000/svg" xmlns:xlink="http://www.w3.org/1999/xlink" x="0px" y="0px"
	 width="512px" height="512px" viewBox="-49 141 512 512" style="enable-background:new -49 141 512 512;" xml:space="preserve">
<style type="text/css">
	.st0{fill:none;stroke:#4F5456;stroke-width:14;stroke-linecap:round;stroke-linejoin:round;stroke-miterlimit:10;}
</style>
<g id="XMLID_7_">
	<path id="XMLID_6_" class="st0" d="M444.8861389,355.9127502L244.7615662,218.1723785
		c-22.741394-15.6522827-52.781723-15.6522827-75.5231171,0l-200.124588,137.7403717"/>
	<path id="XMLID_5_" class="st0" d="M38.8643341,307.8300781v227.607666c0,28.7901001,23.3389893,52.1290894,52.1290894,52.1290894
		h232.0131378c28.7901306,0,52.1291199-23.3389893,52.1291199-52.1290894v-227.607666"/>
	<path id="XMLID_4_" class="st0" d="M304.8912048,587.5668335v-87.3143311
		c0-27.3225708-22.1493225-49.4718933-49.4718933-49.4718933s-49.4719086,22.1493225-49.4719086,49.4718933v87.3143311"/>
	<path id="XMLID_3_" class="st0" d="M99.6354523,264.4206238V229.099472c0-11.0527649-8.960022-20.0128021-20.0127869-20.0128021
		s-20.0128021,8.9600372-20.0128021,20.0128021v64.5273285"/>
</g>
</svg>
