<?xml version="1.0" encoding="utf-8"?>
<!-- Generator: Adobe Illustrator 19.0.0, SVG Export Plug-In . SVG Version: 6.00 Build 0)  -->
<svg version="1.1" id="Layer_1" xmlns="http://www.w3.org/2000/svg" xmlns:xlink="http://www.w3.org/1999/xlink" x="0px" y="0px"
	 width="512px" height="512px" viewBox="-49 141 512 512" style="enable-background:new -49 141 512 512;" xml:space="preserve">
<style type="text/css">
	.st0{fill:none;stroke:#4F5456;stroke-width:14;stroke-linecap:round;stroke-linejoin:round;stroke-miterlimit:10;}
</style>
<g>
	<path class="st0" d="M8.6955233,570.0908813h396.6356812c21.6460266,0,45.2181396-20.5337524,38.5042419-44.8765259
		l-37.0917664-133.7980652c-17.188385-62.0652771-67.0109253-24.5360718-110.7248535-16.589386
		c-56.5914917,10.2861938-121.4194946,10.2861938-178.0109711,0c-42.1547012-7.6759949-91.7387009-51.8564758-110.7431717,16.589386
		l-37.0917778,133.7980652C-36.5960236,549.5958252-12.785428,570.0908813,8.6955233,570.0908813z"/>
	<path class="st0" d="M320.4290771,246.9451599c2.2926636,2.7081146,4.16745,5.7470703,5.4996338,9.037735
		c4.5379333-1.5771027,9.4524536-2.265976,14.5741272-1.8852386c5.9622803,0.4371643,11.4570923,2.2952271,16.1621704,5.1982422"/>
	<path class="st0" d="M365.979187,351.0624695c19.2626648,1.3958435,36.0397949-12.5080872,37.5273132-31.0345459
		c1.4310913-18.127655-12.333313-33.953125-30.9181213-36.0015564
		c-1.1513367-10.2944946-7.1659546-19.3272095-15.9233704-24.7304688"/>
	<path class="st0" d="M63.4071121,353.7272339c-19.2437859-1.4139709-33.6860504-17.6019592-32.2173386-36.128418
		c1.4498386-18.5446167,18.2646465-32.4303589,37.5084381-31.016449c1.1298065,0.0725403,2.1654434,0.1994324,3.2387009,0.3625488
		c0-0.7069092,0.0376816-1.4320374,0.1129837-2.1753235c1.4499054-18.5263977,18.245842-32.4303436,37.5084381-31.0344849
		c10.5822525,0.7975769,19.6957397,6.0183411,25.5328979,13.6500854c6.1572418-4.1512146,13.7267761-6.4353027,21.7858124-6.0727539
		c-0.2447815-2.0484314-0.3012848-4.1512146-0.1129913-6.2721863c1.4687195-18.5446014,18.2646484-32.4303589,37.5084381-31.0345001
		c13.0112305,0.9425964,23.8005981,8.6287537,28.9975128,19.1971741c6.1573181-3.7705536,13.6137848-5.7283173,21.4469147-5.1664124
		c8.3038177,0.5982208,15.7414856,3.9880981,21.3714905,9.0819702c6.96698-8.3749695,17.9634399-13.3600769,29.920166-12.4718323
		c9.9386597,0.7159729,18.5795593,5.3990479,24.4205017,12.2985077"/>
	<path class="st0" d="M300.1304626,264.7689819c3.8517761-8.9042206,11.4627075-15.18013,20.2986145-17.823822"/>
	<path class="st0" d="M320.4290771,246.9451599c6.9599915-2.0823975,14.6796265-1.9122925,21.923584,1.0101013
		c6.0428772,2.4351959,10.9068909,6.4509125,14.3123474,11.3406372"/>
	<path class="st0" d="M359.7361755,288.8181458c4.3237915-10.0626221,2.798584-21.0942993-3.071167-29.5222473"/>
	<path class="st0" d="M175.9565125,297.9496765c-2.9133301-20.1342163-19.0662537-33.6794434-36.0982971-30.2319336
		c-17.014801,3.4475098-28.4614487,22.6025696-25.5308228,42.7367554"/>
</g>
</svg>
