<?xml version="1.0" encoding="utf-8"?>
<!-- Generator: Adobe Illustrator 19.0.0, SVG Export Plug-In . SVG Version: 6.00 Build 0)  -->
<svg version="1.1" id="Layer_1" xmlns="http://www.w3.org/2000/svg" xmlns:xlink="http://www.w3.org/1999/xlink" x="0px" y="0px"
	 width="512px" height="512px" viewBox="-49 141 512 512" style="enable-background:new -49 141 512 512;" xml:space="preserve">
<style type="text/css">
	.st0{fill:none;stroke:#4F5456;stroke-width:14;stroke-linecap:round;stroke-linejoin:round;stroke-miterlimit:10;}
</style>
<g>
	<path class="st0" d="M236.3407593,394.625061C172.3308716,330.6151123,164.0075989,232.0189056,211.3467407,159
		c-32.1450195,7.9693909-62.6010437,24.5098419-87.7259903,49.6348572c-73.5932236,73.5931396-73.5932236,192.9113159,0,266.5044556
		c73.5931473,73.5932312,192.9113159,73.5932312,266.5045471,0c9.583252-9.583252,17.9065857-19.9473267,24.9940186-30.8794556
		C353.1088562,459.6336365,284.80896,443.0932617,236.3407593,394.625061z"/>
	<path class="st0" d="M-1.1193125,625.3605347c15.6806965-9.9592896,52.2707596-39.4940796,102.98806-40.8376465
		c58.7512512-1.5563354,100.9786987,32.4822388,116.2103729,42.4520264"/>
	<path class="st0" d="M211.9772339,601.8325806l7.074173,25.8659058L211.9772339,601.8325806z"/>
	<polyline class="st0" points="192.3543243,635 219.0514069,627.6984863 192.3543243,635 	"/>
</g>
</svg>
