<?xml version="1.0" encoding="utf-8"?>
<!-- Generator: Adobe Illustrator 19.0.0, SVG Export Plug-In . SVG Version: 6.00 Build 0)  -->
<svg version="1.1" id="Layer_1" xmlns="http://www.w3.org/2000/svg" xmlns:xlink="http://www.w3.org/1999/xlink" x="0px" y="0px"
	 width="512px" height="512px" viewBox="-49 141 512 512" style="enable-background:new -49 141 512 512;" xml:space="preserve">
<style type="text/css">
	.st0{fill:none;stroke:#4F5456;stroke-width:14;stroke-linecap:round;stroke-linejoin:round;stroke-miterlimit:10;}
</style>
<g>
	<path class="st0" d="M226.9818115,435.7677612c-5.8684387,5.8071594-8.5810852,5.34552-10.2687073-2.3895264
		c-1.6059265-7.3606567-2.8262482-14.8714905-3.3815765-22.3779907
		c-0.6491852-8.7749939,4.6564941-13.3710938,13.4052734-12.3101807c4.3095245,0.522583,9.6839294,3.3565979,12.5597382,1.6817627
		c3.2805786-1.9104614,0.1361389-8.1061401,1.6234894-12.2754822c0.6610718-1.8530884,0.5066528-4.18396,1.586319-5.6705627
		c7.1542969-9.8510132,3.6921844-20.1515808,1.4307404-30.3191223c-1.1268311-5.0662842-5.1697693-7.6155701-9.773941-9.6426697
		c-8.9857788-3.9560547-16.7217102-9.2104492-18.8323059-19.87854c-1.4499664-7.3291931,1.6478271-11.2188416,8.8694611-9.5488281
		c8.0794678,1.8683777,15.8013306,2.7921753,23.99646,0.2271423c4.4917908-1.4058533,9.4692535-0.3018799,13.9730682,1.7121277
		c2.6648865,1.1916809,5.2407532,1.7125854,8.4218445,1.5747681c5.983429-0.2591858,8.4026794,5.5587463,8.3769531,9.763031
		c-0.0562744,9.2011414,3.8485718,16.9655151,6.9029236,25.0107117
		c6.7575684,17.7996216,11.7055054,36.3665771,20.7245789,53.2183228
		c13.9552002,26.0745239,34.4917297,46.578949,57.5977783,64.4865112
		c11.1002197,8.6028748,28.9185791,6.002594,37.6313477-4.0068665c2.24646-2.5809937,2.3142395-4.4786377,0.4032288-7.2754822
		c-4.280365-6.2648621-10.0193176-10.659668-16.8648071-14.0585938
		c15.8412476-5.6034241,37.1801758,10.6776428,35.3347778,26.7775574
		c-0.6023254,5.2549744-4.6567993,8.2103577-8.7299194,10.7354126c-9.2272034,5.7204285-19.7241516,7.0945435-30.2319641,8.0661316
		c-4.7371826,0.4379883-9.5475159,0.3161621-14.3129578,0.1378784c-3.3866272-0.126709-5.1646729,0.2607727-5.7848511,4.4816895
		c-1.9747009,13.4391479-5.9188232,26.2036133-13.2948914,37.9518433
		c-3.9723206,6.3270874-1.647522,13.7719116,2.5527649,19.0593262c6.1125793,7.6946411,5.214447,14.5512085,1.1467896,22.4679565
		c-2.8901672,5.6248779-4.8356323,11.7485962-7.0345459,17.711853c-2.8796082,7.8093872-8.9065552,11.2683716-16.6516724,12.6486816
		c-2.87677,0.5126953-4.4595032-1.0057983-5.9115906-3.0424805c-1.6645203-2.3346558,0.3112793-3.6556396,1.4637451-5.1372681
		c3.2453003-4.171875,9.2102966-5.7858276,10.8348999-11.4956665c0.2307129-2.9917603,1.3491821-5.6906128,2.5527954-7.8487549
		c-0.6338806,1.8670654-1.6990356,4.0022583-4.027832,5.1943359c-3.7109985,5.6373901-9.8742371,7.0287476-15.7071228,8.7818604
		c-2.911499,0.8751831-6.4062805,0.7639771-7.6430054-2.6860962c-1.0898743-3.0404663,1.7692566-4.6675415,3.9830322-5.8504639
		c6.3257751-3.380249,11.3115845-8.0239868,14.6856079-14.3692627c2.2398682-4.2122803,3.2556458-8.7102051,1.3971863-13.1907959
		c-2.7391663-6.6039429-5.6147461-13.3164063-10.7609253-18.4243774c-9.9851379-9.9107666-11.226532-22.2717896-8.9804382-34.836731
		c1.3340759-7.4629822-0.6202698-12.8043823-5.0839844-17.9403381c-2.7372131-3.1493835-5.7192688-6.1586609-9.5442505-8.0044861
		c-8.8929138-4.291626-15.8302612-11.2498474-23.6661072-16.9883423
		c-9.1353149-6.6903381-16.4842529-14.8153992-22.1724091-24.541748c-0.6955414-1.1893921-1.5760345-2.3094788-2.5455933-3.2885742
		c-0.9479218-0.9571838-2.260437-0.8134155-3.3500366-0.2585144c-1.7034302,0.8676453-0.3753815,1.9919739-0.0423431,2.9634094
		c1.3500519,3.938446,2.88974,7.8181763,4.0732727,11.8045349c0.5535736,1.8648987,0.6060333,3.9222107,0.6184998,5.8940125
		c0.0197601,3.1227722-1.5323944,5.536499-4.5522003,6.2082825c-3.1117249,0.6922913-4.6515503-1.719574-5.6528015-4.2150269
		c-2.0699463-5.1585999-3.968689-10.3857117-6.0181427-15.5527954c-0.800705-2.0185852-1.8175507-3.951416-2.7358856-5.9232483
		c-1.7492065-1.6690369-1.8136292-3.7905579-1.7248535-5.3747864
		C227.9775391,428.6158752,228.5107117,432.2857971,226.9818115,435.7677612z"/>
	<path class="st0" d="M82.8681717,425.9114075c0.4994965,0.1192322,0.9990005,0.2384949,1.498497,0.3577576
		c0.401413,5.8812256,0.7817917,11.7640381,1.2079086,17.6435242c1.7253723,23.8053894,3.2235107,47.6311035,5.3177109,71.4042053
		c0.8380127,9.5132446-2.9869843,17.8947754-4.8780823,26.715332
		c-5.5354996,25.8197021-11.4249344,51.5679932-17.5438232,77.2565918
		c-3.3494797,14.0617676-19.6632118,20.1727905-31.1679878,12.118042c-1.6205711-1.1345215-3.2077332-1.9753418-2.170723-4.6970825"
		/>
	<path class="st0" d="M88.315712,199.8567047c-0.0072174,22.6533203-18.3877106,41.2080994-40.8219337,41.2090149
		c-22.3617115,0.0009155-41.0226021-18.8903503-40.7897606-41.293335
		c0.2374344-22.8478394,18.4639034-40.8996124,41.1662788-40.7717133
		C70.156395,159.1262207,88.3228531,177.4770966,88.315712,199.8567047z"/>
	<path class="st0" d="M84.2726212,280.5383606c25.684227,9.305603,48.3818283-0.0149231,71.0393906-9.4345703
		c4.0252228-1.6734924,7.821701-3.8944702,11.8371582-5.5949402c6.9649658-2.9494934,15.2343445-0.0281677,18.4806671,6.332489
		c3.5892181,7.0324097,1.5214691,15.3017883-5.7514801,18.9496765
		c-26.5028534,13.2928467-53.8213425,23.5629272-84.3478317,20.8465271
		c-11.0788422-0.9858093-11.1040955-0.8052063-11.2409592-11.5537109c-0.0404816-3.1777954-0.0146866-6.3565369-0.0165787-9.5348206
		C84.2710953,287.3898621,84.2726212,284.2306824,84.2726212,280.5383606z"/>
	<path class="st0" d="M262.6502991,238.7232971c2.2059937-0.1350098,3.8241577,0.1698456,4.148407,2.1394196
		c0.5070801,3.0804596-1.1702881,4.8867493-3.9754028,5.7179565c-8.1731873,2.4218597-16.3503113,4.8314362-24.5460205,7.1756897
		c-9.3382111,2.6710968-18.6990814,5.2624359-28.0467529,7.9006805c-0.9508362,0.2683411-1.8626099,0.8241882-2.819046,0.8966675
		c-3.2006226,0.2424316-4.7166138-2.5646973-5.5497589-4.5592957c-0.892807-2.1378479,2.0807953-2.170639,3.6100616-2.6256561
		c17.4732056-5.1993561,34.9595337-10.3545074,52.4494171-15.497345
		C259.6297607,239.3690338,261.385437,239.0270844,262.6502991,238.7232971z"/>
	<path class="st0" d="M85.290863,363.9087524c20.3267975,13.8998108,43.5489349,22.153595,70.4776764,23.0765991
		c3.9732056,0,7.9677582,0.2608337,11.914505-0.0620117c5.7043152-0.4667969,10.6827087-4.9646301,11.7677155-10.2233887
		c1.2607727-6.1101685-0.8437042-10.8893127-5.8714447-14.4888c-3.1160126-2.2309265-6.6440735-2.4277649-10.2679749-2.2137451
		c-12.0544128,0.7120361-23.8085022-1.0048828-35.2296906-4.7585144
		c-16.7133179-5.4928894-30.6641464-14.88797-42.853096-26.7328491"/>
	<path class="st0" d="M52.5328789,334.172821c-8.6047707-9.9554749-15.7218971-20.9570313-21.5154972-32.7915039
		c-3.9062233-7.9790344-1.8537788-15.1369629,5.5126591-19.255127c6.4452705-3.6029663,14.7614441-1.143158,18.8473854,6.1254883
		c5.561924,9.8942566,11.3995438,19.5653076,18.7293243,28.2696228c3.5486145,4.2141113,7.24823,8.2204895,11.1218033,11.9847412
		l-0.0206223-11.7068787c0-11.4970398,0.2195053-21.3773804-0.0450363-31.244751
		c-0.5768967-21.5117188-18.7354507-39.5995636-40.2653732-40.3843842
		c-24.519352-0.8938293-44.2172165,18.4640656-44.3040848,43.8795929
		c-0.1278996,37.4017944-0.027329,74.8043823-0.0437264,112.2066345c-0.0042998,9.849884,2.7135139,18.8776245,8.456974,26.8471985
		c1.9666672,2.7289734,2.8915539,5.4969788,3.1012211,8.7738342c1.6634254,25.9962158,3.3824549,51.9889221,5.1514053,77.978241
		c0.2885227,4.2398071-0.3034611,8.3230591-1.4009199,12.3768311
		c-7.2638273,26.8302612-14.4895401,53.6709595-21.8197594,80.4830322
		c-1.8744774,6.8562622-0.6259432,13.0422363,3.5518944,18.5932617c4.9325552,6.553833,11.6189756,9.7611084,19.7969742,8.3607178
		c8.7183132-1.492981,14.9560299-6.4816895,17.3456745-15.2321777c6.9551201-25.46875,13.601532-51.0223389,20.6356468-76.468811
		c3.0791397-11.138916,5.5174713-22.0500488,4.243576-33.9118042c-2.1220436-19.7596436-2.9207039-39.6598206-4.3939209-59.4920654
		c-0.2520828-3.3933105,0.5855713-5.1474609,4.0415573-6.6787109c16.6310387-7.3686218,25.5580711-20.2545471,25.9435234-38.6238708
		c0.1877289-8.948822-0.0827942-17.9073486,0.1110611-26.8558655l-0.0237579-13.4973145
		C73.4405746,355.8053589,62.5719452,345.7876587,52.5328789,334.172821z"/>
	<path class="st0" d="M85.2285538,328.5060425c-3.8735733-3.7642517-7.5731888-7.7706299-11.1218033-11.9847412
		c-7.3297806-8.7043152-13.1674004-18.3753662-18.7293243-28.2696228
		c-4.0859413-7.2686462-12.4021149-9.7284546-18.8473854-6.1254883c-7.3664379,4.1181641-9.4188824,11.2760925-5.5126591,19.255127
		c5.7936001,11.8344727,12.9107265,22.8360291,21.5154972,32.7915039
		c10.0390663,11.6148376,20.9076958,21.6325378,32.7579842,29.7359314"/>
</g>
</svg>
